<?xml version="1.0" encoding="UTF-8" standalone="no"?>
<!-- Created with Inkscape (http://www.inkscape.org/) -->

<svg
   version="1.1"
   id="svg2"
   width="1122.52"
   height="793.70667"
   viewBox="0 0 1122.52 793.70667"
   sodipodi:docname="山东大学校徽与英文校名标准组合（横式）.svg"
   inkscape:version="1.2.2 (b0a8486541, 2022-12-01)"
   xmlns:inkscape="http://www.inkscape.org/namespaces/inkscape"
   xmlns:sodipodi="http://sodipodi.sourceforge.net/DTD/sodipodi-0.dtd"
   xmlns="http://www.w3.org/2000/svg"
   xmlns:svg="http://www.w3.org/2000/svg">
  <defs
     id="defs6">
    <clipPath
       clipPathUnits="userSpaceOnUse"
       id="clipPath18">
      <path
         d="M 0,595.28 H 841.89 V 0 H 0 Z"
         id="path16" />
    </clipPath>
  </defs>
  <sodipodi:namedview
     id="namedview4"
     pagecolor="#ffffff"
     bordercolor="#000000"
     borderopacity="0.25"
     inkscape:showpageshadow="2"
     inkscape:pageopacity="0.0"
     inkscape:pagecheckerboard="0"
     inkscape:deskcolor="#d1d1d1"
     showgrid="false"
     inkscape:zoom="0.29733907"
     inkscape:cx="561.64836"
     inkscape:cy="398.53491"
     inkscape:window-width="2560"
     inkscape:window-height="1284"
     inkscape:window-x="0"
     inkscape:window-y="0"
     inkscape:window-maximized="1"
     inkscape:current-layer="g10">
    <inkscape:page
       x="0"
       y="0"
       id="page8"
       width="1122.52"
       height="793.70667" />
  </sodipodi:namedview>
  <g
     id="g10"
     inkscape:groupmode="layer"
     inkscape:label="Page 1"
     transform="matrix(1.3333333,0,0,-1.3333333,0,793.70667)">
    <g
       id="g12">
      <g
         id="g14"
         clip-path="url(#clipPath18)">
        <g
           id="g20"
           transform="translate(358.3916,351.2109)">
          <path
             d="m 0,0 h -1.485 c -1.004,4.096 -4.823,8.512 -11.045,8.512 -2.985,0 -6.011,-1.529 -6.011,-4.603 0,-7.4 19.851,-8.391 19.851,-18.554 0,-4.207 -4.041,-8.97 -12.552,-8.97 -4.5,0 -7.404,1.697 -9.195,1.697 -1.257,0 -1.832,-0.839 -1.832,-1.643 h -1.315 l -1.789,10.497 h 1.362 c 1.134,-2.351 4.173,-8.785 12.187,-8.785 4.748,0 7.143,2.85 7.143,5.531 0,2.813 -0.952,4.493 -9.696,8.738 -5.461,2.633 -9.252,4.804 -9.252,9.731 0,5.632 5.396,8.412 10.746,8.412 3.559,0 6.762,-1.683 8.245,-1.683 1.673,0 1.968,1.114 2.082,1.683 h 1.248 z"
             style="fill:#930f15;fill-opacity:1;fill-rule:nonzero;stroke:none"
             id="path22" />
        </g>
        <g
           id="g24"
           transform="translate(364.6973,329.2217)">
          <path
             d="m 0,0 c 4.981,0.204 5.233,1.306 5.233,5.008 v 21.45 c 0,3.665 -0.85,4.15 -5.233,4.465 v 0.93 h 16.511 v -0.93 C 11.979,30.608 11.274,29.96 11.274,26.458 v -9.621 h 18.009 v 9.621 c 0,3.665 -0.824,4.15 -5.231,4.465 v 0.93 H 40.57 v -0.93 C 36.054,30.608 35.347,29.96 35.347,26.458 V 4.471 C 35.347,1.197 35.929,0.248 40.57,0 V -0.929 H 24.052 V 0 c 4.996,0.204 5.231,1.306 5.231,5.008 v 9.671 H 11.274 V 4.471 C 11.274,1.197 11.871,0.248 16.511,0 V -0.929 L 0,-0.929 Z"
             style="fill:#930f15;fill-opacity:1;fill-rule:nonzero;stroke:none"
             id="path26" />
        </g>
        <g
           id="g28"
           transform="translate(448.4092,329.2217)">
          <path
             d="M 0,0 C -2.618,0.142 -3.442,0.717 -5.351,4.327 L -20.149,32.438 H -21.34 L -33.679,8.134 C -34.822,5.954 -36.664,2.354 -38.041,1.103 -39.093,0.142 -40.104,0.072 -41.058,0 v -0.929 h 11.771 V 0 c -1.244,0 -4.06,0 -4.06,2.091 0,0.54 0.177,1.249 0.494,1.89 l 2.728,5.794 h 15.563 l 2.437,-4.767 c 0.343,-0.681 1.129,-2.315 1.129,-3.114 0,-1.822 -1.963,-1.894 -4.15,-1.894 v -0.929 l 15.146,0 z m -29.113,11.806 6.832,13.6 6.895,-13.6 z"
             style="fill:#930f15;fill-opacity:1;fill-rule:nonzero;stroke:none"
             id="path30" />
        </g>
        <g
           id="g32"
           transform="translate(491.3584,360.1445)">
          <path
             d="M 0,0 C -3.731,-0.358 -5.642,-0.563 -5.642,-6.347 V -32.385 H -6.655 L -32.802,-5.29 h -0.112 v -19.272 c 0,-5.122 1.25,-6.219 5.59,-6.36 v -0.93 h -13.963 v 0.93 c 4.513,0.247 5.754,1.03 5.754,6.36 V -2.741 C -37.961,-0.262 -38.906,0 -41.287,0 v 0.93 h 10.164 l 22.748,-23.822 h 0.117 v 16.545 c 0,5.713 -1.666,6.085 -5.701,6.347 V 0.93 L 0,0.93 Z"
             style="fill:#930f15;fill-opacity:1;fill-rule:nonzero;stroke:none"
             id="path34" />
        </g>
        <g
           id="g36"
           transform="translate(493.2031,328.293)">
          <path
             d="m 0,0 h 16.886 c 18.162,0 22.856,9.707 22.856,16.3 0,11.087 -9.426,16.481 -23.69,16.481 L 0,32.781 V 31.852 C 4.584,31.537 5.22,31.053 5.22,27.387 V 5.399 C 5.22,1.958 4.504,1.133 0,0.93 Z m 11.302,29.004 c 0,0.997 0,1.943 2.784,1.943 7.484,0 10.814,-1.33 13.668,-3.487 4.095,-3.039 5.513,-7.065 5.513,-11.223 0,-14.392 -14.62,-14.392 -18.416,-14.392 -2.849,0 -3.549,0.325 -3.549,2.016 z"
             style="fill:#930f15;fill-opacity:1;fill-rule:nonzero;stroke:none"
             id="path38" />
        </g>
        <g
           id="g40"
           transform="translate(556.5703,327.5957)">
          <path
             d="M 0,0 C 10.787,0 19.447,6.495 19.447,17.05 19.447,28.448 9.757,34.179 0,34.179 -9.709,34.179 -19.396,28.448 -19.396,17.05 -19.396,6.495 -10.728,0 0,0 m 0,1.768 c -6.575,0 -12.623,4.433 -12.623,15.326 0,11.262 6.591,15.295 12.623,15.295 6.078,0 12.679,-4.033 12.679,-15.295 C 12.679,6.201 6.619,1.768 0,1.768"
             style="fill:#930f15;fill-opacity:1;fill-rule:nonzero;stroke:none"
             id="path42" />
        </g>
        <g
           id="g44"
           transform="translate(620.0596,360.1445)">
          <path
             d="M 0,0 C -3.748,-0.358 -5.649,-0.563 -5.649,-6.347 V -32.385 H -6.662 L -32.82,-5.29 h -0.107 v -19.272 c 0,-5.122 1.244,-6.219 5.599,-6.36 v -0.93 h -13.974 v 0.93 c 4.51,0.247 5.756,1.03 5.756,6.36 V -2.741 C -37.97,-0.262 -38.931,0 -41.302,0 v 0.93 h 10.168 l 22.763,-23.822 h 0.09 v 16.545 c 0,5.713 -1.66,6.085 -5.697,6.347 V 0.93 L 0,0.93 Z"
             style="fill:#930f15;fill-opacity:1;fill-rule:nonzero;stroke:none"
             id="path46" />
        </g>
        <g
           id="g48"
           transform="translate(663.0684,344.9258)">
          <path
             d="m 0,0 c -2.603,-0.203 -4.158,-0.279 -4.158,-3.815 v -9.942 c 0,-0.705 -7.914,-3.572 -14.439,-3.572 -5.879,0 -12.479,1.486 -16.711,5.308 -3.137,2.855 -4.922,5.781 -4.922,12.298 0,8.293 7.731,16.573 20.33,16.573 6.004,0 8.715,-1.632 10.635,-1.632 0.472,0 2.424,0.256 2.781,1.632 h 1.311 L -4.687,6.4 H -6.05 c -1.616,3.528 -4.707,8.458 -13.024,8.458 -5.652,0 -14.373,-3.126 -14.373,-15.638 0,-8.971 6.164,-14.573 15.385,-14.573 4.045,0 8.131,1.152 8.131,2.926 v 8.025 c 0,4.123 -1.182,4.167 -5.225,4.402 V 0.886 L 0,0.886 Z"
             style="fill:#930f15;fill-opacity:1;fill-rule:nonzero;stroke:none"
             id="path50" />
        </g>
        <g
           id="g52"
           transform="translate(373.3896,303.2402)">
          <path
             d="m 0,0 c -4.575,-0.42 -5.588,-1.149 -5.588,-6.347 v -12.908 c 0,-3.961 0,-13.293 -15.39,-13.293 -14.727,0 -14.727,9.656 -14.727,12.623 v 15.462 c 0,3.664 -0.855,4.202 -5.349,4.463 v 0.931 h 16.817 V 0 c -4.69,-0.313 -5.421,-0.963 -5.421,-4.463 v -15.841 c 0,-3.164 0,-10.067 10.345,-10.067 4.634,0 8.041,1.594 9.753,3.918 0.791,1.076 1.362,2.744 1.362,6.746 v 13.36 c 0,5.304 -1.431,6.14 -5.58,6.347 V 0.931 L 0,0.931 Z"
             style="fill:#930f15;fill-opacity:1;fill-rule:nonzero;stroke:none"
             id="path54" />
        </g>
        <g
           id="g56"
           transform="translate(416.4092,303.2402)">
          <path
             d="m 0,0 c -3.748,-0.358 -5.652,-0.562 -5.652,-6.347 v -26.035 h -0.994 l -26.148,27.093 h -0.133 V -24.56 c 0,-5.123 1.265,-6.219 5.588,-6.361 v -0.928 h -13.955 v 0.928 c 4.513,0.246 5.756,1.029 5.756,6.361 V -2.738 C -37.964,-0.261 -38.931,0 -41.294,0 v 0.931 h 10.17 l 22.742,-23.823 h 0.117 v 16.545 c 0,5.714 -1.662,6.086 -5.711,6.347 V 0.931 L 0,0.931 Z"
             style="fill:#930f15;fill-opacity:1;fill-rule:nonzero;stroke:none"
             id="path58" />
        </g>
        <g
           id="g60"
           transform="translate(418.3555,272.3193)">
          <path
             d="m 0,0 c 5.062,0.138 5.765,0.968 5.765,4.468 v 21.99 c 0,3.666 -0.828,4.256 -5.765,4.463 v 0.931 h 17.654 v -0.931 c -4.338,-0.158 -5.82,-0.49 -5.82,-4.463 V 4.468 c 0,-3.865 1.429,-4.33 5.82,-4.468 V -0.928 H 0 Z"
             style="fill:#930f15;fill-opacity:1;fill-rule:nonzero;stroke:none"
             id="path62" />
        </g>
        <g
           id="g64"
           transform="translate(478.502,303.2402)">
          <path
             d="m 0,0 c -2.86,-0.158 -3.705,-0.875 -5.474,-4.608 l -13.201,-27.774 h -0.899 L -34.16,-5.22 c -2.444,4.513 -3.508,5.117 -6.318,5.22 v 0.931 h 15.814 V 0 c -3.347,-0.158 -4.451,-0.261 -4.451,-1.853 0,-0.744 1.078,-2.755 2.436,-5.276 l 8.966,-16.777 8.732,18.186 c 0.106,0.324 1.125,2.403 1.125,3.433 0,2.026 -2.077,2.184 -4.325,2.287 V 0.931 L 0,0.931 Z"
             style="fill:#930f15;fill-opacity:1;fill-rule:nonzero;stroke:none"
             id="path66" />
        </g>
        <g
           id="g68"
           transform="translate(512.7686,271.3916)">
          <path
             d="m 0,0 h -32.088 v 0.928 c 3.827,0.205 5.17,0.656 5.17,4.468 v 21.99 c 0,3.899 -1.414,4.2 -5.17,4.463 v 0.927 h 31.566 l 0.193,-7.073 H -1.84 c -0.886,4.396 -2.424,5.183 -9.033,5.183 h -8.017 c -1.25,0 -1.97,0 -1.97,-1.692 V 18.231 h 9.162 c 5.278,0 5.862,1.193 6.537,4.685 h 1.37 V 11.44 h -1.37 c -0.703,3.95 -1.599,4.663 -6.537,4.706 l -9.162,0.089 V 3.965 c 0,-2.008 0,-2.069 8.869,-2.069 7.426,0 10.405,1.483 13.006,6.487 h 1.672 z"
             style="fill:#930f15;fill-opacity:1;fill-rule:nonzero;stroke:none"
             id="path70" />
        </g>
        <g
           id="g72"
           transform="translate(555.4414,272.3193)">
          <path
             d="m 0,0 c -2.442,0.138 -3.854,1.029 -5.188,2.353 l -12.218,12.5 c 3.016,0.516 10.734,1.703 10.734,8.332 0,7.633 -9.807,8.667 -15.084,8.667 H -38.14 v -0.931 c 4.166,-0.358 5.045,-0.797 5.045,-4.463 V 5.005 c 0,-3.697 -0.237,-4.759 -5.045,-5.005 v -0.928 h 16.435 V 0 c -4.744,0.205 -5.321,1.164 -5.321,4.468 v 9.783 l 3.315,0.073 14.144,-15.252 H 0 Z m -27.026,28.259 c 0,1.406 0.522,1.759 3.661,1.759 2.453,0 10.234,-0.14 10.234,-6.724 0,-7.08 -8.918,-7.195 -13.895,-7.216 z"
             style="fill:#930f15;fill-opacity:1;fill-rule:nonzero;stroke:none"
             id="path74" />
        </g>
        <g
           id="g76"
           transform="translate(583.7842,294.3076)">
          <path
             d="m 0,0 h -1.502 c -0.998,4.097 -4.813,8.513 -11.041,8.513 -2.981,0 -6,-1.532 -6,-4.603 0,-7.402 19.838,-8.393 19.838,-18.557 0,-4.206 -4.023,-8.968 -12.545,-8.968 -4.519,0 -7.416,1.697 -9.203,1.697 -1.235,0 -1.838,-0.839 -1.838,-1.644 h -1.306 l -1.778,10.499 h 1.358 c 1.146,-2.351 4.159,-8.782 12.183,-8.782 4.744,0 7.144,2.847 7.144,5.526 0,2.815 -0.961,4.493 -9.702,8.741 -5.466,2.632 -9.276,4.804 -9.276,9.727 0,5.634 5.407,8.414 10.769,8.414 3.569,0 6.768,-1.681 8.246,-1.681 1.668,0 1.968,1.114 2.104,1.681 h 1.241 z"
             style="fill:#930f15;fill-opacity:1;fill-rule:nonzero;stroke:none"
             id="path78" />
        </g>
        <g
           id="g80"
           transform="translate(590.0117,272.3193)">
          <path
             d="m 0,0 c 5.062,0.138 5.774,0.968 5.774,4.468 v 21.99 c 0,3.666 -0.852,4.256 -5.774,4.463 v 0.931 h 17.656 v -0.931 c -4.346,-0.158 -5.82,-0.49 -5.82,-4.463 V 4.468 c 0,-3.865 1.402,-4.33 5.82,-4.468 V -0.928 H 0 Z"
             style="fill:#930f15;fill-opacity:1;fill-rule:nonzero;stroke:none"
             id="path82" />
        </g>
        <g
           id="g84"
           transform="translate(635.5801,271.3916)">
          <path
             d="m 0,0 h -17.332 v 0.928 c 5.401,0.205 5.578,1.359 5.578,5.005 v 24.766 h -3.216 c -6.522,0 -8.139,-0.932 -9.453,-6.332 h -1.411 l 0.346,8.409 H 8.041 L 8.379,24.367 H 6.976 C 5.715,29.81 4.054,30.699 -2.478,30.699 H -5.694 V 5.396 c 0,-3.368 0.7,-4.327 5.694,-4.468 z"
             style="fill:#930f15;fill-opacity:1;fill-rule:nonzero;stroke:none"
             id="path86" />
        </g>
        <g
           id="g88"
           transform="translate(686.8164,303.2402)">
          <path
             d="m 0,0 c -2.149,-0.207 -4.121,-0.42 -8.201,-5.662 l -8.806,-11.189 v -9.602 c 0,-3.554 0.776,-4.398 6.113,-4.468 v -0.928 H -29.08 v 0.928 c 5.84,0.138 6.024,1.238 6.024,5.007 v 8.629 l -7.798,9.494 c -6.06,7.433 -6.948,7.584 -9.63,7.791 v 0.931 h 16.656 V 0 c -2.752,-0.103 -4.228,-0.158 -4.228,-1.513 0,-0.567 0.459,-1.518 1.015,-2.145 l 8.776,-11.017 8.519,11.19 c 0.392,0.558 0.828,1.155 0.828,1.847 0,1.535 -2.265,1.638 -4.115,1.638 V 0.931 L 0,0.931 Z"
             style="fill:#930f15;fill-opacity:1;fill-rule:nonzero;stroke:none"
             id="path90" />
        </g>
        <g
           id="g92"
           transform="translate(240.3818,254.2705)">
          <path
             d="m 0,0 c -34.495,0 -62.458,27.965 -62.458,62.461 0,34.501 27.963,62.467 62.458,62.467 34.507,0 62.46,-27.966 62.46,-62.467 C 62.46,27.965 34.507,0 0,0 m 0,127.198 c -35.751,0 -64.732,-28.979 -64.732,-64.737 0,-35.76 28.981,-64.728 64.732,-64.728 35.752,0 64.734,28.968 64.734,64.728 0,35.758 -28.982,64.737 -64.734,64.737"
             style="fill:#930f15;fill-opacity:1;fill-rule:evenodd;stroke:none"
             id="path94" />
        </g>
        <g
           id="g96"
           transform="translate(232.563,263.416)">
          <path
             d="M 0,0 0.21,1.385 3.856,0.849 3.354,-2.425 C 2.952,-2.705 2.386,-2.929 1.675,-3.084 0.965,-3.233 0.273,-3.259 -0.417,-3.156 c -0.882,0.125 -1.614,0.418 -2.202,0.873 -0.606,0.453 -1.013,1.041 -1.237,1.761 -0.221,0.72 -0.269,1.46 -0.154,2.257 0.139,0.853 0.438,1.58 0.909,2.189 0.464,0.613 1.079,1.035 1.834,1.297 C -0.687,5.401 0,5.44 0.802,5.323 1.841,5.17 2.62,4.842 3.13,4.326 3.653,3.81 3.938,3.174 3.989,2.392 L 2.255,2.342 C 2.202,2.756 2.024,3.104 1.739,3.383 1.452,3.666 1.071,3.849 0.581,3.92 -0.152,4.019 -0.776,3.879 -1.286,3.487 -1.786,3.088 -2.113,2.435 -2.257,1.535 c -0.139,-0.968 -0.038,-1.73 0.331,-2.283 0.361,-0.554 0.906,-0.89 1.626,-0.988 0.34,-0.053 0.703,-0.033 1.083,0.046 0.38,0.095 0.703,0.207 0.995,0.358 l 0.158,1.045 z"
             style="fill:#930f15;fill-opacity:1;fill-rule:nonzero;stroke:none"
             id="path98" />
        </g>
        <g
           id="g100"
           transform="translate(218.7114,263.8916)">
          <path
             d="M 0,0 2.805,7.801 4.377,7.271 5.769,0.938 7.647,6.146 9.143,5.637 6.341,-2.166 4.717,-1.613 3.336,4.61 1.492,-0.515 Z"
             style="fill:#930f15;fill-opacity:1;fill-rule:nonzero;stroke:none"
             id="path102" />
        </g>
        <g
           id="g104"
           transform="translate(194.7964,281.9678)">
          <path
             d="M 0,0 6.445,5.377 7.521,4.147 5.476,-2.017 9.777,1.579 10.808,0.397 4.369,-4.98 l -1.11,1.27 2,6.05 -4.224,-3.513 z"
             style="fill:#930f15;fill-opacity:1;fill-rule:nonzero;stroke:none"
             id="path106" />
        </g>
        <g
           id="g108"
           transform="translate(210.397,269.3262)">
          <path
             d="M 0,0 C 0.237,-1.017 0.896,-1.851 1.976,-2.482 3.045,-3.105 4.098,-3.285 5.13,-3.011 6.163,-2.744 7.038,-2.035 7.745,-0.888 8.458,0.271 8.698,1.358 8.458,2.385 8.211,3.405 7.552,4.235 6.49,4.866 5.9,5.219 5.32,5.424 4.753,5.508 4.327,5.563 3.886,5.536 3.418,5.42 2.954,5.301 2.531,5.106 2.14,4.836 1.622,4.479 1.135,3.948 0.687,3.223 -0.006,2.096 -0.233,1.018 0,0 M 3.915,3.887 C 4.537,4.075 5.149,3.989 5.756,3.633 6.354,3.28 6.714,2.793 6.828,2.18 6.946,1.559 6.752,0.846 6.255,0.036 5.743,-0.787 5.174,-1.298 4.541,-1.486 3.915,-1.683 3.309,-1.597 2.725,-1.265 2.145,-0.912 1.788,-0.421 1.67,0.219 1.55,0.846 1.738,1.573 2.226,2.383 2.729,3.194 3.298,3.696 3.915,3.887"
             style="fill:#930f15;fill-opacity:1;fill-rule:nonzero;stroke:none"
             id="path110" />
        </g>
        <g
           id="g112"
           transform="translate(201.418,274.8359)">
          <path
             d="m 0,0 2.447,-2.028 c 0.483,-0.39 0.905,-0.664 1.269,-0.823 0.495,-0.202 0.945,-0.276 1.358,-0.25 0.546,0.048 1.095,0.224 1.656,0.552 0.457,0.262 0.913,0.653 1.366,1.172 0.508,0.59 0.868,1.151 1.079,1.668 0.21,0.513 0.308,1.033 0.27,1.529 C 9.418,2.33 9.256,2.791 8.98,3.218 8.768,3.521 8.398,3.902 7.859,4.345 L 5.482,6.308 Z M 6.44,3.685 C 6.97,3.238 7.307,2.927 7.456,2.733 7.657,2.49 7.765,2.218 7.8,1.942 7.827,1.664 7.777,1.367 7.637,1.029 7.504,0.697 7.225,0.291 6.795,-0.205 6.365,-0.696 5.993,-1.037 5.667,-1.252 5.334,-1.463 5.038,-1.562 4.802,-1.578 4.552,-1.596 4.302,-1.522 4.044,-1.397 3.851,-1.312 3.568,-1.11 3.206,-0.819 L 2.241,-0.012 5.857,4.16 Z"
             style="fill:#930f15;fill-opacity:1;fill-rule:nonzero;stroke:none"
             id="path114" />
        </g>
        <g
           id="g116"
           transform="translate(199.1455,290.791)">
          <path
             d="m 0,0 -0.896,1.537 -8.996,-1.291 0.897,-1.543 2.029,0.347 1.676,-2.89 -1.315,-1.559 0.908,-1.556 z m -5.457,-0.705 3.292,0.543 -2.148,-2.516 z"
             style="fill:#930f15;fill-opacity:1;fill-rule:nonzero;stroke:none"
             id="path118" />
        </g>
        <g
           id="g120"
           transform="translate(185.9722,299.2852)">
          <path
             d="M 0,0 7.968,2.819 8.549,1.242 5.406,0.129 6.543,-2.924 9.687,-1.817 10.27,-3.399 2.311,-6.203 1.719,-4.642 5.196,-3.41 4.063,-0.349 0.588,-1.574 Z"
             style="fill:#930f15;fill-opacity:1;fill-rule:nonzero;stroke:none"
             id="path122" />
        </g>
        <g
           id="g124"
           transform="translate(186.6128,309.1113)">
          <path
             d="m 0,0 0.457,-1.565 c -0.529,-0.198 -0.905,-0.459 -1.1,-0.804 -0.21,-0.336 -0.26,-0.758 -0.168,-1.256 0.099,-0.522 0.286,-0.908 0.567,-1.14 0.277,-0.218 0.573,-0.309 0.877,-0.246 0.2,0.039 0.359,0.117 0.476,0.246 0.114,0.142 0.2,0.368 0.257,0.662 0.028,0.199 0.064,0.665 0.113,1.37 0.063,0.918 0.227,1.582 0.485,1.993 0.367,0.576 0.873,0.925 1.534,1.05 0.43,0.073 0.849,0.026 1.263,-0.142 0.411,-0.172 0.753,-0.457 1.032,-0.865 0.272,-0.402 0.472,-0.92 0.579,-1.545 C 6.565,-3.263 6.476,-4.07 6.117,-4.666 5.755,-5.269 5.19,-5.634 4.431,-5.802 l -0.365,1.636 c 0.413,0.145 0.688,0.351 0.833,0.616 0.141,0.257 0.175,0.615 0.091,1.074 -0.091,0.48 -0.259,0.824 -0.509,1.062 C 4.315,-1.265 4.135,-1.209 3.917,-1.25 3.716,-1.279 3.564,-1.394 3.454,-1.57 3.315,-1.824 3.229,-2.353 3.176,-3.185 3.13,-4.013 3.044,-4.636 2.896,-5.062 2.767,-5.476 2.541,-5.826 2.215,-6.103 1.905,-6.386 1.474,-6.57 0.946,-6.656 0.469,-6.75 0,-6.695 -0.473,-6.515 c -0.464,0.187 -0.845,0.498 -1.129,0.95 -0.295,0.425 -0.51,0.997 -0.638,1.709 -0.195,1.022 -0.096,1.847 0.292,2.491 C -1.56,-0.729 -0.913,-0.279 0,0"
             style="fill:#930f15;fill-opacity:1;fill-rule:nonzero;stroke:none"
             id="path126" />
        </g>
        <g
           id="g128"
           transform="translate(242.0703,267.9307)">
          <path
             d="m 0,0 1.703,0.143 0.4,-4.459 c 0.065,-0.721 0.125,-1.176 0.184,-1.381 0.101,-0.322 0.307,-0.586 0.594,-0.771 0.287,-0.17 0.673,-0.248 1.141,-0.209 0.474,0.039 0.827,0.168 1.05,0.39 0.229,0.209 0.354,0.457 0.377,0.737 0.03,0.293 0.006,0.765 -0.047,1.414 L 4.994,0.43 6.699,0.573 7.084,-3.759 C 7.181,-4.755 7.191,-5.451 7.138,-5.863 7.084,-6.283 6.951,-6.638 6.728,-6.943 6.502,-7.251 6.195,-7.505 5.793,-7.703 5.396,-7.906 4.869,-8.039 4.197,-8.099 3.396,-8.169 2.783,-8.117 2.344,-7.976 1.918,-7.828 1.562,-7.615 1.299,-7.343 1.035,-7.08 0.844,-6.789 0.74,-6.474 0.59,-6.015 0.465,-5.324 0.39,-4.398 Z"
             style="fill:#930f15;fill-opacity:1;fill-rule:nonzero;stroke:none"
             id="path130" />
        </g>
        <g
           id="g132"
           transform="translate(252.7715,260.8525)">
          <path
             d="M 0,0 -2.32,7.967 -0.729,8.394 4.166,4.017 2.615,9.319 4.142,9.741 6.457,1.791 4.808,1.338 0.004,5.651 1.519,0.43 Z"
             style="fill:#930f15;fill-opacity:1;fill-rule:nonzero;stroke:none"
             id="path134" />
        </g>
        <g
           id="g136"
           transform="translate(261.8042,263.7051)">
          <path
             d="M 0,0 -3.215,7.653 -1.631,8.295 1.588,0.641 Z"
             style="fill:#930f15;fill-opacity:1;fill-rule:nonzero;stroke:none"
             id="path138" />
        </g>
        <g
           id="g140"
           transform="translate(267.708,266.3379)">
          <path
             d="m 0,0 -6.767,5.781 1.616,0.877 4.932,-4.324 -1.26,6.332 1.594,0.861 1.502,-8.639 z"
             style="fill:#930f15;fill-opacity:1;fill-rule:nonzero;stroke:none"
             id="path142" />
        </g>
        <g
           id="g144"
           transform="translate(273.7305,269.9385)">
          <path
             d="m 0,0 -5.274,6.481 4.91,3.81 L 0.537,9.19 -3.047,6.427 -1.875,4.987 1.457,7.562 2.342,6.472 -0.971,3.886 0.447,2.144 4.144,5.004 5.039,3.927 Z"
             style="fill:#930f15;fill-opacity:1;fill-rule:nonzero;stroke:none"
             id="path146" />
        </g>
        <g
           id="g148"
           transform="translate(281.9438,276.9551)">
          <path
             d="m 0,0 -2.603,2.332 0.232,0.246 c 0.267,0.291 0.49,0.467 0.654,0.566 0.172,0.078 0.369,0.13 0.606,0.13 0.242,0.004 0.74,-0.052 1.525,-0.164 L 2.601,2.778 3.984,4.239 2.074,4.586 C 1.31,4.729 0.754,4.799 0.397,4.799 0.049,4.799 -0.326,4.729 -0.744,4.606 -0.315,5.207 -0.131,5.787 -0.188,6.33 -0.24,6.862 -0.502,7.351 -0.969,7.771 -1.344,8.11 -1.752,8.304 -2.205,8.39 -2.662,8.472 -3.076,8.412 -3.473,8.209 -3.863,8.017 -4.353,7.594 -4.971,6.949 l -2.433,-2.593 6.24,-5.578 z m -5.185,4.644 0.892,0.955 c 0.471,0.491 0.76,0.786 0.873,0.879 0.215,0.162 0.447,0.244 0.676,0.244 0.232,-0.005 0.451,-0.112 0.66,-0.298 0.185,-0.17 0.31,-0.35 0.351,-0.547 C -1.684,5.685 -1.701,5.487 -1.785,5.303 -1.875,5.104 -2.19,4.717 -2.744,4.129 L -3.596,3.222 Z"
             style="fill:#930f15;fill-opacity:1;fill-rule:nonzero;stroke:none"
             id="path150" />
        </g>
        <g
           id="g152"
           transform="translate(284.6201,284.1787)">
          <path
             d="M 0,0 0.791,1.44 C 1.313,1.215 1.771,1.166 2.158,1.276 2.543,1.377 2.873,1.642 3.166,2.069 3.469,2.502 3.609,2.903 3.562,3.26 3.529,3.608 3.377,3.875 3.125,4.043 2.953,4.149 2.783,4.19 2.59,4.18 2.41,4.157 2.195,4.055 1.943,3.883 1.775,3.756 1.418,3.461 0.879,2.979 0.187,2.36 -0.412,1.991 -0.889,1.866 -1.562,1.707 -2.176,1.805 -2.738,2.159 -3.09,2.396 -3.36,2.711 -3.541,3.112 -3.705,3.51 -3.76,3.952 -3.668,4.433 c 0.098,0.474 0.324,0.979 0.68,1.511 0.591,0.862 1.222,1.379 1.914,1.56 0.687,0.186 1.353,0.082 2.021,-0.31 L 0.051,5.756 C -0.354,5.933 -0.697,5.974 -0.988,5.896 -1.287,5.793 -1.562,5.547 -1.819,5.17 -2.096,4.769 -2.233,4.392 -2.219,4.055 -2.203,3.849 -2.113,3.683 -1.93,3.558 -1.766,3.452 -1.576,3.428 -1.365,3.496 -1.092,3.558 -0.647,3.883 -0.016,4.45 0.609,5.015 1.121,5.409 1.512,5.616 1.91,5.825 2.32,5.916 2.75,5.899 3.174,5.883 3.611,5.728 4.063,5.448 4.463,5.174 4.769,4.812 4.978,4.371 5.179,3.92 5.228,3.44 5.129,2.933 5.027,2.422 4.769,1.866 4.361,1.264 3.769,0.399 3.106,-0.138 2.375,-0.326 1.647,-0.539 0.856,-0.427 0,0"
             style="fill:#930f15;fill-opacity:1;fill-rule:nonzero;stroke:none"
             id="path154" />
        </g>
        <g
           id="g156"
           transform="translate(291.813,290.5166)">
          <path
             d="M 0,0 -7.648,3.567 -6.906,5.074 0.738,1.513 Z"
             style="fill:#930f15;fill-opacity:1;fill-rule:nonzero;stroke:none"
             id="path158" />
        </g>
        <g
           id="g160"
           transform="translate(294.2271,296.0986)">
          <path
             d="M 0,0 -6.638,2.267 -7.465,-0.054 -8.824,0.414 -6.607,6.599 -5.254,6.136 -6.072,3.849 0.569,1.578 Z"
             style="fill:#930f15;fill-opacity:1;fill-rule:nonzero;stroke:none"
             id="path162" />
        </g>
        <g
           id="g164"
           transform="translate(296.6592,304.4287)">
          <path
             d="m 0,0 -3.504,0.64 -5.388,-2.11 0.368,1.916 3.664,1.323 -2.943,2.479 0.361,1.894 4.264,-3.857 3.49,-0.639 z"
             style="fill:#930f15;fill-opacity:1;fill-rule:nonzero;stroke:none"
             id="path166" />
        </g>
        <g
           id="g168"
           transform="translate(240.1465,274.7627)">
          <path
             d="M 0,0 C -15.91,0 -29.802,8.53 -37.215,21.219 H 37.234 C 29.806,8.53 15.922,0 0,0 m 0,84.708 c 23.711,0 42.939,-18.972 42.939,-42.36 0,-6.848 -1.644,-13.303 -4.562,-19.031 h -76.715 v -0.039 c -2.939,5.744 -4.6,12.207 -4.6,19.07 0,23.388 19.226,42.36 42.938,42.36 m 0,1.764 c -24.696,0 -44.731,-19.751 -44.731,-44.124 0,-24.374 20.035,-44.125 44.731,-44.125 24.709,0 44.734,19.751 44.734,44.125 0,24.373 -20.025,44.124 -44.734,44.124"
             style="fill:#930f15;fill-opacity:1;fill-rule:nonzero;stroke:none"
             id="path170" />
        </g>
        <g
           id="g172"
           transform="translate(242.3286,326.1016)">
          <path
             d="M 0,0 -0.928,6.528 -3.348,6.607 -4.277,0 -11.154,0.36 -2.043,19.104 8.553,-3.947 0.469,-4.134 3.627,-0.097 Z m -16.543,0.458 -6.408,0.276 3.617,7.161 4.184,-4.225 z M 15.148,8.087 20.726,-3.494 14.219,-3.857 10.785,3.67 Z m 20.078,-26.276 c -6.041,-4.674 -10.869,0.744 -10.869,0.744 -8,-7.448 -14.406,-0.373 -14.406,-0.373 -5.023,-3.586 -7.25,-2.849 -7.25,-2.849 l -1.679,12.127 9.859,0.092 1.765,-3.956 h 5.67 l -1.773,3.864 h 6.691 l 1.681,-3.95 5.76,0.27 -1.578,3.587 h 4.924 L 34.117,-3.124 26.218,-3.305 16.357,16.26 8.648,8.175 -2.043,29.761 -12.917,8.175 l -7.617,8.085 -7.811,-15.62 -9.949,0.283 -0.086,-5.699 7.248,0.277 -3.163,-6.797 h 5.479 l 3.254,6.797 6.694,0.178 -3.064,-6.975 h 5.573 l 3.167,6.975 8.454,-0.094 -2.885,-3.947 2.334,-0.086 -1.496,-12.12 c -2.785,-0.656 -7.062,2.844 -7.062,2.844 -7.994,-7.169 -14.868,0.279 -14.868,0.279 -5.016,-5.517 -10.875,-0.828 -10.875,-0.828 l -1.397,-3.314 c 6.509,-4.133 12.36,-0.274 12.36,-0.274 8.271,-5.234 14.78,-0.359 14.78,-0.359 8.173,-5.152 11.619,-0.197 11.619,-0.197 5.392,-4.772 11.995,0.285 11.995,0.285 6.59,-5.151 14.398,0.179 14.398,0.179 6.602,-3.945 12.555,0.272 12.555,0.272 z"
             style="fill:#930f15;fill-opacity:1;fill-rule:nonzero;stroke:none"
             id="path174" />
        </g>
        <g
           id="g176"
           transform="translate(190.2427,337.8262)">
          <path
             d="m 0,0 c 0,0 0.29,-0.257 0.505,0.037 0,0 0.15,1.121 -0.358,1.686 0,0 -1.422,1.974 -1.706,3.013 0,0 -0.363,0.474 -2.215,0.474 0,0 -0.259,-0.433 -0.082,-0.581 0.19,-0.135 0.835,0.078 1.527,-1.18 L -0.552,1.107 C -0.552,1.107 0.034,0.464 0,0"
             style="fill:#930f15;fill-opacity:1;fill-rule:nonzero;stroke:none"
             id="path178" />
        </g>
        <g
           id="g180"
           transform="translate(196.0586,341.0605)">
          <path
             d="m 0,0 -2.042,0.176 c 0,0 -0.724,-0.246 -0.139,-0.643 0,0 1.083,-2.123 0.687,-3.34 0,0 0.363,-0.617 0.581,0.251 0,0 0.579,2.301 1.091,2.656 0,0 0.397,0.711 -0.178,0.9"
             style="fill:#930f15;fill-opacity:1;fill-rule:nonzero;stroke:none"
             id="path182" />
        </g>
        <g
           id="g184"
           transform="translate(192.3188,338.1533)">
          <path
             d="m 0,0 c 0,0 -0.188,0.606 -0.523,0.073 0,0 0.191,-2.052 -0.316,-2.738 0,0 -0.04,-1.977 -0.261,-2.51 0,0 -0.323,-1.259 -0.254,-1.546 H -1.57 c 0,0 -1.089,2.912 -2.505,2.338 0,0 -0.101,-0.286 0.218,-0.54 0,0 1.534,-2.835 1.312,-3.626 0,0 1.009,-0.253 1.924,-0.214 0,0 1.055,2.546 1.194,3.482 0,0 0.104,1.727 -0.036,2.3 0,0 -0.216,2.11 -0.537,2.981"
             style="fill:#930f15;fill-opacity:1;fill-rule:nonzero;stroke:none"
             id="path186" />
        </g>
        <g
           id="g188"
           transform="translate(296.5669,336.2412)">
          <path
             d="m 0,0 c 0,0 0.203,0.066 0.381,-0.142 l 0.511,-0.476 c 0,0 -1.41,0.096 -0.892,0.618 m -11.783,-2.465 c -1.902,-0.027 -1.217,2.8 -1.217,2.8 0,1.429 1.416,-0.477 1.416,-0.477 l 1.072,-1.429 c 0.825,-1.27 -1.271,-0.894 -1.271,-0.894 M 2.07,-0.618 1.691,-0.446 0.654,0.437 c 0,0 -0.795,-0.17 -0.654,0.987 0,0 -0.072,0.373 -0.721,0.305 l -1.965,1.463 c 0,0 -0.619,0.477 0.471,0.851 0,0 0.838,0.34 -0.41,0.406 0,0 -1.369,-0.168 -1.543,-0.501 0,0 -0.145,-1.125 0.822,-1.062 0,0 1.828,-1.256 2.139,-1.462 0,0 -0.344,-0.987 -0.106,-1.326 0,0 -0.103,-0.406 -1.029,0.237 0,0 -4.443,1.907 -4.617,2.618 0,0 -0.938,0.175 -1.377,-0.195 0,0 -0.076,-0.894 0.166,-1.062 l 1.344,-0.885 c 0,0 -0.547,-0.275 -1.719,0.102 0,0 -1.142,-0.178 -0.381,-1.122 0,0 0.59,-1.16 -0.248,-1.644 0,0 0.039,2.223 -3.345,5.012 0,0 -1.065,-0.031 -1.579,-4.799 0,0 -0.214,-1.914 1.965,-1.773 l 1.691,0.279 c 0,0 0.17,0.265 0.382,-0.176 l -0.079,-1.161 c 0,0 -0.548,-0.409 0.1,-0.602 0,0 0.629,-1.066 1.043,0.405 l -0.076,2.075 c 0,0 1.314,-0.21 1.109,2.147 l 2.896,-0.172 c 0,0 0.829,0.64 -0.584,1.664 0,0 1.579,-0.779 2.032,-1.322 0,0 0.074,-0.273 0.863,-0.246 0,0 0.168,-0.401 1.578,-0.671 0,0 0.106,-0.717 3.248,-0.885 0,0 0.41,0.975 0,1.46"
             style="fill:#930f15;fill-opacity:1;fill-rule:nonzero;stroke:none"
             id="path190" />
        </g>
        <g
           id="g192"
           transform="translate(217.2666,362.2236)">
          <path
             d="M 0,0 -0.516,-0.823 -0.967,1.628 C -1.106,2.415 -0.516,3.097 -0.516,3.097 -0.212,2.445 -0.069,1.113 -0.069,1.113 0.027,0.44 0,0 0,0 m 1.83,-0.589 c 0,0 -0.596,0.589 0.033,2.873 L 1.41,2.856 1.376,3.301 0.892,3.406 c 0,0 -0.343,0.646 -1.038,0.306 0,0 -0.446,-0.105 0.146,0.711 L 1.172,6.257 1.03,8.576 c 0,0 0.076,0.45 -0.719,0.346 0,0 0.172,-0.448 -0.17,-0.883 -0.353,-0.44 -0.733,-1.334 -0.871,-1.842 0,0 -0.237,2.142 -0.376,2.576 L -1.616,9.5 c 0,0 -0.724,0.403 -0.18,-0.827 V 4.006 L -2.674,2.789 c 0,0 -1.269,-0.325 -0.317,-0.937 l 1.375,-0.292 0.105,-3.008 -0.012,-0.847 1.111,-0.17 0.951,1.416 c 0,0 0.166,0.092 0.26,-0.214 l 0.168,-1.284 c 0,0 -0.418,-1.337 -0.758,-1.475 0,0 -0.14,-0.073 -0.522,-0.445 0,0 -1.038,-1.364 0.554,-1.364 0,0 0.613,-0.242 0.691,0.683 l 0.098,1.195 2.382,-0.444 c 0,0 0.136,0.645 -0.386,1.432 z"
             style="fill:#930f15;fill-opacity:1;fill-rule:nonzero;stroke:none"
             id="path194" />
        </g>
        <g
           id="g196"
           transform="translate(221.4063,361.7197)">
          <path
             d="m 0,0 -1.355,-0.251 c 0,0 -0.877,-0.477 0.064,-0.559 0,0 0.911,-0.296 1.373,-0.696 0,0 0.629,-0.827 0.911,0.194 v 0.71 C 0.993,-0.602 0.941,0.053 0,0"
             style="fill:#930f15;fill-opacity:1;fill-rule:nonzero;stroke:none"
             id="path198" />
        </g>
        <g
           id="g200"
           transform="translate(227.0693,289.0371)">
          <path
             d="M 0,0 -0.98,-0.778 -1.658,0.172 0.474,1.834 1.219,1.438 V -6.927 L 0,-6.927 Z"
             style="fill:#930f15;fill-opacity:1;fill-rule:nonzero;stroke:none"
             id="path202" />
        </g>
        <g
           id="g204"
           transform="translate(252.5132,289.0371)">
          <path
             d="M 0,0 -0.99,-0.778 -1.67,0.172 0.476,1.834 1.219,1.438 V -6.927 L 0,-6.927 Z"
             style="fill:#930f15;fill-opacity:1;fill-rule:nonzero;stroke:none"
             id="path206" />
        </g>
        <g
           id="g208"
           transform="translate(236.9312,285.1514)">
          <path
             d="m 0,0 c 0,-0.209 -0.021,-0.413 -0.063,-0.625 -0.048,-0.219 -0.109,-0.399 -0.185,-0.567 -0.084,-0.161 -0.207,-0.293 -0.369,-0.411 -0.16,-0.114 -0.354,-0.2 -0.582,-0.239 -0.236,-0.035 -0.418,-0.039 -0.572,-0.035 -0.278,0.011 -0.518,0.07 -0.698,0.195 -0.193,0.125 -0.304,0.252 -0.351,0.404 -0.047,0.131 -0.076,0.278 -0.095,0.422 l -1.23,-0.023 0.126,-0.506 c 0.024,-0.192 0.116,-0.422 0.265,-0.668 0.147,-0.246 0.319,-0.447 0.522,-0.586 0.2,-0.147 0.449,-0.255 0.744,-0.336 0.301,-0.084 0.629,-0.113 0.992,-0.102 0.305,0 0.6,0.045 0.892,0.127 0.294,0.086 0.53,0.184 0.719,0.325 0.178,0.142 0.34,0.306 0.477,0.478 0.139,0.199 0.252,0.422 0.332,0.668 0.092,0.236 0.15,0.494 0.176,0.76 0.023,0.263 0.031,0.613 0.031,1.049 V 2.783 C 1.131,3.218 1.094,3.607 1.002,3.935 0.916,4.238 0.776,4.533 0.58,4.789 0.391,5.052 0.106,5.279 -0.262,5.478 -0.625,5.664 -1.063,5.775 -1.558,5.757 -1.847,5.736 -2.15,5.685 -2.459,5.572 -2.791,5.478 -3.053,5.324 -3.28,5.148 -3.498,4.96 -3.67,4.734 -3.788,4.48 -3.903,4.226 -3.987,3.972 -4.019,3.728 -4.069,3.482 -4.097,3.218 -4.097,2.943 c 0,-0.557 0.052,-0.975 0.16,-1.262 0.11,-0.285 0.254,-0.517 0.429,-0.702 0.17,-0.196 0.446,-0.356 0.803,-0.511 0.375,-0.155 0.822,-0.226 1.332,-0.193 0.205,0 0.397,0.021 0.584,0.055 0.185,0.039 0.342,0.086 0.457,0.138 C -0.215,0.517 -0.107,0.57 0,0.623 Z M -0.041,3.156 C -0.021,2.816 -0.037,2.523 -0.107,2.273 -0.16,2.029 -0.262,1.816 -0.408,1.662 -0.549,1.492 -0.863,1.402 -1.338,1.396 -1.512,1.39 -1.713,1.402 -1.928,1.438 c -0.214,0.04 -0.402,0.13 -0.554,0.259 -0.145,0.131 -0.252,0.301 -0.321,0.517 -0.064,0.172 -0.091,0.422 -0.082,0.765 0,0.335 0.032,0.606 0.102,0.796 0.076,0.193 0.172,0.34 0.295,0.463 0.123,0.105 0.269,0.199 0.445,0.258 0.17,0.062 0.387,0.086 0.653,0.086 0.314,-0.012 0.566,-0.073 0.773,-0.196 0.197,-0.115 0.355,-0.287 0.453,-0.5 0.053,-0.142 0.09,-0.385 0.123,-0.73"
             style="fill:#930f15;fill-opacity:1;fill-rule:nonzero;stroke:none"
             id="path210" />
        </g>
        <g
           id="g212"
           transform="translate(247.6772,287.3486)">
          <path
             d="M 0,0 C -0.023,0.381 -0.078,0.763 -0.158,1.14 -0.229,1.496 -0.369,1.845 -0.545,2.164 -0.732,2.489 -0.959,2.763 -1.215,2.976 -1.482,3.201 -1.76,3.36 -2.058,3.459 -2.353,3.578 -2.64,3.619 -2.912,3.631 -3.289,3.631 -3.656,3.558 -3.994,3.377 -4.34,3.213 -4.609,3 -4.826,2.763 -5.027,2.524 -5.207,2.242 -5.353,1.918 -5.502,1.59 -5.607,1.244 -5.685,0.856 -5.758,0.476 -5.799,0.131 -5.81,-0.17 c -0.01,-0.227 -0.016,-0.597 -0.01,-1.093 0.004,-0.496 0.035,-0.92 0.105,-1.272 0.071,-0.346 0.173,-0.689 0.309,-1.023 0.141,-0.338 0.322,-0.634 0.555,-0.91 0.242,-0.256 0.525,-0.463 0.871,-0.594 0.351,-0.13 0.705,-0.201 1.068,-0.201 0.379,0 0.715,0.041 1.031,0.157 0.307,0.11 0.555,0.248 0.762,0.409 0.201,0.166 0.373,0.393 0.539,0.684 0.162,0.291 0.287,0.591 0.369,0.901 0.082,0.308 0.147,0.657 0.18,1.038 C 0,-1.692 0.037,-1.406 0.039,-1.215 0.045,-0.789 0.039,-0.381 0,0 M -1.162,-1.324 C -1.176,-1.595 -1.207,-1.922 -1.263,-2.304 -1.326,-2.683 -1.431,-3 -1.584,-3.274 -1.748,-3.55 -1.933,-3.767 -2.172,-3.886 c -0.24,-0.127 -0.486,-0.19 -0.756,-0.179 -0.318,0 -0.574,0.075 -0.791,0.231 -0.212,0.142 -0.39,0.336 -0.531,0.603 -0.144,0.259 -0.246,0.575 -0.312,0.944 -0.067,0.379 -0.1,0.826 -0.112,1.365 0,0.319 0,0.582 0.02,0.788 0.019,0.222 0.057,0.496 0.131,0.826 0.064,0.329 0.164,0.621 0.304,0.898 0.131,0.255 0.301,0.468 0.53,0.613 0.226,0.15 0.486,0.223 0.787,0.223 0.295,-0.008 0.541,-0.09 0.752,-0.236 0.201,-0.132 0.379,-0.33 0.519,-0.563 0.153,-0.23 0.262,-0.521 0.34,-0.86 0.076,-0.345 0.125,-0.784 0.143,-1.341 0,-0.225 -0.01,-0.48 -0.014,-0.75"
             style="fill:#930f15;fill-opacity:1;fill-rule:nonzero;stroke:none"
             id="path214" />
        </g>
        <g
           id="g216"
           transform="translate(265.7246,366.3027)">
          <path
             d="m 0,0 1.278,-0.082 1.597,0.985 c 0,0 0.346,0.122 -0.031,0.633 0,0 -0.254,-0.286 -0.698,-0.217 C 1.694,1.388 0.924,1.312 0.5,1.214 L 0.487,1.195 -0.533,1.312 C -0.197,1.558 -0.822,3.05 -0.822,3.05 -1.147,3.654 -1.492,3.41 -1.492,3.41 -1.897,3.124 -2.039,2.026 -2.039,2.026 L -2.404,1.47 -3.924,1.414 -5.572,1.652 c 0,0 -1.031,1.096 -1.135,-0.186 L -6.39,0.438 c 0.011,-0.189 0.064,-0.336 0.14,-0.459 l 0.01,-0.049 0.014,0.014 c 0.306,-0.434 0.941,-0.461 1.164,-0.454 -0.467,-0.08 -2.209,-1.014 -2.209,-1.014 -2.545,-1.74 -6.004,-1.828 -6.004,-1.828 -1.096,-0.302 0.154,-0.606 0.154,-0.606 1.112,-0.254 5.274,0.745 5.274,0.745 5.972,1.626 6.826,3.286 6.826,3.286 C -0.707,0.018 -0.347,0 0,0"
             style="fill:#930f15;fill-opacity:1;fill-rule:nonzero;stroke:none"
             id="path218" />
        </g>
        <g
           id="g220"
           transform="translate(263.0728,361.4121)">
          <path
             d="m 0,0 c 0,0 -0.514,1.045 -0.863,-0.126 0,0 -0.832,-2.547 -1.827,-2.677 0,0 -0.859,-0.397 -0.093,-0.584 0,0 1.881,0.836 2.951,0.865 0,0 1.051,0.876 -0.168,2.522"
             style="fill:#930f15;fill-opacity:1;fill-rule:nonzero;stroke:none"
             id="path222" />
        </g>
      </g>
    </g>
  </g>
</svg>
