<?xml version="1.0" encoding="UTF-8" standalone="no"?>
<!-- Created with Inkscape (http://www.inkscape.org/) -->

<svg
   version="1.1"
   id="svg2"
   width="1122.52"
   height="793.70667"
   viewBox="0 0 1122.52 793.70667"
   sodipodi:docname="竖式.svg"
   inkscape:version="1.2.2 (b0a8486541, 2022-12-01)"
   xmlns:inkscape="http://www.inkscape.org/namespaces/inkscape"
   xmlns:sodipodi="http://sodipodi.sourceforge.net/DTD/sodipodi-0.dtd"
   xmlns="http://www.w3.org/2000/svg"
   xmlns:svg="http://www.w3.org/2000/svg">
  <defs
     id="defs6">
    <clipPath
       clipPathUnits="userSpaceOnUse"
       id="clipPath18">
      <path
         d="M 0,595.28 H 841.89 V 0 H 0 Z"
         id="path16" />
    </clipPath>
  </defs>
  <sodipodi:namedview
     id="namedview4"
     pagecolor="#ffffff"
     bordercolor="#000000"
     borderopacity="0.25"
     inkscape:showpageshadow="2"
     inkscape:pageopacity="0.0"
     inkscape:pagecheckerboard="0"
     inkscape:deskcolor="#d1d1d1"
     showgrid="false"
     inkscape:zoom="0.29733907"
     inkscape:cx="561.64836"
     inkscape:cy="398.53491"
     inkscape:window-width="2560"
     inkscape:window-height="1284"
     inkscape:window-x="0"
     inkscape:window-y="0"
     inkscape:window-maximized="1"
     inkscape:current-layer="g10">
    <inkscape:page
       x="0"
       y="0"
       id="page8"
       width="1122.52"
       height="793.70667" />
  </sodipodi:namedview>
  <g
     id="g10"
     inkscape:groupmode="layer"
     inkscape:label="Page 1"
     transform="matrix(1.3333333,0,0,-1.3333333,0,793.70667)">
    <g
       id="g12">
      <g
         id="g14"
         clip-path="url(#clipPath18)">
        <g
           id="g20"
           transform="translate(404.6689,433.0884)">
          <path
             d="m 0,0 c -32.964,0 -59.685,27.042 -59.685,60.399 0,33.363 26.721,60.405 59.685,60.405 32.973,0 59.685,-27.042 59.685,-60.405 C 59.685,27.042 32.973,0 0,0 m 0,122.999 c -34.165,0 -61.857,-28.022 -61.857,-62.6 0,-34.579 27.692,-62.59 61.857,-62.59 34.166,0 61.859,28.011 61.859,62.59 0,34.578 -27.693,62.6 -61.859,62.6"
             style="fill:#930f15;fill-opacity:1;fill-rule:evenodd;stroke:none"
             id="path22" />
        </g>
        <g
           id="g24"
           transform="translate(397.1973,441.9316)">
          <path
             d="M 0,0 0.201,1.34 3.686,0.822 3.204,-2.342 C 2.821,-2.614 2.281,-2.83 1.6,-2.979 0.925,-3.124 0.261,-3.151 -0.4,-3.05 c -0.841,0.118 -1.54,0.403 -2.103,0.844 -0.578,0.439 -0.969,1.008 -1.183,1.703 -0.21,0.694 -0.256,1.413 -0.144,2.182 0.132,0.825 0.416,1.528 0.866,2.116 0.443,0.593 1.028,1.003 1.753,1.253 C -0.656,5.227 0,5.263 0.765,5.149 1.758,5 2.503,4.682 2.99,4.183 3.489,3.688 3.762,3.072 3.813,2.314 L 2.156,2.267 C 2.103,2.669 1.933,3.006 1.663,3.271 1.388,3.545 1.022,3.722 0.555,3.793 -0.145,3.889 -0.743,3.752 -1.229,3.375 -1.707,2.991 -2.019,2.356 -2.157,1.49 c -0.134,-0.94 -0.039,-1.68 0.315,-2.213 0.345,-0.533 0.866,-0.857 1.553,-0.955 0.33,-0.05 0.675,-0.029 1.037,0.044 0.364,0.093 0.67,0.2 0.952,0.349 l 0.149,1.011 z"
             style="fill:#930f15;fill-opacity:1;fill-rule:nonzero;stroke:none"
             id="path26" />
        </g>
        <g
           id="g28"
           transform="translate(383.96,442.395)">
          <path
             d="M 0,0 2.683,7.541 4.182,7.028 5.513,0.906 7.307,5.941 8.738,5.449 6.061,-2.097 4.507,-1.561 3.189,4.456 1.427,-0.498 Z"
             style="fill:#930f15;fill-opacity:1;fill-rule:nonzero;stroke:none"
             id="path30" />
        </g>
        <g
           id="g32"
           transform="translate(361.1074,459.8716)">
          <path
             d="M 0,0 6.157,5.199 7.187,4.01 5.234,-1.952 9.341,1.526 10.328,0.382 4.175,-4.816 3.116,-3.585 5.023,2.263 0.99,-1.133 Z"
             style="fill:#930f15;fill-opacity:1;fill-rule:nonzero;stroke:none"
             id="path34" />
        </g>
        <g
           id="g36"
           transform="translate(376.0146,447.6484)">
          <path
             d="M 0,0 C 0.228,-0.984 0.855,-1.789 1.888,-2.401 2.911,-3.004 3.916,-3.178 4.904,-2.912 5.891,-2.654 6.724,-1.968 7.4,-0.858 8.083,0.261 8.312,1.313 8.082,2.305 7.847,3.292 7.218,4.096 6.202,4.707 5.639,5.047 5.085,5.245 4.54,5.328 4.136,5.379 3.716,5.352 3.269,5.238 2.823,5.124 2.417,4.939 2.047,4.677 1.549,4.331 1.084,3.817 0.655,3.117 -0.007,2.024 -0.223,0.985 0,0 M 3.743,3.757 C 4.335,3.938 4.922,3.855 5.499,3.513 6.072,3.171 6.417,2.701 6.526,2.106 6.638,1.506 6.454,0.817 5.979,0.036 5.488,-0.763 4.947,-1.253 4.342,-1.437 3.743,-1.625 3.162,-1.544 2.604,-1.223 2.051,-0.884 1.708,-0.405 1.597,0.208 1.482,0.817 1.659,1.521 2.13,2.304 2.61,3.091 3.15,3.572 3.743,3.757"
             style="fill:#930f15;fill-opacity:1;fill-rule:nonzero;stroke:none"
             id="path38" />
        </g>
        <g
           id="g40"
           transform="translate(367.4355,452.9785)">
          <path
             d="M 0,0 2.34,-1.963 C 2.798,-2.341 3.205,-2.605 3.552,-2.758 4.024,-2.954 4.454,-3.025 4.85,-3 c 0.52,0.044 1.046,0.216 1.58,0.532 0.439,0.255 0.872,0.632 1.303,1.134 0.49,0.574 0.833,1.113 1.034,1.61 C 8.968,0.777 9.06,1.274 9.025,1.756 8.999,2.25 8.846,2.695 8.579,3.109 8.379,3.406 8.023,3.769 7.507,4.199 L 5.236,6.101 Z M 6.154,3.563 C 6.659,3.128 6.981,2.827 7.125,2.641 7.314,2.404 7.418,2.143 7.453,1.877 7.481,1.608 7.433,1.319 7.297,0.992 7.172,0.669 6.902,0.276 6.495,-0.201 6.084,-0.676 5.728,-1.006 5.413,-1.214 5.098,-1.417 4.814,-1.513 4.587,-1.527 4.348,-1.547 4.11,-1.475 3.865,-1.355 3.681,-1.271 3.409,-1.077 3.063,-0.796 l -0.92,0.783 3.455,4.033 z"
             style="fill:#930f15;fill-opacity:1;fill-rule:nonzero;stroke:none"
             id="path42" />
        </g>
        <g
           id="g44"
           transform="translate(365.2646,468.4048)">
          <path
             d="m 0,0 -0.857,1.487 -8.595,-1.252 0.855,-1.489 1.941,0.333 1.6,-2.793 -1.257,-1.506 0.871,-1.507 z m -5.217,-0.684 3.148,0.526 -2.053,-2.429 z"
             style="fill:#930f15;fill-opacity:1;fill-rule:nonzero;stroke:none"
             id="path46" />
        </g>
        <g
           id="g48"
           transform="translate(352.6748,476.6191)">
          <path
             d="M 0,0 7.613,2.725 8.169,1.199 5.166,0.126 6.253,-2.832 9.255,-1.761 9.813,-3.287 2.21,-6.002 1.644,-4.49 l 3.323,1.191 -1.084,2.96 -3.32,-1.185 z"
             style="fill:#930f15;fill-opacity:1;fill-rule:nonzero;stroke:none"
             id="path50" />
        </g>
        <g
           id="g52"
           transform="translate(353.2881,486.1177)">
          <path
             d="m 0,0 0.437,-1.512 c -0.504,-0.188 -0.866,-0.447 -1.051,-0.78 -0.203,-0.322 -0.246,-0.733 -0.162,-1.212 0.096,-0.505 0.274,-0.88 0.544,-1.102 0.264,-0.213 0.546,-0.3 0.836,-0.236 0.191,0.033 0.344,0.109 0.456,0.236 0.111,0.137 0.193,0.355 0.243,0.639 0.027,0.196 0.064,0.644 0.11,1.326 0.06,0.89 0.216,1.528 0.463,1.927 C 2.229,-0.157 2.71,0.181 3.342,0.299 3.754,0.372 4.154,0.326 4.549,0.167 4.941,-0.002 5.272,-0.276 5.534,-0.675 5.796,-1.061 5.987,-1.563 6.09,-2.166 6.273,-3.153 6.185,-3.936 5.845,-4.509 5.5,-5.093 4.961,-5.448 4.234,-5.61 l -0.347,1.58 c 0.392,0.142 0.654,0.339 0.794,0.597 0.137,0.25 0.165,0.597 0.087,1.04 C 4.681,-1.929 4.52,-1.594 4.28,-1.366 4.124,-1.221 3.952,-1.168 3.744,-1.206 3.552,-1.235 3.407,-1.345 3.302,-1.52 3.167,-1.759 3.086,-2.275 3.034,-3.076 2.99,-3.881 2.906,-4.481 2.767,-4.894 2.645,-5.294 2.427,-5.632 2.119,-5.898 1.818,-6.174 1.409,-6.353 0.903,-6.438 0.448,-6.524 0,-6.474 -0.452,-6.298 c -0.443,0.183 -0.808,0.48 -1.078,0.918 -0.283,0.409 -0.487,0.963 -0.612,1.653 -0.184,0.99 -0.091,1.786 0.279,2.408 C -1.491,-0.703 -0.872,-0.267 0,0"
             style="fill:#930f15;fill-opacity:1;fill-rule:nonzero;stroke:none"
             id="path54" />
        </g>
        <g
           id="g56"
           transform="translate(406.2813,446.2979)">
          <path
             d="M 0,0 1.627,0.14 2.01,-4.175 c 0.062,-0.695 0.119,-1.132 0.178,-1.332 0.096,-0.314 0.292,-0.566 0.567,-0.745 0.274,-0.165 0.641,-0.241 1.09,-0.205 0.452,0.04 0.791,0.167 1.005,0.379 0.218,0.199 0.338,0.442 0.357,0.714 0.03,0.281 0.007,0.737 -0.044,1.365 L 4.773,0.416 6.404,0.558 6.771,-3.634 C 6.86,-4.596 6.876,-5.27 6.82,-5.669 6.771,-6.073 6.642,-6.417 6.431,-6.711 6.214,-7.009 5.92,-7.254 5.538,-7.447 5.158,-7.643 4.654,-7.773 4.013,-7.829 3.247,-7.896 2.659,-7.848 2.24,-7.713 1.835,-7.569 1.494,-7.367 1.244,-7.1 0.99,-6.844 0.809,-6.564 0.707,-6.26 0.564,-5.816 0.446,-5.147 0.371,-4.253 Z"
             style="fill:#930f15;fill-opacity:1;fill-rule:nonzero;stroke:none"
             id="path58" />
        </g>
        <g
           id="g60"
           transform="translate(416.5068,439.4536)">
          <path
             d="M 0,0 -2.216,7.705 -0.694,8.121 3.984,3.883 2.498,9.012 3.958,9.422 6.17,1.732 4.594,1.295 0.003,5.465 1.453,0.417 Z"
             style="fill:#930f15;fill-opacity:1;fill-rule:nonzero;stroke:none"
             id="path62" />
        </g>
        <g
           id="g64"
           transform="translate(425.1387,442.2134)">
          <path
             d="M 0,0 -3.073,7.4 -1.558,8.017 1.519,0.621 Z"
             style="fill:#930f15;fill-opacity:1;fill-rule:nonzero;stroke:none"
             id="path66" />
        </g>
        <g
           id="g68"
           transform="translate(430.7813,444.7598)">
          <path
             d="m 0,0 -6.467,5.59 1.545,0.846 4.71,-4.181 -1.201,6.122 1.522,0.834 1.437,-8.356 z"
             style="fill:#930f15;fill-opacity:1;fill-rule:nonzero;stroke:none"
             id="path70" />
        </g>
        <g
           id="g72"
           transform="translate(436.5381,448.2407)">
          <path
             d="M 0,0 -5.041,6.266 -0.35,9.951 0.511,8.888 -2.913,6.213 -1.795,4.823 1.39,7.31 2.237,6.258 -0.932,3.755 0.425,2.074 3.956,4.838 4.813,3.793 Z"
             style="fill:#930f15;fill-opacity:1;fill-rule:nonzero;stroke:none"
             id="path74" />
        </g>
        <g
           id="g76"
           transform="translate(444.3828,455.0244)">
          <path
             d="m 0,0 -2.484,2.256 0.22,0.239 c 0.254,0.278 0.469,0.448 0.627,0.544 0.163,0.079 0.351,0.128 0.577,0.128 0.229,0.006 0.71,-0.049 1.46,-0.161 L 2.487,2.687 3.808,4.102 1.984,4.436 C 1.251,4.573 0.725,4.64 0.382,4.64 0.049,4.64 -0.311,4.573 -0.708,4.455 -0.3,5.036 -0.121,5.597 -0.179,6.121 -0.227,6.639 -0.478,7.107 -0.924,7.513 -1.28,7.84 -1.673,8.03 -2.105,8.112 -2.543,8.19 -2.937,8.135 -3.318,7.939 -3.688,7.752 -4.159,7.346 -4.747,6.719 l -2.326,-2.503 5.965,-5.397 z m -4.95,4.491 0.85,0.923 c 0.452,0.476 0.726,0.764 0.831,0.85 0.208,0.158 0.428,0.235 0.65,0.235 C -2.398,6.496 -2.188,6.395 -1.991,6.214 -1.812,6.05 -1.694,5.873 -1.653,5.682 -1.606,5.496 -1.623,5.307 -1.704,5.13 -1.791,4.935 -2.091,4.562 -2.619,3.992 L -3.435,3.118 Z"
             style="fill:#930f15;fill-opacity:1;fill-rule:nonzero;stroke:none"
             id="path78" />
        </g>
        <g
           id="g80"
           transform="translate(446.9424,462.0127)">
          <path
             d="M 0,0 0.757,1.39 C 1.255,1.172 1.69,1.124 2.061,1.229 2.429,1.331 2.746,1.584 3.024,1.999 3.315,2.416 3.448,2.806 3.402,3.146 3.372,3.487 3.228,3.746 2.985,3.904 2.821,4.011 2.658,4.049 2.473,4.04 2.304,4.017 2.098,3.919 1.855,3.754 1.698,3.629 1.355,3.344 0.842,2.877 0.179,2.281 -0.392,1.923 -0.849,1.8 -1.493,1.648 -2.081,1.743 -2.615,2.086 c -0.34,0.231 -0.597,0.531 -0.771,0.919 -0.156,0.388 -0.208,0.814 -0.119,1.28 0.095,0.458 0.308,0.946 0.65,1.465 0.561,0.828 1.167,1.329 1.828,1.505 0.657,0.179 1.294,0.077 1.931,-0.304 L 0.046,5.564 c -0.384,0.17 -0.712,0.21 -0.99,0.134 C -1.229,5.601 -1.493,5.363 -1.739,5 -2.003,4.607 -2.137,4.246 -2.122,3.919 c 0.017,-0.203 0.104,-0.361 0.277,-0.481 0.157,-0.104 0.339,-0.13 0.54,-0.064 0.26,0.064 0.685,0.38 1.288,0.927 0.598,0.545 1.086,0.925 1.464,1.128 0.378,0.2 0.77,0.287 1.181,0.271 C 3.035,5.684 3.451,5.536 3.883,5.268 4.266,5.002 4.557,4.65 4.757,4.224 4.95,3.789 4.995,3.328 4.9,2.832 4.804,2.339 4.557,1.8 4.168,1.219 3.601,0.383 2.969,-0.134 2.269,-0.319 1.574,-0.524 0.819,-0.415 0,0"
             style="fill:#930f15;fill-opacity:1;fill-rule:nonzero;stroke:none"
             id="path82" />
        </g>
        <g
           id="g84"
           transform="translate(453.8164,468.1367)">
          <path
             d="M 0,0 -7.308,3.453 -6.6,4.909 0.705,1.463 Z"
             style="fill:#930f15;fill-opacity:1;fill-rule:nonzero;stroke:none"
             id="path86" />
        </g>
        <g
           id="g88"
           transform="translate(456.1221,473.5361)">
          <path
             d="M 0,0 -6.341,2.192 -7.137,-0.053 -8.43,0.401 -6.313,6.38 -5.021,5.937 -5.805,3.723 0.543,1.525 Z"
             style="fill:#930f15;fill-opacity:1;fill-rule:nonzero;stroke:none"
             id="path90" />
        </g>
        <g
           id="g92"
           transform="translate(458.4482,481.5908)">
          <path
             d="M 0,0 -3.352,0.619 -8.497,-1.422 -8.148,0.436 -4.647,1.71 -7.456,4.108 -7.114,5.939 -3.038,2.21 0.297,1.592 Z"
             style="fill:#930f15;fill-opacity:1;fill-rule:nonzero;stroke:none"
             id="path94" />
        </g>
        <g
           id="g96"
           transform="translate(404.4434,452.9053)">
          <path
             d="M 0,0 C -15.203,0 -28.477,8.246 -35.561,20.52 H 35.578 C 28.482,8.246 15.215,0 0,0 m 0,81.908 c 22.658,0 41.033,-18.344 41.033,-40.96 0,-6.616 -1.571,-12.862 -4.359,-18.402 h -73.31 v -0.035 c -2.807,5.553 -4.394,11.803 -4.394,18.437 0,22.616 18.372,40.96 41.03,40.96 m 0,1.707 c -23.599,0 -42.744,-19.099 -42.744,-42.667 0,-23.568 19.145,-42.668 42.744,-42.668 23.611,0 42.748,19.1 42.748,42.668 0,23.568 -19.137,42.667 -42.748,42.667"
             style="fill:#930f15;fill-opacity:1;fill-rule:nonzero;stroke:none"
             id="path98" />
        </g>
        <g
           id="g100"
           transform="translate(406.5303,502.5474)">
          <path
             d="M 0,0 -0.89,6.315 -3.201,6.392 -4.087,0 -10.66,0.352 -1.953,18.474 8.173,-3.816 0.445,-3.995 3.466,-0.091 Z m -15.809,0.441 -6.125,0.272 3.458,6.922 3.999,-4.085 z M 14.473,7.822 19.806,-3.377 13.586,-3.728 10.304,3.55 Z M 33.661,-17.587 C 27.889,-22.109 23.272,-16.87 23.272,-16.87 15.63,-24.071 9.508,-17.231 9.508,-17.231 4.706,-20.696 2.58,-19.982 2.58,-19.982 l -1.604,11.727 9.42,0.086 1.685,-3.825 h 5.42 l -1.693,3.739 h 6.391 l 1.609,-3.821 5.505,0.261 -1.508,3.467 h 4.706 L 32.6,-3.022 25.052,-3.197 15.63,15.726 8.263,7.906 -1.953,28.779 -12.345,7.906 l -7.279,7.82 -7.463,-15.106 -9.508,0.272 -0.084,-5.51 6.926,0.269 -3.021,-6.574 h 5.238 l 3.108,6.574 6.395,0.172 -2.927,-6.746 h 5.328 l 3.023,6.746 8.079,-0.089 -2.754,-3.817 2.226,-0.086 -1.429,-11.72 c -2.659,-0.632 -6.746,2.751 -6.746,2.751 -7.64,-6.933 -14.208,0.268 -14.208,0.268 -4.794,-5.336 -10.392,-0.797 -10.392,-0.797 l -1.336,-3.207 c 6.221,-3.996 11.81,-0.262 11.81,-0.262 7.906,-5.062 14.126,-0.349 14.126,-0.349 7.811,-4.982 11.103,-0.189 11.103,-0.189 5.151,-4.614 11.46,0.274 11.46,0.274 6.3,-4.981 13.761,0.172 13.761,0.172 6.308,-3.815 11.998,0.267 11.998,0.267 z"
             style="fill:#930f15;fill-opacity:1;fill-rule:nonzero;stroke:none"
             id="path102" />
        </g>
        <g
           id="g104"
           transform="translate(356.7539,513.8833)">
          <path
             d="m 0,0 c 0,0 0.278,-0.247 0.486,0.038 0,0 0.142,1.085 -0.344,1.629 0,0 -1.361,1.913 -1.63,2.917 0,0 -0.349,0.457 -2.116,0.457 0,0 -0.248,-0.418 -0.079,-0.563 0.18,-0.13 0.799,0.073 1.46,-1.141 L -0.524,1.076 C -0.524,1.076 0.035,0.453 0,0"
             style="fill:#930f15;fill-opacity:1;fill-rule:nonzero;stroke:none"
             id="path106" />
        </g>
        <g
           id="g108"
           transform="translate(362.3145,517.0122)">
          <path
             d="m 0,0 -1.949,0.171 c 0,0 -0.695,-0.237 -0.136,-0.622 0,0 1.035,-2.053 0.657,-3.23 0,0 0.346,-0.593 0.556,0.247 0,0 0.552,2.22 1.042,2.564 0,0 0.379,0.687 -0.17,0.87"
             style="fill:#930f15;fill-opacity:1;fill-rule:nonzero;stroke:none"
             id="path110" />
        </g>
        <g
           id="g112"
           transform="translate(358.7383,514.2026)">
          <path
             d="m 0,0 c 0,0 -0.178,0.585 -0.497,0.07 0,0 0.182,-1.987 -0.305,-2.648 0,0 -0.035,-1.909 -0.247,-2.427 0,0 -0.307,-1.217 -0.242,-1.495 h -0.207 c 0,0 -1.041,2.817 -2.392,2.263 0,0 -0.097,-0.279 0.207,-0.523 0,0 1.465,-2.74 1.253,-3.507 0,0 0.964,-0.247 1.837,-0.207 0,0 1.009,2.461 1.143,3.367 0,0 0.098,1.671 -0.036,2.222 0,0 -0.207,2.042 -0.514,2.885"
             style="fill:#930f15;fill-opacity:1;fill-rule:nonzero;stroke:none"
             id="path114" />
        </g>
        <g
           id="g116"
           transform="translate(458.3594,512.3535)">
          <path
             d="m 0,0 c 0,0 0.192,0.063 0.363,-0.137 l 0.489,-0.459 c 0,0 -1.35,0.091 -0.852,0.596 m -11.262,-2.382 c -1.817,-0.028 -1.161,2.703 -1.161,2.703 0,1.384 1.353,-0.458 1.353,-0.458 l 1.024,-1.386 c 0.787,-1.225 -1.216,-0.859 -1.216,-0.859 M 1.979,-0.596 1.614,-0.432 0.623,0.424 c 0,0 -0.759,-0.166 -0.623,0.952 0,0 -0.067,0.361 -0.691,0.296 l -1.878,1.417 c 0,0 -0.593,0.457 0.453,0.82 0,0 0.799,0.327 -0.392,0.392 0,0 -1.31,-0.16 -1.476,-0.487 0,0 -0.137,-1.084 0.787,-1.022 0,0 1.744,-1.218 2.042,-1.416 0,0 -0.329,-0.952 -0.1,-1.283 0,0 -0.098,-0.391 -0.985,0.228 0,0 -4.245,1.847 -4.41,2.537 0,0 -0.899,0.166 -1.319,-0.191 0,0 -0.069,-0.866 0.158,-1.027 l 1.289,-0.858 c 0,0 -0.526,-0.264 -1.644,0.102 0,0 -1.093,-0.174 -0.365,-1.085 0,0 0.562,-1.125 -0.234,-1.591 0,0 0.033,2.15 -3.197,4.847 0,0 -1.018,-0.031 -1.512,-4.642 0,0 -0.205,-1.85 1.877,-1.715 l 1.618,0.269 c 0,0 0.163,0.259 0.367,-0.167 l -0.076,-1.123 c 0,0 -0.525,-0.395 0.096,-0.583 0,0 0.599,-1.032 0.996,0.391 l -0.075,2.007 c 0,0 1.259,-0.202 1.062,2.076 l 2.768,-0.164 c 0,0 0.79,0.617 -0.562,1.606 0,0 1.512,-0.752 1.943,-1.278 0,0 0.071,-0.265 0.825,-0.237 0,0 0.161,-0.387 1.507,-0.65 0,0 0.102,-0.692 3.107,-0.857 0,0 0.388,0.947 0,1.416"
             style="fill:#930f15;fill-opacity:1;fill-rule:nonzero;stroke:none"
             id="path118" />
        </g>
        <g
           id="g120"
           transform="translate(382.5801,537.4775)">
          <path
             d="m 0,0 -0.493,-0.796 -0.434,2.371 c -0.13,0.76 0.434,1.417 0.434,1.417 C -0.202,2.365 -0.064,1.076 -0.064,1.076 0.025,0.426 0,0 0,0 m 1.748,-0.571 c 0,0 -0.569,0.571 0.029,2.779 L 1.348,2.762 1.313,3.19 0.853,3.293 c 0,0 -0.328,0.625 -0.99,0.295 0,0 -0.428,-0.102 0.137,0.691 L 1.118,6.052 0.985,8.293 c 0,0 0.072,0.432 -0.689,0.333 0,0 0.164,-0.434 -0.163,-0.853 -0.335,-0.426 -0.698,-1.29 -0.829,-1.778 0,0 -0.231,2.069 -0.361,2.491 l -0.487,0.699 c 0,0 -0.692,0.389 -0.172,-0.798 V 3.874 L -2.555,2.696 c 0,0 -1.215,-0.316 -0.305,-0.906 l 1.316,-0.28 0.101,-2.912 -0.012,-0.816 1.061,-0.167 0.909,1.369 c 0,0 0.158,0.091 0.248,-0.206 l 0.162,-1.242 c 0,0 -0.4,-1.292 -0.725,-1.425 0,0 -0.135,-0.07 -0.498,-0.431 0,0 -0.994,-1.318 0.528,-1.318 0,0 0.586,-0.235 0.66,0.657 l 0.095,1.157 2.277,-0.43 c 0,0 0.13,0.626 -0.369,1.386 z"
             style="fill:#930f15;fill-opacity:1;fill-rule:nonzero;stroke:none"
             id="path122" />
        </g>
        <g
           id="g124"
           transform="translate(386.5352,536.9907)">
          <path
             d="m 0,0 -1.293,-0.245 c 0,0 -0.841,-0.46 0.06,-0.54 0,0 0.869,-0.286 1.31,-0.673 0,0 0.604,-0.8 0.872,0.189 v 0.685 C 0.949,-0.584 0.9,0.051 0,0"
             style="fill:#930f15;fill-opacity:1;fill-rule:nonzero;stroke:none"
             id="path126" />
        </g>
        <g
           id="g128"
           transform="translate(391.9473,466.7085)">
          <path
             d="m 0,0 -0.935,-0.754 -0.65,0.919 2.039,1.608 0.712,-0.38 v -8.09 l -1.166,0 z"
             style="fill:#930f15;fill-opacity:1;fill-rule:nonzero;stroke:none"
             id="path130" />
        </g>
        <g
           id="g132"
           transform="translate(416.2598,466.7085)">
          <path
             d="m 0,0 -0.943,-0.754 -0.65,0.919 2.051,1.608 0.709,-0.38 v -8.09 l -1.167,0 z"
             style="fill:#930f15;fill-opacity:1;fill-rule:nonzero;stroke:none"
             id="path134" />
        </g>
        <g
           id="g136"
           transform="translate(401.3711,462.9512)">
          <path
             d="m 0,0 c 0,-0.203 -0.021,-0.404 -0.059,-0.604 -0.047,-0.216 -0.104,-0.391 -0.179,-0.549 -0.077,-0.157 -0.196,-0.286 -0.35,-0.4 -0.153,-0.11 -0.342,-0.189 -0.559,-0.227 -0.223,-0.035 -0.4,-0.04 -0.544,-0.035 -0.268,0.009 -0.498,0.066 -0.67,0.187 -0.183,0.124 -0.289,0.246 -0.333,0.393 -0.045,0.124 -0.075,0.265 -0.092,0.406 l -1.172,-0.021 0.116,-0.491 c 0.025,-0.183 0.113,-0.408 0.255,-0.645 0.14,-0.237 0.303,-0.431 0.498,-0.566 0.192,-0.146 0.431,-0.245 0.713,-0.324 0.286,-0.082 0.6,-0.111 0.947,-0.102 0.292,0 0.574,0.045 0.851,0.124 0.281,0.081 0.508,0.179 0.689,0.314 0.17,0.137 0.324,0.295 0.454,0.465 0.135,0.19 0.243,0.407 0.317,0.644 0.09,0.229 0.145,0.48 0.169,0.737 0.021,0.252 0.031,0.589 0.031,1.012 V 2.69 C 1.082,3.111 1.045,3.486 0.956,3.804 0.875,4.095 0.739,4.382 0.553,4.633 0.372,4.883 0.102,5.101 -0.25,5.295 -0.597,5.477 -1.018,5.585 -1.486,5.566 -1.766,5.547 -2.053,5.496 -2.35,5.39 -2.665,5.295 -2.916,5.15 -3.133,4.979 -3.341,4.793 -3.508,4.577 -3.619,4.333 -3.729,4.087 -3.81,3.842 -3.842,3.604 -3.888,3.367 -3.913,3.111 -3.913,2.843 c 0,-0.539 0.047,-0.941 0.151,-1.219 0.105,-0.275 0.242,-0.496 0.409,-0.676 0.161,-0.189 0.427,-0.345 0.77,-0.496 0.356,-0.149 0.782,-0.218 1.273,-0.189 0.194,0 0.375,0.023 0.557,0.055 0.175,0.036 0.326,0.083 0.438,0.134 C -0.205,0.5 -0.101,0.549 0,0.603 Z M -0.042,3.052 C -0.02,2.723 -0.034,2.436 -0.101,2.197 -0.151,1.959 -0.25,1.757 -0.39,1.608 -0.524,1.444 -0.825,1.355 -1.279,1.349 -1.444,1.342 -1.636,1.355 -1.843,1.391 c -0.205,0.038 -0.384,0.124 -0.528,0.247 -0.14,0.13 -0.24,0.294 -0.308,0.501 -0.06,0.165 -0.086,0.41 -0.08,0.741 0,0.324 0.032,0.584 0.101,0.767 0.071,0.187 0.163,0.332 0.282,0.448 0.116,0.105 0.255,0.192 0.424,0.253 0.163,0.056 0.371,0.083 0.624,0.083 C -1.029,4.42 -0.789,4.36 -0.588,4.243 -0.401,4.13 -0.25,3.964 -0.154,3.757 -0.106,3.62 -0.07,3.386 -0.042,3.052"
             style="fill:#930f15;fill-opacity:1;fill-rule:nonzero;stroke:none"
             id="path138" />
        </g>
        <g
           id="g140"
           transform="translate(411.6406,465.0747)">
          <path
             d="M 0,0 C -0.023,0.368 -0.076,0.736 -0.152,1.104 -0.22,1.449 -0.353,1.784 -0.521,2.092 -0.702,2.409 -0.916,2.67 -1.16,2.877 -1.417,3.095 -1.683,3.249 -1.967,3.345 -2.248,3.461 -2.522,3.501 -2.783,3.512 -3.145,3.512 -3.491,3.439 -3.818,3.266 -4.15,3.108 -4.407,2.903 -4.613,2.672 -4.805,2.443 -4.979,2.169 -5.117,1.856 -5.257,1.537 -5.358,1.204 -5.433,0.829 c -0.071,-0.369 -0.11,-0.7 -0.121,-0.993 -0.01,-0.22 -0.014,-0.575 -0.01,-1.056 0.007,-0.48 0.036,-0.891 0.102,-1.231 0.067,-0.335 0.166,-0.667 0.297,-0.989 0.133,-0.324 0.308,-0.613 0.53,-0.878 0.228,-0.249 0.5,-0.446 0.831,-0.577 0.333,-0.126 0.673,-0.192 1.021,-0.192 0.363,0 0.684,0.036 0.984,0.15 0.295,0.11 0.532,0.237 0.728,0.396 0.192,0.159 0.356,0.381 0.516,0.663 0.156,0.281 0.274,0.568 0.352,0.871 0.079,0.298 0.14,0.633 0.173,1.003 C 0,-1.636 0.031,-1.359 0.035,-1.172 0.042,-0.764 0.035,-0.367 0,0 m -1.111,-1.278 c -0.015,-0.264 -0.04,-0.582 -0.096,-0.951 -0.06,-0.364 -0.161,-0.674 -0.308,-0.938 -0.156,-0.267 -0.333,-0.475 -0.562,-0.591 -0.23,-0.12 -0.464,-0.181 -0.723,-0.172 -0.301,0 -0.546,0.073 -0.755,0.223 -0.202,0.136 -0.372,0.327 -0.508,0.582 -0.136,0.252 -0.234,0.559 -0.297,0.915 -0.063,0.367 -0.096,0.796 -0.107,1.322 0,0.307 0,0.558 0.021,0.761 0.016,0.211 0.053,0.476 0.123,0.798 0.063,0.316 0.156,0.6 0.291,0.866 0.124,0.247 0.289,0.449 0.508,0.592 0.212,0.145 0.461,0.216 0.75,0.216 0.284,-0.005 0.519,-0.086 0.719,-0.226 0.193,-0.133 0.361,-0.32 0.495,-0.547 0.148,-0.22 0.25,-0.501 0.326,-0.829 0.076,-0.333 0.12,-0.756 0.136,-1.297 0,-0.22 -0.009,-0.465 -0.013,-0.724"
             style="fill:#930f15;fill-opacity:1;fill-rule:nonzero;stroke:none"
             id="path142" />
        </g>
        <g
           id="g144"
           transform="translate(428.8848,541.4209)">
          <path
             d="m 0,0 1.224,-0.079 1.525,0.953 c 0,0 0.328,0.119 -0.031,0.611 0,0 -0.24,-0.278 -0.668,-0.21 C 1.622,1.343 0.881,1.268 0.479,1.174 L 0.467,1.157 -0.509,1.269 C -0.186,1.51 -0.786,2.951 -0.786,2.951 -1.096,3.535 -1.422,3.299 -1.422,3.299 -1.811,3.022 -1.948,1.96 -1.948,1.96 l -0.35,-0.538 -1.45,-0.054 -1.578,0.231 c 0,0 -0.982,1.059 -1.08,-0.179 l 0.301,-0.998 c 0.01,-0.18 0.06,-0.325 0.131,-0.443 l 0.014,-0.043 0.013,0.009 c 0.292,-0.419 0.897,-0.444 1.111,-0.44 -0.447,-0.075 -2.109,-0.978 -2.109,-0.978 -2.434,-1.683 -5.739,-1.767 -5.739,-1.767 -1.048,-0.291 0.148,-0.589 0.148,-0.589 1.062,-0.241 5.041,0.723 5.041,0.723 5.703,1.57 6.521,3.175 6.521,3.175 C -0.673,0.018 -0.331,0 0,0"
             style="fill:#930f15;fill-opacity:1;fill-rule:nonzero;stroke:none"
             id="path146" />
        </g>
        <g
           id="g148"
           transform="translate(426.3535,536.6929)">
          <path
             d="m 0,0 c 0,0 -0.491,1.01 -0.826,-0.124 0,0 -0.796,-2.462 -1.748,-2.587 0,0 -0.819,-0.384 -0.088,-0.563 0,0 1.798,0.805 2.822,0.834 0,0 1.003,0.849 -0.16,2.44"
             style="fill:#930f15;fill-opacity:1;fill-rule:nonzero;stroke:none"
             id="path150" />
        </g>
        <g
           id="g152"
           transform="translate(370.2109,403.731)">
          <path
             d="m 0,0 v 0.781 c 2.147,0.53 4.481,2.538 4.481,5.819 0,1.572 -0.808,3.161 -2.424,3.161 -3.901,0 -4.423,-10.456 -9.775,-10.456 -2.216,0 -4.723,2.133 -4.723,6.614 0,2.37 0.89,3.904 0.89,4.843 0,0.663 -0.439,0.966 -0.867,0.966 v 0.695 l 5.534,0.939 v -0.716 c -1.238,-0.598 -4.624,-2.201 -4.624,-6.421 0,-2.5 1.499,-3.759 2.907,-3.759 1.483,0 2.369,0.502 4.606,5.104 1.387,2.875 2.53,4.877 5.123,4.877 2.969,0 4.431,-2.844 4.431,-5.658 0,-1.878 -0.884,-3.566 -0.884,-4.347 0,-0.884 0.589,-1.036 0.884,-1.094 v -0.66 z"
             style="fill:#930f15;fill-opacity:1;fill-rule:nonzero;stroke:none"
             id="path154" />
        </g>
        <g
           id="g156"
           transform="translate(358.6279,400.4087)">
          <path
             d="m 0,0 c 0.108,-2.624 0.686,-2.755 2.636,-2.755 h 11.293 c 1.932,0 2.191,0.443 2.359,2.755 h 0.488 V -8.695 H 16.288 C 16.12,-6.312 15.774,-5.94 13.929,-5.94 H 8.862 v -9.482 h 5.067 c 1.932,0 2.191,0.433 2.359,2.751 h 0.488 v -8.694 h -0.488 c -0.168,2.376 -0.514,2.748 -2.359,2.748 H 2.349 c -1.722,0 -2.219,-0.306 -2.349,-2.748 h -0.489 v 8.694 H 0 c 0.108,-2.628 0.686,-2.751 2.636,-2.751 H 7.727 V -5.94 H 2.349 C 0.627,-5.94 0.13,-6.25 0,-8.695 H -0.489 V 0 Z"
             style="fill:#930f15;fill-opacity:1;fill-rule:nonzero;stroke:none"
             id="path158" />
        </g>
        <g
           id="g160"
           transform="translate(358.6279,356.3159)">
          <path
             d="m 0,0 c 0.075,1.38 0.372,1.813 2.278,2.82 l 14.803,7.79 v 0.63 l -12.8,6.505 C 3.13,18.343 1.235,19.313 0.577,20.038 0.075,20.588 0.032,21.125 0,21.626 h -0.489 v -6.2 H 0 c 0,0.657 0,2.139 1.102,2.139 0.284,0 0.654,-0.093 0.989,-0.258 L 5.143,15.87 V 7.67 L 2.636,6.388 C 2.278,6.205 1.418,5.796 0.996,5.796 0.032,5.796 0,6.828 0,7.976 H -0.489 V 0 Z M 6.216,15.336 13.378,11.735 6.216,8.104 Z"
             style="fill:#930f15;fill-opacity:1;fill-rule:nonzero;stroke:none"
             id="path162" />
        </g>
        <g
           id="g164"
           transform="translate(374.916,333.6943)">
          <path
             d="m 0,0 c -0.192,1.966 -0.303,2.975 -3.347,2.975 h -13.711 v 0.533 l 14.27,13.766 v 0.065 h -10.15 c -2.7,0 -3.275,-0.664 -3.35,-2.946 h -0.489 v 7.356 h 0.489 c 0.13,-2.377 0.538,-3.03 3.35,-3.03 H -1.443 C -0.139,19.997 0,20.493 0,21.749 H 0.488 V 16.394 L -12.057,4.413 V 4.351 h 8.71 c 3.006,0 3.208,0.877 3.347,3.005 H 0.488 L 0.488,0 Z"
             style="fill:#930f15;fill-opacity:1;fill-rule:nonzero;stroke:none"
             id="path166" />
        </g>
        <g
           id="g168"
           transform="translate(358.1387,332.7246)">
          <path
             d="m 0,0 v -8.892 c 0,-9.571 5.109,-12.045 8.581,-12.045 5.837,0 8.685,4.971 8.685,12.486 V 0 H 16.777 C 16.609,-2.415 16.351,-2.752 14.418,-2.752 H 2.838 C 1.027,-2.752 0.598,-2.37 0.489,0 Z m 15.276,-5.95 c 0.523,0 1.02,0 1.02,-1.47 0,-3.94 -0.699,-5.694 -1.837,-7.194 -1.599,-2.159 -3.722,-2.906 -5.911,-2.906 -7.579,0 -7.579,7.7 -7.579,9.699 0,1.5 0.171,1.871 1.06,1.871 z"
             style="fill:#930f15;fill-opacity:1;fill-rule:nonzero;stroke:none"
             id="path170" />
        </g>
        <g
           id="g172"
           transform="translate(357.7695,299.3418)">
          <path
             d="M 0,0 C 0,-5.675 3.419,-10.239 8.981,-10.239 14.979,-10.239 18,-5.135 18,0 18,5.124 14.979,10.222 8.981,10.222 3.419,10.222 0,5.661 0,0 m 0.934,0 c 0,3.468 2.334,6.655 8.068,6.655 5.935,0 8.058,-3.47 8.058,-6.655 0,-3.195 -2.123,-6.673 -8.058,-6.673 -5.734,0 -8.068,3.196 -8.068,6.673"
             style="fill:#930f15;fill-opacity:1;fill-rule:nonzero;stroke:none"
             id="path174" />
        </g>
        <g
           id="g176"
           transform="translate(374.916,265.9043)">
          <path
             d="m 0,0 c -0.192,1.982 -0.303,2.982 -3.347,2.982 h -13.711 v 0.534 l 14.27,13.77 v 0.063 h -10.15 c -2.7,0 -3.275,-0.658 -3.35,-2.949 h -0.489 v 7.358 h 0.489 c 0.13,-2.377 0.538,-3.03 3.35,-3.03 H -1.443 C -0.139,20.004 0,20.509 0,21.758 H 0.488 V 16.402 L -12.057,4.417 V 4.362 h 8.71 c 3.006,0 3.208,0.88 3.347,3.001 H 0.488 L 0.488,0 Z"
             style="fill:#930f15;fill-opacity:1;fill-rule:nonzero;stroke:none"
             id="path178" />
        </g>
        <g
           id="g180"
           transform="translate(366.8965,243.2568)">
          <path
             d="m 0,0 c -0.105,1.372 -0.146,2.19 -2.012,2.19 h -5.236 c -0.37,0 -1.879,4.168 -1.879,7.605 0,3.096 0.786,6.572 2.796,8.798 1.504,1.657 3.043,2.597 6.478,2.597 4.364,0 8.726,-4.073 8.726,-10.708 C 8.873,7.318 8.02,5.892 8.02,4.88 8.02,4.636 8.145,3.604 8.873,3.412 V 2.721 L 3.37,2.465 v 0.723 c 1.861,0.849 4.457,2.48 4.457,6.855 0,2.978 -1.645,7.573 -8.241,7.573 -4.725,0 -7.673,-3.25 -7.673,-8.103 0,-2.128 0.607,-4.283 1.544,-4.283 h 4.224 c 2.173,0 2.194,0.624 2.319,2.753 H 0.467 L 0.467,0 Z"
             style="fill:#930f15;fill-opacity:1;fill-rule:nonzero;stroke:none"
             id="path182" />
        </g>
        <g
           id="g184"
           transform="translate(374.916,212.9697)">
          <path
             d="m 0,0 c -0.224,2.404 -0.608,2.94 -3.347,2.94 h -6.8 c -2.087,0 -6.999,0 -6.999,8.103 0,7.763 5.089,7.763 6.644,7.763 h 8.143 c 1.932,0 2.22,0.44 2.359,2.814 H 0.488 V 12.763 H 0 c -0.168,2.469 -0.514,2.855 -2.359,2.855 h -8.343 c -1.662,0 -5.298,0 -5.298,-5.451 0,-2.438 0.839,-4.23 2.061,-5.132 0.569,-0.416 1.448,-0.724 3.555,-0.724 h 7.037 c 2.793,0 3.237,0.758 3.347,2.946 H 0.488 L 0.488,0 Z"
             style="fill:#930f15;fill-opacity:1;fill-rule:nonzero;stroke:none"
             id="path186" />
        </g>
        <g
           id="g188"
           transform="translate(374.916,190.3115)">
          <path
             d="m 0,0 c -0.192,1.97 -0.303,2.972 -3.347,2.972 h -13.711 v 0.526 l 14.27,13.773 v 0.064 h -10.15 c -2.7,0 -3.275,-0.658 -3.35,-2.941 h -0.489 v 7.352 h 0.489 c 0.13,-2.376 0.538,-3.033 3.35,-3.033 H -1.443 C -0.139,19.996 0,20.502 0,21.746 H 0.488 V 16.388 L -12.057,4.413 V 4.352 h 8.71 c 3.006,0 3.208,0.873 3.347,3.001 H 0.488 L 0.488,0 Z"
             style="fill:#930f15;fill-opacity:1;fill-rule:nonzero;stroke:none"
             id="path190" />
        </g>
        <g
           id="g192"
           transform="translate(358.6279,189.2832)">
          <path
             d="m 0,0 c 0.069,-2.666 0.505,-3.041 2.349,-3.041 h 11.58 c 1.932,0 2.249,0.437 2.359,3.041 h 0.488 v -9.301 h -0.488 c -0.087,2.288 -0.267,3.066 -2.359,3.066 H 2.349 c -2.03,0 -2.28,-0.75 -2.349,-3.066 H -0.489 V 0 Z"
             style="fill:#930f15;fill-opacity:1;fill-rule:nonzero;stroke:none"
             id="path194" />
        </g>
        <g
           id="g196"
           transform="translate(374.916,157.6064)">
          <path
             d="M 0,0 C -0.087,1.507 -0.463,1.95 -2.431,2.879 L -17.058,9.83 v 0.471 l 14.303,7.687 c 2.382,1.29 2.698,1.854 2.755,3.325 H 0.488 V 12.991 H 0 c -0.087,1.757 -0.139,2.339 -0.979,2.339 -0.395,0 -1.452,-0.561 -2.78,-1.276 l -8.836,-4.726 9.576,-4.599 c 0.169,-0.058 1.266,-0.597 1.806,-0.597 1.074,0 1.156,1.099 1.213,2.283 H 0.488 L 0.488,0 Z"
             style="fill:#930f15;fill-opacity:1;fill-rule:nonzero;stroke:none"
             id="path198" />
        </g>
        <g
           id="g200"
           transform="translate(358.1387,139.5537)">
          <path
             d="m 0,0 v 16.898 h 0.489 c 0.109,-2.006 0.344,-2.717 2.349,-2.717 h 11.58 c 2.057,0 2.221,0.746 2.359,2.717 h 0.489 V 0.282 L 13.535,0.18 v 0.79 c 2.318,0.468 2.729,1.28 2.729,4.757 V 9.95 c 0,0.657 0,1.039 -0.891,1.039 H 9.602 V 6.166 c 0,-2.784 0.627,-3.095 2.47,-3.446 V 2.002 H 6.025 V 2.72 c 2.079,0.372 2.451,0.846 2.477,3.446 l 0.046,4.823 H 2.087 c -1.06,0 -1.093,0 -1.093,-4.668 0,-3.913 0.784,-5.478 3.419,-6.854 V -1.41 Z"
             style="fill:#930f15;fill-opacity:1;fill-rule:nonzero;stroke:none"
             id="path202" />
        </g>
        <g
           id="g204"
           transform="translate(358.6279,117.0811)">
          <path
             d="M 0,0 C 0.069,1.287 0.538,2.033 1.235,2.727 L 7.821,9.173 C 8.092,7.576 8.716,3.512 12.21,3.512 c 4.021,0 4.566,5.166 4.566,7.947 V 20.09 H 16.288 C 16.096,17.895 15.861,17.43 13.929,17.43 H 2.636 C 0.686,17.43 0.13,17.559 0,20.09 H -0.489 V 11.429 H 0 c 0.108,2.5 0.607,2.809 2.349,2.809 h 5.154 l 0.038,-1.75 -8.03,-7.45 0,-5.038 z m 14.878,14.238 c 0.745,0 0.929,-0.281 0.929,-1.935 0,-1.29 -0.073,-5.387 -3.539,-5.387 -3.729,0 -3.794,4.694 -3.802,7.322 z"
             style="fill:#930f15;fill-opacity:1;fill-rule:nonzero;stroke:none"
             id="path206" />
        </g>
        <g
           id="g208"
           transform="translate(370.2109,102.1514)">
          <path
             d="m 0,0 v 0.787 c 2.147,0.523 4.481,2.541 4.481,5.826 0,1.562 -0.808,3.155 -2.424,3.155 -3.901,0 -4.423,-10.45 -9.775,-10.45 -2.216,0 -4.723,2.12 -4.723,6.608 0,2.377 0.89,3.903 0.89,4.849 0,0.65 -0.439,0.97 -0.867,0.97 v 0.684 l 5.534,0.936 v -0.719 c -1.238,-0.594 -4.624,-2.187 -4.624,-6.414 0,-2.498 1.499,-3.759 2.907,-3.759 1.483,0 2.369,0.505 4.606,5.106 1.387,2.88 2.53,4.888 5.123,4.888 2.969,0 4.431,-2.851 4.431,-5.671 0,-1.882 -0.884,-3.563 -0.884,-4.344 0,-0.881 0.589,-1.035 0.884,-1.107 V 0.691 Z"
             style="fill:#930f15;fill-opacity:1;fill-rule:nonzero;stroke:none"
             id="path210" />
        </g>
        <g
           id="g212"
           transform="translate(358.6279,98.877)">
          <path
             d="m 0,0 c 0.069,-2.672 0.505,-3.044 2.349,-3.044 h 11.58 c 1.932,0 2.249,0.447 2.359,3.044 h 0.488 v -9.303 h -0.488 c -0.087,2.29 -0.267,3.067 -2.359,3.067 H 2.349 C 0.319,-6.236 0.069,-6.979 0,-9.303 H -0.489 V 0 Z"
             style="fill:#930f15;fill-opacity:1;fill-rule:nonzero;stroke:none"
             id="path214" />
        </g>
        <g
           id="g216"
           transform="translate(358.1387,74.8711)">
          <path
             d="M 0,0 V 9.134 H 0.489 C 0.598,6.282 1.203,6.19 3.125,6.19 h 13.044 v 1.692 c 0,3.436 -0.496,4.288 -3.338,4.98 v 0.746 l 4.435,-0.181 V -4.231 l -4.435,-0.182 v 0.746 c 2.868,0.66 3.338,1.533 3.338,4.977 V 3.001 H 2.838 C 1.066,3.001 0.564,2.626 0.489,0 Z"
             style="fill:#930f15;fill-opacity:1;fill-rule:nonzero;stroke:none"
             id="path218" />
        </g>
        <g
           id="g220"
           transform="translate(374.916,47.8916)">
          <path
             d="m 0,0 c -0.11,1.129 -0.224,2.164 -2.987,4.316 l -5.89,4.638 h -5.062 c -1.87,0 -2.317,-0.405 -2.349,-3.225 h -0.489 v 9.58 h 0.489 c 0.069,-3.072 0.65,-3.171 2.636,-3.171 h 4.54 l 5.004,4.106 c 3.916,3.193 3.998,3.659 4.108,5.073 h 0.488 v -8.77 H 0 c -0.057,1.445 -0.087,2.222 -0.805,2.222 -0.299,0 -0.798,-0.242 -1.13,-0.527 L -7.731,9.613 -1.838,5.128 C -1.544,4.922 -1.233,4.695 -0.869,4.695 -0.057,4.695 0,5.884 0,6.86 H 0.488 V 0 Z"
             style="fill:#930f15;fill-opacity:1;fill-rule:nonzero;stroke:none"
             id="path222" />
        </g>
        <g
           id="g224"
           transform="translate(420.6943,386.7583)">
          <path
             d="m 0,0 c 0,0 0.169,-1.826 1.864,-1.525 0,0 4.153,3.395 4.288,7.042 0,0 1.623,11.462 4.037,16.005 0,0 0.291,2.794 -6.067,8.812 0,0 -2.291,-0.68 -2.143,-1.752 0.167,-1.093 3.124,-2.463 1.358,-9.083 L 1.771,5.641 C 1.771,5.641 1.65,1.509 0,0"
             style="fill:#930f15;fill-opacity:1;fill-rule:nonzero;stroke:none"
             id="path226" />
        </g>
        <g
           id="g228"
           transform="translate(451.25,379.1284)">
          <path
             d="m 0,0 -6.396,7.223 c 0,0 -3.311,1.483 -2.612,-1.77 0,0 -3.223,-10.894 -8.591,-13.845 0,0 -0.753,-3.293 2.816,-1.003 0,0 9.539,6.09 12.463,5.673 0,0 3.732,1.216 2.32,3.722"
             style="fill:#930f15;fill-opacity:1;fill-rule:nonzero;stroke:none"
             id="path230" />
        </g>
        <g
           id="g232"
           transform="translate(428.8691,381.1602)">
          <path
             d="m 0,0 c 0,0 1.378,2.713 -1.51,1.903 0,0 -6.093,-7.692 -10.083,-8.422 0,0 -6.611,-6.731 -9.119,-7.895 0,0 -5.239,-3.3 -5.942,-4.53 l -0.746,0.706 c 0,0 5.792,13.63 -0.944,16.236 0,0 -1.322,-0.66 -1.02,-2.584 0,0 -4.075,-14.8 -7.421,-16.839 0,0 2.677,-4.168 5.905,-6.988 0,0 11.985,5.437 15.547,8.201 0,0 6.022,5.643 7.418,8.103 0,0 6.207,8.061 7.915,12.109"
             style="fill:#930f15;fill-opacity:1;fill-rule:nonzero;stroke:none"
             id="path234" />
        </g>
        <g
           id="g236"
           transform="translate(434.2188,127.9512)">
          <path
             d="M 0,0 C 0,0 0.008,1.235 1.438,1.824 L 4.998,3.74 C 4.998,3.74 1.874,-3.747 0,0 m -7.739,-68.436 c -3.225,-10.344 -17.507,-1.432 -17.507,-1.432 -7.846,2.599 5.163,6.769 5.163,6.769 l 9.768,3.193 c 8.423,2.207 2.576,-8.53 2.576,-8.53 M 7.104,10.098 5.478,8.367 -1.238,4.343 c 0,0 -0.498,-4.598 -6.602,-1.739 0,0 -2.196,0.288 -2.991,-3.354 l -11.583,-8.007 c 0,0 -3.737,-2.5 -3.795,4.166 0,0 -0.392,5.128 -3.01,-1.489 0,0 -1.542,-7.795 0.031,-9.342 0,0 5.906,-2.806 7.286,2.551 0,0 10.207,7.624 11.881,8.92 0,0 4.808,-3.659 7.121,-2.978 0,0 2.042,-1.314 -3.177,-5.159 0,0 -18.478,-20.66 -22.709,-20.296 0,0 -2.621,-4.73 -1.363,-7.841 0,0 4.753,-1.973 6.111,-1.004 l 7.286,5.692 c 0,0 0.493,-3.476 -3.682,-9.174 0,0 -1.099,-6.472 5.504,-4.091 0,0 7.425,1.069 8.541,-4.306 0,0 -12.101,4.216 -33.514,-9.017 0,0 -1.734,-5.854 23.51,-17.356 0,0 10.105,-4.584 13.277,7.425 l 1.525,9.683 c 0,0 -1.18,1.424 1.631,1.737 l 6.228,-2.489 c 0,0 1.256,-3.723 3.557,-0.552 0,0 6.919,1.457 -0.377,6.372 l -11.543,3.408 c 0,0 3.483,6.719 -9.782,9.909 l 6.141,15.396 c 0,0 -2.069,5.649 -10.221,-0.154 0,0 7.152,7.171 10.931,8.606 0,0 1.639,-0.106 2.875,4.24 0,0 2.558,0.18 6.591,7.359 0,0 4.121,-0.724 10.705,15.976 0,0 -4.668,4.059 -8.041,2.663"
             style="fill:#930f15;fill-opacity:1;fill-rule:nonzero;stroke:none"
             id="path238" />
        </g>
        <g
           id="g240"
           transform="translate(416.5332,284.29)">
          <path
             d="m 0,0 -4.767,-2.905 4.118,13.838 C 0.693,15.344 5.475,17.36 5.475,17.36 5.365,13.211 2.595,5.962 2.595,5.962 1.356,2.198 0,0 0,0 m 7.819,-7.72 c 0,0 -1.454,4.501 7.669,14.692 l -0.775,4.151 0.978,2.389 -2.194,1.769 c 0,0 -0.066,4.256 -4.477,4.256 0,0 -2.555,0.634 2.564,3.366 l 10.815,6.474 5.342,12.325 c 0,0 1.515,2.126 -2.792,3.63 0,0 -0.292,-2.724 -3.215,-4.127 -2.906,-1.4 -7.157,-5.001 -9.224,-7.285 0,0 4.391,11.706 4.845,14.357 l -0.727,5.034 c 0,0 -2.675,3.921 -3.077,-3.79 L 1.33,25.374 -6.317,21.308 c 0,0 -7.355,1.636 -4.11,-3.971 l 6.313,-5.051 -7.346,-15.874 -2.275,-4.364 5.262,-3.748 8.534,4.92 c 0,0 1.101,-0.007 0.739,-1.803 l -2.501,-7.108 c 0,0 -5.628,-5.823 -7.747,-5.632 0,0 -0.879,0 -3.792,-0.95 0,0 -8.856,-4.379 -0.763,-8.491 0,0 2.545,-2.824 5.311,1.743 l 3.655,5.915 10.982,-8.439 c 0,0 2.397,2.984 1.814,8.366 z"
             style="fill:#930f15;fill-opacity:1;fill-rule:nonzero;stroke:none"
             id="path242" />
        </g>
        <g
           id="g244"
           transform="translate(436.3877,270.9727)">
          <path
             d="m 0,0 -7.537,2.185 c 0,0 -5.79,-0.174 -1.18,-2.985 0,0 3.88,-3.924 5.173,-7.193 0,0 1.085,-5.937 5.199,-1.315 l 1.844,3.633 c 0,0 1.455,3.501 -3.499,5.675"
             style="fill:#930f15;fill-opacity:1;fill-rule:nonzero;stroke:none"
             id="path246" />
        </g>
        <g
           id="g248"
           transform="translate(435.5303,209.5967)">
          <path
             d="m 0,0 5.489,3.285 3.729,8.609 c 0,0 1.057,1.484 -1.947,2.534 0,0 -0.206,-1.903 -2.247,-2.884 C 2.994,10.568 0.026,8.053 -1.418,6.458 L -1.427,6.352 -5.947,3.936 c 0.677,1.998 -6.163,6.402 -6.163,6.402 -3.067,1.594 -3.767,-0.383 -3.767,-0.383 -0.851,-2.346 1.7,-7.309 1.7,-7.309 l 0.1,-3.342 -6.07,-4.534 -7.46,-3.68 c 0,0 -7.355,1.637 -4.108,-3.97 l 4.243,-3.396 c 0.588,-0.74 1.227,-1.222 1.884,-1.508 l 0.185,-0.147 0.03,0.073 c 2.492,-0.929 5.168,0.758 6.076,1.411 -1.697,-1.658 -6.164,-10.452 -6.164,-10.452 -5.461,-14.437 -19.407,-24.588 -19.407,-24.588 -3.645,-4.359 2.379,-2.098 2.379,-2.098 5.275,2.114 19.505,18.038 19.505,18.038 19.841,23.644 18.597,32.958 18.597,32.958 C -2.94,-1.92 -1.42,-0.983 0,0"
             style="fill:#930f15;fill-opacity:1;fill-rule:nonzero;stroke:none"
             id="path250" />
        </g>
        <g
           id="g252"
           transform="translate(438.666,181.792)">
          <path
             d="m 0,0 c 0,0 -5.104,2.883 -3.181,-2.969 0,0 3.878,-12.94 0.149,-16.298 0,0 -2.37,-4.073 1.299,-2.675 0,0 5.335,8.786 9.654,11.937 0,0 1.779,6.62 -7.921,10.005"
             style="fill:#930f15;fill-opacity:1;fill-rule:nonzero;stroke:none"
             id="path254" />
        </g>
      </g>
    </g>
  </g>
</svg>
