<?xml version="1.0" encoding="UTF-8" standalone="no"?>
<!-- Created with Inkscape (http://www.inkscape.org/) -->

<svg
   version="1.1"
   id="svg2"
   width="1122.52"
   height="793.70667"
   viewBox="0 0 1122.52 793.70667"
   sodipodi:docname="居中.svg"
   inkscape:version="1.2.2 (b0a8486541, 2022-12-01)"
   xmlns:inkscape="http://www.inkscape.org/namespaces/inkscape"
   xmlns:sodipodi="http://sodipodi.sourceforge.net/DTD/sodipodi-0.dtd"
   xmlns="http://www.w3.org/2000/svg"
   xmlns:svg="http://www.w3.org/2000/svg">
  <defs
     id="defs6">
    <clipPath
       clipPathUnits="userSpaceOnUse"
       id="clipPath18">
      <path
         d="M 0,595.28 H 841.89 V 0 H 0 Z"
         id="path16" />
    </clipPath>
  </defs>
  <sodipodi:namedview
     id="namedview4"
     pagecolor="#ffffff"
     bordercolor="#000000"
     borderopacity="0.25"
     inkscape:showpageshadow="2"
     inkscape:pageopacity="0.0"
     inkscape:pagecheckerboard="0"
     inkscape:deskcolor="#d1d1d1"
     showgrid="false"
     inkscape:zoom="0.29733907"
     inkscape:cx="561.64836"
     inkscape:cy="398.53491"
     inkscape:window-width="2560"
     inkscape:window-height="1284"
     inkscape:window-x="0"
     inkscape:window-y="0"
     inkscape:window-maximized="1"
     inkscape:current-layer="g10">
    <inkscape:page
       x="0"
       y="0"
       id="page8"
       width="1122.52"
       height="793.70667" />
  </sodipodi:namedview>
  <g
     id="g10"
     inkscape:groupmode="layer"
     inkscape:label="Page 1"
     transform="matrix(1.3333333,0,0,-1.3333333,0,793.70667)">
    <g
       id="g12">
      <g
         id="g14"
         clip-path="url(#clipPath18)">
        <g
           id="g20"
           transform="translate(283.978,233.2656)">
          <path
             d="m 0,0 c 0,0 0.225,-2.44 2.493,-2.039 0,0 5.551,4.541 5.732,9.414 0,0 2.171,15.326 5.398,21.404 0,0 0.388,3.735 -8.11,11.784 0,0 -3.066,-0.911 -2.867,-2.345 0.219,-1.462 4.176,-3.293 1.815,-12.144 L 2.369,7.543 C 2.369,7.543 2.208,2.015 0,0"
             style="fill:#930f15;fill-opacity:1;fill-rule:nonzero;stroke:none"
             id="path22" />
        </g>
        <g
           id="g24"
           transform="translate(324.8359,223.0625)">
          <path
             d="m 0,0 -8.555,9.657 c 0,0 -4.427,1.986 -3.49,-2.362 0,0 -4.314,-14.566 -11.487,-18.517 0,0 -1.01,-4.4 3.766,-1.342 0,0 12.753,8.145 16.664,7.59 0,0 4.988,1.621 3.102,4.974"
             style="fill:#930f15;fill-opacity:1;fill-rule:nonzero;stroke:none"
             id="path26" />
        </g>
        <g
           id="g28"
           transform="translate(294.9102,225.7822)">
          <path
             d="m 0,0 c 0,0 1.838,3.628 -2.021,2.544 0,0 -8.146,-10.288 -13.481,-11.26 0,0 -8.84,-9.005 -12.193,-10.56 0,0 -7.009,-4.413 -7.951,-6.054 l -0.991,0.941 c 0,0 7.742,18.229 -1.266,21.709 0,0 -1.765,-0.878 -1.363,-3.457 0,0 -5.448,-19.785 -9.925,-22.511 0,0 3.582,-5.575 7.899,-9.345 0,0 16.023,7.267 20.788,10.966 0,0 8.051,7.543 9.919,10.836 0,0 8.304,10.779 10.585,16.191"
             style="fill:#930f15;fill-opacity:1;fill-rule:nonzero;stroke:none"
             id="path30" />
        </g>
        <g
           id="g32"
           transform="translate(593.4736,282.6279)">
          <path
             d="m 0,0 c 0,0 0.011,1.651 1.926,2.44 l 4.76,2.565 C 6.686,5.005 2.504,-5.007 0,0 m -10.353,-91.51 c -4.311,-13.828 -23.406,-1.915 -23.406,-1.915 -10.491,3.478 6.906,9.055 6.906,9.055 l 13.06,4.266 c 11.265,2.951 3.44,-11.406 3.44,-11.406 M 9.498,13.499 7.326,11.188 -1.655,5.81 c 0,0 -0.665,-6.152 -8.831,-2.328 0,0 -2.935,0.387 -3.995,-4.484 l -15.491,-10.707 c 0,0 -4.997,-3.342 -5.076,5.57 0,0 -0.523,6.858 -4.024,-1.991 0,0 -2.059,-10.422 0.046,-12.489 0,0 7.893,-3.753 9.737,3.407 0,0 13.648,10.191 15.891,11.926 0,0 6.425,-4.89 9.521,-3.979 0,0 2.732,-1.756 -4.249,-6.899 0,0 -24.711,-27.624 -30.362,-27.139 0,0 -3.506,-6.319 -1.83,-10.484 0,0 6.364,-2.639 8.172,-1.343 l 9.744,7.612 c 0,0 0.664,-4.646 -4.919,-12.268 0,0 -1.472,-8.657 7.355,-5.467 0,0 9.929,1.428 11.424,-5.76 0,0 -16.183,5.64 -44.812,-12.057 0,0 -2.324,-7.83 31.431,-23.204 0,0 13.513,-6.136 17.752,9.927 l 2.041,12.943 c 0,0 -1.575,1.905 2.185,2.327 l 8.326,-3.329 c 0,0 1.68,-4.98 4.759,-0.741 0,0 9.248,1.953 -0.504,8.525 l -15.438,4.556 c 0,0 4.656,8.98 -13.077,13.249 l 8.209,20.583 c 0,0 -2.765,7.554 -13.667,-0.206 0,0 9.565,9.592 14.616,11.509 0,0 2.195,-0.14 3.844,5.671 0,0 3.419,0.238 8.815,9.836 0,0 5.507,-0.964 14.312,21.365 0,0 -6.242,5.429 -10.752,3.558"
             style="fill:#930f15;fill-opacity:1;fill-rule:nonzero;stroke:none"
             id="path34" />
        </g>
        <g
           id="g36"
           transform="translate(379.6191,220.4688)">
          <path
             d="m 0,0 -6.374,-3.89 5.502,18.508 c 1.796,5.898 8.189,8.599 8.189,8.599 C 7.173,17.664 3.47,7.971 3.47,7.971 1.813,2.94 0,0 0,0 m 10.455,-10.323 c 0,0 -1.942,6.017 10.252,19.642 l -1.037,5.553 1.31,3.192 -2.934,2.368 c 0,0 -0.09,5.692 -5.99,5.692 0,0 -3.415,0.849 3.434,4.499 l 14.463,8.657 7.139,16.484 c 0,0 2.029,2.843 -3.735,4.851 0,0 -0.388,-3.639 -4.298,-5.519 -3.886,-1.871 -9.568,-6.686 -12.331,-9.74 0,0 5.868,15.653 6.476,19.196 l -0.97,6.729 c 0,0 -3.577,5.242 -4.117,-5.066 L 1.777,33.929 -8.445,28.489 c 0,0 -9.838,2.191 -5.499,-5.307 l 8.439,-6.757 -9.819,-21.222 -3.043,-5.835 7.036,-5.01 11.411,6.575 c 0,0 1.475,-0.011 0.989,-2.408 l -3.343,-9.505 c 0,0 -7.531,-7.791 -10.362,-7.53 0,0 -1.174,0 -5.072,-1.273 0,0 -11.84,-5.856 -1.019,-11.353 0,0 3.405,-3.778 7.104,2.332 l 4.888,7.906 14.685,-11.281 c 0,0 3.203,3.989 2.424,11.184 z"
             style="fill:#930f15;fill-opacity:1;fill-rule:nonzero;stroke:none"
             id="path38" />
        </g>
        <g
           id="g40"
           transform="translate(406.167,202.6621)">
          <path
             d="m 0,0 -10.077,2.922 c 0,0 -7.744,-0.234 -1.579,-3.993 0,0 5.187,-5.247 6.916,-9.617 0,0 1.451,-7.938 6.95,-1.759 l 2.47,4.858 c 0,0 1.943,4.684 -4.68,7.589"
             style="fill:#930f15;fill-opacity:1;fill-rule:nonzero;stroke:none"
             id="path42" />
        </g>
        <g
           id="g44"
           transform="translate(499.9199,258.6611)">
          <path
             d="m 0,0 7.341,4.392 4.984,11.512 c 0,0 1.416,1.985 -2.604,3.39 0,0 -0.273,-2.546 -3.006,-3.855 C 4.004,14.134 0.036,10.771 -1.896,8.635 L -1.906,8.492 -7.951,5.266 c 0.907,2.667 -8.237,8.561 -8.237,8.561 -4.107,2.127 -5.04,-0.513 -5.04,-0.513 -1.138,-3.137 2.273,-9.779 2.273,-9.779 l 0.132,-4.468 -8.114,-6.063 -9.976,-4.919 c 0,0 -9.834,2.186 -5.496,-5.308 l 5.673,-4.539 c 0.785,-0.987 1.639,-1.637 2.524,-2.016 l 0.246,-0.2 0.037,0.095 c 3.331,-1.237 6.91,1.015 8.124,1.893 -2.263,-2.221 -8.241,-13.976 -8.241,-13.976 -7.299,-19.305 -25.95,-32.881 -25.95,-32.881 -4.872,-5.829 3.178,-2.804 3.178,-2.804 7.061,2.83 26.082,24.119 26.082,24.119 26.534,31.618 24.87,44.071 24.87,44.071 C -3.93,-2.566 -1.898,-1.313 0,0"
             style="fill:#930f15;fill-opacity:1;fill-rule:nonzero;stroke:none"
             id="path46" />
        </g>
        <g
           id="g48"
           transform="translate(504.1123,221.4805)">
          <path
             d="m 0,0 c 0,0 -6.828,3.856 -4.257,-3.972 0,0 5.19,-17.298 0.203,-21.791 0,0 -3.171,-5.441 1.736,-3.576 0,0 7.138,11.751 12.911,15.962 0,0 2.377,8.856 -10.593,13.377"
             style="fill:#930f15;fill-opacity:1;fill-rule:nonzero;stroke:none"
             id="path50" />
        </g>
        <g
           id="g52"
           transform="translate(429.7207,313.6484)">
          <path
             d="m 0,0 c -42.936,0 -77.742,34.807 -77.742,77.744 0,42.944 34.806,77.755 77.742,77.755 42.948,0 77.742,-34.811 77.742,-77.755 C 77.742,34.807 42.948,0 0,0 m 0,158.321 c -44.504,0 -80.571,-36.069 -80.571,-80.577 0,-44.509 36.067,-80.567 80.571,-80.567 44.502,0 80.573,36.058 80.573,80.567 0,44.508 -36.071,80.577 -80.573,80.577"
             style="fill:#930f15;fill-opacity:1;fill-rule:evenodd;stroke:none"
             id="path54" />
        </g>
        <g
           id="g56"
           transform="translate(419.9902,325.0303)">
          <path
             d="M 0,0 0.258,1.724 4.797,1.056 4.171,-3.017 C 3.673,-3.365 2.97,-3.645 2.083,-3.836 1.201,-4.022 0.338,-4.056 -0.521,-3.928 c -1.099,0.154 -2.01,0.521 -2.742,1.088 -0.752,0.568 -1.261,1.298 -1.539,2.193 -0.275,0.892 -0.334,1.817 -0.191,2.806 0.175,1.063 0.544,1.968 1.133,2.728 0.575,0.76 1.339,1.288 2.282,1.611 C -0.857,6.725 0,6.773 0.995,6.628 2.289,6.435 3.259,6.025 3.894,5.385 4.545,4.746 4.897,3.952 4.965,2.976 L 2.808,2.919 C 2.738,3.434 2.518,3.866 2.165,4.211 1.806,4.563 1.329,4.793 0.725,4.881 -0.193,5.005 -0.969,4.83 -1.603,4.345 -2.225,3.85 -2.63,3.032 -2.813,1.915 c -0.172,-1.208 -0.048,-2.159 0.412,-2.846 0.452,-0.689 1.13,-1.104 2.022,-1.228 0.429,-0.066 0.878,-0.038 1.349,0.056 0.474,0.118 0.878,0.256 1.241,0.45 l 0.193,1.299 z"
             style="fill:#930f15;fill-opacity:1;fill-rule:nonzero;stroke:none"
             id="path58" />
        </g>
        <g
           id="g60"
           transform="translate(402.7461,325.626)">
          <path
             d="M 0,0 3.495,9.706 5.448,9.047 7.181,1.166 9.519,7.647 11.382,7.014 7.896,-2.7 5.872,-2.012 4.152,5.736 1.858,-0.641 Z"
             style="fill:#930f15;fill-opacity:1;fill-rule:nonzero;stroke:none"
             id="path62" />
        </g>
        <g
           id="g64"
           transform="translate(372.9795,348.1211)">
          <path
             d="M 0,0 8.02,6.691 9.359,5.162 6.818,-2.512 12.168,1.966 13.453,0.491 5.438,-6.198 4.059,-4.614 6.545,2.913 1.29,-1.458 Z"
             style="fill:#930f15;fill-opacity:1;fill-rule:nonzero;stroke:none"
             id="path66" />
        </g>
        <g
           id="g68"
           transform="translate(392.3975,332.3896)">
          <path
             d="m 0,0 c 0.296,-1.269 1.115,-2.305 2.458,-3.09 1.333,-0.777 2.644,-1 3.932,-0.661 1.283,0.334 2.369,1.218 3.249,2.647 0.89,1.44 1.188,2.792 0.888,4.07 C 10.223,4.236 9.399,5.27 8.08,6.058 7.348,6.494 6.625,6.748 5.917,6.857 5.388,6.923 4.842,6.889 4.256,6.742 3.68,6.595 3.148,6.355 2.668,6.018 2.019,5.572 1.411,4.912 0.851,4.01 -0.006,2.604 -0.29,1.267 0,0 M 4.875,4.835 C 5.648,5.068 6.41,4.961 7.164,4.52 7.91,4.083 8.355,3.474 8.5,2.709 8.646,1.938 8.408,1.052 7.788,0.042 7.149,-0.983 6.444,-1.615 5.654,-1.851 4.875,-2.094 4.121,-1.987 3.395,-1.577 2.672,-1.139 2.227,-0.525 2.079,0.267 1.931,1.052 2.163,1.957 2.774,2.964 3.4,3.976 4.106,4.596 4.875,4.835"
             style="fill:#930f15;fill-opacity:1;fill-rule:nonzero;stroke:none"
             id="path70" />
        </g>
        <g
           id="g72"
           transform="translate(381.2236,339.249)">
          <path
             d="m 0,0 3.048,-2.524 c 0.595,-0.49 1.124,-0.83 1.575,-1.028 0.615,-0.25 1.174,-0.342 1.69,-0.308 0.681,0.054 1.364,0.279 2.061,0.682 0.571,0.328 1.137,0.816 1.701,1.464 0.635,0.735 1.082,1.431 1.343,2.071 0.262,0.641 0.38,1.284 0.338,1.903 C 11.72,2.898 11.521,3.468 11.174,4.001 10.911,4.386 10.451,4.852 9.779,5.404 L 6.82,7.852 Z M 8.013,4.583 C 8.673,4.026 9.093,3.638 9.279,3.398 9.527,3.094 9.662,2.76 9.708,2.418 9.741,2.071 9.681,1.699 9.506,1.277 9.341,0.861 8.989,0.357 8.458,-0.258 7.923,-0.871 7.461,-1.294 7.049,-1.564 6.64,-1.825 6.271,-1.949 5.974,-1.966 5.663,-1.989 5.352,-1.898 5.035,-1.745 4.793,-1.638 4.44,-1.386 3.988,-1.024 L 2.789,-0.017 7.29,5.178 Z"
             style="fill:#930f15;fill-opacity:1;fill-rule:nonzero;stroke:none"
             id="path74" />
        </g>
        <g
           id="g76"
           transform="translate(378.3945,359.1074)">
          <path
             d="m 0,0 -1.117,1.912 -11.196,-1.609 1.117,-1.917 2.528,0.427 2.083,-3.595 -1.638,-1.939 1.134,-1.938 z m -6.795,-0.882 4.099,0.677 -2.672,-3.13 z"
             style="fill:#930f15;fill-opacity:1;fill-rule:nonzero;stroke:none"
             id="path78" />
        </g>
        <g
           id="g80"
           transform="translate(361.9971,369.6787)">
          <path
             d="M 0,0 9.916,3.508 10.643,1.546 6.728,0.16 l 1.418,-3.804 3.908,1.38 0.731,-1.967 -9.909,-3.496 -0.735,1.949 4.326,1.531 -1.413,3.812 -4.325,-1.527 z"
             style="fill:#930f15;fill-opacity:1;fill-rule:nonzero;stroke:none"
             id="path82" />
        </g>
        <g
           id="g84"
           transform="translate(362.793,381.9072)">
          <path
             d="M 0,0 0.571,-1.949 C -0.088,-2.19 -0.554,-2.521 -0.8,-2.951 c -0.261,-0.416 -0.319,-0.944 -0.208,-1.563 0.126,-0.649 0.358,-1.128 0.706,-1.416 0.346,-0.272 0.714,-0.388 1.09,-0.303 0.25,0.044 0.449,0.14 0.595,0.303 0.142,0.177 0.252,0.458 0.316,0.824 0.036,0.25 0.082,0.828 0.144,1.706 0.079,1.144 0.281,1.965 0.602,2.48 0.46,0.716 1.088,1.151 1.909,1.302 C 4.892,0.477 5.415,0.42 5.93,0.214 6.44,-0.004 6.868,-0.357 7.213,-0.872 7.553,-1.367 7.799,-2.015 7.936,-2.789 8.173,-4.058 8.06,-5.068 7.614,-5.806 7.165,-6.556 6.463,-7.013 5.518,-7.221 l -0.454,2.033 c 0.513,0.183 0.853,0.437 1.034,0.771 0.178,0.317 0.218,0.765 0.115,1.336 C 6.098,-2.484 5.888,-2.054 5.579,-1.76 5.375,-1.573 5.15,-1.504 4.88,-1.552 4.627,-1.592 4.44,-1.73 4.3,-1.958 4.125,-2.267 4.019,-2.93 3.955,-3.964 3.896,-4.995 3.789,-5.771 3.608,-6.301 3.445,-6.815 3.163,-7.251 2.763,-7.593 2.372,-7.95 1.838,-8.177 1.181,-8.288 0.586,-8.399 0,-8.332 -0.586,-8.111 c -0.579,0.237 -1.052,0.619 -1.405,1.184 -0.367,0.528 -0.636,1.239 -0.796,2.125 -0.239,1.278 -0.119,2.303 0.363,3.103 C -1.94,-0.907 -1.134,-0.347 0,0"
             style="fill:#930f15;fill-opacity:1;fill-rule:nonzero;stroke:none"
             id="path86" />
        </g>
        <g
           id="g88"
           transform="translate(431.8232,330.6484)">
          <path
             d="M 0,0 2.119,0.181 2.615,-5.375 C 2.696,-6.266 2.771,-6.83 2.85,-7.089 2.972,-7.49 3.229,-7.817 3.585,-8.047 c 0.357,-0.212 0.836,-0.31 1.42,-0.262 0.588,0.05 1.027,0.212 1.308,0.487 0.289,0.257 0.442,0.567 0.469,0.918 0.037,0.363 0.006,0.949 -0.059,1.76 L 6.215,0.537 8.338,0.718 8.817,-4.676 C 8.937,-5.915 8.951,-6.782 8.882,-7.295 8.817,-7.817 8.649,-8.259 8.372,-8.637 8.091,-9.023 7.708,-9.336 7.21,-9.584 c -0.495,-0.254 -1.148,-0.42 -1.986,-0.491 -0.996,-0.086 -1.761,-0.026 -2.307,0.146 -0.529,0.186 -0.973,0.448 -1.3,0.792 -0.33,0.33 -0.567,0.692 -0.699,1.08 -0.186,0.574 -0.343,1.432 -0.438,2.583 z"
             style="fill:#930f15;fill-opacity:1;fill-rule:nonzero;stroke:none"
             id="path90" />
        </g>
        <g
           id="g92"
           transform="translate(445.1416,321.8418)">
          <path
             d="M 0,0 -2.891,9.913 -0.907,10.451 5.188,4.994 3.253,11.598 5.152,12.125 8.036,2.229 5.981,1.665 0.004,7.034 1.89,0.535 Z"
             style="fill:#930f15;fill-opacity:1;fill-rule:nonzero;stroke:none"
             id="path94" />
        </g>
        <g
           id="g96"
           transform="translate(456.3848,325.3936)">
          <path
             d="m 0,0 -4.004,9.522 1.975,0.796 4.006,-9.52 z"
             style="fill:#930f15;fill-opacity:1;fill-rule:nonzero;stroke:none"
             id="path98" />
        </g>
        <g
           id="g100"
           transform="translate(463.7334,328.668)">
          <path
             d="m 0,0 -8.422,7.195 2.01,1.093 6.137,-5.384 -1.567,7.879 1.983,1.075 1.872,-10.754 z"
             style="fill:#930f15;fill-opacity:1;fill-rule:nonzero;stroke:none"
             id="path102" />
        </g>
        <g
           id="g104"
           transform="translate(471.2295,333.1523)">
          <path
             d="m 0,0 -6.563,8.063 6.112,4.745 1.119,-1.37 L -3.791,7.998 -2.335,6.204 1.813,9.407 2.918,8.055 -1.21,4.832 0.555,2.667 5.154,6.225 6.271,4.881 Z"
             style="fill:#930f15;fill-opacity:1;fill-rule:nonzero;stroke:none"
             id="path106" />
        </g>
        <g
           id="g108"
           transform="translate(481.4502,341.8828)">
          <path
             d="m 0,0 -3.236,2.905 0.287,0.307 c 0.332,0.358 0.611,0.575 0.815,0.701 0.214,0.101 0.46,0.164 0.754,0.164 0.298,0.006 0.924,-0.063 1.899,-0.208 L 3.238,3.459 4.959,5.278 2.583,5.711 C 1.628,5.886 0.942,5.972 0.498,5.972 c -0.434,0 -0.901,-0.086 -1.42,-0.238 0.531,0.747 0.764,1.472 0.689,2.145 -0.064,0.666 -0.391,1.27 -0.971,1.791 -0.464,0.425 -0.977,0.666 -1.535,0.773 -0.574,0.099 -1.086,0.03 -1.583,-0.222 C -4.804,9.977 -5.417,9.456 -6.186,8.649 l -3.029,-3.223 7.77,-6.947 z m -6.452,5.782 1.113,1.185 c 0.581,0.613 0.943,0.985 1.083,1.095 0.268,0.206 0.555,0.301 0.843,0.301 0.287,-0.004 0.56,-0.132 0.819,-0.365 C -2.361,7.786 -2.208,7.56 -2.157,7.313 -2.094,7.074 -2.115,6.83 -2.223,6.602 -2.332,6.354 -2.725,5.871 -3.413,5.138 L -4.472,4.014 Z"
             style="fill:#930f15;fill-opacity:1;fill-rule:nonzero;stroke:none"
             id="path110" />
        </g>
        <g
           id="g112"
           transform="translate(484.7832,350.877)">
          <path
             d="M 0,0 0.985,1.791 C 1.639,1.51 2.203,1.449 2.685,1.581 3.165,1.714 3.577,2.043 3.94,2.575 4.316,3.112 4.49,3.612 4.434,4.051 4.39,4.49 4.203,4.822 3.89,5.025 3.674,5.162 3.464,5.213 3.222,5.202 3.001,5.175 2.732,5.045 2.417,4.833 2.21,4.673 1.765,4.304 1.095,3.705 0.233,2.938 -0.511,2.476 -1.106,2.32 -1.945,2.123 -2.709,2.245 -3.407,2.688 c -0.443,0.294 -0.775,0.683 -1.004,1.18 -0.201,0.502 -0.271,1.049 -0.153,1.65 0.122,0.587 0.401,1.217 0.844,1.883 0.734,1.065 1.523,1.712 2.382,1.937 0.855,0.231 1.685,0.1 2.517,-0.387 L 0.061,7.164 C -0.441,7.38 -0.867,7.433 -1.229,7.336 -1.603,7.208 -1.945,6.905 -2.267,6.436 -2.608,5.931 -2.783,5.467 -2.764,5.045 -2.741,4.786 -2.63,4.58 -2.405,4.425 c 0.208,-0.132 0.443,-0.166 0.704,-0.079 0.34,0.079 0.894,0.487 1.68,1.192 C 0.758,6.24 1.395,6.729 1.884,6.992 2.378,7.248 2.886,7.359 3.419,7.341 3.953,7.317 4.495,7.128 5.056,6.779 5.556,6.439 5.934,5.988 6.194,5.436 6.448,4.877 6.507,4.284 6.385,3.648 6.255,3.012 5.934,2.32 5.43,1.568 4.692,0.493 3.867,-0.173 2.953,-0.412 2.048,-0.675 1.067,-0.531 0,0"
             style="fill:#930f15;fill-opacity:1;fill-rule:nonzero;stroke:none"
             id="path114" />
        </g>
        <g
           id="g116"
           transform="translate(493.7354,358.7637)">
          <path
             d="M 0,0 -9.518,4.442 -8.593,6.313 0.922,1.882 Z"
             style="fill:#930f15;fill-opacity:1;fill-rule:nonzero;stroke:none"
             id="path118" />
        </g>
        <g
           id="g120"
           transform="translate(496.7402,365.709)">
          <path
             d="M 0,0 -8.261,2.825 -9.294,-0.066 -10.98,0.52 -8.223,8.215 -6.538,7.644 -7.562,4.795 0.71,1.966 Z"
             style="fill:#930f15;fill-opacity:1;fill-rule:nonzero;stroke:none"
             id="path122" />
        </g>
        <g
           id="g124"
           transform="translate(499.7666,376.0791)">
          <path
             d="m 0,0 -4.362,0.798 -6.702,-2.628 0.456,2.391 4.559,1.64 -3.66,3.087 0.445,2.355 5.312,-4.797 4.341,-0.798 z"
             style="fill:#930f15;fill-opacity:1;fill-rule:nonzero;stroke:none"
             id="path126" />
        </g>
        <g
           id="g128"
           transform="translate(429.4268,339.1572)">
          <path
             d="M 0,0 C -19.802,0 -37.094,10.61 -46.321,26.411 H 46.342 C 37.099,10.61 19.816,0 0,0 m 0,105.428 c 29.514,0 53.447,-23.61 53.447,-52.72 0,-8.521 -2.046,-16.56 -5.679,-23.688 h -95.486 v -0.046 c -3.659,7.147 -5.723,15.194 -5.723,23.734 0,29.11 23.929,52.72 53.441,52.72 m 0,2.197 c -30.738,0 -55.676,-24.584 -55.676,-54.917 0,-30.34 24.938,-54.924 55.676,-54.924 30.753,0 55.68,24.584 55.68,54.924 0,30.333 -24.927,54.917 -55.68,54.917"
             style="fill:#930f15;fill-opacity:1;fill-rule:nonzero;stroke:none"
             id="path130" />
        </g>
        <g
           id="g132"
           transform="translate(432.1445,403.0532)">
          <path
             d="M 0,0 -1.157,8.128 -4.167,8.229 -5.32,0 -13.888,0.452 -2.544,23.78 10.646,-4.913 0.58,-5.144 4.514,-0.118 Z m -20.594,0.571 -7.977,0.347 4.506,8.91 5.209,-5.258 z m 39.445,9.5 6.945,-14.416 -8.099,-0.452 -4.276,9.367 z m 24.996,-32.708 c -7.522,-5.821 -13.529,0.922 -13.529,0.922 -9.962,-9.267 -17.934,-0.462 -17.934,-0.462 C 6.133,-26.64 3.36,-25.723 3.36,-25.723 l -2.091,15.098 12.272,0.111 2.196,-4.923 h 7.058 l -2.205,4.812 h 8.327 l 2.093,-4.919 7.17,0.336 -1.964,4.465 h 6.129 l 0.118,6.853 -9.832,-0.222 -12.275,24.355 -9.594,-10.067 -13.306,26.87 -13.534,-26.87 -9.484,10.067 -9.717,-19.445 -12.386,0.349 -0.109,-7.091 9.023,0.347 -3.937,-8.46 h 6.821 l 4.051,8.46 8.328,0.221 -3.81,-8.681 h 6.938 l 3.937,8.681 10.524,-0.117 -3.59,-4.912 2.902,-0.109 -1.86,-15.087 c -3.466,-0.813 -8.79,3.541 -8.79,3.541 -9.95,-8.922 -18.506,0.345 -18.506,0.345 -6.245,-6.868 -13.537,-1.026 -13.537,-1.026 l -1.738,-4.127 c 8.102,-5.143 15.383,-0.338 15.383,-0.338 10.298,-6.515 18.398,-0.447 18.398,-0.447 10.175,-6.414 14.461,-0.244 14.461,-0.244 6.71,-5.939 14.93,0.354 14.93,0.354 8.202,-6.417 17.923,0.22 17.923,0.22 8.219,-4.911 15.626,0.34 15.626,0.34 z"
             style="fill:#930f15;fill-opacity:1;fill-rule:nonzero;stroke:none"
             id="path134" />
        </g>
        <g
           id="g136"
           transform="translate(367.3115,417.6465)">
          <path
             d="m 0,0 c 0,0 0.361,-0.317 0.632,0.048 0,0 0.184,1.393 -0.449,2.098 0,0 -1.773,2.46 -2.124,3.754 0,0 -0.454,0.59 -2.753,0.59 0,0 -0.324,-0.538 -0.104,-0.724 0.235,-0.168 1.042,0.094 1.902,-1.473 L -0.688,1.384 C -0.688,1.384 0.044,0.582 0,0"
             style="fill:#930f15;fill-opacity:1;fill-rule:nonzero;stroke:none"
             id="path138" />
        </g>
        <g
           id="g140"
           transform="translate(374.5527,421.6729)">
          <path
             d="m 0,0 -2.543,0.223 c 0,0 -0.901,-0.309 -0.173,-0.801 0,0 1.347,-2.646 0.856,-4.16 0,0 0.451,-0.763 0.724,0.317 0,0 0.718,2.857 1.357,3.301 0,0 0.494,0.885 -0.221,1.12"
             style="fill:#930f15;fill-opacity:1;fill-rule:nonzero;stroke:none"
             id="path142" />
        </g>
        <g
           id="g144"
           transform="translate(369.8965,418.0562)">
          <path
             d="m 0,0 c 0,0 -0.235,0.754 -0.651,0.09 0,0 0.238,-2.558 -0.395,-3.409 0,0 -0.048,-2.457 -0.323,-3.123 0,0 -0.4,-1.571 -0.314,-1.924 h -0.27 c 0,0 -1.357,3.625 -3.117,2.913 0,0 -0.126,-0.359 0.271,-0.676 0,0 1.909,-3.526 1.632,-4.514 0,0 1.254,-0.315 2.393,-0.264 0,0 1.312,3.167 1.488,4.331 0,0 0.129,2.151 -0.048,2.863 0,0 -0.267,2.629 -0.666,3.713"
             style="fill:#930f15;fill-opacity:1;fill-rule:nonzero;stroke:none"
             id="path146" />
        </g>
        <g
           id="g148"
           transform="translate(499.6533,415.6763)">
          <path
             d="m 0,0 c 0,0 0.252,0.082 0.475,-0.176 l 0.634,-0.591 c 0,0 -1.757,0.118 -1.109,0.767 m -14.666,-3.066 c -2.369,-0.034 -1.515,3.482 -1.515,3.482 0,1.781 1.765,-0.592 1.765,-0.592 l 1.329,-1.783 c 1.029,-1.578 -1.579,-1.107 -1.579,-1.107 m 17.243,2.299 -0.474,0.21 -1.292,1.101 c 0,0 -0.989,-0.212 -0.811,1.227 0,0 -0.088,0.466 -0.898,0.38 l -2.448,1.825 c 0,0 -0.77,0.588 0.591,1.054 0,0 1.037,0.423 -0.513,0.507 0,0 -1.706,-0.206 -1.92,-0.624 0,0 -0.178,-1.401 1.026,-1.319 0,0 2.272,-1.567 2.661,-1.823 0,0 -0.433,-1.227 -0.135,-1.651 0,0 -0.126,-0.502 -1.281,0.296 0,0 -5.53,2.374 -5.747,3.264 0,0 -1.165,0.214 -1.714,-0.246 0,0 -0.092,-1.115 0.206,-1.323 L -8.495,1.01 c 0,0 -0.683,-0.344 -2.143,0.126 0,0 -1.42,-0.222 -0.472,-1.396 0,0 0.732,-1.449 -0.305,-2.046 0,0 0.044,2.766 -4.165,6.238 0,0 -1.327,-0.038 -1.966,-5.977 0,0 -0.27,-2.38 2.442,-2.204 l 2.105,0.347 c 0,0 0.215,0.332 0.479,-0.217 l -0.098,-1.444 c 0,0 -0.685,-0.509 0.126,-0.752 0,0 0.779,-1.326 1.296,0.503 l -0.097,2.584 c 0,0 1.638,-0.261 1.382,2.671 l 3.606,-0.21 c 0,0 1.032,0.797 -0.731,2.067 0,0 1.969,-0.968 2.531,-1.644 0,0 0.09,-0.341 1.073,-0.305 0,0 0.208,-0.5 1.964,-0.836 0,0 0.135,-0.892 4.045,-1.104 0,0 0.511,1.22 0,1.822"
             style="fill:#930f15;fill-opacity:1;fill-rule:nonzero;stroke:none"
             id="path150" />
        </g>
        <g
           id="g152"
           transform="translate(400.9482,448.0156)">
          <path
             d="m 0,0 -0.643,-1.021 -0.563,3.05 c -0.17,0.978 0.563,1.825 0.563,1.825 0.38,-0.809 0.557,-2.468 0.557,-2.468 C 0.035,0.55 0,0 0,0 m 2.281,-0.733 c 0,0 -0.742,0.733 0.035,3.572 l -0.56,0.719 -0.042,0.55 -0.603,0.13 c 0,0 -0.424,0.807 -1.292,0.383 0,0 -0.554,-0.135 0.181,0.886 l 1.457,2.281 -0.174,2.886 c 0,0 0.097,0.558 -0.894,0.43 0,0 0.212,-0.556 -0.215,-1.098 -0.437,-0.548 -0.909,-1.662 -1.081,-2.292 0,0 -0.299,2.668 -0.469,3.207 l -0.634,0.902 c 0,0 -0.901,0.504 -0.22,-1.025 V 4.99 L -3.327,3.472 c 0,0 -1.579,-0.408 -0.397,-1.168 l 1.714,-0.359 0.134,-3.747 -0.019,-1.055 1.384,-0.21 1.183,1.76 c 0,0 0.206,0.116 0.323,-0.262 L 1.208,-3.17 c 0,0 -0.521,-1.665 -0.943,-1.835 0,0 -0.179,-0.091 -0.654,-0.555 0,0 -1.292,-1.697 0.692,-1.697 0,0 0.76,-0.3 0.856,0.846 l 0.124,1.49 2.966,-0.555 c 0,0 0.17,0.807 -0.479,1.783 z"
             style="fill:#930f15;fill-opacity:1;fill-rule:nonzero;stroke:none"
             id="path154" />
        </g>
        <g
           id="g156"
           transform="translate(406.1025,447.3896)">
          <path
             d="m 0,0 -1.687,-0.315 c 0,0 -1.094,-0.593 0.078,-0.693 0,0 1.134,-0.372 1.71,-0.868 0,0 0.783,-1.029 1.133,0.242 V -0.75 C 1.234,-0.75 1.172,0.067 0,0"
             style="fill:#930f15;fill-opacity:1;fill-rule:nonzero;stroke:none"
             id="path158" />
        </g>
        <g
           id="g160"
           transform="translate(413.1494,356.9238)">
          <path
             d="M 0,0 -1.219,-0.973 -2.063,0.212 0.59,2.28 1.516,1.791 V -8.62 H 0 Z"
             style="fill:#930f15;fill-opacity:1;fill-rule:nonzero;stroke:none"
             id="path162" />
        </g>
        <g
           id="g164"
           transform="translate(444.8184,356.9238)">
          <path
             d="M 0,0 -1.229,-0.973 -2.075,0.212 0.594,2.28 1.519,1.791 V -8.62 H 0 Z"
             style="fill:#930f15;fill-opacity:1;fill-rule:nonzero;stroke:none"
             id="path166" />
        </g>
        <g
           id="g168"
           transform="translate(425.4238,352.0869)">
          <path
             d="m 0,0 c 0,-0.261 -0.025,-0.521 -0.076,-0.777 -0.061,-0.278 -0.137,-0.504 -0.232,-0.708 -0.104,-0.2 -0.257,-0.368 -0.457,-0.515 -0.197,-0.141 -0.443,-0.243 -0.724,-0.294 -0.294,-0.042 -0.524,-0.051 -0.712,-0.042 -0.352,0.011 -0.65,0.084 -0.872,0.237 -0.241,0.162 -0.378,0.32 -0.435,0.508 -0.058,0.162 -0.098,0.343 -0.12,0.524 l -1.526,-0.03 0.153,-0.63 c 0.029,-0.235 0.145,-0.525 0.329,-0.83 0.183,-0.306 0.398,-0.556 0.651,-0.728 0.245,-0.19 0.561,-0.318 0.926,-0.42 0.374,-0.104 0.782,-0.139 1.234,-0.126 0.382,0 0.748,0.055 1.111,0.157 0.365,0.103 0.657,0.229 0.895,0.403 0.222,0.176 0.423,0.38 0.591,0.599 0.177,0.243 0.316,0.525 0.412,0.829 0.121,0.292 0.19,0.615 0.221,0.947 0.031,0.325 0.04,0.761 0.04,1.305 V 3.463 C 1.409,4.001 1.36,4.488 1.247,4.894 1.14,5.27 0.966,5.642 0.725,5.96 0.487,6.286 0.134,6.565 -0.326,6.815 -0.775,7.048 -1.323,7.189 -1.935,7.166 -2.298,7.137 -2.672,7.075 -3.061,6.935 -3.47,6.815 -3.798,6.628 -4.079,6.405 -4.353,6.17 -4.566,5.889 -4.712,5.574 -4.856,5.259 -4.962,4.943 -5.001,4.637 -5.064,4.333 -5.094,4.001 -5.094,3.656 c 0,-0.691 0.059,-1.21 0.196,-1.566 0.131,-0.354 0.315,-0.637 0.531,-0.872 0.21,-0.241 0.556,-0.444 1.002,-0.639 0.464,-0.191 1.02,-0.279 1.657,-0.241 0.254,0 0.493,0.031 0.729,0.071 0.229,0.046 0.422,0.108 0.567,0.17 C -0.265,0.643 -0.131,0.707 0,0.774 Z M -0.051,3.925 C -0.025,3.507 -0.042,3.136 -0.131,2.824 -0.196,2.522 -0.326,2.26 -0.505,2.07 -0.681,1.856 -1.071,1.743 -1.664,1.736 -1.878,1.726 -2.13,1.743 -2.399,1.791 c -0.267,0.046 -0.502,0.155 -0.689,0.317 -0.183,0.164 -0.31,0.374 -0.399,0.643 -0.079,0.214 -0.114,0.529 -0.107,0.953 0,0.418 0.044,0.755 0.134,0.99 0.091,0.242 0.213,0.428 0.365,0.576 0.155,0.133 0.332,0.25 0.553,0.325 0.21,0.076 0.483,0.107 0.815,0.107 0.388,-0.014 0.7,-0.093 0.962,-0.242 0.244,-0.147 0.439,-0.356 0.563,-0.623 0.065,-0.179 0.109,-0.48 0.151,-0.912"
             style="fill:#930f15;fill-opacity:1;fill-rule:nonzero;stroke:none"
             id="path170" />
        </g>
        <g
           id="g172"
           transform="translate(438.8008,354.8193)">
          <path
             d="M 0,0 C -0.029,0.477 -0.099,0.947 -0.195,1.42 -0.288,1.865 -0.46,2.295 -0.677,2.692 -0.912,3.1 -1.193,3.436 -1.513,3.705 -1.845,3.984 -2.191,4.182 -2.561,4.306 -2.926,4.457 -3.283,4.507 -3.626,4.52 -4.092,4.52 -4.548,4.43 -4.974,4.202 -5.402,4.001 -5.74,3.736 -6.007,3.44 -6.26,3.142 -6.484,2.791 -6.663,2.39 -6.848,1.98 -6.979,1.552 -7.074,1.066 -7.169,0.592 -7.217,0.166 -7.229,-0.21 c -0.015,-0.286 -0.024,-0.744 -0.015,-1.359 0.004,-0.618 0.044,-1.147 0.13,-1.588 0.091,-0.431 0.214,-0.855 0.386,-1.271 0.174,-0.418 0.402,-0.79 0.689,-1.132 0.299,-0.319 0.653,-0.574 1.084,-0.742 0.436,-0.161 0.878,-0.247 1.329,-0.247 0.473,0 0.894,0.048 1.284,0.193 0.382,0.141 0.693,0.307 0.949,0.51 0.247,0.206 0.462,0.49 0.668,0.853 0.204,0.363 0.359,0.733 0.458,1.122 0.105,0.382 0.187,0.817 0.229,1.289 C 0,-2.104 0.044,-1.75 0.046,-1.511 0.057,-0.983 0.046,-0.473 0,0 m -1.445,-1.645 c -0.022,-0.34 -0.053,-0.75 -0.126,-1.222 -0.078,-0.471 -0.21,-0.867 -0.402,-1.21 -0.204,-0.34 -0.434,-0.611 -0.73,-0.763 -0.301,-0.153 -0.608,-0.23 -0.942,-0.218 -0.394,0 -0.713,0.092 -0.982,0.287 -0.265,0.175 -0.487,0.42 -0.664,0.747 -0.179,0.327 -0.307,0.72 -0.389,1.182 -0.082,0.47 -0.124,1.023 -0.14,1.699 0,0.395 0,0.718 0.029,0.977 0.021,0.277 0.069,0.615 0.159,1.029 0.082,0.406 0.206,0.775 0.381,1.117 0.161,0.315 0.376,0.578 0.659,0.76 0.279,0.186 0.603,0.278 0.979,0.278 0.368,-0.004 0.675,-0.109 0.934,-0.29 0.253,-0.17 0.475,-0.412 0.648,-0.706 0.193,-0.283 0.323,-0.644 0.424,-1.067 0.096,-0.429 0.155,-0.972 0.176,-1.667 0,-0.284 -0.01,-0.599 -0.014,-0.933"
             style="fill:#930f15;fill-opacity:1;fill-rule:nonzero;stroke:none"
             id="path174" />
        </g>
        <g
           id="g176"
           transform="translate(461.2637,453.0918)">
          <path
             d="m 0,0 1.592,-0.103 1.987,1.229 c 0,0 0.431,0.155 -0.038,0.785 0,0 -0.317,-0.357 -0.872,-0.268 C 2.11,1.729 1.146,1.632 0.622,1.512 L 0.606,1.491 -0.662,1.632 c 0.416,0.311 -0.36,2.165 -0.36,2.165 -0.407,0.752 -0.834,0.45 -0.834,0.45 C -2.358,3.89 -2.539,2.521 -2.539,2.521 L -2.993,1.83 -4.881,1.762 -6.936,2.059 c 0,0 -1.281,1.36 -1.411,-0.232 l 0.393,-1.283 c 0.016,-0.233 0.08,-0.416 0.172,-0.571 l 0.017,-0.057 0.017,0.017 c 0.38,-0.544 1.17,-0.578 1.449,-0.569 -0.584,-0.099 -2.749,-1.26 -2.749,-1.26 -3.17,-2.166 -7.473,-2.275 -7.473,-2.275 -1.366,-0.374 0.193,-0.756 0.193,-0.756 1.382,-0.311 6.563,0.928 6.563,0.928 7.431,2.025 8.496,4.087 8.496,4.087 C -0.878,0.023 -0.431,0 0,0"
             style="fill:#930f15;fill-opacity:1;fill-rule:nonzero;stroke:none"
             id="path178" />
        </g>
        <g
           id="g180"
           transform="translate(457.9639,447.0049)">
          <path
             d="m 0,0 c 0,0 -0.641,1.302 -1.075,-0.157 0,0 -1.033,-3.17 -2.275,-3.331 0,0 -1.067,-0.494 -0.118,-0.725 0,0 2.347,1.04 3.678,1.073 0,0 1.307,1.092 -0.21,3.14"
             style="fill:#930f15;fill-opacity:1;fill-rule:nonzero;stroke:none"
             id="path182" />
        </g>
      </g>
    </g>
  </g>
</svg>
