<?xml version="1.0" encoding="UTF-8" standalone="no"?>
<!-- Created with Inkscape (http://www.inkscape.org/) -->

<svg
   version="1.1"
   id="svg2"
   width="1122.52"
   height="793.70667"
   viewBox="0 0 1122.52 793.70667"
   sodipodi:docname="横式.svg"
   inkscape:version="1.2.2 (b0a8486541, 2022-12-01)"
   xmlns:inkscape="http://www.inkscape.org/namespaces/inkscape"
   xmlns:sodipodi="http://sodipodi.sourceforge.net/DTD/sodipodi-0.dtd"
   xmlns="http://www.w3.org/2000/svg"
   xmlns:svg="http://www.w3.org/2000/svg">
  <defs
     id="defs6">
    <clipPath
       clipPathUnits="userSpaceOnUse"
       id="clipPath18">
      <path
         d="M 0,595.28 H 841.89 V 0 H 0 Z"
         id="path16" />
    </clipPath>
  </defs>
  <sodipodi:namedview
     id="namedview4"
     pagecolor="#ffffff"
     bordercolor="#000000"
     borderopacity="0.25"
     inkscape:showpageshadow="2"
     inkscape:pageopacity="0.0"
     inkscape:pagecheckerboard="0"
     inkscape:deskcolor="#d1d1d1"
     showgrid="false"
     inkscape:zoom="0.29733907"
     inkscape:cx="561.64836"
     inkscape:cy="398.53491"
     inkscape:window-width="2560"
     inkscape:window-height="1284"
     inkscape:window-x="0"
     inkscape:window-y="0"
     inkscape:window-maximized="1"
     inkscape:current-layer="g10">
    <inkscape:page
       x="0"
       y="0"
       id="page8"
       width="1122.52"
       height="793.70667" />
  </sodipodi:namedview>
  <g
     id="g10"
     inkscape:groupmode="layer"
     inkscape:label="Page 1"
     transform="matrix(1.3333333,0,0,-1.3333333,0,793.70667)">
    <g
       id="g12">
      <g
         id="g14"
         clip-path="url(#clipPath18)">
        <g
           id="g20"
           transform="translate(354.3081,248.1348)">
          <path
             d="m 0,0 h -0.688 c -0.465,1.89 -2.231,3.943 -5.12,3.943 -1.382,0 -2.782,-0.711 -2.782,-2.133 0,-3.432 9.201,-3.892 9.201,-8.601 0,-1.949 -1.876,-4.156 -5.821,-4.156 -2.082,0 -3.434,0.783 -4.259,0.783 -0.585,0 -0.851,-0.387 -0.851,-0.763 h -0.61 l -0.827,4.869 h 0.63 c 0.525,-1.088 1.935,-4.069 5.648,-4.069 2.202,0 3.31,1.32 3.31,2.56 0,1.303 -0.443,2.083 -4.494,4.051 -2.529,1.221 -4.289,2.227 -4.289,4.508 0,2.612 2.502,3.899 4.977,3.899 1.654,0 3.14,-0.778 3.826,-0.778 0.776,0 0.911,0.519 0.963,0.778 h 0.58 z"
             style="fill:#930f15;fill-opacity:1;fill-rule:nonzero;stroke:none"
             id="path22" />
        </g>
        <g
           id="g24"
           transform="translate(357.2324,237.9414)">
          <path
             d="m 0,0 c 2.308,0.096 2.422,0.604 2.422,2.32 v 9.938 c 0,1.7 -0.388,1.928 -2.422,2.075 v 0.431 H 7.65 V 14.333 C 5.553,14.186 5.227,13.881 5.227,12.258 V 7.799 h 8.343 v 4.459 c 0,1.7 -0.382,1.928 -2.421,2.075 v 0.431 h 7.65 V 14.333 C 16.708,14.186 16.381,13.881 16.381,12.258 V 2.067 C 16.381,0.553 16.65,0.115 18.799,0 v -0.43 h -7.65 V 0 c 2.31,0.096 2.421,0.604 2.421,2.32 V 6.799 H 5.227 V 2.067 C 5.227,0.553 5.499,0.115 7.65,0 V -0.43 H 0 Z"
             style="fill:#930f15;fill-opacity:1;fill-rule:nonzero;stroke:none"
             id="path26" />
        </g>
        <g
           id="g28"
           transform="translate(396.0293,237.9414)">
          <path
             d="M 0,0 C -1.215,0.066 -1.597,0.329 -2.483,2.006 L -9.338,15.031 H -9.892 L -15.614,3.769 c -0.526,-1.015 -1.38,-2.681 -2.017,-3.26 -0.486,-0.443 -0.957,-0.48 -1.4,-0.509 v -0.43 h 5.456 V 0 c -0.578,0 -1.882,0 -1.882,0.971 0,0.25 0.084,0.574 0.227,0.869 l 1.265,2.686 h 7.216 L -5.62,2.32 C -5.461,2.006 -5.1,1.249 -5.1,0.878 -5.1,0.029 -6.009,0 -7.02,0 V -0.43 H 0 Z m -13.495,5.471 3.167,6.302 3.196,-6.302 z"
             style="fill:#930f15;fill-opacity:1;fill-rule:nonzero;stroke:none"
             id="path30" />
        </g>
        <g
           id="g32"
           transform="translate(415.9336,252.2744)">
          <path
             d="M 0,0 C -1.731,-0.169 -2.618,-0.267 -2.618,-2.944 V -15.009 H -3.086 L -15.2,-2.452 h -0.056 v -8.933 c 0,-2.374 0.582,-2.882 2.592,-2.948 v -0.43 h -6.473 v 0.43 c 2.092,0.115 2.667,0.475 2.667,2.948 V -1.27 C -17.596,-0.122 -18.031,0 -19.137,0 v 0.431 h 4.712 l 10.542,-11.039 h 0.055 v 7.664 c 0,2.644 -0.773,2.822 -2.644,2.944 v 0.431 l 6.472,0 z"
             style="fill:#930f15;fill-opacity:1;fill-rule:nonzero;stroke:none"
             id="path34" />
        </g>
        <g
           id="g36"
           transform="translate(416.7871,237.5117)">
          <path
             d="m 0,0 h 7.823 c 8.422,0 10.6,4.496 10.6,7.551 0,5.137 -4.373,7.642 -10.986,7.642 H 0 v -0.43 C 2.124,14.615 2.421,14.388 2.421,12.688 V 2.497 C 2.421,0.904 2.086,0.525 0,0.43 Z m 5.235,13.441 c 0,0.461 0,0.899 1.292,0.899 3.469,0 5.014,-0.616 6.333,-1.617 1.901,-1.407 2.557,-3.274 2.557,-5.202 0,-6.668 -6.775,-6.668 -8.535,-6.668 -1.319,0 -1.647,0.151 -1.647,0.933 z"
             style="fill:#930f15;fill-opacity:1;fill-rule:nonzero;stroke:none"
             id="path38" />
        </g>
        <g
           id="g40"
           transform="translate(446.1621,237.1875)">
          <path
             d="m 0,0 c 4.993,0 9.008,3.008 9.008,7.902 0,5.279 -4.491,7.936 -9.008,7.936 -4.511,0 -8.996,-2.657 -8.996,-7.936 C -8.996,3.008 -4.981,0 0,0 m 0,0.82 c -3.052,0 -5.857,2.055 -5.857,7.101 0,5.222 3.053,7.091 5.857,7.091 2.812,0 5.869,-1.869 5.869,-7.091 C 5.869,2.875 3.06,0.82 0,0.82"
             style="fill:#930f15;fill-opacity:1;fill-rule:nonzero;stroke:none"
             id="path42" />
        </g>
        <g
           id="g44"
           transform="translate(475.583,252.2744)">
          <path
             d="m 0,0 c -1.742,-0.169 -2.624,-0.267 -2.624,-2.944 v -12.065 h -0.468 l -12.119,12.557 h -0.053 v -8.933 c 0,-2.374 0.578,-2.882 2.592,-2.948 v -0.43 h -6.472 v 0.43 c 2.09,0.115 2.666,0.475 2.666,2.948 V -1.27 C -17.601,-0.122 -18.045,0 -19.144,0 v 0.431 h 4.711 l 10.546,-11.039 h 0.049 v 7.664 c 0,2.644 -0.773,2.822 -2.641,2.944 v 0.431 l 6.479,0 z"
             style="fill:#930f15;fill-opacity:1;fill-rule:nonzero;stroke:none"
             id="path46" />
        </g>
        <g
           id="g48"
           transform="translate(495.5127,245.2188)">
          <path
             d="m 0,0 c -1.208,-0.094 -1.928,-0.129 -1.928,-1.771 v -4.607 c 0,-0.325 -3.67,-1.653 -6.693,-1.653 -2.724,0 -5.781,0.691 -7.739,2.46 -1.459,1.323 -2.287,2.678 -2.287,5.7 0,3.84 3.584,7.678 9.422,7.678 2.785,0 4.04,-0.751 4.93,-0.751 0.215,0 1.123,0.11 1.291,0.751 h 0.608 l 0.224,-4.842 h -0.636 c -0.747,1.639 -2.179,3.922 -6.031,3.922 -2.62,0 -6.664,-1.449 -6.664,-7.252 0,-4.158 2.86,-6.751 7.131,-6.751 1.874,0 3.768,0.534 3.768,1.358 v 3.717 c 0,1.912 -0.548,1.931 -2.422,2.041 V 0.41 L 0,0.41 Z"
             style="fill:#930f15;fill-opacity:1;fill-rule:nonzero;stroke:none"
             id="path50" />
        </g>
        <g
           id="g52"
           transform="translate(522.1621,252.2744)">
          <path
             d="m 0,0 c -2.116,-0.196 -2.587,-0.535 -2.587,-2.944 v -5.985 c 0,-1.836 0,-6.158 -7.13,-6.158 -6.831,0 -6.831,4.479 -6.831,5.846 v 7.166 c 0,1.7 -0.388,1.953 -2.476,2.075 v 0.431 h 7.792 V 0 c -2.171,-0.147 -2.51,-0.452 -2.51,-2.075 v -7.341 c 0,-1.464 0,-4.662 4.797,-4.662 2.145,0 3.722,0.738 4.514,1.812 0.367,0.501 0.638,1.275 0.638,3.13 v 6.192 c 0,2.457 -0.668,2.847 -2.594,2.944 v 0.431 l 6.387,0 z"
             style="fill:#930f15;fill-opacity:1;fill-rule:nonzero;stroke:none"
             id="path54" />
        </g>
        <g
           id="g56"
           transform="translate(542.0986,252.2744)">
          <path
             d="m 0,0 c -1.732,-0.169 -2.615,-0.267 -2.615,-2.944 v -12.065 h -0.463 l -12.119,12.557 h -0.056 v -8.933 c 0,-2.374 0.578,-2.882 2.588,-2.948 v -0.43 h -6.469 v 0.43 c 2.089,0.115 2.667,0.475 2.667,2.948 V -1.27 C -17.594,-0.122 -18.039,0 -19.134,0 v 0.431 h 4.713 l 10.539,-11.039 h 0.054 v 7.664 c 0,2.644 -0.77,2.822 -2.643,2.944 v 0.431 l 6.471,0 z"
             style="fill:#930f15;fill-opacity:1;fill-rule:nonzero;stroke:none"
             id="path58" />
        </g>
        <g
           id="g60"
           transform="translate(543.0049,237.9414)">
          <path
             d="m 0,0 c 2.346,0.063 2.674,0.445 2.674,2.067 v 10.191 c 0,1.7 -0.383,1.978 -2.674,2.075 v 0.431 H 8.183 V 14.333 C 6.171,14.258 5.485,14.099 5.485,12.258 V 2.067 C 5.485,0.282 6.146,0.063 8.183,0 V -0.43 H 0 Z"
             style="fill:#930f15;fill-opacity:1;fill-rule:nonzero;stroke:none"
             id="path62" />
        </g>
        <g
           id="g64"
           transform="translate(570.876,252.2744)">
          <path
             d="m 0,0 c -1.324,-0.075 -1.716,-0.407 -2.533,-2.138 l -6.114,-12.871 h -0.416 l -6.765,12.585 c -1.133,2.096 -1.63,2.374 -2.927,2.424 v 0.431 h 7.326 V 0 c -1.549,-0.075 -2.059,-0.122 -2.059,-0.86 0,-0.349 0.495,-1.278 1.124,-2.448 l 4.156,-7.774 4.048,8.427 c 0.052,0.148 0.525,1.113 0.525,1.589 0,0.944 -0.967,1.016 -2.01,1.066 v 0.431 l 5.645,0 z"
             style="fill:#930f15;fill-opacity:1;fill-rule:nonzero;stroke:none"
             id="path66" />
        </g>
        <g
           id="g68"
           transform="translate(586.7607,237.5117)">
          <path
             d="m 0,0 h -14.868 v 0.43 c 1.765,0.095 2.392,0.302 2.392,2.067 v 10.191 c 0,1.808 -0.657,1.953 -2.392,2.075 v 0.43 h 14.622 l 0.089,-3.283 h -0.695 c -0.411,2.039 -1.126,2.401 -4.186,2.401 h -3.717 c -0.578,0 -0.912,0 -0.912,-0.784 V 8.448 h 4.242 c 2.452,0 2.723,0.553 3.033,2.175 h 0.632 v -5.32 h -0.632 c -0.327,1.828 -0.746,2.154 -3.033,2.178 l -4.242,0.04 V 1.836 c 0,-0.932 0,-0.961 4.106,-0.961 3.445,0 4.822,0.689 6.031,3.008 h 0.773 z"
             style="fill:#930f15;fill-opacity:1;fill-rule:nonzero;stroke:none"
             id="path70" />
        </g>
        <g
           id="g72"
           transform="translate(606.5352,237.9414)">
          <path
             d="m 0,0 c -1.131,0.063 -1.787,0.475 -2.4,1.088 l -5.669,5.796 c 1.402,0.237 4.979,0.787 4.979,3.862 0,3.537 -4.546,4.018 -6.992,4.018 h -7.594 v -0.431 c 1.932,-0.169 2.34,-0.375 2.34,-2.075 V 2.32 c 0,-1.716 -0.112,-2.205 -2.34,-2.32 v -0.43 h 7.621 V 0 c -2.2,0.096 -2.472,0.536 -2.472,2.067 v 4.536 l 1.539,0.034 6.554,-7.067 H 0 Z m -12.527,13.092 c 0,0.656 0.246,0.818 1.702,0.818 1.135,0 4.739,-0.064 4.739,-3.115 0,-3.28 -4.129,-3.338 -6.441,-3.346 z"
             style="fill:#930f15;fill-opacity:1;fill-rule:nonzero;stroke:none"
             id="path74" />
        </g>
        <g
           id="g76"
           transform="translate(619.6729,248.1348)">
          <path
             d="m 0,0 h -0.693 c -0.46,1.89 -2.237,3.943 -5.125,3.943 -1.376,0 -2.777,-0.711 -2.777,-2.133 0,-3.432 9.196,-3.892 9.196,-8.601 0,-1.949 -1.867,-4.156 -5.814,-4.156 -2.093,0 -3.436,0.783 -4.267,0.783 -0.573,0 -0.854,-0.387 -0.854,-0.763 h -0.603 l -0.824,4.869 h 0.633 c 0.524,-1.088 1.925,-4.069 5.644,-4.069 2.199,0 3.309,1.32 3.309,2.56 0,1.303 -0.446,2.083 -4.496,4.051 -2.532,1.221 -4.299,2.227 -4.299,4.508 0,2.612 2.51,3.899 4.99,3.899 1.655,0 3.135,-0.778 3.822,-0.778 0.774,0 0.911,0.519 0.974,0.778 h 0.576 z"
             style="fill:#930f15;fill-opacity:1;fill-rule:nonzero;stroke:none"
             id="path78" />
        </g>
        <g
           id="g80"
           transform="translate(622.5547,237.9414)">
          <path
             d="m 0,0 c 2.351,0.063 2.679,0.445 2.679,2.067 v 10.191 c 0,1.7 -0.395,1.978 -2.679,2.075 v 0.431 H 8.186 V 14.333 C 6.17,14.258 5.485,14.099 5.485,12.258 V 2.067 C 5.485,0.282 6.141,0.063 8.186,0 V -0.43 H 0 Z"
             style="fill:#930f15;fill-opacity:1;fill-rule:nonzero;stroke:none"
             id="path82" />
        </g>
        <g
           id="g84"
           transform="translate(643.6787,237.5117)">
          <path
             d="m 0,0 h -8.038 v 0.43 c 2.508,0.095 2.591,0.629 2.591,2.32 v 11.478 h -1.491 c -3.023,0 -3.772,-0.437 -4.381,-2.938 h -0.656 l 0.161,3.903 H 3.723 L 3.882,11.29 H 3.227 c -0.581,2.524 -1.35,2.938 -4.381,2.938 H -2.642 V 2.497 C -2.642,0.938 -2.313,0.496 0,0.43 Z"
             style="fill:#930f15;fill-opacity:1;fill-rule:nonzero;stroke:none"
             id="path86" />
        </g>
        <g
           id="g88"
           transform="translate(667.418,252.2744)">
          <path
             d="M 0,0 C -0.993,-0.097 -1.904,-0.196 -3.799,-2.628 L -7.88,-7.811 v -4.455 c 0,-1.644 0.358,-2.038 2.839,-2.067 v -0.43 h -8.43 v 0.43 c 2.702,0.062 2.789,0.574 2.789,2.32 v 3.994 l -3.612,4.405 c -2.81,3.445 -3.222,3.517 -4.464,3.614 v 0.431 h 7.717 V 0 c -1.272,-0.05 -1.956,-0.075 -1.956,-0.708 0,-0.264 0.214,-0.702 0.463,-0.994 l 4.075,-5.101 3.946,5.186 c 0.182,0.259 0.382,0.532 0.382,0.853 C -4.131,-0.05 -5.177,0 -6.036,0 V 0.431 H 0 Z"
             style="fill:#930f15;fill-opacity:1;fill-rule:nonzero;stroke:none"
             id="path90" />
        </g>
        <g
           id="g92"
           transform="translate(370.6846,320.5049)">
          <path
             d="m 0,0 c 0,0 0.207,-2.224 2.274,-1.859 0,0 5.061,4.139 5.227,8.584 0,0 1.978,13.973 4.922,19.512 0,0 0.353,3.406 -7.397,10.743 0,0 -2.794,-0.829 -2.613,-2.136 C 2.615,33.511 6.221,31.84 4.069,23.771 L 2.16,6.878 C 2.16,6.878 2.013,1.839 0,0"
             style="fill:#930f15;fill-opacity:1;fill-rule:nonzero;stroke:none"
             id="path94" />
        </g>
        <g
           id="g96"
           transform="translate(407.9365,311.2036)">
          <path
             d="m 0,0 -7.799,8.806 c 0,0 -4.035,1.807 -3.183,-2.158 0,0 -3.931,-13.279 -10.474,-16.878 0,0 -0.918,-4.015 3.433,-1.223 0,0 11.628,7.423 15.193,6.916 0,0 4.551,1.48 2.83,4.537"
             style="fill:#930f15;fill-opacity:1;fill-rule:nonzero;stroke:none"
             id="path98" />
        </g>
        <g
           id="g100"
           transform="translate(380.6519,313.6812)">
          <path
             d="m 0,0 c 0,0 1.678,3.307 -1.841,2.318 0,0 -7.428,-9.376 -12.292,-10.265 0,0 -8.059,-8.207 -11.117,-9.627 0,0 -6.388,-4.023 -7.246,-5.522 l -0.908,0.862 c 0,0 7.06,16.616 -1.151,19.792 0,0 -1.611,-0.804 -1.242,-3.15 0,0 -4.969,-18.041 -9.048,-20.528 0,0 3.263,-5.081 7.199,-8.518 0,0 14.611,6.629 18.953,9.996 0,0 7.341,6.88 9.043,9.88 0,0 7.567,9.826 9.65,14.762"
             style="fill:#930f15;fill-opacity:1;fill-rule:nonzero;stroke:none"
             id="path102" />
        </g>
        <g
           id="g104"
           transform="translate(652.8535,365.5073)">
          <path
             d="M 0,0 C 0,0 0.009,1.507 1.752,2.226 L 6.094,4.561 C 6.094,4.561 2.285,-4.565 0,0 m -9.437,-83.427 c -3.929,-12.612 -21.341,-1.746 -21.341,-1.746 -9.564,3.168 6.295,8.252 6.295,8.252 l 11.909,3.892 c 10.267,2.69 3.137,-10.398 3.137,-10.398 M 8.66,12.31 6.678,10.2 -1.511,5.296 c 0,0 -0.606,-5.606 -8.047,-2.121 0,0 -2.676,0.351 -3.646,-4.089 l -14.121,-9.76 c 0,0 -4.555,-3.047 -4.627,5.078 0,0 -0.477,6.251 -3.668,-1.816 0,0 -1.88,-9.502 0.038,-11.386 0,0 7.197,-3.421 8.881,3.108 0,0 12.442,9.294 14.485,10.874 0,0 5.861,-4.46 8.68,-3.63 0,0 2.489,-1.601 -3.872,-6.289 0,0 -22.528,-25.185 -27.686,-24.742 0,0 -3.194,-5.767 -1.661,-9.56 0,0 5.795,-2.406 7.45,-1.223 l 8.883,6.938 c 0,0 0.601,-4.237 -4.488,-11.184 0,0 -1.341,-7.89 6.709,-4.986 0,0 9.053,1.302 10.411,-5.251 0,0 -14.75,5.142 -40.856,-10.992 0,0 -2.114,-7.136 28.662,-21.157 0,0 12.318,-5.59 16.184,9.052 l 1.86,11.802 c 0,0 -1.439,1.738 1.988,2.119 l 7.592,-3.036 c 0,0 1.533,-4.536 4.339,-0.671 0,0 8.432,1.776 -0.461,7.768 l -14.073,4.153 c 0,0 4.244,8.192 -11.924,12.081 l 7.487,18.768 c 0,0 -2.523,6.888 -12.461,-0.187 0,0 8.719,8.743 13.324,10.492 0,0 2.001,-0.13 3.506,5.169 0,0 3.119,0.219 8.037,8.97 0,0 5.022,-0.881 13.048,19.476 0,0 -5.691,4.95 -9.802,3.246"
             style="fill:#930f15;fill-opacity:1;fill-rule:nonzero;stroke:none"
             id="path106" />
        </g>
        <g
           id="g108"
           transform="translate(457.8818,308.8379)">
          <path
             d="m 0,0 -5.813,-3.544 5.02,16.871 c 1.637,5.379 7.467,7.837 7.467,7.837 C 6.54,16.104 3.162,7.268 3.162,7.268 1.653,2.68 0,0 0,0 m 9.532,-9.413 c 0,0 -1.773,5.488 9.349,17.911 l -0.945,5.061 1.193,2.911 -2.677,2.157 c 0,0 -0.08,5.189 -5.458,5.189 0,0 -3.114,0.774 3.128,4.102 l 13.185,7.893 6.51,15.027 c 0,0 1.848,2.592 -3.403,4.426 0,0 -0.356,-3.322 -3.919,-5.033 -3.544,-1.706 -8.724,-6.096 -11.246,-8.88 0,0 5.354,14.271 5.908,17.501 l -0.886,6.136 c 0,0 -3.262,4.78 -3.752,-4.619 L 1.62,30.933 -7.702,25.974 c 0,0 -8.966,1.996 -5.009,-4.838 l 7.694,-6.159 -8.955,-19.352 -2.773,-5.319 6.416,-4.57 10.401,5.996 c 0,0 1.344,-0.008 0.903,-2.195 l -3.048,-8.666 c 0,0 -6.863,-7.1 -9.446,-6.865 0,0 -1.073,0 -4.624,-1.16 0,0 -10.794,-5.338 -0.929,-10.35 0,0 3.103,-3.443 6.475,2.125 l 4.456,7.211 13.389,-10.289 c 0,0 2.92,3.64 2.21,10.199 z"
             style="fill:#930f15;fill-opacity:1;fill-rule:nonzero;stroke:none"
             id="path110" />
        </g>
        <g
           id="g112"
           transform="translate(482.085,292.6016)">
          <path
             d="m 0,0 -9.188,2.664 c 0,0 -7.058,-0.212 -1.438,-3.639 0,0 4.73,-4.782 6.306,-8.769 0,0 1.322,-7.236 6.339,-1.603 l 2.247,4.431 c 0,0 1.773,4.268 -4.266,6.916"
             style="fill:#930f15;fill-opacity:1;fill-rule:nonzero;stroke:none"
             id="path114" />
        </g>
        <g
           id="g116"
           transform="translate(567.5605,343.6572)">
          <path
             d="m 0,0 6.691,4.006 4.547,10.493 c 0,0 1.289,1.809 -2.376,3.09 0,0 -0.249,-2.319 -2.737,-3.514 C 3.649,12.884 0.031,9.818 -1.729,7.874 L -1.738,7.744 -7.25,4.799 c 0.826,2.434 -7.513,7.805 -7.513,7.805 -3.739,1.943 -4.591,-0.468 -4.591,-0.468 -1.038,-2.859 2.072,-8.912 2.072,-8.912 l 0.121,-4.073 -7.4,-5.527 -9.093,-4.486 c 0,0 -8.966,1.996 -5.009,-4.839 l 5.174,-4.14 c 0.716,-0.902 1.495,-1.49 2.297,-1.839 l 0.223,-0.179 0.038,0.088 c 3.037,-1.131 6.299,0.925 7.406,1.721 -2.067,-2.022 -7.513,-12.742 -7.513,-12.742 -6.658,-17.599 -23.66,-29.974 -23.66,-29.974 -4.443,-5.313 2.901,-2.557 2.901,-2.557 6.431,2.577 23.777,21.988 23.777,21.988 24.19,28.824 22.672,40.18 22.672,40.18 C -3.585,-2.34 -1.731,-1.198 0,0"
             style="fill:#930f15;fill-opacity:1;fill-rule:nonzero;stroke:none"
             id="path118" />
        </g>
        <g
           id="g120"
           transform="translate(571.3848,309.7612)">
          <path
             d="m 0,0 c 0,0 -6.223,3.515 -3.879,-3.619 0,0 4.729,-15.775 0.182,-19.869 0,0 -2.89,-4.964 1.583,-3.262 0,0 6.505,10.712 11.769,14.554 0,0 2.17,8.072 -9.655,12.196"
             style="fill:#930f15;fill-opacity:1;fill-rule:nonzero;stroke:none"
             id="path122" />
        </g>
        <g
           id="g124"
           transform="translate(227.2065,229.1797)">
          <path
             d="m 0,0 c -42.839,0 -77.566,35.145 -77.566,78.495 0,43.359 34.727,78.503 77.566,78.503 42.851,0 77.567,-35.144 77.567,-78.503 C 77.567,35.145 42.851,0 0,0 m 0,159.849 c -44.401,0 -80.39,-36.416 -80.39,-81.354 0,-44.939 35.989,-81.343 80.39,-81.343 44.402,0 80.393,36.404 80.393,81.343 0,44.938 -35.991,81.354 -80.393,81.354"
             style="fill:#930f15;fill-opacity:1;fill-rule:evenodd;stroke:none"
             id="path126" />
        </g>
        <g
           id="g128"
           transform="translate(217.4966,240.6719)">
          <path
             d="M 0,0 0.262,1.741 4.789,1.068 4.164,-3.043 c -0.497,-0.354 -1.2,-0.635 -2.084,-0.828 -0.879,-0.19 -1.741,-0.224 -2.6,-0.092 -1.093,0.152 -2.002,0.524 -2.734,1.097 -0.75,0.57 -1.258,1.309 -1.535,2.212 -0.274,0.902 -0.334,1.838 -0.189,2.836 0.172,1.073 0.54,1.985 1.125,2.751 0.575,0.77 1.338,1.302 2.28,1.628 C -0.854,6.793 0,6.84 0.994,6.692 2.284,6.498 3.253,6.084 3.886,5.437 4.535,4.793 4.889,3.993 4.953,3.008 L 2.802,2.945 C 2.732,3.47 2.511,3.906 2.16,4.252 1.803,4.607 1.328,4.838 0.72,4.93 -0.188,5.054 -0.966,4.877 -1.599,4.387 c -0.619,-0.5 -1.025,-1.324 -1.205,-2.45 -0.174,-1.222 -0.05,-2.184 0.411,-2.876 0.446,-0.694 1.125,-1.115 2.017,-1.242 0.429,-0.065 0.877,-0.038 1.347,0.058 0.474,0.121 0.872,0.26 1.239,0.454 l 0.194,1.314 z"
             style="fill:#930f15;fill-opacity:1;fill-rule:nonzero;stroke:none"
             id="path130" />
        </g>
        <g
           id="g132"
           transform="translate(200.2935,241.2734)">
          <path
             d="M 0,0 3.486,9.801 5.434,9.134 7.165,1.178 9.496,7.723 11.355,7.082 7.876,-2.725 5.857,-2.027 4.144,5.791 1.853,-0.646 Z"
             style="fill:#930f15;fill-opacity:1;fill-rule:nonzero;stroke:none"
             id="path134" />
        </g>
        <g
           id="g136"
           transform="translate(170.5942,263.9863)">
          <path
             d="M 0,0 8.002,6.756 9.339,5.211 6.802,-2.535 12.139,1.984 13.422,0.496 5.425,-6.258 4.05,-4.658 6.528,2.941 1.286,-1.473 Z"
             style="fill:#930f15;fill-opacity:1;fill-rule:nonzero;stroke:none"
             id="path138" />
        </g>
        <g
           id="g140"
           transform="translate(189.9673,248.1016)">
          <path
             d="m 0,0 c 0.294,-1.279 1.112,-2.324 2.454,-3.12 1.329,-0.784 2.634,-1.01 3.92,-0.665 1.282,0.336 2.365,1.227 3.244,2.67 0.886,1.454 1.183,2.822 0.884,4.111 C 10.197,4.279 9.379,5.323 8.06,6.117 7.328,6.56 6.607,6.816 5.901,6.924 5.375,6.99 4.83,6.956 4.247,6.808 3.669,6.659 3.142,6.418 2.66,6.078 2.013,5.629 1.408,4.961 0.852,4.051 -0.009,2.631 -0.288,1.279 0,0 M 4.865,4.883 C 5.634,5.117 6.396,5.01 7.147,4.564 7.891,4.121 8.338,3.51 8.481,2.737 8.627,1.958 8.388,1.063 7.77,0.047 7.133,-0.991 6.43,-1.629 5.644,-1.867 4.865,-2.111 4.11,-2.007 3.385,-1.589 2.666,-1.148 2.219,-0.527 2.076,0.271 1.926,1.063 2.157,1.978 2.767,2.994 3.393,4.018 4.095,4.643 4.865,4.883"
             style="fill:#930f15;fill-opacity:1;fill-rule:nonzero;stroke:none"
             id="path142" />
        </g>
        <g
           id="g144"
           transform="translate(178.8184,255.0293)">
          <path
             d="M 0,0 3.041,-2.552 C 3.636,-3.043 4.164,-3.387 4.615,-3.586 5.229,-3.84 5.788,-3.932 6.303,-3.9 c 0.676,0.057 1.358,0.281 2.053,0.691 0.569,0.332 1.132,0.822 1.694,1.475 0.636,0.746 1.082,1.446 1.344,2.091 0.26,0.652 0.38,1.297 0.334,1.924 -0.034,0.643 -0.232,1.221 -0.579,1.758 -0.26,0.387 -0.722,0.858 -1.394,1.417 L 6.804,7.928 Z M 7.997,4.63 C 8.655,4.065 9.073,3.674 9.259,3.432 9.506,3.124 9.641,2.783 9.685,2.438 9.722,2.089 9.658,1.714 9.484,1.289 9.319,0.869 8.97,0.357 8.44,-0.263 7.906,-0.88 7.443,-1.309 7.036,-1.579 6.625,-1.842 6.256,-1.967 5.959,-1.986 5.65,-2.012 5.341,-1.918 5.023,-1.762 4.784,-1.653 4.431,-1.4 3.979,-1.035 l -1.195,1.017 4.49,5.241 z"
             style="fill:#930f15;fill-opacity:1;fill-rule:nonzero;stroke:none"
             id="path146" />
        </g>
        <g
           id="g148"
           transform="translate(175.9971,275.0762)">
          <path
             d="m 0,0 -1.114,1.933 -11.171,-1.626 1.113,-1.936 2.521,0.433 2.081,-3.63 -1.634,-1.957 1.131,-1.958 z m -6.78,-0.888 4.091,0.683 -2.668,-3.156 z"
             style="fill:#930f15;fill-opacity:1;fill-rule:nonzero;stroke:none"
             id="path150" />
        </g>
        <g
           id="g152"
           transform="translate(159.6343,285.752)">
          <path
             d="M 0,0 9.895,3.541 10.617,1.559 6.714,0.164 8.126,-3.68 l 3.903,1.392 0.725,-1.983 -9.882,-3.53 -0.735,1.966 4.319,1.548 -1.41,3.847 -4.316,-1.54 z"
             style="fill:#930f15;fill-opacity:1;fill-rule:nonzero;stroke:none"
             id="path154" />
        </g>
        <g
           id="g156"
           transform="translate(160.4312,298.0967)">
          <path
             d="m 0,0 0.568,-1.966 c -0.655,-0.244 -1.123,-0.581 -1.367,-1.012 -0.262,-0.419 -0.319,-0.954 -0.209,-1.577 0.124,-0.655 0.357,-1.142 0.707,-1.431 0.343,-0.277 0.71,-0.391 1.086,-0.308 0.249,0.045 0.448,0.143 0.593,0.308 0.144,0.178 0.251,0.462 0.316,0.831 0.035,0.254 0.082,0.836 0.144,1.722 0.077,1.157 0.28,1.986 0.6,2.505 C 2.897,-0.205 3.522,0.233 4.344,0.39 4.879,0.482 5.4,0.423 5.913,0.217 6.423,-0.003 6.852,-0.359 7.193,-0.878 7.534,-1.379 7.781,-2.032 7.916,-2.815 8.154,-4.098 8.04,-5.114 7.596,-5.86 7.148,-6.618 6.448,-7.081 5.504,-7.29 l -0.453,2.053 c 0.511,0.184 0.852,0.44 1.033,0.776 0.177,0.323 0.214,0.774 0.113,1.351 C 6.084,-2.508 5.875,-2.071 5.564,-1.775 5.36,-1.587 5.136,-1.518 4.866,-1.568 4.615,-1.605 4.428,-1.748 4.292,-1.976 4.117,-2.286 4.01,-2.957 3.945,-3.998 3.886,-5.044 3.778,-5.824 3.597,-6.36 3.437,-6.881 3.153,-7.319 2.755,-7.666 2.364,-8.024 1.831,-8.256 1.176,-8.366 0.583,-8.479 0,-8.413 -0.587,-8.185 c -0.575,0.238 -1.049,0.623 -1.401,1.192 -0.367,0.533 -0.632,1.252 -0.794,2.149 -0.241,1.286 -0.119,2.322 0.362,3.129 C -1.938,-0.914 -1.133,-0.347 0,0"
             style="fill:#930f15;fill-opacity:1;fill-rule:nonzero;stroke:none"
             id="path158" />
        </g>
        <g
           id="g160"
           transform="translate(229.3013,246.3457)">
          <path
             d="m 0,0 2.115,0.182 0.498,-5.608 c 0.081,-0.902 0.155,-1.47 0.231,-1.73 0.125,-0.408 0.379,-0.737 0.737,-0.969 0.357,-0.214 0.832,-0.313 1.417,-0.266 0.586,0.052 1.027,0.217 1.305,0.493 0.285,0.258 0.439,0.575 0.466,0.927 0.038,0.367 0.007,0.957 -0.06,1.776 L 6.204,0.541 8.323,0.725 8.802,-4.723 C 8.916,-5.973 8.936,-6.848 8.866,-7.367 8.802,-7.893 8.632,-8.339 8.358,-8.722 8.077,-9.109 7.693,-9.427 7.198,-9.678 6.704,-9.932 6.049,-10.102 5.214,-10.174 c -0.993,-0.086 -1.757,-0.024 -2.302,0.151 -0.525,0.186 -0.97,0.45 -1.296,0.796 -0.328,0.332 -0.565,0.696 -0.697,1.092 -0.184,0.576 -0.338,1.446 -0.435,2.608 z"
             style="fill:#930f15;fill-opacity:1;fill-rule:nonzero;stroke:none"
             id="path162" />
        </g>
        <g
           id="g164"
           transform="translate(242.5903,237.4512)">
          <path
             d="m 0,0 -2.879,10.014 1.978,0.541 6.079,-5.508 -1.93,6.666 1.898,0.532 L 8.019,2.252 5.972,1.684 0.005,7.104 1.89,0.542 Z"
             style="fill:#930f15;fill-opacity:1;fill-rule:nonzero;stroke:none"
             id="path166" />
        </g>
        <g
           id="g168"
           transform="translate(253.8096,241.0381)">
          <path
             d="m 0,0 -3.995,9.618 1.971,0.801 3.996,-9.613 z"
             style="fill:#930f15;fill-opacity:1;fill-rule:nonzero;stroke:none"
             id="path170" />
        </g>
        <g
           id="g172"
           transform="translate(261.1416,244.3477)">
          <path
             d="m 0,0 -8.403,7.264 2.007,1.1 6.122,-5.433 -1.562,7.956 1.98,1.084 1.865,-10.86 z"
             style="fill:#930f15;fill-opacity:1;fill-rule:nonzero;stroke:none"
             id="path174" />
        </g>
        <g
           id="g176"
           transform="translate(268.6226,248.8711)">
          <path
             d="M 0,0 -6.55,8.143 -0.453,12.932 0.665,11.551 -3.785,8.074 -2.331,6.268 1.809,9.5 2.909,8.134 -1.209,4.881 0.553,2.695 5.143,6.287 6.256,4.93 Z"
             style="fill:#930f15;fill-opacity:1;fill-rule:nonzero;stroke:none"
             id="path178" />
        </g>
        <g
           id="g180"
           transform="translate(278.8184,257.6875)">
          <path
             d="m 0,0 -3.228,2.932 0.287,0.31 c 0.331,0.362 0.608,0.583 0.814,0.707 0.212,0.103 0.456,0.166 0.75,0.166 0.296,0.008 0.924,-0.063 1.898,-0.209 L 3.232,3.492 4.948,5.33 2.58,5.766 C 1.627,5.943 0.942,6.029 0.498,6.029 c -0.433,0 -0.901,-0.086 -1.417,-0.24 0.53,0.755 0.762,1.484 0.688,2.166 -0.063,0.673 -0.389,1.281 -0.969,1.809 -0.464,0.425 -0.974,0.672 -1.535,0.778 -0.57,0.102 -1.08,0.03 -1.576,-0.224 C -4.792,10.074 -5.404,9.547 -6.168,8.732 L -9.192,5.479 -1.44,-1.535 Z m -6.433,5.836 1.106,1.2 c 0.586,0.618 0.942,0.993 1.08,1.105 0.269,0.205 0.557,0.305 0.842,0.305 0.289,-0.005 0.561,-0.135 0.818,-0.37 0.233,-0.214 0.386,-0.443 0.44,-0.692 C -2.086,7.143 -2.109,6.896 -2.214,6.667 -2.326,6.412 -2.717,5.928 -3.405,5.188 L -4.463,4.052 Z"
             style="fill:#930f15;fill-opacity:1;fill-rule:nonzero;stroke:none"
             id="path182" />
        </g>
        <g
           id="g184"
           transform="translate(282.146,266.7695)">
          <path
             d="M 0,0 0.983,1.807 C 1.63,1.523 2.196,1.46 2.677,1.596 3.155,1.729 3.569,2.059 3.93,2.598 4.309,3.14 4.482,3.646 4.42,4.088 4.38,4.531 4.194,4.867 3.879,5.073 3.666,5.213 3.454,5.263 3.212,5.25 2.994,5.221 2.727,5.094 2.41,4.879 2.207,4.717 1.76,4.346 1.093,3.738 0.231,2.964 -0.508,2.5 -1.104,2.339 -1.941,2.143 -2.705,2.266 -3.399,2.711 c -0.442,0.3 -0.775,0.69 -1.001,1.194 -0.204,0.504 -0.27,1.058 -0.156,1.663 0.123,0.596 0.399,1.231 0.845,1.904 0.73,1.077 1.516,1.727 2.377,1.956 0.853,0.233 1.68,0.1 2.509,-0.395 L 0.06,7.231 C -0.44,7.452 -0.866,7.504 -1.228,7.405 -1.6,7.278 -1.941,6.969 -2.262,6.497 -2.603,5.987 -2.777,5.519 -2.757,5.094 c 0.02,-0.264 0.134,-0.47 0.359,-0.625 0.203,-0.135 0.44,-0.17 0.702,-0.084 0.338,0.084 0.891,0.494 1.674,1.205 C 0.754,6.297 1.39,6.791 1.88,7.056 2.371,7.316 2.881,7.428 3.415,7.408 3.944,7.387 4.485,7.195 5.045,6.846 5.543,6.5 5.922,6.043 6.181,5.49 6.432,4.924 6.49,4.324 6.368,3.68 6.243,3.039 5.922,2.339 5.417,1.584 4.679,0.498 3.857,-0.174 2.948,-0.415 2.044,-0.682 1.063,-0.539 0,0"
             style="fill:#930f15;fill-opacity:1;fill-rule:nonzero;stroke:none"
             id="path186" />
        </g>
        <g
           id="g188"
           transform="translate(291.0781,274.7285)">
          <path
             d="M 0,0 -9.496,4.486 -8.576,6.379 0.918,1.9 Z"
             style="fill:#930f15;fill-opacity:1;fill-rule:nonzero;stroke:none"
             id="path190" />
        </g>
        <g
           id="g192"
           transform="translate(294.0752,281.7451)">
          <path
             d="m 0,0 -8.242,2.849 -1.032,-2.916 -1.682,0.589 2.752,7.77 1.678,-0.576 -1.017,-2.877 8.25,-2.857 z"
             style="fill:#930f15;fill-opacity:1;fill-rule:nonzero;stroke:none"
             id="path194" />
        </g>
        <g
           id="g196"
           transform="translate(297.0981,292.2129)">
          <path
             d="m 0,0 -4.355,0.805 -6.687,-2.653 0.452,2.414 4.551,1.657 -3.651,3.116 0.445,2.381 5.297,-4.848 4.334,-0.804 z"
             style="fill:#930f15;fill-opacity:1;fill-rule:nonzero;stroke:none"
             id="path198" />
        </g>
        <g
           id="g200"
           transform="translate(226.9131,254.9336)">
          <path
             d="M 0,0 C -19.757,0 -37.007,10.716 -46.214,26.668 H 46.237 C 37.017,10.716 19.774,0 0,0 m 0,106.447 c 29.447,0 53.327,-23.839 53.327,-53.231 0,-8.6 -2.041,-16.716 -5.665,-23.915 h -95.274 v -0.045 c -3.648,7.216 -5.71,15.338 -5.71,23.96 0,29.392 23.876,53.231 53.322,53.231 m 0,2.22 c -30.669,0 -55.551,-24.823 -55.551,-55.451 0,-30.629 24.882,-55.451 55.551,-55.451 30.685,0 55.556,24.822 55.556,55.451 0,30.628 -24.871,55.451 -55.556,55.451"
             style="fill:#930f15;fill-opacity:1;fill-rule:nonzero;stroke:none"
             id="path202" />
        </g>
        <g
           id="g204"
           transform="translate(229.6255,319.4497)">
          <path
             d="M 0,0 -1.156,8.206 -4.162,8.306 -5.31,0 -13.855,0.457 -2.538,24.007 10.622,-4.962 0.578,-5.193 4.503,-0.119 Z m -20.546,0.573 -7.959,0.353 4.495,8.995 5.197,-5.308 z m 39.356,9.591 6.93,-14.555 -8.083,-0.455 -4.266,9.459 z m 24.936,-33.021 c -7.501,-5.878 -13.5,0.932 -13.5,0.932 -9.932,-9.359 -17.888,-0.47 -17.888,-0.47 -6.242,-4.502 -9.004,-3.575 -9.004,-3.575 l -2.086,15.24 12.242,0.112 2.192,-4.97 h 7.043 l -2.202,4.858 h 8.309 l 2.088,-4.966 7.155,0.34 -1.959,4.505 h 6.116 l 0.115,6.922 -9.81,-0.226 L 20.314,20.435 10.738,10.274 -2.538,37.4 -16.043,10.274 l -9.461,10.161 -9.699,-19.632 -12.355,0.355 -0.109,-7.161 9.001,0.35 -3.928,-8.545 h 6.809 l 4.039,8.545 8.31,0.223 -3.804,-8.768 h 6.926 l 3.927,8.768 10.5,-0.114 -3.579,-4.96 2.893,-0.114 -1.858,-15.231 c -3.456,-0.821 -8.768,3.576 -8.768,3.576 -9.927,-9.011 -18.464,0.348 -18.464,0.348 -6.231,-6.935 -13.505,-1.037 -13.505,-1.037 l -1.736,-4.167 c 8.084,-5.194 15.348,-0.34 15.348,-0.34 10.275,-6.58 18.357,-0.454 18.357,-0.454 10.153,-6.476 14.43,-0.245 14.43,-0.245 6.696,-5.998 14.894,0.355 14.894,0.355 8.189,-6.473 17.885,0.225 17.885,0.225 8.198,-4.959 15.592,0.345 15.592,0.345 z"
             style="fill:#930f15;fill-opacity:1;fill-rule:nonzero;stroke:none"
             id="path206" />
        </g>
        <g
           id="g208"
           transform="translate(164.9365,334.1816)">
          <path
             d="m 0,0 c 0,0 0.361,-0.322 0.63,0.048 0,0 0.186,1.409 -0.447,2.119 0,0 -1.766,2.483 -2.118,3.79 0,0 -0.453,0.593 -2.75,0.593 0,0 -0.32,-0.544 -0.101,-0.73 0.234,-0.171 1.038,0.094 1.897,-1.485 l 2.206,-2.937 c 0,0 0.728,-0.81 0.683,-1.398"
             style="fill:#930f15;fill-opacity:1;fill-rule:nonzero;stroke:none"
             id="path210" />
        </g>
        <g
           id="g212"
           transform="translate(172.1611,338.2471)">
          <path
             d="m 0,0 -2.533,0.223 c 0,0 -0.901,-0.309 -0.174,-0.808 0,0 1.345,-2.669 0.852,-4.198 0,0 0.45,-0.772 0.723,0.32 0,0 0.717,2.884 1.354,3.332 0,0 0.493,0.894 -0.222,1.131"
             style="fill:#930f15;fill-opacity:1;fill-rule:nonzero;stroke:none"
             id="path214" />
        </g>
        <g
           id="g216"
           transform="translate(167.5151,334.5947)">
          <path
             d="m 0,0 c 0,0 -0.232,0.762 -0.646,0.092 0,0 0.236,-2.582 -0.396,-3.441 0,0 -0.045,-2.483 -0.321,-3.155 0,0 -0.399,-1.581 -0.314,-1.941 h -0.271 c 0,0 -1.352,3.66 -3.108,2.94 0,0 -0.128,-0.363 0.27,-0.681 0,0 1.903,-3.56 1.628,-4.557 0,0 1.252,-0.32 2.387,-0.27 0,0 1.311,3.199 1.485,4.378 0,0 0.129,2.171 -0.047,2.887 0,0 -0.269,2.653 -0.667,3.748"
             style="fill:#930f15;fill-opacity:1;fill-rule:nonzero;stroke:none"
             id="path218" />
        </g>
        <g
           id="g220"
           transform="translate(296.9834,332.1924)">
          <path
             d="m 0,0 c 0,0 0.25,0.082 0.471,-0.179 l 0.635,-0.595 c 0,0 -1.754,0.118 -1.106,0.774 m -14.636,-3.095 c -2.362,-0.037 -1.51,3.513 -1.51,3.513 0,1.798 1.759,-0.597 1.759,-0.597 l 1.33,-1.799 c 1.023,-1.592 -1.579,-1.117 -1.579,-1.117 M 2.571,-0.774 2.097,-0.561 0.81,0.552 c 0,0 -0.987,-0.215 -0.81,1.238 0,0 -0.087,0.469 -0.899,0.383 L -3.34,4.015 c 0,0 -0.769,0.593 0.588,1.065 0,0 1.039,0.425 -0.508,0.511 0,0 -1.703,-0.209 -1.917,-0.633 0,0 -0.18,-1.409 1.021,-1.329 0,0 2.268,-1.583 2.655,-1.839 0,0 -0.429,-1.238 -0.129,-1.669 0,0 -0.128,-0.507 -1.282,0.297 0,0 -5.517,2.399 -5.732,3.297 0,0 -1.169,0.215 -1.711,-0.25 0,0 -0.092,-1.124 0.205,-1.333 l 1.673,-1.115 c 0,0 -0.682,-0.343 -2.136,0.132 0,0 -1.421,-0.226 -0.474,-1.411 0,0 0.732,-1.461 -0.304,-2.067 0,0 0.042,2.796 -4.156,6.299 0,0 -1.324,-0.04 -1.963,-6.032 0,0 -0.266,-2.405 2.439,-2.229 l 2.101,0.35 c 0,0 0.212,0.336 0.478,-0.216 l -0.099,-1.461 c 0,0 -0.682,-0.512 0.125,-0.758 0,0 0.779,-1.342 1.294,0.509 l -0.097,2.607 c 0,0 1.636,-0.262 1.379,2.699 l 3.598,-0.213 c 0,0 1.027,0.801 -0.731,2.086 0,0 1.965,-0.975 2.526,-1.66 0,0 0.092,-0.344 1.073,-0.308 0,0 0.208,-0.504 1.958,-0.845 0,0 0.131,-0.899 4.037,-1.114 0,0 0.505,1.231 0,1.841"
             style="fill:#930f15;fill-opacity:1;fill-rule:nonzero;stroke:none"
             id="path222" />
        </g>
        <g
           id="g224"
           transform="translate(198.5,364.8438)">
          <path
             d="m 0,0 -0.642,-1.035 -0.563,3.082 c -0.17,0.989 0.563,1.842 0.563,1.842 C -0.264,3.073 -0.084,1.398 -0.084,1.398 0.034,0.553 0,0 0,0 m 2.271,-0.741 c 0,0 -0.739,0.741 0.038,3.61 L 1.751,3.588 1.706,4.146 1.108,4.28 c 0,0 -0.425,0.813 -1.287,0.383 0,0 -0.555,-0.133 0.179,0.898 L 1.452,7.865 1.28,10.777 c 0,0 0.093,0.562 -0.896,0.433 0,0 0.214,-0.564 -0.212,-1.108 -0.436,-0.554 -0.906,-1.677 -1.076,-2.311 0,0 -0.301,2.69 -0.471,3.238 l -0.632,0.908 c 0,0 -0.9,0.506 -0.222,-1.037 V 5.035 L -3.32,3.504 c 0,0 -1.578,-0.412 -0.398,-1.178 l 1.711,-0.363 0.132,-3.784 -0.016,-1.061 1.38,-0.216 1.181,1.779 c 0,0 0.204,0.118 0.321,-0.268 l 0.21,-1.615 c 0,0 -0.518,-1.68 -0.94,-1.853 0,0 -0.177,-0.091 -0.649,-0.56 0,0 -1.291,-1.712 0.687,-1.712 0,0 0.762,-0.305 0.856,0.854 l 0.125,1.505 2.959,-0.561 c 0,0 0.169,0.815 -0.481,1.802 z"
             style="fill:#930f15;fill-opacity:1;fill-rule:nonzero;stroke:none"
             id="path226" />
        </g>
        <g
           id="g228"
           transform="translate(203.6406,364.2104)">
          <path
             d="m 0,0 -1.681,-0.317 c 0,0 -1.093,-0.598 0.077,-0.702 0,0 1.13,-0.373 1.704,-0.876 0,0 0.783,-1.038 1.133,0.247 v 0.889 C 1.233,-0.759 1.17,0.067 0,0"
             style="fill:#930f15;fill-opacity:1;fill-rule:nonzero;stroke:none"
             id="path230" />
        </g>
        <g
           id="g232"
           transform="translate(210.6738,272.8721)">
          <path
             d="M 0,0 -1.215,-0.98 -2.06,0.215 0.59,2.304 1.514,1.81 V -8.704 H 0 Z"
             style="fill:#930f15;fill-opacity:1;fill-rule:nonzero;stroke:none"
             id="path234" />
        </g>
        <g
           id="g236"
           transform="translate(242.2695,272.8721)">
          <path
             d="M 0,0 -1.226,-0.98 -2.07,0.215 0.595,2.304 1.517,1.81 V -8.704 H 0 Z"
             style="fill:#930f15;fill-opacity:1;fill-rule:nonzero;stroke:none"
             id="path238" />
        </g>
        <g
           id="g240"
           transform="translate(222.9214,267.9883)">
          <path
             d="m 0,0 c 0,-0.263 -0.027,-0.524 -0.077,-0.785 -0.062,-0.279 -0.135,-0.506 -0.234,-0.713 -0.1,-0.203 -0.254,-0.371 -0.454,-0.52 -0.199,-0.142 -0.443,-0.246 -0.727,-0.295 -0.288,-0.045 -0.518,-0.051 -0.707,-0.045 -0.348,0.012 -0.647,0.087 -0.87,0.243 -0.238,0.16 -0.376,0.32 -0.432,0.51 -0.061,0.162 -0.098,0.345 -0.121,0.529 l -1.523,-0.028 0.151,-0.638 c 0.033,-0.238 0.148,-0.529 0.332,-0.839 0.182,-0.308 0.393,-0.56 0.647,-0.735 0.249,-0.19 0.56,-0.318 0.927,-0.42 0.371,-0.107 0.779,-0.145 1.232,-0.133 0.378,0 0.743,0.058 1.104,0.161 0.365,0.104 0.66,0.233 0.897,0.408 0.22,0.177 0.42,0.383 0.589,0.605 0.175,0.246 0.314,0.527 0.412,0.836 0.116,0.298 0.188,0.623 0.219,0.958 0.029,0.327 0.04,0.765 0.04,1.315 V 3.498 C 1.405,4.044 1.357,4.531 1.243,4.944 1.135,5.322 0.96,5.696 0.717,6.021 0.483,6.347 0.131,6.63 -0.326,6.883 -0.777,7.119 -1.323,7.26 -1.933,7.235 -2.296,7.209 -2.667,7.143 -3.054,7.005 -3.464,6.883 -3.792,6.693 -4.072,6.471 -4.343,6.23 -4.56,5.949 -4.705,5.631 -4.846,5.313 -4.951,4.994 -4.994,4.686 -5.053,4.377 -5.086,4.044 -5.086,3.695 c 0,-0.7 0.061,-1.222 0.197,-1.584 0.137,-0.357 0.314,-0.644 0.531,-0.879 0.209,-0.245 0.555,-0.448 1.001,-0.644 0.463,-0.193 1.016,-0.283 1.654,-0.245 0.251,0 0.487,0.03 0.724,0.071 0.227,0.047 0.423,0.108 0.568,0.174 C -0.267,0.651 -0.132,0.715 0,0.784 Z M -0.055,3.967 C -0.025,3.54 -0.045,3.166 -0.132,2.855 -0.197,2.547 -0.326,2.284 -0.506,2.09 -0.683,1.877 -1.074,1.762 -1.664,1.754 -1.878,1.745 -2.127,1.762 -2.396,1.809 c -0.266,0.048 -0.498,0.16 -0.687,0.321 -0.182,0.168 -0.312,0.381 -0.399,0.65 -0.08,0.215 -0.112,0.533 -0.104,0.964 0,0.421 0.042,0.758 0.131,0.997 0.093,0.242 0.212,0.432 0.367,0.581 0.151,0.137 0.331,0.25 0.55,0.328 0.212,0.075 0.483,0.11 0.811,0.11 0.389,-0.016 0.701,-0.092 0.962,-0.245 0.242,-0.148 0.439,-0.363 0.563,-0.631 0.063,-0.179 0.11,-0.484 0.147,-0.917"
             style="fill:#930f15;fill-opacity:1;fill-rule:nonzero;stroke:none"
             id="path242" />
        </g>
        <g
           id="g244"
           transform="translate(236.2676,270.749)">
          <path
             d="M 0,0 C -0.03,0.478 -0.1,0.956 -0.198,1.435 -0.287,1.882 -0.458,2.317 -0.677,2.72 -0.912,3.131 -1.191,3.47 -1.509,3.739 -1.841,4.022 -2.187,4.222 -2.556,4.347 -2.922,4.499 -3.28,4.55 -3.619,4.563 -4.087,4.563 -4.538,4.47 -4.963,4.244 -5.395,4.038 -5.729,3.772 -5.996,3.473 -6.244,3.175 -6.471,2.819 -6.65,2.412 -6.832,1.997 -6.964,1.564 -7.061,1.077 -7.153,0.598 -7.205,0.168 -7.218,-0.214 c -0.014,-0.285 -0.02,-0.747 -0.014,-1.372 0.01,-0.624 0.047,-1.157 0.134,-1.6 0.086,-0.435 0.214,-0.866 0.386,-1.286 0.172,-0.42 0.399,-0.796 0.687,-1.14 0.296,-0.325 0.651,-0.58 1.081,-0.749 0.434,-0.165 0.874,-0.25 1.325,-0.25 0.473,0 0.89,0.047 1.28,0.195 0.384,0.143 0.693,0.308 0.946,0.515 0.249,0.205 0.464,0.494 0.67,0.861 0.204,0.365 0.357,0.738 0.459,1.131 0.102,0.388 0.182,0.824 0.224,1.305 0.04,0.478 0.08,0.837 0.085,1.08 C 0.054,-0.993 0.045,-0.477 0,0 M -1.444,-1.661 C -1.463,-2.005 -1.498,-2.418 -1.569,-2.896 -1.646,-3.37 -1.778,-3.772 -1.968,-4.116 -2.172,-4.462 -2.401,-4.733 -2.7,-4.885 -2.999,-5.04 -3.303,-5.119 -3.639,-5.106 c -0.391,0 -0.71,0.093 -0.981,0.289 -0.264,0.175 -0.484,0.424 -0.66,0.755 -0.178,0.329 -0.304,0.727 -0.386,1.19 -0.083,0.476 -0.125,1.035 -0.14,1.717 0,0.4 0,0.726 0.028,0.99 0.02,0.273 0.07,0.619 0.159,1.037 0.082,0.411 0.202,0.78 0.379,1.125 0.159,0.32 0.376,0.584 0.66,0.771 0.276,0.187 0.6,0.28 0.973,0.28 0.369,-0.006 0.675,-0.112 0.937,-0.294 0.249,-0.173 0.468,-0.416 0.642,-0.712 0.192,-0.285 0.326,-0.65 0.424,-1.076 0.098,-0.434 0.156,-0.983 0.177,-1.686 0,-0.287 -0.013,-0.604 -0.017,-0.941"
             style="fill:#930f15;fill-opacity:1;fill-rule:nonzero;stroke:none"
             id="path246" />
        </g>
        <g
           id="g248"
           transform="translate(258.6772,369.9688)">
          <path
             d="m 0,0 1.59,-0.103 1.983,1.239 c 0,0 0.427,0.154 -0.041,0.794 0,0 -0.312,-0.362 -0.868,-0.273 C 2.109,1.745 1.145,1.648 0.623,1.526 L 0.606,1.504 -0.662,1.649 c 0.421,0.314 -0.359,2.185 -0.359,2.185 -0.403,0.76 -0.827,0.454 -0.827,0.454 -0.505,-0.36 -0.684,-1.741 -0.684,-1.741 l -0.453,-0.698 -1.886,-0.071 -2.05,0.3 c 0,0 -1.276,1.377 -1.404,-0.232 l 0.39,-1.298 c 0.015,-0.233 0.079,-0.422 0.173,-0.575 l 0.017,-0.057 0.016,0.012 c 0.38,-0.544 1.167,-0.576 1.446,-0.571 -0.582,-0.098 -2.742,-1.27 -2.742,-1.27 -3.163,-2.189 -7.458,-2.297 -7.458,-2.297 -1.363,-0.379 0.191,-0.768 0.191,-0.768 1.381,-0.312 6.552,0.941 6.552,0.941 7.412,2.041 8.475,4.126 8.475,4.126 C -0.875,0.023 -0.43,0 0,0"
             style="fill:#930f15;fill-opacity:1;fill-rule:nonzero;stroke:none"
             id="path250" />
        </g>
        <g
           id="g252"
           transform="translate(255.3877,363.8232)">
          <path
             d="m 0,0 c 0,0 -0.639,1.313 -1.072,-0.159 0,0 -1.035,-3.201 -2.274,-3.362 0,0 -1.063,-0.5 -0.113,-0.733 0,0 2.336,1.047 3.668,1.083 0,0 1.302,1.105 -0.209,3.171"
             style="fill:#930f15;fill-opacity:1;fill-rule:nonzero;stroke:none"
             id="path254" />
        </g>
      </g>
    </g>
  </g>
</svg>
