<?xml version="1.0" encoding="UTF-8" standalone="no"?>
<!-- Created with Inkscape (http://www.inkscape.org/) -->

<svg
   version="1.1"
   id="svg2"
   width="1122.52"
   height="793.70667"
   viewBox="0 0 1122.52 793.70667"
   sodipodi:docname="SDU.svg"
   inkscape:version="1.2.2 (b0a8486541, 2022-12-01)"
   xmlns:inkscape="http://www.inkscape.org/namespaces/inkscape"
   xmlns:sodipodi="http://sodipodi.sourceforge.net/DTD/sodipodi-0.dtd"
   xmlns="http://www.w3.org/2000/svg"
   xmlns:svg="http://www.w3.org/2000/svg">
  <defs
     id="defs6">
    <clipPath
       clipPathUnits="userSpaceOnUse"
       id="clipPath20">
      <path
         d="M 0,595.28 H 841.89 V 0 H 0 Z"
         id="path18" />
    </clipPath>
  </defs>
  <sodipodi:namedview
     id="namedview4"
     pagecolor="#ffffff"
     bordercolor="#000000"
     borderopacity="0.25"
     inkscape:showpageshadow="2"
     inkscape:pageopacity="0.0"
     inkscape:pagecheckerboard="0"
     inkscape:deskcolor="#d1d1d1"
     showgrid="false"
     inkscape:zoom="1.2838496"
     inkscape:cx="561.59225"
     inkscape:cy="397.63224"
     inkscape:window-width="2560"
     inkscape:window-height="1284"
     inkscape:window-x="0"
     inkscape:window-y="0"
     inkscape:window-maximized="1"
     inkscape:current-layer="g10">
    <inkscape:page
       x="0"
       y="0"
       id="page8"
       width="1122.52"
       height="793.70667" />
  </sodipodi:namedview>
  <g
     id="g10"
     inkscape:groupmode="layer"
     inkscape:label="Page 1"
     transform="matrix(1.3333333,0,0,-1.3333333,0,793.70667)">
    <path
       d="M 488.868,259.486 H 352.655 v 105.038 h 136.213 z"
       style="fill:#930f15;fill-opacity:1;fill-rule:nonzero;stroke:none"
       id="path12" />
    <g
       id="g14">
      <g
         id="g16"
         clip-path="url(#clipPath20)">
        <g
           id="g22"
           transform="translate(398.5596,295.9219)">
          <path
             d="m 0,0 c 0.07,-4.46 -1.091,-8.273 -3.471,-11.438 -1.564,-2.145 -3.779,-3.664 -6.638,-4.546 -1.529,-0.475 -3.319,-0.715 -5.36,-0.715 -3.778,0 -6.912,0.935 -9.396,2.807 -2.077,1.533 -3.722,3.619 -4.928,6.253 -1.209,2.643 -1.913,5.665 -2.12,9.07 l 9.192,0.663 c 0.406,-3.733 1.395,-6.435 2.962,-8.114 1.156,-1.263 2.485,-1.866 3.982,-1.791 2.11,0.066 3.796,1.103 5.056,3.117 0.647,0.989 0.971,2.4 0.971,4.239 0,2.654 -1.212,5.297 -3.626,7.926 -1.909,1.804 -4.768,4.513 -8.58,8.126 -3.2,3.094 -5.464,5.878 -6.792,8.326 -1.427,2.763 -2.144,5.757 -2.144,8.995 0,5.824 1.958,10.238 5.872,13.241 2.419,1.808 5.414,2.709 8.989,2.709 3.439,0 6.381,-0.769 8.831,-2.3 1.907,-1.19 3.449,-2.861 4.62,-5.004 1.175,-2.145 1.886,-4.615 2.123,-7.401 l -9.244,-1.687 c -0.274,2.623 -1.02,4.662 -2.247,6.126 -0.886,1.056 -2.16,1.586 -3.829,1.586 -1.772,0 -3.116,-0.791 -4.032,-2.355 -0.749,-1.258 -1.123,-2.822 -1.123,-4.694 0,-2.93 1.257,-5.906 3.778,-8.937 0.949,-1.155 2.38,-2.52 4.288,-4.086 2.245,-1.871 3.728,-3.183 4.442,-3.932 2.381,-2.38 4.222,-4.727 5.516,-7.042 0.612,-1.089 1.106,-2.093 1.48,-3.016 C -0.506,3.846 -0.033,1.805 0,0"
             style="fill:#ffffff;fill-opacity:1;fill-rule:nonzero;stroke:none"
             id="path24" />
        </g>
        <g
           id="g26"
           transform="translate(414.7217,289.5342)">
          <path
             d="m 0,0 h 5.819 c 1.531,0 2.826,0.556 3.882,1.666 1.055,1.103 1.581,2.407 1.581,3.905 v 33.494 c 0,1.531 -0.533,2.842 -1.607,3.931 -1.072,1.092 -2.36,1.64 -3.856,1.64 L 0,44.636 Z M 20.679,5.773 C 20.679,1.551 19.197,-2.06 16.233,-5.049 13.274,-8.046 9.701,-9.543 5.513,-9.543 H -9.652 v 64.03 H 5.513 c 4.219,0 7.802,-1.498 10.749,-4.494 2.947,-2.996 4.417,-6.588 4.417,-10.775 z"
             style="fill:#ffffff;fill-opacity:1;fill-rule:nonzero;stroke:none"
             id="path28" />
        </g>
        <g
           id="g30"
           transform="translate(457.4336,279.2754)">
          <path
             d="m 0,0 c -4.253,0 -7.861,1.479 -10.824,4.441 -2.962,2.962 -4.442,6.553 -4.442,10.774 v 49.476 h 9.448 V 15.316 c 0,-1.532 0.542,-2.831 1.632,-3.906 1.089,-1.071 2.402,-1.604 3.93,-1.604 1.534,0 2.834,0.533 3.908,1.604 1.074,1.075 1.609,2.374 1.609,3.906 V 64.691 H 15.318 V 15.215 C 15.318,10.928 13.821,7.317 10.83,4.388 7.832,1.464 4.222,0 0,0"
             style="fill:#ffffff;fill-opacity:1;fill-rule:nonzero;stroke:none"
             id="path32" />
        </g>
        <path
           d="M 488.866,213.395 H 352.654 V 108.358 H 488.866 Z M 484.43,112.793 H 357.09 v 96.166 h 127.34 z"
           style="fill:#930f15;fill-opacity:1;fill-rule:nonzero;stroke:none"
           id="path34" />
        <g
           id="g36"
           transform="translate(398.5596,144.791)">
          <path
             d="m 0,0 c 0.069,-4.459 -1.091,-8.273 -3.471,-11.435 -1.566,-2.148 -3.779,-3.665 -6.638,-4.549 -1.531,-0.474 -3.321,-0.715 -5.36,-0.715 -3.778,0 -6.912,0.936 -9.397,2.809 -2.078,1.532 -3.722,3.619 -4.928,6.253 -1.209,2.641 -1.913,5.664 -2.119,9.069 l 9.192,0.662 c 0.406,-3.731 1.395,-6.433 2.962,-8.113 1.156,-1.263 2.485,-1.866 3.981,-1.792 2.111,0.067 3.795,1.103 5.057,3.117 0.644,0.99 0.97,2.4 0.97,4.24 0,2.655 -1.211,5.296 -3.626,7.926 -1.908,1.804 -4.767,4.514 -8.58,8.125 -3.199,3.097 -5.463,5.879 -6.791,8.327 -1.427,2.763 -2.144,5.756 -2.144,8.994 0,5.826 1.958,10.239 5.872,13.243 2.418,1.806 5.413,2.708 8.989,2.708 3.438,0 6.381,-0.77 8.83,-2.3 1.906,-1.19 3.448,-2.862 4.621,-5.002 1.173,-2.147 1.885,-4.617 2.121,-7.404 l -9.244,-1.686 c -0.273,2.622 -1.018,4.661 -2.246,6.125 -0.887,1.058 -2.16,1.587 -3.829,1.587 -1.772,0 -3.115,-0.791 -4.032,-2.356 -0.749,-1.256 -1.124,-2.822 -1.124,-4.693 0,-2.929 1.258,-5.906 3.78,-8.937 0.948,-1.155 2.38,-2.52 4.288,-4.085 2.245,-1.873 3.727,-3.184 4.441,-3.932 2.382,-2.381 4.223,-4.729 5.517,-7.043 0.611,-1.09 1.105,-2.093 1.48,-3.017 C -0.507,3.846 -0.033,1.807 0,0"
             style="fill:#930f15;fill-opacity:1;fill-rule:nonzero;stroke:none"
             id="path38" />
        </g>
        <g
           id="g40"
           transform="translate(414.7217,138.4053)">
          <path
             d="m 0,0 h 5.819 c 1.53,0 2.826,0.554 3.882,1.665 1.055,1.102 1.581,2.408 1.581,3.904 v 33.494 c 0,1.533 -0.534,2.844 -1.609,3.933 -1.07,1.092 -2.358,1.638 -3.854,1.638 H 0 Z m 20.679,5.772 c 0,-4.221 -1.484,-7.833 -4.447,-10.821 C 13.274,-8.046 9.701,-9.544 5.512,-9.544 H -9.652 V 54.487 H 5.512 c 4.219,0 7.802,-1.498 10.749,-4.495 2.946,-2.996 4.418,-6.588 4.418,-10.775 z"
             style="fill:#930f15;fill-opacity:1;fill-rule:nonzero;stroke:none"
             id="path42" />
        </g>
        <g
           id="g44"
           transform="translate(457.4336,128.1465)">
          <path
             d="m 0,0 c -4.255,0 -7.861,1.477 -10.825,4.439 -2.964,2.963 -4.441,6.554 -4.441,10.776 V 64.69 h 9.447 V 15.313 c 0,-1.532 0.542,-2.83 1.632,-3.903 1.09,-1.071 2.403,-1.605 3.933,-1.605 1.53,0 2.831,0.534 3.904,1.605 1.075,1.073 1.61,2.371 1.61,3.903 V 64.69 H 15.317 V 15.215 C 15.317,10.928 13.819,7.316 10.828,4.387 7.831,1.464 4.221,0 0,0"
             style="fill:#930f15;fill-opacity:1;fill-rule:nonzero;stroke:none"
             id="path46" />
        </g>
        <g
           id="g48"
           transform="translate(394.4194,426.8369)">
          <path
             d="m 0,0 c 0.082,-5.333 -1.305,-9.893 -4.151,-13.675 -1.872,-2.568 -4.518,-4.382 -7.937,-5.438 -1.831,-0.567 -3.971,-0.857 -6.41,-0.857 -4.518,0 -8.264,1.12 -11.237,3.36 -2.484,1.832 -4.451,4.328 -5.894,7.478 -1.444,3.158 -2.287,6.772 -2.531,10.844 l 10.99,0.791 c 0.486,-4.46 1.667,-7.693 3.542,-9.701 1.384,-1.509 2.972,-2.23 4.76,-2.143 2.524,0.08 4.539,1.32 6.049,3.727 0.769,1.184 1.159,2.872 1.159,5.071 0,3.175 -1.449,6.333 -4.337,9.478 -2.28,2.156 -5.701,5.398 -10.258,9.715 -3.828,3.704 -6.534,7.031 -8.122,9.959 -1.707,3.304 -2.563,6.884 -2.563,10.755 0,6.967 2.339,12.245 7.021,15.837 2.891,2.159 6.472,3.238 10.75,3.238 4.11,0 7.63,-0.919 10.559,-2.751 2.279,-1.422 4.124,-3.422 5.526,-5.981 1.403,-2.568 2.253,-5.521 2.535,-8.855 l -11.054,-2.016 c -0.325,3.136 -1.216,5.575 -2.685,7.325 -1.061,1.266 -2.584,1.899 -4.58,1.899 -2.119,0 -3.725,-0.947 -4.821,-2.817 -0.896,-1.503 -1.343,-3.376 -1.343,-5.613 0,-3.505 1.502,-7.063 4.519,-10.687 1.134,-1.382 2.846,-3.014 5.127,-4.884 2.686,-2.24 4.457,-3.809 5.311,-4.705 2.847,-2.846 5.05,-5.653 6.597,-8.42 C -2.746,9.63 -2.155,8.43 -1.708,7.326 -0.607,4.598 -0.04,2.161 0,0"
             style="fill:#930f15;fill-opacity:1;fill-rule:nonzero;stroke:none"
             id="path50" />
        </g>
        <g
           id="g52"
           transform="translate(413.7471,419.2002)">
          <path
             d="m 0,0 h 6.958 c 1.83,0 3.378,0.663 4.642,1.991 1.261,1.318 1.891,2.879 1.891,4.67 v 40.053 c 0,1.833 -0.638,3.399 -1.923,4.702 -1.28,1.305 -2.82,1.958 -4.61,1.958 l -6.958,0 z m 24.728,6.902 c 0,-5.047 -1.772,-9.365 -5.318,-12.94 -3.536,-3.583 -7.81,-5.374 -12.818,-5.374 H -11.541 V 65.157 H 6.592 c 5.045,0 9.329,-1.792 12.853,-5.376 3.524,-3.582 5.283,-7.878 5.283,-12.884 z"
             style="fill:#930f15;fill-opacity:1;fill-rule:nonzero;stroke:none"
             id="path54" />
        </g>
        <g
           id="g56"
           transform="translate(464.8232,406.9321)">
          <path
             d="m 0,0 c -5.088,0 -9.401,1.767 -12.945,5.309 -3.543,3.544 -5.311,7.838 -5.311,12.885 V 77.36 H -6.958 V 18.313 c 0,-1.832 0.646,-3.383 1.951,-4.67 1.304,-1.28 2.872,-1.918 4.703,-1.918 1.828,0 3.386,0.638 4.67,1.918 1.283,1.287 1.924,2.838 1.924,4.67 V 77.36 H 18.316 V 18.194 C 18.316,13.068 16.526,8.75 12.949,5.246 9.364,1.752 5.046,0 0,0"
             style="fill:#930f15;fill-opacity:1;fill-rule:nonzero;stroke:none"
             id="path58" />
        </g>
      </g>
    </g>
  </g>
</svg>
