<?xml version="1.0" encoding="UTF-8" standalone="no"?>
<!-- Created with Inkscape (http://www.inkscape.org/) -->

<svg
   version="1.1"
   id="svg2"
   width="1122.52"
   height="793.70667"
   viewBox="0 0 1122.52 793.70667"
   sodipodi:docname="横式.svg"
   inkscape:version="1.2.2 (b0a8486541, 2022-12-01)"
   xmlns:inkscape="http://www.inkscape.org/namespaces/inkscape"
   xmlns:sodipodi="http://sodipodi.sourceforge.net/DTD/sodipodi-0.dtd"
   xmlns="http://www.w3.org/2000/svg"
   xmlns:svg="http://www.w3.org/2000/svg">
  <defs
     id="defs6">
    <clipPath
       clipPathUnits="userSpaceOnUse"
       id="clipPath18">
      <path
         d="M 0,595.28 H 841.89 V 0 H 0 Z"
         id="path16" />
    </clipPath>
  </defs>
  <sodipodi:namedview
     id="namedview4"
     pagecolor="#ffffff"
     bordercolor="#000000"
     borderopacity="0.25"
     inkscape:showpageshadow="2"
     inkscape:pageopacity="0.0"
     inkscape:pagecheckerboard="0"
     inkscape:deskcolor="#d1d1d1"
     showgrid="false"
     inkscape:zoom="0.29733907"
     inkscape:cx="561.64836"
     inkscape:cy="398.53491"
     inkscape:window-width="2560"
     inkscape:window-height="1284"
     inkscape:window-x="0"
     inkscape:window-y="0"
     inkscape:window-maximized="1"
     inkscape:current-layer="g10">
    <inkscape:page
       x="0"
       y="0"
       id="page8"
       width="1122.52"
       height="793.70667" />
  </sodipodi:namedview>
  <g
     id="g10"
     inkscape:groupmode="layer"
     inkscape:label="Page 1"
     transform="matrix(1.3333333,0,0,-1.3333333,0,793.70667)">
    <g
       id="g12">
      <g
         id="g14"
         clip-path="url(#clipPath18)">
        <g
           id="g20"
           transform="translate(381.3584,330.686)">
          <path
             d="m 0,0 c 0,0 0.178,-1.951 1.993,-1.629 0,0 4.433,3.63 4.579,7.525 0,0 1.736,12.247 4.313,17.104 0,0 0.316,2.982 -6.48,9.413 0,0 -2.449,-0.722 -2.291,-1.869 0.178,-1.167 3.338,-2.633 1.45,-9.707 L 1.892,6.029 C 1.892,6.029 1.763,1.611 0,0"
             style="fill:#930f15;fill-opacity:1;fill-rule:nonzero;stroke:none"
             id="path22" />
        </g>
        <g
           id="g24"
           transform="translate(414.0088,322.5337)">
          <path
             d="m 0,0 -6.838,7.72 c 0,0 -3.533,1.583 -2.79,-1.891 0,0 -3.443,-11.642 -9.175,-14.798 0,0 -0.809,-3.515 3.006,-1.071 0,0 10.193,6.51 13.318,6.066 0,0 3.988,1.296 2.479,3.974"
             style="fill:#930f15;fill-opacity:1;fill-rule:nonzero;stroke:none"
             id="path26" />
        </g>
        <g
           id="g28"
           transform="translate(390.0957,324.7085)">
          <path
             d="m 0,0 c 0,0 1.466,2.896 -1.618,2.029 0,0 -6.508,-8.218 -10.772,-8.997 0,0 -7.064,-7.195 -9.745,-8.437 0,0 -5.598,-3.528 -6.351,-4.841 l -0.795,0.758 c 0,0 6.186,14.561 -1.009,17.342 0,0 -1.413,-0.701 -1.089,-2.757 0,0 -4.355,-15.816 -7.932,-17.994 0,0 2.862,-4.453 6.309,-7.467 0,0 12.808,5.807 16.614,8.763 0,0 6.435,6.028 7.926,8.66 0,0 6.637,8.613 8.462,12.941"
             style="fill:#930f15;fill-opacity:1;fill-rule:nonzero;stroke:none"
             id="path30" />
        </g>
        <g
           id="g32"
           transform="translate(628.6885,370.1348)">
          <path
             d="M 0,0 C 0,0 0.008,1.318 1.536,1.951 L 5.343,4 C 5.343,4 1.999,-4.002 0,0 m -8.272,-73.129 c -3.446,-11.054 -18.707,-1.53 -18.707,-1.53 -8.384,2.779 5.518,7.234 5.518,7.234 l 10.436,3.41 c 9.003,2.358 2.753,-9.114 2.753,-9.114 M 7.59,10.788 5.854,8.938 -1.325,4.641 c 0,0 -0.529,-4.915 -7.057,-1.856 0,0 -2.345,0.307 -3.194,-3.584 l -12.38,-8.558 c 0,0 -3.989,-2.671 -4.052,4.453 0,0 -0.422,5.478 -3.22,-1.593 0,0 -1.643,-8.329 0.036,-9.981 0,0 6.309,-3 7.787,2.723 0,0 10.906,8.146 12.694,9.531 0,0 5.138,-3.907 7.609,-3.178 0,0 2.187,-1.406 -3.392,-5.515 0,0 -19.747,-22.074 -24.263,-21.69 0,0 -2.803,-5.047 -1.464,-8.378 0,0 5.083,-2.106 6.53,-1.073 l 7.789,6.083 c 0,0 0.529,-3.712 -3.93,-9.803 0,0 -1.179,-6.916 5.874,-4.37 0,0 7.937,1.142 9.132,-4.602 0,0 -12.933,4.508 -35.815,-9.637 0,0 -1.854,-6.254 25.123,-18.54 0,0 10.797,-4.904 14.184,7.93 l 1.632,10.345 c 0,0 -1.261,1.527 1.743,1.858 l 6.652,-2.659 c 0,0 1.346,-3.978 3.803,-0.593 0,0 7.393,1.561 -0.4,6.813 l -12.339,3.64 c 0,0 3.724,7.177 -10.449,10.591 l 6.562,16.446 c 0,0 -2.209,6.039 -10.923,-0.164 0,0 7.644,7.664 11.679,9.197 0,0 1.755,-0.112 3.07,4.532 0,0 2.738,0.192 7.049,7.864 0,0 4.401,-0.772 11.436,17.073 0,0 -4.99,4.337 -8.591,2.842"
             style="fill:#930f15;fill-opacity:1;fill-rule:nonzero;stroke:none"
             id="path34" />
        </g>
        <g
           id="g36"
           transform="translate(457.7852,320.4604)">
          <path
             d="m 0,0 -5.091,-3.108 4.397,14.791 C 0.74,16.397 5.851,18.555 5.851,18.555 5.731,14.116 2.772,6.367 2.772,6.367 1.45,2.352 0,0 0,0 m 8.357,-8.248 c 0,0 -1.551,4.81 8.193,15.696 l -0.827,4.435 1.048,2.554 -2.349,1.894 c 0,0 -0.07,4.545 -4.786,4.545 0,0 -2.728,0.679 2.744,3.595 l 11.558,6.918 5.705,13.174 c 0,0 1.622,2.272 -2.986,3.875 0,0 -0.307,-2.907 -3.433,-4.41 -3.104,-1.495 -7.648,-5.343 -9.854,-7.779 0,0 4.691,12.505 5.175,15.335 l -0.775,5.381 c 0,0 -2.86,4.188 -3.29,-4.049 L 1.421,27.113 -6.752,22.768 c 0,0 -7.855,1.749 -4.388,-4.242 l 6.743,-5.399 -7.848,-16.964 -2.43,-4.657 5.621,-4.006 9.12,5.251 c 0,0 1.178,-0.008 0.789,-1.917 l -2.672,-7.604 c 0,0 -6.014,-6.224 -8.275,-6.015 0,0 -0.941,0 -4.054,-1.016 0,0 -9.462,-4.682 -0.814,-9.071 0,0 2.719,-3.021 5.672,1.862 l 3.906,6.32 11.738,-9.018 c 0,0 2.557,3.188 1.937,8.94 z"
             style="fill:#930f15;fill-opacity:1;fill-rule:nonzero;stroke:none"
             id="path38" />
        </g>
        <g
           id="g40"
           transform="translate(479.001,306.231)">
          <path
             d="m 0,0 -8.051,2.335 c 0,0 -6.19,-0.188 -1.261,-3.19 0,0 4.144,-4.193 5.525,-7.689 0,0 1.159,-6.342 5.553,-1.403 l 1.973,3.884 c 0,0 1.554,3.74 -3.739,6.063"
             style="fill:#930f15;fill-opacity:1;fill-rule:nonzero;stroke:none"
             id="path42" />
        </g>
        <g
           id="g44"
           transform="translate(553.9248,350.9839)">
          <path
             d="m 0,0 5.863,3.508 3.985,9.197 c 0,0 1.132,1.589 -2.079,2.711 0,0 -0.22,-2.032 -2.401,-3.081 C 3.199,11.292 0.031,8.604 -1.515,6.897 L -1.522,6.784 -6.354,4.205 c 0.724,2.131 -6.586,6.841 -6.586,6.841 -3.278,1.705 -4.024,-0.408 -4.024,-0.408 -0.911,-2.509 1.818,-7.816 1.818,-7.816 l 0.103,-3.567 -6.484,-4.847 -7.975,-3.931 c 0,0 -7.855,1.747 -4.39,-4.242 l 4.535,-3.628 c 0.625,-0.79 1.309,-1.309 2.016,-1.611 l 0.199,-0.16 0.028,0.078 c 2.66,-0.992 5.52,0.81 6.494,1.509 -1.81,-1.773 -6.588,-11.168 -6.588,-11.168 -5.833,-15.43 -20.737,-26.275 -20.737,-26.275 -3.896,-4.658 2.54,-2.242 2.54,-2.242 5.641,2.262 20.84,19.275 20.84,19.275 C -3.357,-12.72 -4.689,-2.769 -4.689,-2.769 -3.144,-2.054 -1.519,-1.05 0,0"
             style="fill:#930f15;fill-opacity:1;fill-rule:nonzero;stroke:none"
             id="path46" />
        </g>
        <g
           id="g48"
           transform="translate(557.2725,321.271)">
          <path
             d="m 0,0 c 0,0 -5.452,3.082 -3.398,-3.176 0,0 4.143,-13.824 0.164,-17.412 0,0 -2.538,-4.35 1.383,-2.861 0,0 5.706,9.393 10.319,12.759 0,0 1.901,7.074 -8.468,10.69"
             style="fill:#930f15;fill-opacity:1;fill-rule:nonzero;stroke:none"
             id="path50" />
        </g>
        <g
           id="g52"
           transform="translate(265.1987,260.6846)">
          <path
             d="m 0,0 c -33.287,0 -60.27,26.986 -60.27,60.271 0,33.294 26.983,60.281 60.27,60.281 33.294,0 60.268,-26.987 60.268,-60.281 C 60.268,26.986 33.294,0 0,0 m 0,122.741 c -34.5,0 -62.463,-27.963 -62.463,-62.47 0,-34.507 27.963,-62.459 62.463,-62.459 34.499,0 62.462,27.952 62.462,62.459 0,34.507 -27.963,62.47 -62.462,62.47"
             style="fill:#930f15;fill-opacity:1;fill-rule:evenodd;stroke:none"
             id="path54" />
        </g>
        <g
           id="g56"
           transform="translate(257.6533,269.5088)">
          <path
             d="M 0,0 0.202,1.338 3.72,0.818 3.233,-2.336 C 2.847,-2.607 2.302,-2.822 1.615,-2.971 0.931,-3.115 0.264,-3.146 -0.404,-3.045 c -0.849,0.119 -1.555,0.406 -2.125,0.846 -0.584,0.437 -0.977,1.002 -1.194,1.699 -0.212,0.688 -0.257,1.41 -0.145,2.176 0.134,0.822 0.422,1.525 0.875,2.111 0.449,0.594 1.04,1 1.769,1.25 C -0.664,5.217 0,5.252 0.771,5.141 1.775,4.988 2.529,4.67 3.021,4.178 3.524,3.682 3.798,3.066 3.849,2.311 L 2.177,2.264 C 2.125,2.662 1.953,2.998 1.68,3.268 1.4,3.537 1.032,3.715 0.559,3.787 -0.148,3.883 -0.75,3.744 -1.242,3.365 -1.726,2.982 -2.039,2.35 -2.18,1.486 c -0.132,-0.937 -0.037,-1.674 0.321,-2.205 0.35,-0.539 0.875,-0.859 1.569,-0.955 0.33,-0.053 0.677,-0.033 1.045,0.041 0.366,0.094 0.679,0.201 0.96,0.35 l 0.152,1.01 z"
             style="fill:#930f15;fill-opacity:1;fill-rule:nonzero;stroke:none"
             id="path58" />
        </g>
        <g
           id="g60"
           transform="translate(244.2866,269.9717)">
          <path
             d="M 0,0 2.708,7.525 4.224,7.012 5.567,0.904 7.378,5.926 8.823,5.436 6.121,-2.092 4.552,-1.559 3.219,4.445 1.441,-0.498 Z"
             style="fill:#930f15;fill-opacity:1;fill-rule:nonzero;stroke:none"
             id="path62" />
        </g>
        <g
           id="g64"
           transform="translate(221.2109,287.4111)">
          <path
             d="M 0,0 6.217,5.188 7.256,4 5.284,-1.945 9.433,1.523 10.428,0.381 4.216,-4.807 3.146,-3.576 5.075,2.256 0.997,-1.131 Z"
             style="fill:#930f15;fill-opacity:1;fill-rule:nonzero;stroke:none"
             id="path66" />
        </g>
        <g
           id="g68"
           transform="translate(236.2637,275.2139)">
          <path
             d="M 0,0 C 0.228,-0.982 0.866,-1.785 1.905,-2.396 2.94,-2.998 3.954,-3.17 4.953,-2.908 5.949,-2.648 6.792,-1.965 7.474,-0.855 8.161,0.262 8.392,1.311 8.161,2.299 7.923,3.285 7.288,4.086 6.263,4.697 5.695,5.035 5.133,5.234 4.585,5.316 4.177,5.367 3.75,5.34 3.298,5.227 2.853,5.111 2.443,4.928 2.067,4.666 1.565,4.32 1.095,3.809 0.66,3.109 -0.006,2.02 -0.224,0.982 0,0 M 3.778,3.746 C 4.377,3.93 4.97,3.846 5.555,3.504 6.13,3.166 6.479,2.695 6.59,2.102 6.702,1.504 6.517,0.814 6.037,0.031 5.543,-0.762 4.995,-1.248 4.383,-1.434 3.778,-1.621 3.192,-1.539 2.628,-1.221 c -0.557,0.34 -0.9,0.817 -1.015,1.43 -0.116,0.605 0.062,1.309 0.538,2.09 0.483,0.787 1.032,1.264 1.627,1.447"
             style="fill:#930f15;fill-opacity:1;fill-rule:nonzero;stroke:none"
             id="path70" />
        </g>
        <g
           id="g72"
           transform="translate(227.6001,280.5342)">
          <path
             d="m 0,0 2.362,-1.961 c 0.465,-0.377 0.872,-0.641 1.224,-0.795 0.477,-0.191 0.912,-0.265 1.309,-0.238 0.528,0.045 1.058,0.215 1.6,0.531 0.441,0.254 0.879,0.631 1.317,1.131 0.491,0.57 0.837,1.109 1.041,1.605 0.202,0.5 0.297,0.997 0.26,1.479 C 9.087,2.244 8.933,2.689 8.664,3.104 8.459,3.396 8.103,3.76 7.582,4.186 l -2.295,1.9 z M 6.214,3.551 C 6.724,3.115 7.05,2.818 7.195,2.633 7.388,2.398 7.492,2.137 7.525,1.871 7.554,1.604 7.504,1.314 7.368,0.99 7.242,0.668 6.97,0.273 6.558,-0.203 6.142,-0.676 5.785,-1.006 5.467,-1.215 5.147,-1.414 4.863,-1.512 4.633,-1.525 4.391,-1.545 4.151,-1.477 3.903,-1.355 3.716,-1.271 3.444,-1.074 3.092,-0.797 L 2.165,-0.018 5.65,4.01 Z"
             style="fill:#930f15;fill-opacity:1;fill-rule:nonzero;stroke:none"
             id="path74" />
        </g>
        <g
           id="g76"
           transform="translate(225.4082,295.9287)">
          <path
             d="m 0,0 -0.866,1.483 -8.679,-1.249 0.863,-1.488 1.961,0.336 1.615,-2.791 -1.269,-1.504 0.878,-1.5 z m -5.268,-0.684 3.177,0.524 -2.069,-2.426 z"
             style="fill:#930f15;fill-opacity:1;fill-rule:nonzero;stroke:none"
             id="path78" />
        </g>
        <g
           id="g80"
           transform="translate(212.6963,304.1226)">
          <path
             d="M 0,0 7.686,2.72 8.25,1.197 5.215,0.125 6.313,-2.822 9.345,-1.753 9.911,-3.279 2.231,-5.988 1.659,-4.478 5.013,-3.293 3.92,-0.336 0.568,-1.522 Z"
             style="fill:#930f15;fill-opacity:1;fill-rule:nonzero;stroke:none"
             id="path82" />
        </g>
        <g
           id="g84"
           transform="translate(213.313,313.604)">
          <path
             d="m 0,0 0.44,-1.513 c -0.507,-0.183 -0.871,-0.441 -1.06,-0.777 -0.204,-0.32 -0.25,-0.73 -0.161,-1.208 0.096,-0.502 0.274,-0.877 0.548,-1.1 0.265,-0.212 0.551,-0.299 0.845,-0.233 0.194,0.031 0.346,0.107 0.46,0.233 0.112,0.137 0.194,0.356 0.244,0.637 0.028,0.191 0.065,0.643 0.114,1.323 0.06,0.889 0.217,1.524 0.466,1.923 0.355,0.555 0.841,0.895 1.48,1.01 0.414,0.072 0.82,0.031 1.22,-0.131 0.396,-0.17 0.727,-0.439 0.996,-0.838 C 5.855,-1.061 6.047,-1.562 6.149,-2.163 6.334,-3.148 6.249,-3.93 5.903,-4.504 5.556,-5.081 5.01,-5.437 4.278,-5.601 l -0.354,1.578 c 0.398,0.14 0.663,0.339 0.804,0.597 0.136,0.246 0.168,0.594 0.088,1.036 -0.088,0.463 -0.25,0.795 -0.492,1.026 -0.158,0.142 -0.332,0.197 -0.542,0.16 C 3.586,-1.233 3.442,-1.345 3.333,-1.517 3.199,-1.759 3.117,-2.271 3.067,-3.072 3.021,-3.871 2.937,-4.475 2.794,-4.886 2.67,-5.284 2.451,-5.62 2.142,-5.886 1.839,-6.165 1.423,-6.343 0.914,-6.428 0.454,-6.514 0,-6.461 -0.456,-6.288 c -0.447,0.18 -0.813,0.48 -1.087,0.918 -0.286,0.41 -0.494,0.96 -0.618,1.647 -0.187,0.988 -0.093,1.785 0.282,2.408 0.374,0.61 1,1.047 1.879,1.315"
             style="fill:#930f15;fill-opacity:1;fill-rule:nonzero;stroke:none"
             id="path86" />
        </g>
        <g
           id="g88"
           transform="translate(266.8271,273.8662)">
          <path
             d="M 0,0 1.644,0.139 2.03,-4.166 c 0.06,-0.691 0.117,-1.129 0.179,-1.332 0.094,-0.309 0.293,-0.566 0.572,-0.74 0.278,-0.164 0.649,-0.242 1.101,-0.203 0.455,0.039 0.797,0.162 1.014,0.377 0.22,0.199 0.341,0.439 0.361,0.71 0.031,0.282 0.008,0.735 -0.043,1.364 L 4.819,0.414 6.465,0.557 6.836,-3.625 C 6.93,-4.586 6.941,-5.258 6.887,-5.658 6.836,-6.064 6.705,-6.402 6.492,-6.695 6.273,-6.996 5.977,-7.238 5.59,-7.434 5.208,-7.627 4.7,-7.758 4.05,-7.813 3.279,-7.879 2.686,-7.832 2.264,-7.695 1.853,-7.555 1.507,-7.35 1.255,-7.086 0.997,-6.828 0.814,-6.551 0.712,-6.246 0.57,-5.807 0.449,-5.139 0.375,-4.248 Z"
             style="fill:#930f15;fill-opacity:1;fill-rule:nonzero;stroke:none"
             id="path90" />
        </g>
        <g
           id="g92"
           transform="translate(277.1514,267.0381)">
          <path
             d="M 0,0 -2.237,7.686 -0.701,8.1 4.023,3.873 2.524,8.992 3.996,9.4 6.231,1.725 4.64,1.287 0.004,5.453 1.468,0.414 Z"
             style="fill:#930f15;fill-opacity:1;fill-rule:nonzero;stroke:none"
             id="path94" />
        </g>
        <g
           id="g96"
           transform="translate(285.8691,269.79)">
          <path
             d="M 0,0 -3.104,7.383 -1.573,8 1.533,0.619 Z"
             style="fill:#930f15;fill-opacity:1;fill-rule:nonzero;stroke:none"
             id="path98" />
        </g>
        <g
           id="g100"
           transform="translate(291.5654,272.3311)">
          <path
             d="M 0,0 -6.528,5.58 -4.968,6.422 -0.213,2.25 -1.427,8.359 0.111,9.191 1.562,0.852 Z"
             style="fill:#930f15;fill-opacity:1;fill-rule:nonzero;stroke:none"
             id="path102" />
        </g>
        <g
           id="g104"
           transform="translate(297.3789,275.8057)">
          <path
             d="M 0,0 -5.087,6.252 -0.354,9.928 0.517,8.867 -2.942,6.201 -1.812,4.811 1.403,7.291 2.26,6.244 -0.939,3.744 0.429,2.07 3.996,4.826 4.86,3.785 Z"
             style="fill:#930f15;fill-opacity:1;fill-rule:nonzero;stroke:none"
             id="path106" />
        </g>
        <g
           id="g108"
           transform="translate(305.3022,282.5732)">
          <path
             d="m 0,0 -2.509,2.254 0.223,0.236 c 0.256,0.28 0.473,0.449 0.63,0.543 C -1.49,3.115 -1.3,3.16 -1.072,3.16 -0.839,3.166 -0.355,3.115 0.402,3.002 L 2.51,2.684 3.843,4.094 2.002,4.428 c -0.739,0.136 -1.274,0.201 -1.62,0.201 -0.333,0 -0.696,-0.065 -1.099,-0.18 0.412,0.578 0.592,1.137 0.533,1.66 C -0.23,6.625 -0.482,7.094 -0.935,7.5 -1.296,7.826 -1.693,8.016 -2.126,8.096 -2.569,8.172 -2.967,8.119 -3.354,7.924 -3.725,7.736 -4.201,7.328 -4.796,6.707 l -2.347,-2.5 6.02,-5.383 z m -5.001,4.484 0.86,0.918 c 0.452,0.477 0.732,0.764 0.842,0.848 0.207,0.16 0.429,0.238 0.652,0.238 0.224,-0.002 0.435,-0.105 0.632,-0.285 0.184,-0.164 0.301,-0.34 0.344,-0.531 C -1.625,5.486 -1.642,5.297 -1.722,5.121 -1.808,4.924 -2.112,4.551 -2.647,3.986 L -3.469,3.115 Z"
             style="fill:#930f15;fill-opacity:1;fill-rule:nonzero;stroke:none"
             id="path110" />
        </g>
        <g
           id="g112"
           transform="translate(307.8867,289.5459)">
          <path
             d="M 0,0 0.765,1.389 C 1.269,1.17 1.706,1.123 2.081,1.23 2.452,1.33 2.774,1.584 3.053,1.996 3.348,2.412 3.48,2.803 3.436,3.143 3.402,3.482 3.258,3.74 3.014,3.896 2.846,4.004 2.684,4.039 2.495,4.035 2.323,4.01 2.118,3.912 1.872,3.746 1.712,3.621 1.368,3.336 0.849,2.877 0.182,2.279 -0.396,1.92 -0.859,1.799 -1.509,1.648 -2.103,1.742 -2.643,2.082 c -0.342,0.232 -0.602,0.533 -0.777,0.92 -0.156,0.385 -0.211,0.807 -0.119,1.275 0.094,0.459 0.31,0.946 0.654,1.461 0.568,0.828 1.179,1.327 1.846,1.505 C -0.375,7.418 0.268,7.319 0.91,6.94 L 0.047,5.551 C -0.344,5.727 -0.676,5.764 -0.955,5.688 -1.244,5.59 -1.509,5.354 -1.759,4.99 -2.024,4.598 -2.157,4.24 -2.146,3.912 -2.126,3.711 -2.04,3.551 -1.864,3.43 c 0.158,-0.1 0.342,-0.127 0.546,-0.059 0.262,0.059 0.691,0.375 1.3,0.922 C 0.585,4.838 1.081,5.219 1.46,5.42 1.843,5.621 2.235,5.707 2.651,5.691 3.063,5.674 3.482,5.527 3.919,5.256 4.306,4.994 4.601,4.641 4.802,4.215 4.997,3.781 5.042,3.322 4.948,2.83 4.849,2.338 4.601,1.799 4.207,1.217 3.635,0.381 2.998,-0.135 2.29,-0.316 1.587,-0.52 0.826,-0.41 0,0"
             style="fill:#930f15;fill-opacity:1;fill-rule:nonzero;stroke:none"
             id="path114" />
        </g>
        <g
           id="g116"
           transform="translate(314.8262,295.6592)">
          <path
             d="m 0,0 -7.379,3.445 0.715,1.45 7.377,-3.434 z"
             style="fill:#930f15;fill-opacity:1;fill-rule:nonzero;stroke:none"
             id="path118" />
        </g>
        <g
           id="g120"
           transform="translate(317.1553,301.0464)">
          <path
             d="m 0,0 -6.405,2.19 -0.8,-2.239 -1.31,0.451 2.139,5.965 1.306,-0.444 -0.792,-2.206 6.41,-2.195 z"
             style="fill:#930f15;fill-opacity:1;fill-rule:nonzero;stroke:none"
             id="path122" />
        </g>
        <g
           id="g124"
           transform="translate(319.501,309.0845)">
          <path
             d="M 0,0 -3.383,0.619 -8.577,-1.417 -8.226,0.434 -4.688,1.707 -7.527,4.1 -7.181,5.925 -3.066,2.206 0.303,1.588 Z"
             style="fill:#930f15;fill-opacity:1;fill-rule:nonzero;stroke:none"
             id="path126" />
        </g>
        <g
           id="g128"
           transform="translate(264.9707,280.46)">
          <path
             d="M 0,0 C -15.351,0 -28.756,8.229 -35.91,20.475 H 35.928 C 28.76,8.229 15.364,0 0,0 m 0,81.734 c 22.88,0 41.436,-18.304 41.436,-40.873 0,-6.607 -1.587,-12.835 -4.404,-18.361 h -74.026 v -0.038 c -2.836,5.542 -4.438,11.781 -4.438,18.399 0,22.569 18.553,40.873 41.432,40.873 m 0,1.703 c -23.829,0 -43.164,-19.057 -43.164,-42.576 0,-23.519 19.335,-42.58 43.164,-42.58 23.84,0 43.164,19.061 43.164,42.58 C 43.164,64.38 23.84,83.437 0,83.437"
             style="fill:#930f15;fill-opacity:1;fill-rule:nonzero;stroke:none"
             id="path130" />
        </g>
        <g
           id="g132"
           transform="translate(267.0767,329.9966)">
          <path
             d="M 0,0 -0.898,6.302 -3.232,6.378 -4.125,0 -10.764,0.353 -1.971,18.434 8.253,-3.808 0.451,-3.988 3.498,-0.09 Z m -15.965,0.441 -6.182,0.27 3.489,6.908 4.038,-4.075 z M 14.615,7.808 19.997,-3.368 13.719,-3.72 10.405,3.544 Z M 33.991,-17.55 c -5.83,-4.513 -10.488,0.714 -10.488,0.714 C 15.785,-24.02 9.6,-17.193 9.6,-17.193 4.755,-20.654 2.604,-19.941 2.604,-19.941 l -1.618,11.703 9.511,0.088 1.706,-3.818 h 5.469 l -1.71,3.73 h 6.455 l 1.625,-3.811 5.557,0.259 -1.522,3.462 h 4.751 L 32.917,-3.015 25.299,-3.188 15.785,15.695 8.343,7.892 -1.971,28.719 -12.465,7.892 l -7.351,7.803 -7.534,-15.076 -9.604,0.272 -0.082,-5.499 6.995,0.27 -3.052,-6.563 h 5.289 l 3.138,6.563 6.458,0.168 -2.956,-6.731 h 5.379 l 3.055,6.731 8.156,-0.088 -2.781,-3.808 2.251,-0.084 -1.445,-11.696 c -2.685,-0.633 -6.813,2.744 -6.813,2.744 -7.714,-6.918 -14.346,0.266 -14.346,0.266 -4.841,-5.321 -10.495,-0.794 -10.495,-0.794 l -1.349,-3.2 c 6.283,-3.989 11.926,-0.261 11.926,-0.261 7.983,-5.053 14.264,-0.347 14.264,-0.347 7.89,-4.97 11.211,-0.188 11.211,-0.188 5.202,-4.607 11.574,0.273 11.574,0.273 6.362,-4.974 13.894,0.17 13.894,0.17 6.372,-3.804 12.117,0.267 12.117,0.267 z"
             style="fill:#930f15;fill-opacity:1;fill-rule:nonzero;stroke:none"
             id="path134" />
        </g>
        <g
           id="g136"
           transform="translate(216.8159,341.311)">
          <path
             d="m 0,0 c 0,0 0.28,-0.247 0.488,0.035 0,0 0.146,1.084 -0.345,1.627 0,0 -1.373,1.904 -1.648,2.909 0,0 -0.349,0.458 -2.137,0.458 0,0 -0.249,-0.418 -0.077,-0.563 0.183,-0.13 0.804,0.076 1.474,-1.14 L -0.532,1.071 C -0.532,1.071 0.032,0.449 0,0"
             style="fill:#930f15;fill-opacity:1;fill-rule:nonzero;stroke:none"
             id="path138" />
        </g>
        <g
           id="g140"
           transform="translate(222.4282,344.4321)">
          <path
             d="m 0,0 -1.971,0.173 c 0,0 -0.697,-0.24 -0.132,-0.622 0,0 1.044,-2.052 0.663,-3.225 0,0 0.349,-0.592 0.561,0.244 0,0 0.558,2.216 1.052,2.562 0,0 0.381,0.684 -0.173,0.868"
             style="fill:#930f15;fill-opacity:1;fill-rule:nonzero;stroke:none"
             id="path142" />
        </g>
        <g
           id="g144"
           transform="translate(218.8188,341.6255)">
          <path
             d="m 0,0 c 0,0 -0.182,0.586 -0.503,0.07 0,0 0.184,-1.981 -0.306,-2.64 0,0 -0.036,-1.907 -0.25,-2.423 0,0 -0.312,-1.215 -0.244,-1.491 h -0.212 c 0,0 -1.051,2.808 -2.414,2.259 0,0 -0.098,-0.28 0.209,-0.524 0,0 1.48,-2.735 1.263,-3.5 0,0 0.977,-0.244 1.858,-0.206 0,0 1.017,2.457 1.153,3.36 0,0 0.1,1.667 -0.036,2.219 0,0 -0.209,2.037 -0.518,2.876"
             style="fill:#930f15;fill-opacity:1;fill-rule:nonzero;stroke:none"
             id="path146" />
        </g>
        <g
           id="g148"
           transform="translate(319.4131,339.7808)">
          <path
             d="m 0,0 c 0,0 0.193,0.064 0.369,-0.136 l 0.49,-0.457 c 0,0 -1.36,0.092 -0.859,0.593 m -11.37,-2.376 c -1.835,-0.026 -1.173,2.698 -1.173,2.698 0,1.381 1.364,-0.458 1.364,-0.458 l 1.033,-1.379 C -9.348,-2.74 -11.37,-2.376 -11.37,-2.376 M 1.999,-0.593 1.633,-0.427 0.629,0.422 c 0,0 -0.768,-0.164 -0.629,0.954 0,0 -0.068,0.357 -0.696,0.291 l -1.898,1.418 c 0,0 -0.597,0.457 0.457,0.817 0,0 0.806,0.328 -0.396,0.392 0,0 -1.321,-0.16 -1.489,-0.485 0,0 -0.137,-1.083 0.792,-1.022 0,0 1.764,-1.216 2.065,-1.411 0,0 -0.334,-0.954 -0.102,-1.28 0,0 -0.099,-0.392 -0.995,0.226 0,0 -4.287,1.843 -4.455,2.532 0,0 -0.904,0.166 -1.327,-0.193 0,0 -0.072,-0.862 0.158,-1.024 l 1.3,-0.853 c 0,0 -0.529,-0.268 -1.661,0.1 0,0 -1.101,-0.172 -0.367,-1.086 0,0 0.57,-1.121 -0.236,-1.585 0,0 0.033,2.147 -3.231,4.838 0,0 -1.026,-0.031 -1.523,-4.634 0,0 -0.209,-1.845 1.896,-1.709 l 1.63,0.269 c 0,0 0.166,0.255 0.373,-0.169 l -0.076,-1.119 c 0,0 -0.532,-0.394 0.095,-0.584 0,0 0.605,-1.025 1.006,0.39 l -0.074,2.003 c 0,0 1.266,-0.202 1.071,2.075 l 2.793,-0.166 c 0,0 0.801,0.617 -0.564,1.603 0,0 1.525,-0.752 1.962,-1.276 0,0 0.068,-0.265 0.832,-0.235 0,0 0.164,-0.388 1.522,-0.648 0,0 0.104,-0.692 3.137,-0.856 0,0 0.393,0.944 0,1.412"
             style="fill:#930f15;fill-opacity:1;fill-rule:nonzero;stroke:none"
             id="path150" />
        </g>
        <g
           id="g152"
           transform="translate(242.8926,364.8535)">
          <path
             d="M 0,0 -0.498,-0.793 -0.933,1.573 C -1.066,2.331 -0.498,2.986 -0.498,2.986 -0.204,2.361 -0.066,1.072 -0.066,1.072 0.026,0.428 0,0 0,0 m 1.767,-0.567 c 0,0 -0.575,0.567 0.03,2.772 L 1.362,2.759 1.328,3.185 0.862,3.286 c 0,0 -0.33,0.626 -1.002,0.296 0,0 -0.432,-0.103 0.14,0.688 L 1.129,6.041 0.994,8.276 c 0,0 0.074,0.431 -0.694,0.331 0,0 0.168,-0.431 -0.164,-0.851 -0.34,-0.424 -0.708,-1.287 -0.84,-1.773 0,0 -0.229,2.065 -0.362,2.485 L -1.56,9.165 c 0,0 -0.696,0.39 -0.173,-0.796 V 3.868 L -2.581,2.691 c 0,0 -1.225,-0.315 -0.305,-0.904 l 1.326,-0.282 0.105,-2.904 -0.014,-0.816 1.073,-0.162 0.916,1.366 c 0,0 0.16,0.086 0.249,-0.208 l 0.164,-1.24 c 0,0 -0.401,-1.289 -0.729,-1.423 0,0 -0.138,-0.07 -0.505,-0.429 0,0 -1.002,-1.314 0.535,-1.314 0,0 0.592,-0.233 0.664,0.656 l 0.096,1.156 2.298,-0.433 c 0,0 0.132,0.626 -0.372,1.386 z"
             style="fill:#930f15;fill-opacity:1;fill-rule:nonzero;stroke:none"
             id="path154" />
        </g>
        <g
           id="g156"
           transform="translate(246.8877,364.3672)">
          <path
             d="m 0,0 -1.31,-0.243 c 0,0 -0.845,-0.458 0.062,-0.538 0,0 0.88,-0.286 1.326,-0.671 0,0 0.607,-0.8 0.88,0.189 v 0.68 C 0.958,-0.583 0.91,0.053 0,0"
             style="fill:#930f15;fill-opacity:1;fill-rule:nonzero;stroke:none"
             id="path158" />
        </g>
        <g
           id="g160"
           transform="translate(252.3525,294.2334)">
          <path
             d="m 0,0 -0.946,-0.754 -0.656,0.918 2.06,1.607 0.719,-0.38 v -8.075 l -1.177,0 z"
             style="fill:#930f15;fill-opacity:1;fill-rule:nonzero;stroke:none"
             id="path162" />
        </g>
        <g
           id="g164"
           transform="translate(276.9033,294.2334)">
          <path
             d="M 0,0 -0.955,-0.754 -1.608,0.164 0.459,1.771 1.177,1.391 V -6.684 L 0,-6.684 Z"
             style="fill:#930f15;fill-opacity:1;fill-rule:nonzero;stroke:none"
             id="path166" />
        </g>
        <g
           id="g168"
           transform="translate(261.8687,290.4814)">
          <path
             d="m 0,0 c 0,-0.201 -0.021,-0.402 -0.061,-0.6 -0.048,-0.213 -0.103,-0.392 -0.177,-0.548 -0.082,-0.155 -0.203,-0.286 -0.357,-0.397 -0.155,-0.113 -0.344,-0.191 -0.563,-0.228 -0.226,-0.038 -0.404,-0.041 -0.55,-0.038 -0.271,0.012 -0.503,0.067 -0.675,0.19 -0.186,0.123 -0.293,0.248 -0.338,0.392 -0.047,0.122 -0.074,0.264 -0.094,0.405 l -1.184,-0.022 0.12,-0.488 c 0.022,-0.184 0.114,-0.41 0.256,-0.645 0.142,-0.238 0.306,-0.429 0.503,-0.566 0.192,-0.144 0.436,-0.242 0.719,-0.32 0.289,-0.082 0.607,-0.114 0.959,-0.106 0.294,0 0.575,0.045 0.86,0.125 0.283,0.08 0.51,0.18 0.693,0.317 0.17,0.133 0.328,0.293 0.459,0.461 0.135,0.189 0.244,0.406 0.32,0.644 0.09,0.229 0.147,0.475 0.17,0.731 0.022,0.252 0.031,0.591 0.031,1.015 V 2.686 C 1.091,3.104 1.054,3.484 0.964,3.799 0.882,4.088 0.75,4.379 0.558,4.627 0.375,4.877 0.104,5.096 -0.256,5.287 -0.603,5.471 -1.027,5.576 -1.503,5.561 -1.784,5.537 -2.073,5.486 -2.372,5.383 -2.692,5.287 -2.946,5.143 -3.166,4.971 -3.377,4.785 -3.543,4.57 -3.655,4.326 -3.765,4.08 -3.849,3.834 -3.879,3.6 -3.926,3.361 -3.951,3.104 -3.951,2.842 c 0,-0.539 0.046,-0.942 0.152,-1.217 0.104,-0.273 0.244,-0.496 0.412,-0.676 0.164,-0.187 0.431,-0.344 0.777,-0.494 0.361,-0.152 0.791,-0.221 1.286,-0.189 0.198,0 0.381,0.023 0.563,0.056 0.179,0.033 0.328,0.082 0.441,0.133 C -0.209,0.5 -0.105,0.551 0,0.605 Z M -0.041,3.047 C -0.021,2.721 -0.035,2.436 -0.105,2.195 -0.154,1.961 -0.256,1.758 -0.394,1.609 -0.529,1.441 -0.832,1.355 -1.292,1.352 -1.458,1.344 -1.653,1.355 -1.86,1.393 -2.067,1.43 -2.249,1.512 -2.395,1.639 c -0.143,0.127 -0.242,0.291 -0.311,0.5 -0.062,0.164 -0.086,0.406 -0.08,0.736 0,0.322 0.032,0.584 0.102,0.77 0.07,0.185 0.166,0.33 0.283,0.443 0.117,0.105 0.258,0.195 0.427,0.254 0.166,0.056 0.375,0.082 0.631,0.082 0.302,-0.012 0.545,-0.07 0.748,-0.188 0.189,-0.109 0.339,-0.279 0.439,-0.484 0.047,-0.137 0.084,-0.371 0.115,-0.705"
             style="fill:#930f15;fill-opacity:1;fill-rule:nonzero;stroke:none"
             id="path170" />
        </g>
        <g
           id="g172"
           transform="translate(272.2383,292.6045)">
          <path
             d="m 0,0 c -0.023,0.365 -0.076,0.734 -0.154,1.1 -0.071,0.343 -0.201,0.679 -0.373,0.986 -0.18,0.316 -0.401,0.576 -0.644,0.783 -0.26,0.217 -0.528,0.373 -0.814,0.469 -0.286,0.115 -0.565,0.15 -0.826,0.166 -0.363,0 -0.715,-0.072 -1.044,-0.244 C -4.189,3.102 -4.449,2.895 -4.658,2.666 -4.853,2.436 -5.027,2.164 -5.167,1.852 -5.31,1.533 -5.411,1.199 -5.485,0.824 -5.56,0.457 -5.599,0.131 -5.606,-0.162 c -0.01,-0.223 -0.016,-0.576 -0.01,-1.057 0.004,-0.478 0.033,-0.888 0.101,-1.232 0.071,-0.332 0.166,-0.66 0.299,-0.979 0.134,-0.328 0.31,-0.617 0.535,-0.881 0.232,-0.25 0.505,-0.447 0.839,-0.578 0.338,-0.123 0.679,-0.189 1.031,-0.189 0.367,0 0.693,0.039 0.994,0.148 0.298,0.112 0.538,0.239 0.735,0.399 0.195,0.156 0.359,0.377 0.521,0.66 0.157,0.281 0.278,0.566 0.356,0.867 0.08,0.299 0.142,0.635 0.176,1.002 C 0,-1.635 0.031,-1.357 0.035,-1.17 0.045,-0.764 0.035,-0.365 0,0 M -1.121,-1.275 C -1.138,-1.541 -1.164,-1.857 -1.22,-2.225 -1.279,-2.592 -1.382,-2.9 -1.529,-3.162 -1.687,-3.426 -1.866,-3.637 -2.097,-3.75 c -0.234,-0.121 -0.47,-0.184 -0.73,-0.172 -0.306,0 -0.552,0.074 -0.763,0.223 -0.205,0.136 -0.377,0.328 -0.512,0.58 -0.138,0.25 -0.238,0.555 -0.302,0.914 -0.065,0.363 -0.094,0.795 -0.108,1.316 0,0.309 0,0.559 0.02,0.758 0.017,0.217 0.054,0.479 0.127,0.799 0.062,0.312 0.156,0.598 0.293,0.865 0.127,0.246 0.293,0.447 0.511,0.592 0.217,0.145 0.469,0.215 0.76,0.215 0.286,-0.004 0.525,-0.084 0.724,-0.227 0.195,-0.133 0.367,-0.32 0.501,-0.547 0.149,-0.218 0.252,-0.5 0.328,-0.828 0.077,-0.332 0.123,-0.752 0.139,-1.291 0,-0.218 -0.008,-0.465 -0.012,-0.722"
             style="fill:#930f15;fill-opacity:1;fill-rule:nonzero;stroke:none"
             id="path174" />
        </g>
        <g
           id="g176"
           transform="translate(289.6523,368.7905)">
          <path
             d="m 0,0 1.234,-0.082 1.54,0.952 c 0,0 0.332,0.122 -0.029,0.612 0,0 -0.246,-0.278 -0.676,-0.211 C 1.636,1.339 0.888,1.263 0.479,1.169 L 0.469,1.154 -0.515,1.263 c 0.324,0.24 -0.279,1.68 -0.279,1.68 C -1.109,3.523 -1.44,3.291 -1.44,3.291 -1.829,3.012 -1.97,1.953 -1.97,1.953 L -2.321,1.417 -3.787,1.366 -5.378,1.595 c 0,0 -0.992,1.056 -1.093,-0.179 L -6.167,0.42 c 0.012,-0.18 0.061,-0.324 0.133,-0.444 l 0.012,-0.044 0.014,0.012 c 0.296,-0.418 0.905,-0.444 1.124,-0.438 -0.451,-0.076 -2.132,-0.977 -2.132,-0.977 -2.457,-1.681 -5.794,-1.763 -5.794,-1.763 -1.057,-0.29 0.151,-0.588 0.151,-0.588 1.072,-0.242 5.089,0.719 5.089,0.719 5.758,1.57 6.586,3.171 6.586,3.171 C -0.681,0.016 -0.334,0 0,0"
             style="fill:#930f15;fill-opacity:1;fill-rule:nonzero;stroke:none"
             id="path178" />
        </g>
        <g
           id="g180"
           transform="translate(287.0933,364.0708)">
          <path
             d="m 0,0 c 0,0 -0.496,1.009 -0.832,-0.122 0,0 -0.802,-2.459 -1.764,-2.583 0,0 -0.828,-0.383 -0.092,-0.563 0,0 1.817,0.805 2.85,0.831 0,0 1.013,0.85 -0.162,2.437"
             style="fill:#930f15;fill-opacity:1;fill-rule:nonzero;stroke:none"
             id="path182" />
        </g>
      </g>
    </g>
  </g>
</svg>
