<?xml version="1.0" encoding="UTF-8" standalone="no"?>
<!-- Created with Inkscape (http://www.inkscape.org/) -->

<svg
   version="1.1"
   id="svg2"
   width="1122.52"
   height="793.70667"
   viewBox="0 0 1122.52 793.70667"
   sodipodi:docname="山东大学校徽与英文校名标准组合（居中）.svg"
   inkscape:version="1.2.2 (b0a8486541, 2022-12-01)"
   xmlns:inkscape="http://www.inkscape.org/namespaces/inkscape"
   xmlns:sodipodi="http://sodipodi.sourceforge.net/DTD/sodipodi-0.dtd"
   xmlns="http://www.w3.org/2000/svg"
   xmlns:svg="http://www.w3.org/2000/svg">
  <defs
     id="defs6">
    <clipPath
       clipPathUnits="userSpaceOnUse"
       id="clipPath18">
      <path
         d="M 0,595.28 H 841.89 V 0 H 0 Z"
         id="path16" />
    </clipPath>
  </defs>
  <sodipodi:namedview
     id="namedview4"
     pagecolor="#ffffff"
     bordercolor="#000000"
     borderopacity="0.25"
     inkscape:showpageshadow="2"
     inkscape:pageopacity="0.0"
     inkscape:pagecheckerboard="0"
     inkscape:deskcolor="#d1d1d1"
     showgrid="false"
     inkscape:zoom="0.29733907"
     inkscape:cx="561.64836"
     inkscape:cy="129.48181"
     inkscape:window-width="2560"
     inkscape:window-height="1284"
     inkscape:window-x="0"
     inkscape:window-y="0"
     inkscape:window-maximized="1"
     inkscape:current-layer="g10">
    <inkscape:page
       x="0"
       y="0"
       id="page8"
       width="1122.52"
       height="793.70667" />
  </sodipodi:namedview>
  <g
     id="g10"
     inkscape:groupmode="layer"
     inkscape:label="Page 1"
     transform="matrix(1.3333333,0,0,-1.3333333,0,793.70667)">
    <g
       id="g12">
      <g
         id="g14"
         clip-path="url(#clipPath18)">
        <g
           id="g20"
           transform="translate(309.5669,292.5225)">
          <path
             d="m 0,0 h -1.068 c -0.719,2.941 -3.467,6.121 -7.938,6.121 -2.148,0 -4.324,-1.101 -4.324,-3.31 0,-5.323 14.275,-6.038 14.275,-13.346 0,-3.026 -2.908,-6.447 -9.028,-6.447 -3.234,0 -5.324,1.22 -6.611,1.22 -0.902,0 -1.316,-0.603 -1.316,-1.181 h -0.947 l -1.283,7.548 h 0.98 c 0.813,-1.689 2.999,-6.314 8.76,-6.314 3.413,0 5.136,2.047 5.136,3.973 0,2.021 -0.684,3.234 -6.972,6.285 -3.925,1.892 -6.657,3.451 -6.657,6.996 0,4.049 3.883,6.047 7.729,6.047 2.56,0 4.865,-1.21 5.933,-1.21 1.2,0 1.407,0.802 1.493,1.21 h 0.901 z"
             style="fill:#930f15;fill-opacity:1;fill-rule:nonzero;stroke:none"
             id="path22" />
        </g>
        <g
           id="g24"
           transform="translate(314.1025,276.71)">
          <path
             d="m 0,0 c 3.584,0.15 3.762,0.943 3.762,3.602 v 15.423 c 0,2.633 -0.61,2.984 -3.762,3.207 v 0.669 H 11.873 V 22.232 C 8.614,22.009 8.106,21.54 8.106,19.025 v -6.918 h 12.948 v 6.918 c 0,2.633 -0.594,2.984 -3.758,3.207 v 0.669 H 29.17 V 22.232 C 25.924,22.009 25.416,21.54 25.416,19.025 V 3.211 C 25.416,0.859 25.833,0.182 29.17,0 V -0.668 H 17.296 V 0 c 3.588,0.15 3.758,0.943 3.758,3.602 v 6.951 H 8.106 V 3.211 C 8.106,0.859 8.533,0.182 11.873,0 V -0.668 H 0 Z"
             style="fill:#930f15;fill-opacity:1;fill-rule:nonzero;stroke:none"
             id="path26" />
        </g>
        <g
           id="g28"
           transform="translate(374.2939,276.71)">
          <path
             d="m 0,0 c -1.884,0.105 -2.475,0.516 -3.848,3.113 l -10.641,20.21 h -0.856 L -24.216,5.848 C -25.039,4.279 -26.364,1.691 -27.353,0.795 -28.109,0.105 -28.838,0.049 -29.522,0 v -0.668 h 8.462 V 0 c -0.894,0 -2.92,0 -2.92,1.506 0,0.387 0.132,0.896 0.355,1.357 l 1.961,4.16 H -10.47 L -8.721,3.602 C -8.475,3.113 -7.911,1.938 -7.911,1.361 -7.911,0.049 -9.322,0 -10.892,0 V -0.668 H 0 Z m -20.937,8.488 4.916,9.778 4.957,-9.778 z"
             style="fill:#930f15;fill-opacity:1;fill-rule:nonzero;stroke:none"
             id="path30" />
        </g>
        <g
           id="g32"
           transform="translate(405.1729,298.9419)">
          <path
             d="M 0,0 C -2.684,-0.255 -4.057,-0.4 -4.057,-4.562 V -23.281 H -4.782 L -23.585,-3.8 h -0.081 v -13.858 c 0,-3.681 0.898,-4.47 4.019,-4.574 v -0.666 h -10.039 v 0.666 c 3.246,0.182 4.136,0.738 4.136,4.574 V -1.969 C -27.295,-0.184 -27.974,0 -29.686,0 v 0.67 h 7.308 L -6.02,-16.457 h 0.082 v 11.895 c 0,4.108 -1.199,4.378 -4.099,4.562 V 0.67 L 0,0.67 Z"
             style="fill:#930f15;fill-opacity:1;fill-rule:nonzero;stroke:none"
             id="path34" />
        </g>
        <g
           id="g36"
           transform="translate(406.498,276.0439)">
          <path
             d="m 0,0 h 12.14 c 13.064,0 16.437,6.977 16.437,11.717 0,7.972 -6.778,11.85 -17.035,11.85 H 0 v -0.671 c 3.296,-0.223 3.755,-0.57 3.755,-3.207 V 3.877 C 3.755,1.404 3.24,0.816 0,0.666 Z m 8.124,20.854 c 0,0.716 0,1.393 2.003,1.393 5.384,0 7.777,-0.956 9.83,-2.505 2.942,-2.187 3.964,-5.08 3.964,-8.066 C 23.921,1.324 13.409,1.324 10.678,1.324 8.63,1.324 8.124,1.559 8.124,2.771 Z"
             style="fill:#930f15;fill-opacity:1;fill-rule:nonzero;stroke:none"
             id="path38" />
        </g>
        <g
           id="g40"
           transform="translate(452.0664,275.54)">
          <path
             d="m 0,0 c 7.752,0 13.984,4.67 13.984,12.26 0,8.195 -6.972,12.315 -13.984,12.315 -6.985,0 -13.949,-4.12 -13.949,-12.315 C -13.949,4.67 -7.722,0 0,0 m 0,1.273 c -4.732,0 -9.082,3.184 -9.082,11.02 0,8.094 4.74,10.996 9.082,10.996 4.367,0 9.11,-2.902 9.11,-10.996 C 9.11,4.457 4.755,1.273 0,1.273"
             style="fill:#930f15;fill-opacity:1;fill-rule:nonzero;stroke:none"
             id="path42" />
        </g>
        <g
           id="g44"
           transform="translate(497.7119,298.9419)">
          <path
             d="M 0,0 C -2.694,-0.255 -4.063,-0.4 -4.063,-4.562 V -23.281 H -4.791 L -23.597,-3.8 h -0.08 v -13.858 c 0,-3.681 0.899,-4.47 4.024,-4.574 v -0.666 h -10.045 v 0.666 c 3.245,0.182 4.137,0.738 4.137,4.574 V -1.969 C -27.301,-0.184 -27.988,0 -29.698,0 v 0.67 h 7.313 l 16.368,-17.127 h 0.068 v 11.895 c 0,4.108 -1.197,4.378 -4.096,4.562 V 0.67 L 0,0.67 Z"
             style="fill:#930f15;fill-opacity:1;fill-rule:nonzero;stroke:none"
             id="path46" />
        </g>
        <g
           id="g48"
           transform="translate(528.6367,288.0029)">
          <path
             d="m 0,0 c -1.869,-0.148 -2.993,-0.203 -2.993,-2.748 v -7.145 c 0,-0.507 -5.69,-2.568 -10.381,-2.568 -4.224,0 -8.971,1.068 -12.013,3.818 -2.257,2.049 -3.541,4.157 -3.541,8.836 0,5.963 5.559,11.919 14.62,11.919 4.319,0 6.264,-1.171 7.645,-1.171 0.336,0 1.743,0.179 2.002,1.171 h 0.943 L -3.37,4.6 h -0.983 c -1.161,2.539 -3.387,6.084 -9.362,6.084 -4.063,0 -10.335,-2.249 -10.335,-11.248 0,-6.45 4.432,-10.479 11.06,-10.479 2.908,0 5.844,0.826 5.844,2.109 v 5.766 c 0,2.965 -0.846,2.998 -3.756,3.168 V 0.631 L 0,0.631 Z"
             style="fill:#930f15;fill-opacity:1;fill-rule:nonzero;stroke:none"
             id="path50" />
        </g>
        <g
           id="g52"
           transform="translate(312.0576,263.2803)">
          <path
             d="m 0,0 c -3.284,-0.301 -4.018,-0.826 -4.018,-4.561 v -9.285 c 0,-2.843 0,-9.552 -11.06,-9.552 -10.594,0 -10.594,6.943 -10.594,9.072 v 11.119 c 0,2.637 -0.609,3.023 -3.842,3.207 v 0.67 h 12.087 V 0 c -3.369,-0.223 -3.894,-0.691 -3.894,-3.207 V -14.6 c 0,-2.271 0,-7.238 7.436,-7.238 3.338,0 5.783,1.15 7.009,2.817 0.572,0.779 0.984,1.976 0.984,4.855 v 9.605 c 0,3.811 -1.028,4.415 -4.017,4.561 V 0.67 H 0 Z"
             style="fill:#930f15;fill-opacity:1;fill-rule:nonzero;stroke:none"
             id="path54" />
        </g>
        <g
           id="g56"
           transform="translate(342.9873,263.2803)">
          <path
             d="m 0,0 c -2.692,-0.256 -4.062,-0.4 -4.062,-4.561 v -18.72 h -0.712 l -18.801,19.48 h -0.092 v -13.857 c 0,-3.682 0.902,-4.471 4.015,-4.572 v -0.666 h -10.034 v 0.666 c 3.242,0.179 4.139,0.736 4.139,4.572 V -1.969 C -27.294,-0.184 -27.986,0 -29.686,0 v 0.67 h 7.309 L -6.02,-16.455 h 0.082 v 11.894 c 0,4.106 -1.193,4.377 -4.108,4.561 V 0.67 L 0,0.67 Z"
             style="fill:#930f15;fill-opacity:1;fill-rule:nonzero;stroke:none"
             id="path58" />
        </g>
        <g
           id="g60"
           transform="translate(344.3921,241.0498)">
          <path
             d="m 0,0 c 3.64,0.098 4.146,0.693 4.146,3.209 v 15.814 c 0,2.635 -0.598,3.063 -4.146,3.209 v 0.666 H 12.693 V 22.232 C 9.573,22.117 8.51,21.875 8.51,19.023 V 3.209 C 8.51,0.434 9.542,0.098 12.693,0 V -0.668 H 0 Z"
             style="fill:#930f15;fill-opacity:1;fill-rule:nonzero;stroke:none"
             id="path62" />
        </g>
        <g
           id="g64"
           transform="translate(387.6348,263.2803)">
          <path
             d="m 0,0 c -2.054,-0.113 -2.662,-0.629 -3.933,-3.309 l -9.491,-19.972 h -0.641 L -24.561,-3.752 C -26.315,-0.508 -27.086,-0.068 -29.1,0 v 0.67 h 11.37 V 0 c -2.408,-0.113 -3.196,-0.184 -3.196,-1.328 0,-0.533 0.767,-1.981 1.744,-3.797 l 6.451,-12.064 6.28,13.076 c 0.074,0.236 0.806,1.73 0.806,2.47 0,1.459 -1.496,1.575 -3.113,1.643 V 0.67 L 0,0.67 Z"
             style="fill:#930f15;fill-opacity:1;fill-rule:nonzero;stroke:none"
             id="path66" />
        </g>
        <g
           id="g68"
           transform="translate(412.2783,240.3818)">
          <path
             d="m 0,0 h -23.075 v 0.668 c 2.752,0.148 3.72,0.471 3.72,3.211 v 15.81 c 0,2.807 -1.019,3.024 -3.72,3.209 v 0.668 h 22.697 l 0.141,-5.087 h -1.084 c -0.641,3.164 -1.749,3.728 -6.501,3.728 h -5.761 c -0.899,0 -1.416,0 -1.416,-1.217 v -7.879 h 6.584 c 3.797,0 4.221,0.856 4.703,3.369 h 0.981 V 8.229 h -0.981 c -0.507,2.837 -1.149,3.347 -4.703,3.38 l -6.584,0.067 V 2.848 c 0,-1.444 0,-1.487 6.375,-1.487 5.341,0 7.477,1.071 9.35,4.664 H 1.93 Z"
             style="fill:#930f15;fill-opacity:1;fill-rule:nonzero;stroke:none"
             id="path70" />
        </g>
        <g
           id="g72"
           transform="translate(442.957,241.0498)">
          <path
             d="m 0,0 c -1.752,0.098 -2.772,0.736 -3.729,1.689 l -8.786,8.989 c 2.17,0.373 7.721,1.224 7.721,5.996 0,5.488 -7.052,6.224 -10.852,6.224 h -11.778 v -0.666 c 2.996,-0.257 3.633,-0.574 3.633,-3.209 V 3.6 c 0,-2.659 -0.179,-3.42 -3.633,-3.6 v -0.668 h 11.82 V 0 c -3.412,0.148 -3.83,0.836 -3.83,3.209 v 7.037 l 2.387,0.049 10.166,-10.963 H 0 Z m -19.434,20.318 c 0,1.012 0.383,1.262 2.637,1.262 1.766,0 7.357,-0.098 7.357,-4.832 0,-5.09 -6.41,-5.172 -9.994,-5.189 z"
             style="fill:#930f15;fill-opacity:1;fill-rule:nonzero;stroke:none"
             id="path74" />
        </g>
        <g
           id="g76"
           transform="translate(463.3408,256.8604)">
          <path
             d="m 0,0 h -1.082 c -0.714,2.943 -3.467,6.121 -7.942,6.121 -2.139,0 -4.314,-1.1 -4.314,-3.31 0,-5.323 14.265,-6.038 14.265,-13.344 0,-3.024 -2.89,-6.449 -9.02,-6.449 -3.248,0 -5.331,1.222 -6.617,1.222 -0.887,0 -1.322,-0.603 -1.322,-1.181 h -0.937 l -1.279,7.546 h 0.978 c 0.821,-1.689 2.989,-6.312 8.758,-6.312 3.41,0 5.136,2.045 5.136,3.971 0,2.023 -0.692,3.234 -6.976,6.285 -3.929,1.892 -6.669,3.453 -6.669,6.998 0,4.049 3.893,6.047 7.742,6.047 2.564,0 4.865,-1.211 5.93,-1.211 1.199,0 1.413,0.803 1.514,1.211 h 0.889 z"
             style="fill:#930f15;fill-opacity:1;fill-rule:nonzero;stroke:none"
             id="path78" />
        </g>
        <g
           id="g80"
           transform="translate(467.8125,241.0498)">
          <path
             d="m 0,0 c 3.646,0.098 4.156,0.693 4.156,3.209 v 15.814 c 0,2.635 -0.619,3.063 -4.156,3.209 v 0.666 H 12.693 V 22.232 C 9.572,22.117 8.507,21.875 8.507,19.023 V 3.209 C 8.507,0.434 9.523,0.098 12.693,0 V -0.668 H 0 Z"
             style="fill:#930f15;fill-opacity:1;fill-rule:nonzero;stroke:none"
             id="path82" />
        </g>
        <g
           id="g84"
           transform="translate(500.5811,240.3818)">
          <path
             d="m 0,0 h -12.469 v 0.668 c 3.888,0.148 4.019,0.978 4.019,3.598 v 17.806 h -2.315 c -4.688,0 -5.849,-0.672 -6.797,-4.551 h -1.014 l 0.248,6.045 H 5.78 L 6.023,17.521 H 5.009 c -0.905,3.915 -2.1,4.551 -6.795,4.551 H -4.099 V 3.879 C -4.099,1.461 -3.594,0.77 0,0.668 Z"
             style="fill:#930f15;fill-opacity:1;fill-rule:nonzero;stroke:none"
             id="path86" />
        </g>
        <g
           id="g88"
           transform="translate(537.418,263.2803)">
          <path
             d="m 0,0 c -1.545,-0.146 -2.959,-0.301 -5.898,-4.068 l -6.328,-8.043 v -6.91 c 0,-2.553 0.556,-3.159 4.398,-3.209 v -0.666 h -13.078 v 0.666 c 4.197,0.095 4.33,0.89 4.33,3.597 v 6.207 l -5.605,6.826 c -4.356,5.344 -5,5.454 -6.925,5.6 v 0.67 h 11.975 V 0 c -1.978,-0.068 -3.039,-0.113 -3.039,-1.09 0,-0.406 0.334,-1.092 0.725,-1.541 l 6.313,-7.914 6.128,8.041 c 0.276,0.397 0.589,0.83 0.589,1.328 C -6.415,-0.068 -8.042,0 -9.371,0 V 0.67 L 0,0.67 Z"
             style="fill:#930f15;fill-opacity:1;fill-rule:nonzero;stroke:none"
             id="path90" />
        </g>
        <g
           id="g92"
           transform="translate(409.9824,317.1431)">
          <path
             d="m 0,0 c -36.573,0 -66.218,29.649 -66.218,66.219 0,36.577 29.645,66.229 66.218,66.229 36.58,0 66.216,-29.652 66.216,-66.229 C 66.216,29.649 36.58,0 0,0 m 0,134.852 c -37.91,0 -68.632,-30.723 -68.632,-68.633 0,-37.912 30.722,-68.622 68.632,-68.622 37.902,0 68.628,30.71 68.628,68.622 0,37.91 -30.726,68.633 -68.628,68.633"
             style="fill:#930f15;fill-opacity:1;fill-rule:evenodd;stroke:none"
             id="path94" />
        </g>
        <g
           id="g96"
           transform="translate(401.6943,326.8384)">
          <path
             d="M 0,0 0.219,1.471 4.088,0.898 3.553,-2.569 C 3.128,-2.866 2.53,-3.102 1.777,-3.265 1.024,-3.426 0.29,-3.456 -0.444,-3.345 c -0.934,0.131 -1.708,0.445 -2.335,0.924 -0.642,0.484 -1.074,1.106 -1.31,1.87 -0.234,0.76 -0.284,1.55 -0.162,2.393 0.147,0.903 0.464,1.676 0.962,2.321 0.491,0.65 1.143,1.097 1.943,1.37 C -0.728,5.731 0,5.77 0.847,5.646 1.949,5.483 2.776,5.132 3.316,4.588 3.872,4.043 4.173,3.368 4.23,2.534 L 2.39,2.484 C 2.333,2.927 2.146,3.295 1.843,3.589 1.537,3.888 1.134,4.082 0.616,4.158 -0.161,4.264 -0.826,4.112 -1.364,3.698 -1.895,3.28 -2.239,2.584 -2.393,1.634 c -0.146,-1.03 -0.045,-1.84 0.348,-2.426 0.387,-0.586 0.963,-0.938 1.722,-1.048 0.365,-0.053 0.75,-0.03 1.151,0.047 0.402,0.105 0.745,0.222 1.056,0.382 l 0.167,1.11 z"
             style="fill:#930f15;fill-opacity:1;fill-rule:nonzero;stroke:none"
             id="path98" />
        </g>
        <g
           id="g100"
           transform="translate(387.002,327.3452)">
          <path
             d="M 0,0 2.977,8.27 4.641,7.707 6.118,0.994 8.11,6.514 9.7,5.976 6.728,-2.3 5.002,-1.711 3.537,4.889 1.584,-0.544 Z"
             style="fill:#930f15;fill-opacity:1;fill-rule:nonzero;stroke:none"
             id="path102" />
        </g>
        <g
           id="g104"
           transform="translate(361.6484,346.5063)">
          <path
             d="M 0,0 6.832,5.699 7.973,4.397 5.807,-2.139 10.366,1.675 11.46,0.421 4.634,-5.278 3.457,-3.932 5.575,2.48 1.101,-1.244 Z"
             style="fill:#930f15;fill-opacity:1;fill-rule:nonzero;stroke:none"
             id="path106" />
        </g>
        <g
           id="g108"
           transform="translate(378.1865,333.1079)">
          <path
             d="m 0,0 c 0.255,-1.082 0.952,-1.963 2.097,-2.635 1.137,-0.662 2.249,-0.851 3.347,-0.559 1.092,0.28 2.016,1.037 2.769,2.252 C 8.971,0.285 9.223,1.44 8.968,2.525 8.708,3.609 8.007,4.487 6.883,5.157 6.26,5.53 5.642,5.748 5.039,5.839 4.594,5.9 4.124,5.864 3.626,5.741 3.135,5.618 2.685,5.412 2.272,5.127 1.719,4.749 1.204,4.185 0.728,3.413 -0.005,2.219 -0.244,1.079 0,0 M 4.156,4.116 C 4.813,4.316 5.463,4.226 6.104,3.848 6.737,3.476 7.121,2.959 7.242,2.306 7.367,1.649 7.163,0.895 6.636,0.035 6.089,-0.839 5.49,-1.374 4.818,-1.576 4.156,-1.784 3.512,-1.694 2.892,-1.342 2.279,-0.971 1.896,-0.445 1.771,0.227 1.647,0.895 1.847,1.666 2.365,2.522 2.9,3.385 3.498,3.917 4.156,4.116"
             style="fill:#930f15;fill-opacity:1;fill-rule:nonzero;stroke:none"
             id="path110" />
        </g>
        <g
           id="g112"
           transform="translate(368.6709,338.9507)">
          <path
             d="m 0,0 2.597,-2.15 c 0.507,-0.419 0.955,-0.706 1.344,-0.873 0.522,-0.216 0.997,-0.292 1.441,-0.267 0.575,0.049 1.159,0.238 1.752,0.582 0.488,0.277 0.969,0.697 1.447,1.246 0.543,0.625 0.923,1.219 1.146,1.766 0.221,0.547 0.322,1.092 0.287,1.622 C 9.983,2.467 9.812,2.954 9.516,3.408 9.293,3.735 8.901,4.133 8.327,4.602 L 5.807,6.687 Z M 6.825,3.904 C 7.387,3.429 7.745,3.098 7.905,2.894 8.114,2.635 8.231,2.348 8.27,2.056 8.301,1.761 8.245,1.446 8.096,1.087 7.956,0.734 7.657,0.304 7.206,-0.221 6.749,-0.743 6.354,-1.104 6.005,-1.334 5.653,-1.555 5.341,-1.658 5.09,-1.675 4.824,-1.696 4.562,-1.619 4.289,-1.489 4.083,-1.391 3.783,-1.184 3.398,-0.875 L 2.377,-0.016 6.21,4.406 Z"
             style="fill:#930f15;fill-opacity:1;fill-rule:nonzero;stroke:none"
             id="path114" />
        </g>
        <g
           id="g116"
           transform="translate(366.2617,355.8638)">
          <path
             d="m 0,0 -0.952,1.629 -9.535,-1.372 0.951,-1.633 2.15,0.367 1.777,-3.066 -1.392,-1.65 0.966,-1.654 z m -5.787,-0.753 3.491,0.576 -2.275,-2.661 z"
             style="fill:#930f15;fill-opacity:1;fill-rule:nonzero;stroke:none"
             id="path118" />
        </g>
        <g
           id="g120"
           transform="translate(352.2959,364.8667)">
          <path
             d="M 0,0 8.445,2.99 9.062,1.318 5.729,0.137 l 1.209,-3.24 3.33,1.175 0.619,-1.675 L 2.451,-6.58 1.823,-4.919 5.508,-3.614 4.307,-0.368 0.621,-1.67 Z"
             style="fill:#930f15;fill-opacity:1;fill-rule:nonzero;stroke:none"
             id="path122" />
        </g>
        <g
           id="g124"
           transform="translate(352.9746,375.2827)">
          <path
             d="m 0,0 0.484,-1.658 c -0.557,-0.206 -0.959,-0.489 -1.166,-0.854 -0.226,-0.353 -0.272,-0.802 -0.177,-1.332 0.103,-0.553 0.305,-0.961 0.601,-1.207 0.293,-0.229 0.607,-0.329 0.928,-0.259 0.213,0.039 0.383,0.121 0.507,0.259 0.121,0.151 0.212,0.39 0.271,0.7 0.027,0.213 0.07,0.706 0.12,1.457 0.069,0.971 0.238,1.673 0.515,2.111 0.39,0.607 0.925,0.98 1.622,1.11 0.46,0.081 0.907,0.03 1.346,-0.146 C 5.484,-0.002 5.85,-0.304 6.143,-0.739 6.434,-1.163 6.641,-1.714 6.758,-2.374 6.96,-3.456 6.862,-4.315 6.484,-4.944 6.103,-5.583 5.503,-5.971 4.698,-6.15 l -0.383,1.734 c 0.434,0.153 0.726,0.371 0.879,0.656 0.154,0.271 0.186,0.652 0.096,1.137 C 5.194,-2.117 5.012,-1.749 4.752,-1.497 4.576,-1.339 4.387,-1.279 4.154,-1.322 3.943,-1.354 3.781,-1.476 3.663,-1.665 3.516,-1.93 3.423,-2.495 3.369,-3.373 3.317,-4.254 3.226,-4.914 3.07,-5.367 2.934,-5.803 2.691,-6.176 2.352,-6.466 2.019,-6.77 1.565,-6.966 1.002,-7.059 0.496,-7.152 0,-7.099 -0.5,-6.906 c -0.491,0.199 -0.896,0.525 -1.198,1.006 -0.309,0.453 -0.539,1.058 -0.674,1.811 -0.209,1.086 -0.105,1.96 0.308,2.642 C -1.653,-0.771 -0.967,-0.294 0,0"
             style="fill:#930f15;fill-opacity:1;fill-rule:nonzero;stroke:none"
             id="path126" />
        </g>
        <g
           id="g128"
           transform="translate(411.7734,331.6245)">
          <path
             d="m 0,0 1.804,0.155 0.423,-4.732 c 0.071,-0.76 0.133,-1.239 0.199,-1.46 0.105,-0.341 0.324,-0.621 0.628,-0.817 0.305,-0.179 0.711,-0.263 1.209,-0.223 0.502,0.044 0.876,0.181 1.114,0.415 0.245,0.218 0.377,0.483 0.398,0.78 0.033,0.311 0.009,0.811 -0.048,1.499 L 5.294,0.461 7.101,0.612 7.511,-3.982 C 7.61,-5.036 7.624,-5.777 7.564,-6.216 7.511,-6.658 7.367,-7.033 7.133,-7.354 6.893,-7.685 6.565,-7.955 6.142,-8.166 5.72,-8.379 5.161,-8.523 4.448,-8.583 3.603,-8.655 2.949,-8.604 2.487,-8.456 2.033,-8.299 1.654,-8.073 1.378,-7.782 1.098,-7.504 0.895,-7.195 0.782,-6.864 0.625,-6.375 0.493,-5.643 0.409,-4.661 Z"
             style="fill:#930f15;fill-opacity:1;fill-rule:nonzero;stroke:none"
             id="path130" />
        </g>
        <g
           id="g132"
           transform="translate(423.1162,324.1206)">
          <path
             d="M 0,0 -2.46,8.447 -0.77,8.904 4.42,4.259 2.773,9.882 4.393,10.328 6.844,1.898 5.099,1.423 0.002,5.992 1.612,0.461 Z"
             style="fill:#930f15;fill-opacity:1;fill-rule:nonzero;stroke:none"
             id="path134" />
        </g>
        <g
           id="g136"
           transform="translate(432.6934,327.1489)">
          <path
             d="M 0,0 -3.41,8.109 -1.726,8.79 1.685,0.679 Z"
             style="fill:#930f15;fill-opacity:1;fill-rule:nonzero;stroke:none"
             id="path138" />
        </g>
        <g
           id="g140"
           transform="translate(438.9531,329.936)">
          <path
             d="M 0,0 -7.172,6.131 -5.46,7.062 -0.233,2.475 -1.568,9.188 0.121,10.1 1.713,0.938 Z"
             style="fill:#930f15;fill-opacity:1;fill-rule:nonzero;stroke:none"
             id="path142" />
        </g>
        <g
           id="g144"
           transform="translate(445.3389,333.7583)">
          <path
             d="M 0,0 -5.593,6.867 -0.385,10.906 0.567,9.738 -3.232,6.81 -1.99,5.282 1.543,8.01 2.483,6.858 -1.031,4.113 0.475,2.271 4.393,5.301 5.343,4.157 Z"
             style="fill:#930f15;fill-opacity:1;fill-rule:nonzero;stroke:none"
             id="path146" />
        </g>
        <g
           id="g148"
           transform="translate(454.0449,341.1938)">
          <path
             d="m 0,0 -2.759,2.474 0.246,0.261 c 0.284,0.304 0.521,0.492 0.695,0.594 0.18,0.086 0.388,0.142 0.639,0.142 0.255,0.007 0.788,-0.056 1.621,-0.174 L 2.756,2.948 4.224,4.494 2.199,4.86 C 1.386,5.013 0.802,5.087 0.422,5.087 c -0.368,0 -0.767,-0.074 -1.209,-0.201 0.452,0.633 0.651,1.249 0.588,1.825 -0.058,0.568 -0.331,1.08 -0.827,1.527 -0.398,0.36 -0.831,0.564 -1.311,0.656 C -2.821,8.976 -3.259,8.919 -3.683,8.704 -4.094,8.497 -4.617,8.053 -5.271,7.367 l -2.578,-2.745 6.618,-5.917 z m -5.495,4.923 0.945,1.01 c 0.5,0.521 0.804,0.84 0.925,0.936 0.229,0.173 0.472,0.255 0.714,0.255 C -2.662,7.121 -2.432,7.011 -2.21,6.811 -2.013,6.631 -1.881,6.44 -1.839,6.228 -1.785,6.023 -1.804,5.819 -1.891,5.623 -1.987,5.412 -2.321,4.999 -2.911,4.376 L -3.813,3.415 Z"
             style="fill:#930f15;fill-opacity:1;fill-rule:nonzero;stroke:none"
             id="path150" />
        </g>
        <g
           id="g152"
           transform="translate(456.8828,348.8511)">
          <path
             d="M 0,0 0.839,1.526 C 1.394,1.288 1.873,1.234 2.287,1.35 2.693,1.464 3.047,1.742 3.355,2.193 3.675,2.654 3.826,3.081 3.774,3.456 3.742,3.826 3.58,4.112 3.312,4.283 3.129,4.401 2.948,4.443 2.744,4.436 2.554,4.408 2.327,4.3 2.059,4.119 1.884,3.984 1.502,3.67 0.933,3.159 0.197,2.506 -0.438,2.112 -0.944,1.978 -1.658,1.813 -2.309,1.915 -2.902,2.291 -3.277,2.545 -3.564,2.872 -3.757,3.297 -3.929,3.727 -3.986,4.188 -3.89,4.7 c 0.107,0.503 0.346,1.038 0.721,1.606 0.624,0.908 1.296,1.458 2.03,1.652 0.728,0.192 1.438,0.086 2.141,-0.334 L 0.05,6.104 C -0.377,6.292 -0.74,6.333 -1.049,6.252 -1.366,6.146 -1.658,5.885 -1.93,5.483 -2.219,5.055 -2.367,4.66 -2.354,4.3 -2.337,4.082 -2.24,3.903 -2.045,3.773 -1.873,3.66 -1.67,3.632 -1.449,3.704 -1.16,3.773 -0.688,4.119 -0.018,4.721 0.645,5.318 1.188,5.733 1.604,5.958 2.025,6.174 2.459,6.271 2.915,6.253 3.365,6.236 3.828,6.076 4.305,5.777 4.733,5.487 5.057,5.102 5.276,4.633 5.491,4.158 5.54,3.65 5.437,3.108 5.329,2.569 5.057,1.978 4.625,1.341 3.994,0.423 3.295,-0.145 2.515,-0.346 1.745,-0.572 0.909,-0.452 0,0"
             style="fill:#930f15;fill-opacity:1;fill-rule:nonzero;stroke:none"
             id="path154" />
        </g>
        <g
           id="g156"
           transform="translate(464.5098,355.5718)">
          <path
             d="M 0,0 -8.108,3.781 -7.322,5.377 0.781,1.603 Z"
             style="fill:#930f15;fill-opacity:1;fill-rule:nonzero;stroke:none"
             id="path158" />
        </g>
        <g
           id="g160"
           transform="translate(467.0684,361.4868)">
          <path
             d="m 0,0 -7.038,2.406 -0.879,-2.462 -1.437,0.5 2.348,6.554 1.434,-0.486 -0.869,-2.426 7.044,-2.409 z"
             style="fill:#930f15;fill-opacity:1;fill-rule:nonzero;stroke:none"
             id="path162" />
        </g>
        <g
           id="g164"
           transform="translate(469.6465,370.3198)">
          <path
             d="m 0,0 -3.716,0.68 -5.709,-2.239 0.385,2.035 3.886,1.397 -3.117,2.632 0.377,2.008 4.526,-4.089 3.699,-0.679 z"
             style="fill:#930f15;fill-opacity:1;fill-rule:nonzero;stroke:none"
             id="path166" />
        </g>
        <g
           id="g168"
           transform="translate(409.7324,338.8716)">
          <path
             d="M 0,0 C -16.871,0 -31.597,9.041 -39.458,22.494 H 39.474 C 31.599,9.041 16.882,0 0,0 m 0,89.8 c 25.142,0 45.524,-20.112 45.524,-44.907 0,-7.254 -1.742,-14.102 -4.835,-20.175 h -81.338 v -0.039 c -3.116,6.087 -4.872,12.939 -4.872,20.214 0,24.795 20.38,44.907 45.521,44.907 m 0,1.87 c -26.186,0 -47.426,-20.938 -47.426,-46.777 0,-25.841 21.24,-46.779 47.426,-46.779 26.193,0 47.425,20.938 47.425,46.779 C 47.425,70.732 26.193,91.67 0,91.67"
             style="fill:#930f15;fill-opacity:1;fill-rule:nonzero;stroke:none"
             id="path170" />
        </g>
        <g
           id="g172"
           transform="translate(412.0488,393.2964)">
          <path
             d="M 0,0 -0.987,6.925 -3.55,7.009 -4.532,0 -11.828,0.385 -2.166,20.251 9.067,-4.185 0.493,-4.382 3.842,-0.101 Z m -17.543,0.485 -6.797,0.297 3.836,7.588 4.441,-4.477 z m 33.598,8.091 5.916,-12.278 -6.9,-0.387 -3.639,7.982 z m 21.289,-27.859 c -6.407,-4.958 -11.526,0.788 -11.526,0.788 -8.477,-7.897 -15.27,-0.395 -15.27,-0.395 -5.326,-3.801 -7.685,-3.018 -7.685,-3.018 l -1.781,12.855 10.453,0.096 1.867,-4.193 h 6.01 l -1.877,4.097 h 7.095 l 1.782,-4.188 6.107,0.287 -1.675,3.805 h 5.223 l 0.1,5.837 L 27.792,-3.503 17.341,17.239 9.165,8.667 -2.166,31.551 -13.697,8.667 l -8.078,8.572 -8.282,-16.558 -10.547,0.297 -0.091,-6.041 7.682,0.296 -3.354,-7.207 h 5.81 l 3.453,7.207 7.093,0.186 -3.248,-7.393 h 5.912 l 3.358,7.393 8.964,-0.099 -3.058,-4.184 2.472,-0.093 -1.587,-12.847 c -2.949,-0.697 -7.486,3.012 -7.486,3.012 -8.479,-7.6 -15.766,0.297 -15.766,0.297 -5.32,-5.851 -11.53,-0.876 -11.53,-0.876 l -1.481,-3.513 c 6.903,-4.385 13.102,-0.291 13.102,-0.291 8.771,-5.55 15.675,-0.38 15.675,-0.38 8.669,-5.461 12.319,-0.209 12.319,-0.209 5.715,-5.059 12.717,0.303 12.717,0.303 6.989,-5.465 15.265,0.187 15.265,0.187 6.999,-4.183 13.308,0.292 13.308,0.292 z"
             style="fill:#930f15;fill-opacity:1;fill-rule:nonzero;stroke:none"
             id="path174" />
        </g>
        <g
           id="g176"
           transform="translate(356.8218,405.7246)">
          <path
             d="m 0,0 c 0,0 0.307,-0.272 0.539,0.041 0,0 0.155,1.186 -0.382,1.787 0,0 -1.508,2.093 -1.808,3.196 0,0 -0.39,0.501 -2.348,0.501 0,0 -0.275,-0.457 -0.088,-0.616 0.199,-0.142 0.888,0.081 1.619,-1.252 L -0.586,1.18 C -0.586,1.18 0.036,0.497 0,0"
             style="fill:#930f15;fill-opacity:1;fill-rule:nonzero;stroke:none"
             id="path178" />
        </g>
        <g
           id="g180"
           transform="translate(362.9902,409.1567)">
          <path
             d="m 0,0 -2.162,0.186 c 0,0 -0.774,-0.259 -0.151,-0.679 0,0 1.15,-2.256 0.728,-3.544 0,0 0.383,-0.653 0.614,0.269 0,0 0.617,2.434 1.157,2.811 0,0 0.421,0.754 -0.186,0.957"
             style="fill:#930f15;fill-opacity:1;fill-rule:nonzero;stroke:none"
             id="path182" />
        </g>
        <g
           id="g184"
           transform="translate(359.0234,406.0723)">
          <path
             d="m 0,0 c 0,0 -0.199,0.643 -0.554,0.078 0,0 0.202,-2.178 -0.338,-2.902 0,0 -0.041,-2.093 -0.273,-2.661 0,0 -0.341,-1.335 -0.269,-1.639 h -0.229 c 0,0 -1.153,3.086 -2.655,2.482 0,0 -0.109,-0.306 0.231,-0.574 0,0 1.625,-3.007 1.391,-3.846 0,0 1.068,-0.268 2.039,-0.226 0,0 1.116,2.698 1.267,3.69 0,0 0.107,1.83 -0.044,2.438 0,0 -0.227,2.237 -0.566,3.16"
             style="fill:#930f15;fill-opacity:1;fill-rule:nonzero;stroke:none"
             id="path186" />
        </g>
        <g
           id="g188"
           transform="translate(469.5498,404.0464)">
          <path
             d="m 0,0 c 0,0 0.213,0.071 0.4,-0.148 l 0.544,-0.507 c 0,0 -1.496,0.101 -0.944,0.655 m -12.495,-2.611 c -2.018,-0.033 -1.288,2.964 -1.288,2.964 0,1.516 1.501,-0.501 1.501,-0.501 l 1.134,-1.516 c 0.875,-1.349 -1.347,-0.947 -1.347,-0.947 M 2.194,-0.655 1.79,-0.474 0.69,0.464 c 0,0 -0.843,-0.178 -0.69,1.044 0,0 -0.074,0.396 -0.768,0.324 l -2.083,1.553 c 0,0 -0.657,0.503 0.501,0.9 0,0 0.886,0.36 -0.435,0.428 0,0 -1.453,-0.173 -1.636,-0.528 0,0 -0.153,-1.19 0.873,-1.122 0,0 1.936,-1.339 2.267,-1.555 0,0 -0.368,-1.044 -0.112,-1.403 0,0 -0.109,-0.432 -1.093,0.248 0,0 -4.712,2.024 -4.896,2.78 0,0 -0.994,0.183 -1.459,-0.209 0,0 -0.077,-0.948 0.178,-1.124 L -7.24,0.861 c 0,0 -0.579,-0.294 -1.823,0.107 0,0 -1.21,-0.19 -0.402,-1.189 0,0 0.624,-1.234 -0.259,-1.744 0,0 0.035,2.357 -3.549,5.315 0,0 -1.128,-0.034 -1.677,-5.092 0,0 -0.228,-2.028 2.085,-1.877 l 1.791,0.295 c 0,0 0.184,0.284 0.41,-0.184 L -10.75,-4.74 c 0,0 -0.582,-0.432 0.108,-0.641 0,0 0.663,-1.126 1.103,0.432 l -0.081,2.201 c 0,0 1.395,-0.223 1.178,2.274 l 3.067,-0.181 c 0,0 0.882,0.68 -0.619,1.762 0,0 1.676,-0.821 2.157,-1.399 0,0 0.076,-0.293 0.913,-0.262 0,0 0.179,-0.425 1.672,-0.712 0,0 0.112,-0.759 3.446,-0.939 0,0 0.431,1.039 0,1.55"
             style="fill:#930f15;fill-opacity:1;fill-rule:nonzero;stroke:none"
             id="path190" />
        </g>
        <g
           id="g192"
           transform="translate(385.4727,431.5918)">
          <path
             d="m 0,0 -0.547,-0.871 -0.479,2.596 c -0.147,0.836 0.479,1.557 0.479,1.557 0.322,-0.689 0.475,-2.1 0.475,-2.1 C 0.028,0.469 0,0 0,0 m 1.941,-0.623 c 0,0 -0.632,0.623 0.029,3.044 L 1.496,3.03 1.457,3.498 0.947,3.611 c 0,0 -0.366,0.687 -1.102,0.324 0,0 -0.473,-0.111 0.155,0.756 l 1.239,1.943 -0.145,2.46 c 0,0 0.078,0.476 -0.767,0.363 0,0 0.185,-0.475 -0.179,-0.934 -0.373,-0.469 -0.776,-1.416 -0.921,-1.949 0,0 -0.253,2.267 -0.4,2.729 l -0.539,0.768 c 0,0 -0.769,0.426 -0.192,-0.874 V 4.249 L -2.833,2.956 c 0,0 -1.349,-0.344 -0.339,-0.995 l 1.46,-0.308 0.111,-3.189 -0.011,-0.897 1.176,-0.18 1.005,1.501 c 0,0 0.177,0.097 0.275,-0.225 l 0.184,-1.362 c 0,0 -0.447,-1.42 -0.805,-1.565 0,0 -0.151,-0.074 -0.554,-0.473 0,0 -1.103,-1.443 0.586,-1.443 0,0 0.65,-0.26 0.732,0.721 l 0.107,1.268 2.523,-0.473 c 0,0 0.146,0.687 -0.41,1.519 z"
             style="fill:#930f15;fill-opacity:1;fill-rule:nonzero;stroke:none"
             id="path194" />
        </g>
        <g
           id="g196"
           transform="translate(389.8613,431.0586)">
          <path
             d="m 0,0 -1.437,-0.269 c 0,0 -0.929,-0.504 0.069,-0.59 0,0 0.965,-0.316 1.453,-0.74 0,0 0.672,-0.876 0.967,0.208 v 0.749 C 1.052,-0.642 0.998,0.054 0,0"
             style="fill:#930f15;fill-opacity:1;fill-rule:nonzero;stroke:none"
             id="path198" />
        </g>
        <g
           id="g200"
           transform="translate(395.8682,354.0034)">
          <path
             d="m 0,0 -1.038,-0.828 -0.723,1.011 2.266,1.76 0.79,-0.419 V -7.342 H 0 Z"
             style="fill:#930f15;fill-opacity:1;fill-rule:nonzero;stroke:none"
             id="path202" />
        </g>
        <g
           id="g204"
           transform="translate(422.8428,354.0034)">
          <path
             d="M 0,0 -1.048,-0.828 -1.77,0.183 0.507,1.943 1.293,1.524 V -7.342 H 0 Z"
             style="fill:#930f15;fill-opacity:1;fill-rule:nonzero;stroke:none"
             id="path206" />
        </g>
        <g
           id="g208"
           transform="translate(406.3242,349.8843)">
          <path
             d="m 0,0 c 0,-0.221 -0.021,-0.445 -0.063,-0.663 -0.055,-0.236 -0.119,-0.427 -0.2,-0.605 -0.088,-0.167 -0.217,-0.31 -0.391,-0.435 -0.168,-0.12 -0.377,-0.209 -0.618,-0.25 -0.248,-0.038 -0.441,-0.044 -0.601,-0.038 -0.301,0.01 -0.556,0.072 -0.747,0.206 -0.204,0.137 -0.32,0.271 -0.369,0.431 -0.051,0.137 -0.083,0.292 -0.104,0.443 l -1.3,-0.023 0.132,-0.536 c 0.024,-0.201 0.123,-0.449 0.282,-0.706 0.156,-0.263 0.336,-0.475 0.552,-0.624 0.211,-0.157 0.478,-0.268 0.788,-0.354 0.322,-0.09 0.669,-0.12 1.052,-0.113 0.326,0 0.637,0.051 0.947,0.136 0.311,0.091 0.558,0.197 0.763,0.346 0.188,0.15 0.358,0.322 0.504,0.51 0.149,0.206 0.268,0.444 0.351,0.706 0.103,0.25 0.16,0.523 0.189,0.804 0.025,0.281 0.032,0.651 0.032,1.113 V 2.951 C 1.199,3.41 1.158,3.822 1.061,4.17 0.971,4.487 0.824,4.805 0.615,5.078 0.414,5.352 0.113,5.592 -0.276,5.803 -0.663,6.005 -1.129,6.123 -1.647,6.103 -1.96,6.079 -2.277,6.023 -2.607,5.91 -2.957,5.803 -3.236,5.644 -3.476,5.455 -3.709,5.256 -3.895,5.014 -4.014,4.749 -4.138,4.479 -4.229,4.211 -4.261,3.952 -4.314,3.689 -4.34,3.41 -4.34,3.115 c 0,-0.59 0.051,-1.03 0.167,-1.336 0.113,-0.299 0.269,-0.543 0.452,-0.74 0.181,-0.206 0.475,-0.377 0.855,-0.544 0.395,-0.166 0.868,-0.24 1.411,-0.208 0.218,0 0.421,0.027 0.618,0.061 0.197,0.039 0.362,0.094 0.486,0.147 C -0.228,0.546 -0.113,0.604 0,0.662 Z M -0.044,3.347 C -0.021,2.985 -0.037,2.671 -0.113,2.407 -0.169,2.146 -0.276,1.927 -0.432,1.765 -0.582,1.582 -0.915,1.484 -1.421,1.48 -1.604,1.473 -1.816,1.484 -2.044,1.524 -2.271,1.563 -2.471,1.66 -2.63,1.795 c -0.157,0.143 -0.268,0.322 -0.343,0.552 -0.067,0.178 -0.094,0.447 -0.09,0.808 0,0.355 0.042,0.642 0.114,0.843 0.08,0.204 0.182,0.364 0.31,0.489 0.131,0.117 0.286,0.211 0.473,0.281 0.18,0.062 0.409,0.089 0.692,0.089 0.333,-0.011 0.598,-0.08 0.82,-0.208 0.207,-0.121 0.378,-0.305 0.48,-0.53 0.056,-0.151 0.092,-0.408 0.13,-0.772"
             style="fill:#930f15;fill-opacity:1;fill-rule:nonzero;stroke:none"
             id="path210" />
        </g>
        <g
           id="g212"
           transform="translate(417.7178,352.2124)">
          <path
             d="m 0,0 c -0.023,0.403 -0.086,0.807 -0.169,1.209 -0.078,0.38 -0.223,0.748 -0.41,1.085 -0.197,0.349 -0.439,0.634 -0.709,0.861 -0.283,0.235 -0.577,0.406 -0.893,0.513 -0.312,0.127 -0.618,0.168 -0.908,0.18 -0.397,0 -0.785,-0.078 -1.15,-0.266 C -4.604,3.407 -4.891,3.183 -5.117,2.931 -5.333,2.674 -5.523,2.375 -5.676,2.034 -5.833,1.685 -5.944,1.318 -6.025,0.908 -6.106,0.503 -6.15,0.141 -6.16,-0.182 -6.172,-0.424 -6.177,-0.813 -6.172,-1.34 c 0.007,-0.523 0.039,-0.974 0.111,-1.348 0.079,-0.366 0.183,-0.73 0.328,-1.083 0.15,-0.356 0.342,-0.673 0.59,-0.964 0.252,-0.274 0.554,-0.492 0.924,-0.633 0.371,-0.135 0.744,-0.209 1.13,-0.209 0.403,0 0.759,0.04 1.092,0.163 0.327,0.12 0.589,0.261 0.81,0.435 0.211,0.174 0.393,0.416 0.569,0.723 0.174,0.311 0.307,0.627 0.393,0.957 0.086,0.328 0.158,0.696 0.19,1.102 C 0,-1.794 0.035,-1.492 0.039,-1.288 0.046,-0.837 0.039,-0.401 0,0 m -1.23,-1.401 c -0.019,-0.292 -0.048,-0.64 -0.111,-1.041 -0.067,-0.403 -0.175,-0.74 -0.339,-1.031 -0.175,-0.29 -0.368,-0.519 -0.623,-0.647 -0.257,-0.136 -0.516,-0.199 -0.803,-0.19 -0.338,0 -0.606,0.078 -0.837,0.248 -0.223,0.147 -0.414,0.359 -0.565,0.635 -0.151,0.277 -0.26,0.614 -0.329,1.005 -0.072,0.401 -0.107,0.874 -0.119,1.444 0,0.34 0,0.615 0.021,0.836 0.021,0.237 0.061,0.524 0.139,0.874 0.067,0.35 0.174,0.66 0.322,0.953 0.141,0.272 0.32,0.493 0.564,0.648 0.236,0.16 0.512,0.24 0.831,0.24 0.317,-0.004 0.574,-0.096 0.799,-0.252 0.211,-0.143 0.404,-0.349 0.55,-0.597 0.165,-0.242 0.275,-0.55 0.361,-0.911 0.083,-0.364 0.134,-0.828 0.152,-1.42 0,-0.241 -0.011,-0.514 -0.013,-0.794"
             style="fill:#930f15;fill-opacity:1;fill-rule:nonzero;stroke:none"
             id="path214" />
        </g>
        <g
           id="g216"
           transform="translate(436.8496,435.915)">
          <path
             d="m 0,0 1.355,-0.087 1.692,1.049 c 0,0 0.368,0.129 -0.032,0.669 0,0 -0.267,-0.304 -0.74,-0.232 C 1.798,1.474 0.978,1.391 0.529,1.288 L 0.518,1.271 -0.563,1.391 C -0.206,1.653 -0.871,3.235 -0.871,3.235 -1.214,3.876 -1.58,3.616 -1.58,3.616 -2.008,3.312 -2.163,2.147 -2.163,2.147 L -2.548,1.558 -4.158,1.501 -5.909,1.756 c 0,0 -1.089,1.16 -1.2,-0.199 L -6.774,0.464 C -6.762,0.265 -6.707,0.11 -6.63,-0.023 l 0.018,-0.048 0.014,0.014 c 0.322,-0.463 0.994,-0.49 1.235,-0.483 -0.496,-0.085 -2.345,-1.074 -2.345,-1.074 -2.698,-1.845 -6.364,-1.939 -6.364,-1.939 -1.163,-0.32 0.163,-0.642 0.163,-0.642 1.18,-0.268 5.593,0.79 5.593,0.79 6.327,1.724 7.235,3.479 7.235,3.479 C -0.75,0.021 -0.366,0 0,0"
             style="fill:#930f15;fill-opacity:1;fill-rule:nonzero;stroke:none"
             id="path218" />
        </g>
        <g
           id="g220"
           transform="translate(434.04,430.7324)">
          <path
             d="m 0,0 c 0,0 -0.547,1.107 -0.916,-0.137 0,0 -0.884,-2.699 -1.94,-2.836 0,0 -0.907,-0.42 -0.096,-0.619 0,0 1.995,0.886 3.131,0.917 0,0 1.111,0.929 -0.179,2.675"
             style="fill:#930f15;fill-opacity:1;fill-rule:nonzero;stroke:none"
             id="path222" />
        </g>
      </g>
    </g>
  </g>
</svg>
