<?xml version="1.0" encoding="UTF-8" standalone="no"?>
<!-- Created with Inkscape (http://www.inkscape.org/) -->

<svg
   version="1.1"
   id="svg2"
   width="1122.52"
   height="793.70667"
   viewBox="0 0 1122.52 793.70667"
   sodipodi:docname="竖式.svg"
   inkscape:version="1.2.2 (b0a8486541, 2022-12-01)"
   xmlns:inkscape="http://www.inkscape.org/namespaces/inkscape"
   xmlns:sodipodi="http://sodipodi.sourceforge.net/DTD/sodipodi-0.dtd"
   xmlns="http://www.w3.org/2000/svg"
   xmlns:svg="http://www.w3.org/2000/svg">
  <defs
     id="defs6">
    <clipPath
       clipPathUnits="userSpaceOnUse"
       id="clipPath18">
      <path
         d="M 0,595.28 H 841.89 V 0 H 0 Z"
         id="path16" />
    </clipPath>
  </defs>
  <sodipodi:namedview
     id="namedview4"
     pagecolor="#ffffff"
     bordercolor="#000000"
     borderopacity="0.25"
     inkscape:showpageshadow="2"
     inkscape:pageopacity="0.0"
     inkscape:pagecheckerboard="0"
     inkscape:deskcolor="#d1d1d1"
     showgrid="false"
     inkscape:zoom="0.29733907"
     inkscape:cx="561.64836"
     inkscape:cy="398.53491"
     inkscape:window-width="2560"
     inkscape:window-height="1284"
     inkscape:window-x="0"
     inkscape:window-y="0"
     inkscape:window-maximized="1"
     inkscape:current-layer="g10">
    <inkscape:page
       x="0"
       y="0"
       id="page8"
       width="1122.52"
       height="793.70667" />
  </sodipodi:namedview>
  <g
     id="g10"
     inkscape:groupmode="layer"
     inkscape:label="Page 1"
     transform="matrix(1.3333333,0,0,-1.3333333,0,793.70667)">
    <g
       id="g12">
      <g
         id="g14"
         clip-path="url(#clipPath18)">
        <g
           id="g20"
           transform="translate(427.0117,399.7813)">
          <path
             d="m 0,0 c -26.447,0 -47.889,21.441 -47.889,47.891 0,26.453 21.442,47.898 47.889,47.898 26.455,0 47.892,-21.445 47.892,-47.898 C 47.892,21.441 26.455,0 0,0 m 0,97.527 c -27.414,0 -49.63,-22.218 -49.63,-49.636 0,-27.418 22.216,-49.628 49.63,-49.628 27.413,0 49.633,22.21 49.633,49.628 0,27.418 -22.22,49.636 -49.633,49.636"
             style="fill:#930f15;fill-opacity:1;fill-rule:evenodd;stroke:none"
             id="path22" />
        </g>
        <g
           id="g24"
           transform="translate(421.0176,406.7935)">
          <path
             d="M 0,0 0.159,1.063 2.955,0.65 2.57,-1.859 C 2.263,-2.073 1.83,-2.244 1.283,-2.363 0.741,-2.478 0.209,-2.5 -0.32,-2.419 c -0.676,0.094 -1.237,0.319 -1.688,0.671 -0.465,0.347 -0.78,0.797 -0.951,1.349 -0.169,0.549 -0.205,1.12 -0.118,1.729 0.108,0.654 0.339,1.212 0.698,1.679 0.357,0.468 0.826,0.795 1.406,0.992 C -0.527,4.143 0,4.171 0.614,4.082 1.411,3.963 2.008,3.711 2.399,3.317 2.8,2.922 3.018,2.435 3.057,1.834 L 1.729,1.795 C 1.687,2.116 1.551,2.381 1.332,2.595 1.113,2.81 0.818,2.95 0.444,3.008 -0.117,3.082 -0.597,2.973 -0.987,2.675 -1.371,2.371 -1.62,1.867 -1.732,1.179 -1.837,0.436 -1.763,-0.149 -1.478,-0.575 -1.201,-1 -0.783,-1.255 -0.232,-1.331 0.03,-1.372 0.309,-1.355 0.6,-1.295 c 0.292,0.072 0.538,0.158 0.763,0.274 l 0.12,0.803 z"
             style="fill:#930f15;fill-opacity:1;fill-rule:nonzero;stroke:none"
             id="path26" />
        </g>
        <g
           id="g28"
           transform="translate(410.3955,407.1587)">
          <path
             d="M 0,0 2.154,5.981 3.357,5.574 4.425,0.718 5.863,4.71 7.012,4.321 4.864,-1.662 3.616,-1.236 2.559,3.533 1.144,-0.396 Z"
             style="fill:#930f15;fill-opacity:1;fill-rule:nonzero;stroke:none"
             id="path30" />
        </g>
        <g
           id="g32"
           transform="translate(392.0601,421.0171)">
          <path
             d="M 0,0 4.939,4.122 5.765,3.18 4.199,-1.546 7.494,1.213 8.286,0.304 3.349,-3.818 2.5,-2.842 4.032,1.794 0.794,-0.898 Z"
             style="fill:#930f15;fill-opacity:1;fill-rule:nonzero;stroke:none"
             id="path34" />
        </g>
        <g
           id="g36"
           transform="translate(404.02,411.3262)">
          <path
             d="m 0,0 c 0.183,-0.781 0.688,-1.42 1.517,-1.903 0.82,-0.48 1.624,-0.617 2.419,-0.408 0.789,0.207 1.46,0.751 2.003,1.628 0.546,0.889 0.73,1.724 0.546,2.51 C 6.298,2.608 5.791,3.246 4.977,3.732 4.527,4 4.081,4.158 3.644,4.223 3.32,4.264 2.982,4.244 2.623,4.151 2.267,4.06 1.94,3.917 1.643,3.707 1.244,3.434 0.871,3.026 0.527,2.471 -0.004,1.603 -0.178,0.779 0,0 M 3.004,2.977 C 3.48,3.123 3.95,3.055 4.414,2.785 4.873,2.513 5.149,2.14 5.236,1.67 5.327,1.193 5.18,0.647 4.798,0.027 4.405,-0.604 3.97,-0.994 3.482,-1.14 3.004,-1.29 2.539,-1.225 2.091,-0.97 1.646,-0.703 1.373,-0.321 1.282,0.166 1.189,0.647 1.333,1.205 1.709,1.827 c 0.387,0.625 0.82,1.004 1.295,1.15"
             style="fill:#930f15;fill-opacity:1;fill-rule:nonzero;stroke:none"
             id="path38" />
        </g>
        <g
           id="g40"
           transform="translate(397.1372,415.5508)">
          <path
             d="m 0,0 1.877,-1.555 c 0.368,-0.301 0.691,-0.51 0.972,-0.632 0.381,-0.155 0.723,-0.211 1.04,-0.19 0.42,0.034 0.841,0.172 1.271,0.42 0.349,0.204 0.696,0.503 1.047,0.902 0.389,0.452 0.666,0.88 0.827,1.276 C 7.195,0.616 7.269,1.013 7.242,1.393 7.22,1.785 7.097,2.139 6.882,2.468 6.722,2.701 6.438,2.99 6.023,3.329 L 4.202,4.838 Z M 4.937,2.825 C 5.342,2.482 5.603,2.244 5.716,2.095 5.869,1.907 5.953,1.7 5.979,1.488 6.003,1.274 5.962,1.047 5.855,0.789 5.753,0.533 5.539,0.221 5.209,-0.159 4.881,-0.535 4.595,-0.796 4.343,-0.962 4.089,-1.122 3.864,-1.198 3.68,-1.211 3.489,-1.225 3.3,-1.168 3.1,-1.073 2.953,-1.008 2.736,-0.853 2.457,-0.629 l -0.738,0.619 2.77,3.199 z"
             style="fill:#930f15;fill-opacity:1;fill-rule:nonzero;stroke:none"
             id="path42" />
        </g>
        <g
           id="g44"
           transform="translate(395.3945,427.7837)">
          <path
             d="m 0,0 -0.688,1.18 -6.897,-0.992 0.688,-1.184 1.559,0.266 1.283,-2.215 -1.01,-1.195 0.697,-1.194 z m -4.186,-0.541 2.525,0.416 -1.646,-1.928 z"
             style="fill:#930f15;fill-opacity:1;fill-rule:nonzero;stroke:none"
             id="path46" />
        </g>
        <g
           id="g48"
           transform="translate(385.2939,434.2954)">
          <path
             d="M 0,0 6.108,2.164 6.553,0.953 4.145,0.101 l 0.871,-2.344 2.409,0.85 0.45,-1.212 -6.102,-2.152 -0.453,1.2 2.664,0.943 -0.869,2.347 -2.666,-0.941 z"
             style="fill:#930f15;fill-opacity:1;fill-rule:nonzero;stroke:none"
             id="path50" />
        </g>
        <g
           id="g52"
           transform="translate(385.7852,441.8291)">
          <path
             d="m 0,0 0.35,-1.201 c -0.404,-0.148 -0.693,-0.351 -0.844,-0.616 -0.159,-0.257 -0.199,-0.58 -0.128,-0.962 0.078,-0.401 0.219,-0.696 0.434,-0.873 0.213,-0.169 0.44,-0.239 0.673,-0.187 0.154,0.026 0.277,0.086 0.368,0.187 0.085,0.108 0.152,0.283 0.192,0.506 0.023,0.154 0.052,0.511 0.088,1.051 0.048,0.706 0.176,1.213 0.372,1.53 0.284,0.439 0.67,0.707 1.177,0.801 0.331,0.059 0.651,0.022 0.969,-0.105 0.314,-0.133 0.58,-0.35 0.791,-0.667 C 4.653,-0.842 4.804,-1.241 4.884,-1.719 5.033,-2.501 4.965,-3.12 4.689,-3.576 4.413,-4.038 3.979,-4.319 3.399,-4.448 l -0.28,1.253 c 0.315,0.112 0.525,0.269 0.636,0.474 0.11,0.196 0.133,0.471 0.071,0.825 -0.071,0.365 -0.198,0.631 -0.39,0.813 C 3.31,-0.968 3.171,-0.928 3.005,-0.957 2.849,-0.979 2.735,-1.067 2.648,-1.206 2.542,-1.396 2.476,-1.804 2.434,-2.443 2.398,-3.077 2.333,-3.555 2.22,-3.881 2.12,-4.198 1.948,-4.466 1.7,-4.676 1.459,-4.897 1.132,-5.038 0.726,-5.104 0.361,-5.174 0,-5.132 -0.362,-4.994 c -0.356,0.142 -0.647,0.38 -0.866,0.728 -0.227,0.325 -0.39,0.763 -0.49,1.309 -0.148,0.785 -0.073,1.417 0.224,1.911 C -1.197,-0.559 -0.699,-0.213 0,0"
             style="fill:#930f15;fill-opacity:1;fill-rule:nonzero;stroke:none"
             id="path54" />
        </g>
        <g
           id="g56"
           transform="translate(428.3066,410.2529)">
          <path
             d="m 0,0 1.306,0.111 0.305,-3.419 c 0.051,-0.551 0.096,-0.899 0.144,-1.058 0.078,-0.246 0.234,-0.45 0.454,-0.59 0.219,-0.13 0.515,-0.193 0.875,-0.162 0.361,0.032 0.634,0.128 0.805,0.299 0.176,0.161 0.271,0.352 0.289,0.566 0.023,0.224 0.004,0.586 -0.037,1.083 L 3.829,0.332 5.136,0.443 5.431,-2.881 C 5.504,-3.642 5.515,-4.176 5.473,-4.494 5.431,-4.816 5.329,-5.086 5.159,-5.32 4.984,-5.558 4.749,-5.751 4.442,-5.903 4.139,-6.06 3.733,-6.163 3.218,-6.207 2.604,-6.259 2.133,-6.222 1.799,-6.115 1.47,-6.003 1.198,-5.838 0.997,-5.628 0.794,-5.426 0.647,-5.204 0.565,-4.962 0.451,-4.61 0.357,-4.079 0.298,-3.372 Z"
             style="fill:#930f15;fill-opacity:1;fill-rule:nonzero;stroke:none"
             id="path58" />
        </g>
        <g
           id="g60"
           transform="translate(436.5107,404.8286)">
          <path
             d="M 0,0 -1.778,6.107 -0.557,6.438 3.195,3.078 2.005,7.145 3.178,7.47 4.95,1.372 3.687,1.026 0.002,4.333 1.164,0.328 Z"
             style="fill:#930f15;fill-opacity:1;fill-rule:nonzero;stroke:none"
             id="path62" />
        </g>
        <g
           id="g64"
           transform="translate(443.4375,407.0151)">
          <path
             d="M 0,0 -2.466,5.866 -1.251,6.358 1.218,0.492 Z"
             style="fill:#930f15;fill-opacity:1;fill-rule:nonzero;stroke:none"
             id="path66" />
        </g>
        <g
           id="g68"
           transform="translate(447.9648,409.0337)">
          <path
             d="M 0,0 -5.188,4.432 -3.95,5.106 -0.172,1.789 -1.136,6.643 0.085,7.306 1.239,0.68 Z"
             style="fill:#930f15;fill-opacity:1;fill-rule:nonzero;stroke:none"
             id="path70" />
        </g>
        <g
           id="g72"
           transform="translate(452.5811,411.7949)">
          <path
             d="M 0,0 -4.042,4.969 -0.279,7.891 0.413,7.046 -2.335,4.928 -1.439,3.824 1.118,5.795 1.797,4.963 -0.746,2.979 0.343,1.646 3.176,3.835 3.864,3.009 Z"
             style="fill:#930f15;fill-opacity:1;fill-rule:nonzero;stroke:none"
             id="path74" />
        </g>
        <g
           id="g76"
           transform="translate(458.8779,417.1733)">
          <path
             d="m 0,0 -1.993,1.789 0.178,0.19 c 0.202,0.22 0.374,0.355 0.498,0.431 0.134,0.062 0.285,0.101 0.467,0.101 0.184,0.004 0.57,-0.039 1.17,-0.126 L 1.996,2.13 3.054,3.251 1.592,3.52 C 1.003,3.627 0.581,3.679 0.307,3.679 0.039,3.679 -0.249,3.627 -0.569,3.534 -0.241,3.993 -0.098,4.438 -0.145,4.856 -0.183,5.265 -0.384,5.638 -0.741,5.958 -1.03,6.22 -1.344,6.368 -1.688,6.433 -2.04,6.493 -2.356,6.451 -2.665,6.297 -2.96,6.147 -3.338,5.824 -3.811,5.33 l -1.867,-1.988 4.786,-4.276 z m -3.973,3.562 0.682,0.73 c 0.36,0.378 0.582,0.605 0.67,0.675 0.164,0.127 0.341,0.188 0.517,0.188 C -1.926,5.152 -1.756,5.071 -1.6,4.927 -1.456,4.797 -1.361,4.658 -1.328,4.506 -1.288,4.359 -1.304,4.207 -1.367,4.067 -1.438,3.915 -1.678,3.618 -2.104,3.166 L -2.756,2.472 Z"
             style="fill:#930f15;fill-opacity:1;fill-rule:nonzero;stroke:none"
             id="path78" />
        </g>
        <g
           id="g80"
           transform="translate(460.9316,422.7134)">
          <path
             d="M 0,0 0.607,1.104 C 1.008,0.931 1.355,0.894 1.654,0.976 1.947,1.055 2.204,1.259 2.427,1.586 2.659,1.917 2.767,2.226 2.731,2.498 2.705,2.767 2.589,2.972 2.395,3.098 2.264,3.184 2.131,3.213 1.984,3.206 1.846,3.189 1.682,3.108 1.488,2.979 1.361,2.879 1.086,2.652 0.674,2.285 0.143,1.809 -0.316,1.527 -0.683,1.43 -1.2,1.309 -1.669,1.383 -2.1,1.656 -2.371,1.838 -2.577,2.078 -2.718,2.384 -2.841,2.691 -2.885,3.028 -2.813,3.4 c 0.076,0.362 0.247,0.75 0.52,1.161 0.452,0.656 0.938,1.054 1.468,1.193 0.527,0.142 1.038,0.061 1.551,-0.239 L 0.036,4.412 C -0.271,4.549 -0.535,4.579 -0.76,4.52 -0.989,4.443 -1.2,4.255 -1.395,3.964 -1.608,3.656 -1.716,3.368 -1.702,3.108 -1.689,2.949 -1.621,2.823 -1.48,2.726 -1.355,2.645 -1.209,2.625 -1.047,2.68 -0.838,2.726 -0.496,2.979 -0.013,3.414 0.465,3.845 0.859,4.147 1.159,4.308 1.462,4.466 1.776,4.535 2.107,4.522 2.435,4.508 2.769,4.391 3.115,4.177 3.422,3.968 3.655,3.689 3.814,3.351 3.972,3.004 4.008,2.638 3.933,2.249 3.854,1.857 3.655,1.43 3.345,0.967 2.888,0.305 2.381,-0.105 1.82,-0.251 1.263,-0.414 0.655,-0.326 0,0"
             style="fill:#930f15;fill-opacity:1;fill-rule:nonzero;stroke:none"
             id="path82" />
        </g>
        <g
           id="g84"
           transform="translate(466.4463,427.5723)">
          <path
             d="M 0,0 -5.862,2.736 -5.296,3.89 0.563,1.159 Z"
             style="fill:#930f15;fill-opacity:1;fill-rule:nonzero;stroke:none"
             id="path86" />
        </g>
        <g
           id="g88"
           transform="translate(468.2959,431.8516)">
          <path
             d="M 0,0 -5.09,1.74 -5.725,-0.04 -6.764,0.319 -5.065,5.06 -4.03,4.707 -4.656,2.953 0.438,1.213 Z"
             style="fill:#930f15;fill-opacity:1;fill-rule:nonzero;stroke:none"
             id="path90" />
        </g>
        <g
           id="g92"
           transform="translate(470.1621,438.2388)">
          <path
             d="m 0,0 -2.688,0.492 -4.128,-1.618 0.279,1.47 2.808,1.012 -2.254,1.902 0.275,1.45 3.271,-2.955 2.677,-0.49 z"
             style="fill:#930f15;fill-opacity:1;fill-rule:nonzero;stroke:none"
             id="path94" />
        </g>
        <g
           id="g96"
           transform="translate(426.832,415.4941)">
          <path
             d="m 0,0 c -12.198,0 -22.85,6.539 -28.534,16.27 h 57.08 C 22.853,6.539 12.206,0 0,0 m 0,64.947 c 18.18,0 32.925,-14.545 32.925,-32.479 0,-5.248 -1.263,-10.2 -3.499,-14.59 H -29.395 V 17.85 c -2.252,4.402 -3.529,9.358 -3.529,14.618 0,17.934 14.741,32.479 32.924,32.479 m 0,1.355 c -18.936,0 -34.298,-15.147 -34.298,-33.834 0,-18.689 15.362,-33.833 34.298,-33.833 18.942,0 34.298,15.144 34.298,33.833 0,18.687 -15.356,33.834 -34.298,33.834"
             style="fill:#930f15;fill-opacity:1;fill-rule:nonzero;stroke:none"
             id="path98" />
        </g>
        <g
           id="g100"
           transform="translate(428.5059,454.856)">
          <path
             d="M 0,0 -0.713,5.006 -2.567,5.067 -3.279,0 -8.554,0.278 -1.567,14.646 6.558,-3.025 0.356,-3.169 2.78,-0.073 Z m -12.685,0.35 -4.915,0.214 2.775,5.489 3.208,-3.238 z M 11.613,6.204 15.89,-2.678 10.9,-2.956 8.266,2.815 Z m 15.395,-20.149 c -4.632,-3.585 -8.332,0.568 -8.332,0.568 -6.135,-5.709 -11.047,-0.284 -11.047,-0.284 -3.852,-2.751 -5.561,-2.183 -5.561,-2.183 l -1.286,9.298 7.558,0.07 1.352,-3.032 h 4.348 l -1.359,2.962 h 5.131 l 1.29,-3.028 4.415,0.205 -1.206,2.752 h 3.775 l 0.07,4.221 L 20.101,-2.534 12.541,12.47 6.63,6.27 -1.567,22.819 -9.904,6.27 l -5.842,6.2 -5.988,-11.978 -7.629,0.216 -0.065,-4.37 5.555,0.214 -2.424,-5.213 h 4.203 l 2.494,5.213 5.131,0.135 -2.35,-5.348 h 4.273 l 2.429,5.348 6.481,-0.072 -2.209,-3.026 1.788,-0.065 -1.148,-9.295 c -2.134,-0.503 -5.413,2.183 -5.413,2.183 -6.131,-5.498 -11.401,0.211 -11.401,0.211 -3.848,-4.229 -8.338,-0.632 -8.338,-0.632 l -1.07,-2.542 c 4.99,-3.171 9.475,-0.208 9.475,-0.208 6.344,-4.014 11.334,-0.277 11.334,-0.277 6.268,-3.95 8.907,-0.149 8.907,-0.149 4.133,-3.659 9.196,0.217 9.196,0.217 5.056,-3.951 11.042,0.135 11.042,0.135 5.063,-3.025 9.627,0.212 9.627,0.212 z"
             style="fill:#930f15;fill-opacity:1;fill-rule:nonzero;stroke:none"
             id="path102" />
        </g>
        <g
           id="g104"
           transform="translate(388.5684,463.8462)">
          <path
             d="m 0,0 c 0,0 0.221,-0.198 0.388,0.028 0,0 0.114,0.861 -0.277,1.293 0,0 -1.091,1.513 -1.309,2.311 0,0 -0.278,0.364 -1.698,0.364 0,0 -0.196,-0.331 -0.06,-0.448 0.146,-0.103 0.642,0.06 1.171,-0.905 L -0.422,0.851 C -0.422,0.851 0.025,0.355 0,0"
             style="fill:#930f15;fill-opacity:1;fill-rule:nonzero;stroke:none"
             id="path106" />
        </g>
        <g
           id="g108"
           transform="translate(393.0278,466.3257)">
          <path
             d="m 0,0 -1.566,0.137 c 0,0 -0.554,-0.189 -0.105,-0.494 0,0 0.829,-1.629 0.525,-2.562 0,0 0.279,-0.473 0.447,0.194 0,0 0.443,1.763 0.834,2.034 0,0 0.305,0.545 -0.135,0.691"
             style="fill:#930f15;fill-opacity:1;fill-rule:nonzero;stroke:none"
             id="path110" />
        </g>
        <g
           id="g112"
           transform="translate(390.1597,464.0967)">
          <path
             d="m 0,0 c 0,0 -0.143,0.464 -0.399,0.056 0,0 0.145,-1.574 -0.244,-2.1 0,0 -0.03,-1.513 -0.199,-1.923 0,0 -0.247,-0.966 -0.194,-1.186 h -0.168 c 0,0 -0.836,2.232 -1.919,1.794 0,0 -0.077,-0.221 0.167,-0.414 0,0 1.177,-2.174 1.004,-2.781 0,0 0.776,-0.196 1.475,-0.165 0,0 0.809,1.952 0.916,2.67 0,0 0.082,1.324 -0.028,1.763 0,0 -0.165,1.619 -0.411,2.286"
             style="fill:#930f15;fill-opacity:1;fill-rule:nonzero;stroke:none"
             id="path114" />
        </g>
        <g
           id="g116"
           transform="translate(470.0908,462.6304)">
          <path
             d="m 0,0 c 0,0 0.153,0.051 0.294,-0.107 l 0.391,-0.365 c 0,0 -1.084,0.073 -0.685,0.472 m -9.034,-1.888 c -1.458,-0.022 -0.935,2.144 -0.935,2.144 0,1.098 1.088,-0.363 1.088,-0.363 l 0.819,-1.099 c 0.635,-0.971 -0.972,-0.682 -0.972,-0.682 M 1.588,-0.472 1.295,-0.34 0.499,0.336 c 0,0 -0.608,-0.131 -0.499,0.756 0,0 -0.055,0.287 -0.554,0.235 L -2.06,2.451 c 0,0 -0.475,0.362 0.363,0.65 0,0 0.642,0.258 -0.313,0.311 0,0 -1.053,-0.127 -1.187,-0.385 0,0 -0.11,-0.861 0.631,-0.813 0,0 1.402,-0.965 1.641,-1.122 0,0 -0.264,-0.756 -0.083,-1.015 0,0 -0.077,-0.312 -0.79,0.179 0,0 -3.405,1.465 -3.536,2.011 0,0 -0.722,0.132 -1.061,-0.153 0,0 -0.054,-0.684 0.131,-0.814 l 1.032,-0.678 c 0,0 -0.422,-0.211 -1.32,0.081 0,0 -0.875,-0.14 -0.291,-0.863 0,0 0.448,-0.89 -0.189,-1.261 0,0 0.027,1.707 -2.568,3.844 0,0 -0.815,-0.024 -1.21,-3.681 0,0 -0.164,-1.467 1.507,-1.357 l 1.296,0.212 c 0,0 0.131,0.203 0.295,-0.134 l -0.06,-0.889 c 0,0 -0.421,-0.314 0.075,-0.462 0,0 0.483,-0.817 0.801,0.308 l -0.059,1.593 c 0,0 1.008,-0.162 0.85,1.647 l 2.221,-0.132 c 0,0 0.636,0.49 -0.45,1.275 0,0 1.212,-0.598 1.559,-1.013 0,0 0.054,-0.212 0.663,-0.189 0,0 0.13,-0.308 1.209,-0.515 0,0 0.081,-0.55 2.491,-0.679 0,0 0.313,0.749 0,1.121"
             style="fill:#930f15;fill-opacity:1;fill-rule:nonzero;stroke:none"
             id="path118" />
        </g>
        <g
           id="g120"
           transform="translate(409.2876,482.5527)">
          <path
             d="m 0,0 -0.396,-0.631 -0.345,1.88 c -0.106,0.603 0.345,1.126 0.345,1.126 0.234,-0.5 0.344,-1.523 0.344,-1.523 C 0.021,0.338 0,0 0,0 m 1.403,-0.452 c 0,0 -0.455,0.452 0.026,2.202 l -0.348,0.441 -0.025,0.34 -0.37,0.08 c 0,0 -0.262,0.498 -0.797,0.235 0,0 -0.341,-0.081 0.111,0.547 L 0.899,4.798 0.792,6.575 c 0,0 0.057,0.344 -0.554,0.266 0,0 0.134,-0.345 -0.132,-0.678 -0.268,-0.337 -0.558,-1.023 -0.662,-1.41 0,0 -0.185,1.643 -0.291,1.975 l -0.391,0.556 c 0,0 -0.554,0.308 -0.138,-0.633 V 3.073 L -2.051,2.139 c 0,0 -0.97,-0.25 -0.241,-0.719 l 1.054,-0.223 0.081,-2.309 -0.009,-0.647 0.852,-0.13 0.73,1.084 c 0,0 0.124,0.072 0.196,-0.163 l 0.131,-0.985 c 0,0 -0.319,-1.026 -0.58,-1.131 0,0 -0.109,-0.055 -0.401,-0.341 0,0 -0.799,-1.046 0.425,-1.046 0,0 0.468,-0.185 0.528,0.522 l 0.077,0.918 1.826,-0.342 c 0,0 0.103,0.495 -0.296,1.099 z"
             style="fill:#930f15;fill-opacity:1;fill-rule:nonzero;stroke:none"
             id="path122" />
        </g>
        <g
           id="g124"
           transform="translate(412.4629,482.1665)">
          <path
             d="m 0,0 -1.04,-0.194 c 0,0 -0.672,-0.364 0.049,-0.428 0,0 0.699,-0.225 1.054,-0.533 0,0 0.482,-0.635 0.697,0.15 v 0.543 C 0.76,-0.462 0.722,0.041 0,0"
             style="fill:#930f15;fill-opacity:1;fill-rule:nonzero;stroke:none"
             id="path126" />
        </g>
        <g
           id="g128"
           transform="translate(416.8047,426.439)">
          <path
             d="M 0,0 -0.75,-0.599 -1.271,0.129 0.362,1.406 0.935,1.104 V -5.309 H 0 Z"
             style="fill:#930f15;fill-opacity:1;fill-rule:nonzero;stroke:none"
             id="path130" />
        </g>
        <g
           id="g132"
           transform="translate(436.3125,426.439)">
          <path
             d="M 0,0 -0.758,-0.599 -1.277,0.129 0.367,1.406 0.936,1.104 V -5.309 H 0 Z"
             style="fill:#930f15;fill-opacity:1;fill-rule:nonzero;stroke:none"
             id="path134" />
        </g>
        <g
           id="g136"
           transform="translate(424.3662,423.4585)">
          <path
             d="M 0,0 C 0,-0.161 -0.017,-0.318 -0.048,-0.479 -0.086,-0.647 -0.132,-0.787 -0.19,-0.915 -0.254,-1.036 -0.349,-1.139 -0.474,-1.23 -0.595,-1.319 -0.746,-1.381 -0.922,-1.412 -1.101,-1.44 -1.24,-1.443 -1.356,-1.44 c -0.215,0.01 -0.401,0.053 -0.538,0.151 -0.148,0.098 -0.231,0.193 -0.268,0.31 -0.035,0.1 -0.061,0.212 -0.074,0.322 l -0.943,-0.015 0.097,-0.39 c 0.019,-0.146 0.089,-0.325 0.203,-0.511 0.113,-0.19 0.246,-0.343 0.401,-0.45 0.151,-0.116 0.346,-0.195 0.571,-0.256 0.229,-0.066 0.479,-0.089 0.76,-0.081 0.235,0 0.459,0.033 0.685,0.097 0.225,0.066 0.404,0.144 0.551,0.252 0.135,0.108 0.26,0.233 0.363,0.366 0.109,0.15 0.195,0.322 0.254,0.511 0.071,0.182 0.118,0.379 0.137,0.583 0.019,0.2 0.024,0.469 0.024,0.805 v 1.88 C 0.867,2.468 0.838,2.767 0.766,3.017 0.702,3.249 0.596,3.476 0.441,3.674 0.297,3.873 0.084,4.046 -0.2,4.199 -0.48,4.345 -0.816,4.43 -1.193,4.414 -1.416,4.398 -1.647,4.359 -1.886,4.275 -2.138,4.199 -2.343,4.084 -2.513,3.949 -2.682,3.802 -2.814,3.63 -2.904,3.436 -2.993,3.24 -3.057,3.046 -3.082,2.858 -3.12,2.67 -3.139,2.468 -3.139,2.256 c 0,-0.427 0.036,-0.748 0.12,-0.967 0.083,-0.219 0.195,-0.393 0.328,-0.538 0.13,-0.149 0.342,-0.272 0.617,-0.393 0.286,-0.117 0.63,-0.172 1.022,-0.148 0.156,0 0.303,0.017 0.448,0.044 0.142,0.028 0.261,0.065 0.35,0.104 0.089,0.039 0.172,0.08 0.254,0.121 z M -0.031,2.42 C -0.017,2.161 -0.028,1.934 -0.082,1.743 -0.122,1.555 -0.2,1.393 -0.313,1.275 -0.42,1.146 -0.661,1.075 -1.027,1.07 -1.158,1.064 -1.315,1.075 -1.478,1.105 c -0.166,0.029 -0.31,0.097 -0.424,0.196 -0.114,0.1 -0.194,0.231 -0.248,0.395 -0.047,0.133 -0.069,0.325 -0.063,0.589 0,0.255 0.026,0.463 0.081,0.611 0.055,0.145 0.131,0.26 0.225,0.353 0.094,0.08 0.205,0.153 0.341,0.199 0.128,0.046 0.296,0.066 0.501,0.066 0.24,-0.009 0.432,-0.057 0.591,-0.15 C -0.321,3.275 -0.2,3.143 -0.125,2.981 -0.086,2.872 -0.058,2.684 -0.031,2.42"
             style="fill:#930f15;fill-opacity:1;fill-rule:nonzero;stroke:none"
             id="path138" />
        </g>
        <g
           id="g140"
           transform="translate(432.6045,425.1426)">
          <path
             d="M 0,0 C -0.016,0.294 -0.061,0.585 -0.12,0.875 -0.177,1.148 -0.282,1.416 -0.417,1.661 -0.562,1.911 -0.735,2.116 -0.93,2.282 -1.136,2.454 -1.349,2.578 -1.577,2.652 -1.802,2.745 -2.022,2.775 -2.229,2.785 -2.52,2.785 -2.801,2.729 -3.063,2.591 -3.327,2.465 -3.533,2.301 -3.698,2.118 -3.855,1.938 -3.992,1.722 -4.103,1.472 -4.217,1.221 -4.298,0.954 -4.356,0.657 -4.414,0.365 -4.446,0.103 -4.455,-0.128 -4.46,-0.305 -4.467,-0.587 -4.46,-0.966 c 0,-0.381 0.025,-0.706 0.08,-0.979 0.055,-0.263 0.13,-0.527 0.234,-0.782 0.109,-0.258 0.25,-0.488 0.427,-0.697 0.186,-0.198 0.403,-0.354 0.669,-0.457 0.267,-0.1 0.54,-0.154 0.821,-0.154 0.287,0 0.546,0.031 0.788,0.119 0.236,0.087 0.426,0.191 0.585,0.314 0.154,0.129 0.284,0.303 0.412,0.527 0.126,0.224 0.222,0.452 0.282,0.69 0.065,0.237 0.115,0.504 0.139,0.796 C 0,-1.295 0.027,-1.077 0.028,-0.93 0.035,-0.606 0.028,-0.291 0,0 m -0.891,-1.015 c -0.011,-0.208 -0.032,-0.46 -0.075,-0.75 -0.049,-0.291 -0.131,-0.537 -0.248,-0.746 -0.123,-0.208 -0.267,-0.376 -0.449,-0.47 -0.186,-0.094 -0.375,-0.143 -0.581,-0.133 -0.243,0 -0.439,0.056 -0.605,0.176 -0.165,0.108 -0.298,0.258 -0.407,0.459 -0.111,0.201 -0.19,0.444 -0.243,0.729 -0.05,0.289 -0.073,0.63 -0.085,1.044 0,0.247 0,0.444 0.017,0.605 0.013,0.169 0.042,0.379 0.099,0.632 0.051,0.251 0.125,0.477 0.236,0.69 0.1,0.195 0.229,0.355 0.404,0.467 0.174,0.116 0.371,0.173 0.603,0.173 0.227,-0.004 0.418,-0.069 0.576,-0.18 0.155,-0.105 0.293,-0.255 0.398,-0.433 0.119,-0.176 0.201,-0.399 0.264,-0.659 0.057,-0.265 0.093,-0.598 0.109,-1.028 0,-0.175 -0.008,-0.369 -0.013,-0.576"
             style="fill:#930f15;fill-opacity:1;fill-rule:nonzero;stroke:none"
             id="path142" />
        </g>
        <g
           id="g144"
           transform="translate(446.4434,485.6812)">
          <path
             d="m 0,0 0.98,-0.065 1.223,0.757 c 0,0 0.266,0.095 -0.024,0.485 0,0 -0.193,-0.22 -0.534,-0.167 C 1.3,1.064 0.707,1.005 0.381,0.93 L 0.373,0.916 -0.41,1.005 C -0.15,1.196 -0.63,2.337 -0.63,2.337 -0.879,2.801 -1.145,2.614 -1.145,2.614 -1.455,2.394 -1.564,1.551 -1.564,1.551 L -1.844,1.126 -3.009,1.083 -4.272,1.267 c 0,0 -0.791,0.838 -0.87,-0.143 l 0.244,-0.79 C -4.89,0.19 -4.852,0.077 -4.794,-0.018 l 0.01,-0.036 0.011,0.01 c 0.232,-0.333 0.72,-0.354 0.891,-0.35 -0.359,-0.059 -1.693,-0.774 -1.693,-0.774 -1.953,-1.336 -4.604,-1.403 -4.604,-1.403 -0.841,-0.23 0.118,-0.466 0.118,-0.466 0.854,-0.193 4.044,0.571 4.044,0.571 4.578,1.249 5.236,2.519 5.236,2.519 C -0.541,0.013 -0.267,0 0,0"
             style="fill:#930f15;fill-opacity:1;fill-rule:nonzero;stroke:none"
             id="path146" />
        </g>
        <g
           id="g148"
           transform="translate(444.4111,481.9307)">
          <path
             d="m 0,0 c 0,0 -0.396,0.802 -0.661,-0.096 0,0 -0.642,-1.955 -1.404,-2.054 0,0 -0.657,-0.305 -0.071,-0.447 0,0 1.442,0.639 2.264,0.661 0,0 0.805,0.675 -0.128,1.936"
             style="fill:#930f15;fill-opacity:1;fill-rule:nonzero;stroke:none"
             id="path150" />
        </g>
        <g
           id="g152"
           transform="translate(452.8086,359.6899)">
          <path
             d="m 0,0 v 1.135 c 3.133,0.769 6.511,3.688 6.511,8.447 0,2.284 -1.171,4.598 -3.522,4.598 -5.657,0 -6.416,-15.182 -14.19,-15.182 -3.217,0 -6.86,3.092 -6.86,9.599 0,3.443 1.298,5.662 1.298,7.033 0,0.963 -0.641,1.399 -1.258,1.399 v 1.007 l 8.029,1.368 v -1.04 c -1.797,-0.87 -6.716,-3.194 -6.716,-9.322 0,-3.63 2.178,-5.463 4.226,-5.463 2.154,0 3.439,0.73 6.688,7.415 2.011,4.176 3.671,7.08 7.44,7.08 4.307,0 6.435,-4.13 6.435,-8.221 0,-2.724 -1.287,-5.171 -1.287,-6.306 0,-1.279 0.852,-1.504 1.287,-1.592 V 0.998 Z"
             style="fill:#930f15;fill-opacity:1;fill-rule:nonzero;stroke:none"
             id="path154" />
        </g>
        <g
           id="g156"
           transform="translate(435.9912,354.8662)">
          <path
             d="m 0,0 c 0.156,-3.811 0.997,-4.001 3.83,-4.001 h 16.405 c 2.804,0 3.174,0.648 3.415,4.001 h 0.71 v -12.627 h -0.71 c -0.241,3.463 -0.736,4.004 -3.415,4.004 h -7.358 v -13.773 h 7.358 c 2.804,0 3.174,0.63 3.415,3.998 h 0.71 v -12.631 h -0.71 c -0.241,3.455 -0.736,3.992 -3.415,3.992 H 3.417 c -2.504,0 -3.226,-0.443 -3.417,-3.992 h -0.711 v 12.631 H 0 c 0.156,-3.82 0.997,-3.998 3.83,-3.998 h 7.396 V -8.623 H 3.417 C 0.913,-8.623 0.191,-9.078 0,-12.627 H -0.711 V 0 Z"
             style="fill:#930f15;fill-opacity:1;fill-rule:nonzero;stroke:none"
             id="path158" />
        </g>
        <g
           id="g160"
           transform="translate(435.9912,290.8389)">
          <path
             d="m 0,0 c 0.109,2.004 0.548,2.631 3.31,4.092 l 21.499,11.319 v 0.913 L 6.222,25.761 C 4.554,26.633 1.802,28.042 0.842,29.095 0.109,29.9 0.052,30.675 0,31.404 H -0.711 V 22.398 H 0 c 0,0.953 0,3.106 1.601,3.106 0.409,0 0.955,-0.134 1.443,-0.375 L 7.477,23.043 V 11.139 L 3.83,9.275 C 3.31,9.012 2.06,8.412 1.446,8.412 0.052,8.412 0,9.911 0,11.585 H -0.711 V 0 Z m 9.031,22.266 10.4,-5.224 -10.4,-5.275 z"
             style="fill:#930f15;fill-opacity:1;fill-rule:nonzero;stroke:none"
             id="path162" />
        </g>
        <g
           id="g164"
           transform="translate(459.6416,257.9893)">
          <path
             d="M 0,0 C -0.276,2.852 -0.431,4.314 -4.854,4.314 H -24.769 V 5.09 l 20.725,19.996 v 0.09 h -14.742 c -3.917,0 -4.755,-0.959 -4.863,-4.276 h -0.712 v 10.678 h 0.712 c 0.189,-3.451 0.787,-4.402 4.863,-4.402 h 16.69 C -0.198,29.035 0,29.756 0,31.578 H 0.71 V 23.805 L -17.507,6.406 V 6.318 h 12.653 c 4.37,0 4.656,1.272 4.854,4.356 H 0.71 L 0.71,0 Z"
             style="fill:#930f15;fill-opacity:1;fill-rule:nonzero;stroke:none"
             id="path166" />
        </g>
        <g
           id="g168"
           transform="translate(435.2803,256.5791)">
          <path
             d="m 0,0 v -12.914 c 0,-13.895 7.424,-17.482 12.466,-17.482 8.48,0 12.607,7.205 12.607,18.117 V 0 H 24.36 C 24.121,-3.506 23.749,-3.992 20.946,-3.992 H 4.13 C 1.499,-3.992 0.867,-3.445 0.711,0 Z m 22.184,-8.646 c 0.762,0 1.488,0 1.488,-2.129 0,-5.725 -1.019,-8.272 -2.67,-10.455 -2.322,-3.131 -5.403,-4.217 -8.581,-4.217 -11.008,0 -11.008,11.185 -11.008,14.088 0,2.177 0.245,2.713 1.542,2.713 z"
             style="fill:#930f15;fill-opacity:1;fill-rule:nonzero;stroke:none"
             id="path170" />
        </g>
        <g
           id="g172"
           transform="translate(434.748,208.1104)">
          <path
             d="m 0,0 c 0,-8.248 4.969,-14.873 13.039,-14.873 8.719,0 13.103,7.41 13.103,14.873 0,7.426 -4.384,14.836 -13.103,14.836 C 4.969,14.836 0,8.209 0,0 m 1.353,0 c 0,5.031 3.391,9.658 11.722,9.658 8.613,0 11.696,-5.043 11.696,-9.658 0,-4.648 -3.083,-9.697 -11.696,-9.697 C 4.744,-9.697 1.353,-5.063 1.353,0"
             style="fill:#930f15;fill-opacity:1;fill-rule:nonzero;stroke:none"
             id="path174" />
        </g>
        <g
           id="g176"
           transform="translate(459.6416,159.5518)">
          <path
             d="m 0,0 c -0.276,2.869 -0.431,4.322 -4.854,4.322 h -19.915 v 0.774 l 20.725,20.006 v 0.082 h -14.742 c -3.917,0 -4.755,-0.952 -4.863,-4.282 h -0.712 V 31.59 h 0.712 c 0.189,-3.451 0.787,-4.402 4.863,-4.402 h 16.69 C -0.198,29.043 0,29.775 0,31.59 H 0.71 V 23.813 L -17.507,6.402 V 6.334 h 12.653 c 4.37,0 4.656,1.271 4.854,4.355 H 0.71 L 0.71,0 Z"
             style="fill:#930f15;fill-opacity:1;fill-rule:nonzero;stroke:none"
             id="path178" />
        </g>
        <g
           id="g180"
           transform="translate(448.0029,126.6553)">
          <path
             d="m 0,0 c -0.156,1.99 -0.214,3.184 -2.921,3.184 h -7.601 c -0.542,0 -2.732,6.05 -2.732,11.043 0,4.494 1.138,9.544 4.061,12.779 2.183,2.4 4.419,3.765 9.405,3.765 6.343,0 12.675,-5.914 12.675,-15.548 0,-4.594 -1.248,-6.668 -1.248,-8.137 0,-0.359 0.196,-1.856 1.248,-2.127 V 3.957 L 4.896,3.586 v 1.043 c 2.699,1.236 6.467,3.6 6.467,9.961 0,4.324 -2.391,10.994 -11.96,10.994 -6.863,0 -11.147,-4.713 -11.147,-11.77 0,-3.089 0.882,-6.216 2.241,-6.216 h 6.136 c 3.153,0 3.187,0.904 3.367,3.996 H 0.674 L 0.674,0 Z"
             style="fill:#930f15;fill-opacity:1;fill-rule:nonzero;stroke:none"
             id="path182" />
        </g>
        <g
           id="g184"
           transform="translate(418.0352,348.2183)">
          <path
             d="m 0,0 c -0.323,3.5 -0.881,4.272 -4.857,4.272 h -9.872 c -3.028,0 -10.167,0 -10.167,11.77 0,11.266 7.388,11.266 9.654,11.266 h 11.827 c 2.804,0 3.214,0.652 3.415,4.092 H 0.71 V 18.537 H 0 c -0.241,3.587 -0.738,4.144 -3.415,4.144 H -15.53 c -2.421,0 -7.699,0 -7.699,-7.909 0,-3.545 1.219,-6.151 2.996,-7.462 0.82,-0.606 2.098,-1.038 5.158,-1.038 H -4.857 C -0.8,6.272 -0.16,7.366 0,10.54 H 0.71 V 0 Z"
             style="fill:#930f15;fill-opacity:1;fill-rule:nonzero;stroke:none"
             id="path186" />
        </g>
        <g
           id="g188"
           transform="translate(418.0352,315.314)">
          <path
             d="m 0,0 c -0.276,2.868 -0.432,4.322 -4.857,4.322 h -19.911 v 0.762 l 20.721,19.998 v 0.102 h -14.739 c -3.917,0 -4.755,-0.965 -4.866,-4.276 h -0.709 v 10.677 h 0.709 c 0.19,-3.452 0.787,-4.402 4.866,-4.402 h 16.69 C -0.201,29.036 0,29.777 0,31.585 h 0.71 v -7.78 L -17.508,6.409 V 6.322 h 12.651 c 4.37,0 4.656,1.269 4.857,4.367 H 0.71 L 0.71,0 Z"
             style="fill:#930f15;fill-opacity:1;fill-rule:nonzero;stroke:none"
             id="path190" />
        </g>
        <g
           id="g192"
           transform="translate(394.3823,313.8247)">
          <path
             d="m 0,0 c 0.106,-3.868 0.744,-4.409 3.42,-4.409 h 16.817 c 2.805,0 3.257,0.636 3.415,4.409 h 0.711 v -13.501 h -0.711 c -0.122,3.315 -0.377,4.449 -3.415,4.449 H 3.42 c -2.958,0 -3.314,-1.093 -3.42,-4.449 h -0.708 l 0,13.501 z"
             style="fill:#930f15;fill-opacity:1;fill-rule:nonzero;stroke:none"
             id="path194" />
        </g>
        <g
           id="g196"
           transform="translate(418.0352,267.8213)">
          <path
             d="m 0,0 c -0.122,2.188 -0.669,2.834 -3.525,4.189 l -21.243,10.094 v 0.69 l 20.777,11.154 c 3.452,1.871 3.91,2.686 3.991,4.833 H 0.71 V 18.865 H 0 c -0.122,2.561 -0.201,3.405 -1.419,3.405 -0.567,0 -2.106,-0.825 -4.035,-1.864 l -12.832,-6.857 13.911,-6.68 c 0.245,-0.082 1.836,-0.861 2.623,-0.861 1.551,0 1.671,1.59 1.752,3.31 H 0.71 L 0.71,0 Z"
             style="fill:#930f15;fill-opacity:1;fill-rule:nonzero;stroke:none"
             id="path198" />
        </g>
        <g
           id="g200"
           transform="translate(393.6738,241.6123)">
          <path
             d="M 0,0 V 24.543 H 0.708 C 0.867,21.615 1.212,20.59 4.129,20.59 h 16.817 c 2.984,0 3.214,1.08 3.414,3.953 h 0.712 V 0.4 L 19.658,0.252 v 1.156 c 3.364,0.68 3.964,1.854 3.964,6.908 v 6.131 c 0,0.957 0,1.508 -1.293,1.508 H 13.947 V 8.947 c 0,-4.035 0.911,-4.48 3.582,-4.998 V 2.902 H 8.752 v 1.047 c 3.02,0.537 3.563,1.221 3.598,4.998 l 0.068,7.008 H 3.033 c -1.537,0 -1.581,0 -1.581,-6.783 0,-5.678 1.132,-7.959 4.959,-9.947 v -1.28 z"
             style="fill:#930f15;fill-opacity:1;fill-rule:nonzero;stroke:none"
             id="path202" />
        </g>
        <g
           id="g204"
           transform="translate(394.3823,208.9756)">
          <path
             d="m 0,0 c 0.106,1.867 0.789,2.945 1.8,3.967 l 9.563,9.346 c 0.395,-2.307 1.303,-8.211 6.376,-8.211 5.834,0 6.624,7.502 6.624,11.539 v 12.531 h -0.711 c -0.275,-3.188 -0.61,-3.861 -3.415,-3.861 H 3.83 C 1,25.311 0.191,25.496 0,29.172 H -0.708 V 16.602 H 0 c 0.158,3.628 0.892,4.07 3.42,4.07 h 7.481 L 10.956,18.133 -0.708,7.316 V 0 Z m 21.616,20.672 c 1.073,0 1.343,-0.401 1.343,-2.803 0,-1.875 -0.106,-7.826 -5.142,-7.826 -5.415,0 -5.502,6.822 -5.521,10.629 z"
             style="fill:#930f15;fill-opacity:1;fill-rule:nonzero;stroke:none"
             id="path206" />
        </g>
        <g
           id="g208"
           transform="translate(411.2021,187.2959)">
          <path
             d="m 0,0 v 1.148 c 3.133,0.764 6.511,3.684 6.511,8.45 0,2.277 -1.171,4.586 -3.522,4.586 -5.661,0 -6.417,-15.172 -14.19,-15.172 -3.22,0 -6.862,3.076 -6.862,9.593 0,3.456 1.299,5.672 1.299,7.038 0,0.947 -0.643,1.408 -1.257,1.408 v 1 l 8.028,1.359 v -1.041 c -1.798,-0.879 -6.716,-3.178 -6.716,-9.316 0,-3.629 2.177,-5.463 4.227,-5.463 2.153,0 3.436,0.734 6.684,7.42 2.013,4.181 3.675,7.092 7.441,7.092 4.309,0 6.438,-4.135 6.438,-8.237 0,-2.726 -1.288,-5.174 -1.288,-6.304 0,-1.276 0.853,-1.508 1.288,-1.61 V 1 Z"
             style="fill:#930f15;fill-opacity:1;fill-rule:nonzero;stroke:none"
             id="path210" />
        </g>
        <g
           id="g212"
           transform="translate(394.3823,182.5322)">
          <path
             d="m 0,0 c 0.106,-3.871 0.744,-4.414 3.42,-4.414 h 16.817 c 2.805,0 3.257,0.65 3.415,4.414 h 0.711 v -13.504 h -0.711 c -0.122,3.326 -0.377,4.453 -3.415,4.453 H 3.42 c -2.958,0 -3.314,-1.072 -3.42,-4.453 h -0.708 l 0,13.504 z"
             style="fill:#930f15;fill-opacity:1;fill-rule:nonzero;stroke:none"
             id="path214" />
        </g>
        <g
           id="g216"
           transform="translate(393.6738,147.6807)">
          <path
             d="M 0,0 V 13.256 H 0.708 C 0.867,9.125 1.749,8.992 4.54,8.992 h 18.94 v 2.459 c 0,4.987 -0.71,6.225 -4.84,7.231 v 1.078 l 6.432,-0.266 V -6.148 l -6.432,-0.26 v 1.076 c 4.163,0.963 4.84,2.232 4.84,7.228 V 4.355 H 4.129 C 1.552,4.355 0.82,3.82 0.708,0 Z"
             style="fill:#930f15;fill-opacity:1;fill-rule:nonzero;stroke:none"
             id="path218" />
        </g>
        <g
           id="g220"
           transform="translate(418.0352,108.4912)">
          <path
             d="m 0,0 c -0.16,1.646 -0.323,3.152 -4.333,6.271 l -8.555,6.737 h -7.345 c -2.719,0 -3.364,-0.592 -3.419,-4.676 h -0.709 v 13.912 h 0.709 c 0.105,-4.467 0.949,-4.609 3.828,-4.609 h 6.603 L -5.959,23.6 C -0.276,28.234 -0.16,28.916 0,30.967 H 0.71 V 18.225 H 0 c -0.081,2.105 -0.122,3.236 -1.158,3.236 -0.435,0 -1.161,-0.354 -1.641,-0.775 l -8.425,-6.715 8.556,-6.516 C -2.238,7.156 -1.782,6.822 -1.255,6.822 -0.081,6.822 0,8.555 0,9.969 H 0.71 V 0 Z"
             style="fill:#930f15;fill-opacity:1;fill-rule:nonzero;stroke:none"
             id="path222" />
        </g>
      </g>
    </g>
  </g>
</svg>
