<?xml version="1.0" encoding="UTF-8" standalone="no"?>
<!-- Created with Inkscape (http://www.inkscape.org/) -->

<svg
   version="1.1"
   id="svg2"
   width="1122.52"
   height="793.70667"
   viewBox="0 0 1122.52 793.70667"
   sodipodi:docname="居中.svg"
   inkscape:version="1.2.2 (b0a8486541, 2022-12-01)"
   xmlns:inkscape="http://www.inkscape.org/namespaces/inkscape"
   xmlns:sodipodi="http://sodipodi.sourceforge.net/DTD/sodipodi-0.dtd"
   xmlns="http://www.w3.org/2000/svg"
   xmlns:svg="http://www.w3.org/2000/svg">
  <defs
     id="defs6">
    <clipPath
       clipPathUnits="userSpaceOnUse"
       id="clipPath18">
      <path
         d="M 0,595.28 H 841.89 V 0 H 0 Z"
         id="path16" />
    </clipPath>
  </defs>
  <sodipodi:namedview
     id="namedview4"
     pagecolor="#ffffff"
     bordercolor="#000000"
     borderopacity="0.25"
     inkscape:showpageshadow="2"
     inkscape:pageopacity="0.0"
     inkscape:pagecheckerboard="0"
     inkscape:deskcolor="#d1d1d1"
     showgrid="false"
     inkscape:zoom="0.29733907"
     inkscape:cx="561.64836"
     inkscape:cy="398.53491"
     inkscape:window-width="2560"
     inkscape:window-height="1284"
     inkscape:window-x="0"
     inkscape:window-y="0"
     inkscape:window-maximized="1"
     inkscape:current-layer="g10">
    <inkscape:page
       x="0"
       y="0"
       id="page8"
       width="1122.52"
       height="793.70667" />
  </sodipodi:namedview>
  <g
     id="g10"
     inkscape:groupmode="layer"
     inkscape:label="Page 1"
     transform="matrix(1.3333333,0,0,-1.3333333,0,793.70667)">
    <g
       id="g12">
      <g
         id="g14"
         clip-path="url(#clipPath18)">
        <g
           id="g20"
           transform="translate(223.5801,144.9268)">
          <path
             d="m 0,0 h -0.854 c -0.58,2.351 -2.778,4.904 -6.368,4.904 -1.72,0 -3.461,-0.884 -3.461,-2.653 0,-4.269 11.443,-4.841 11.443,-10.697 0,-2.424 -2.333,-5.169 -7.239,-5.169 -2.591,0 -4.27,0.974 -5.297,0.974 -0.727,0 -1.058,-0.481 -1.058,-0.948 h -0.76 l -1.028,6.056 h 0.783 c 0.655,-1.355 2.409,-5.061 7.025,-5.061 2.738,0 4.116,1.642 4.116,3.183 0,1.622 -0.55,2.591 -5.588,5.039 -3.144,1.518 -5.335,2.768 -5.335,5.606 0,3.248 3.113,4.848 6.192,4.848 2.054,0 3.903,-0.967 4.757,-0.967 0.965,0 1.133,0.646 1.197,0.967 h 0.723 z"
             style="fill:#930f15;fill-opacity:1;fill-rule:nonzero;stroke:none"
             id="path22" />
        </g>
        <g
           id="g24"
           transform="translate(227.2158,132.251)">
          <path
             d="m 0,0 c 2.872,0.118 3.015,0.75 3.015,2.885 v 12.357 c 0,2.115 -0.486,2.398 -3.015,2.582 v 0.534 H 9.515 V 17.824 C 6.907,17.64 6.5,17.262 6.5,15.242 V 9.698 h 10.376 v 5.544 c 0,2.115 -0.474,2.398 -3.01,2.582 v 0.534 H 23.38 V 17.824 C 20.779,17.64 20.373,17.262 20.373,15.242 V 2.57 C 20.373,0.687 20.708,0.143 23.38,0 V -0.535 H 13.866 V 0 c 2.875,0.118 3.01,0.75 3.01,2.885 v 5.57 H 6.5 V 2.57 C 6.5,0.687 6.839,0.143 9.515,0 V -0.535 H 0 Z"
             style="fill:#930f15;fill-opacity:1;fill-rule:nonzero;stroke:none"
             id="path26" />
        </g>
        <g
           id="g28"
           transform="translate(275.4668,132.251)">
          <path
             d="m 0,0 c -1.511,0.082 -1.985,0.408 -3.088,2.493 l -8.525,16.199 h -0.689 L -19.419,4.686 C -20.072,3.425 -21.133,1.353 -21.928,0.632 -22.532,0.082 -23.117,0.035 -23.668,0 v -0.535 h 6.786 V 0 c -0.719,0 -2.341,0 -2.341,1.206 0,0.311 0.103,0.715 0.282,1.082 l 1.573,3.34 h 8.975 L -6.989,2.885 C -6.792,2.493 -6.342,1.552 -6.342,1.091 -6.342,0.035 -7.473,0 -8.73,0 V -0.535 H 0 Z m -16.783,6.803 3.939,7.838 3.975,-7.838 z"
             style="fill:#930f15;fill-opacity:1;fill-rule:nonzero;stroke:none"
             id="path30" />
        </g>
        <g
           id="g32"
           transform="translate(300.2202,150.0752)">
          <path
             d="M 0,0 C -2.153,-0.211 -3.255,-0.331 -3.255,-3.662 V -18.666 H -3.837 L -18.903,-3.05 h -0.07 v -11.109 c 0,-2.952 0.725,-3.583 3.224,-3.665 v -0.535 h -8.05 v 0.535 c 2.602,0.142 3.317,0.589 3.317,3.665 v 12.58 C -21.882,-0.152 -22.424,0 -23.799,0 v 0.534 h 5.86 l 13.11,-13.727 h 0.068 v 9.531 c 0,3.29 -0.96,3.51 -3.287,3.662 v 0.534 l 8.048,0 z"
             style="fill:#930f15;fill-opacity:1;fill-rule:nonzero;stroke:none"
             id="path34" />
        </g>
        <g
           id="g36"
           transform="translate(301.2817,131.7158)">
          <path
             d="m 0,0 h 9.729 c 10.475,0 13.183,5.591 13.183,9.391 0,6.386 -5.439,9.503 -13.662,9.503 H 0 V 18.359 C 2.642,18.175 3.011,17.893 3.011,15.777 V 3.105 C 3.011,1.124 2.595,0.653 0,0.535 Z m 6.511,16.717 c 0,0.572 0,1.116 1.607,1.116 4.314,0 6.235,-0.767 7.876,-2.01 2.363,-1.751 3.18,-4.072 3.18,-6.469 C 19.174,1.06 10.747,1.06 8.559,1.06 6.917,1.06 6.511,1.248 6.511,2.221 Z"
             style="fill:#930f15;fill-opacity:1;fill-rule:nonzero;stroke:none"
             id="path38" />
        </g>
        <g
           id="g40"
           transform="translate(337.814,131.3115)">
          <path
             d="m 0,0 c 6.21,0 11.203,3.741 11.203,9.829 0,6.564 -5.585,9.868 -11.203,9.868 -5.61,0 -11.188,-3.304 -11.188,-9.868 C -11.188,3.741 -6.195,0 0,0 m 0,1.021 c -3.795,0 -7.285,2.554 -7.285,8.831 0,6.494 3.798,8.818 7.285,8.818 3.497,0 7.3,-2.324 7.3,-8.818 C 7.3,3.575 3.805,1.021 0,1.021"
             style="fill:#930f15;fill-opacity:1;fill-rule:nonzero;stroke:none"
             id="path42" />
        </g>
        <g
           id="g44"
           transform="translate(374.4028,150.0752)">
          <path
             d="M 0,0 C -2.166,-0.211 -3.263,-0.331 -3.263,-3.662 V -18.666 H -3.845 L -18.917,-3.05 h -0.065 v -11.109 c 0,-2.952 0.719,-3.583 3.223,-3.665 v -0.535 h -8.048 v 0.535 c 2.599,0.142 3.316,0.589 3.316,3.665 v 12.58 C -21.888,-0.152 -22.441,0 -23.807,0 v 0.534 h 5.858 l 13.116,-13.727 h 0.061 v 9.531 c 0,3.29 -0.962,3.51 -3.286,3.662 v 0.534 l 8.058,0 z"
             style="fill:#930f15;fill-opacity:1;fill-rule:nonzero;stroke:none"
             id="path46" />
        </g>
        <g
           id="g48"
           transform="translate(399.1885,141.3008)">
          <path
             d="m 0,0 c -1.501,-0.117 -2.397,-0.16 -2.397,-2.202 v -5.731 c 0,-0.404 -4.564,-2.056 -8.324,-2.056 -3.387,0 -7.19,0.86 -9.625,3.059 -1.815,1.647 -2.844,3.331 -2.844,7.089 0,4.777 4.457,9.549 11.718,9.549 3.463,0 5.025,-0.934 6.132,-0.934 0.267,0 1.396,0.138 1.605,0.934 h 0.756 L -2.7,3.687 h -0.791 c -0.929,2.038 -2.711,4.876 -7.501,4.876 -3.259,0 -8.287,-1.8 -8.287,-9.017 0,-5.171 3.556,-8.397 8.867,-8.397 2.331,0 4.687,0.664 4.687,1.69 v 4.622 c 0,2.379 -0.683,2.401 -3.012,2.539 V 0.51 L 0,0.51 Z"
             style="fill:#930f15;fill-opacity:1;fill-rule:nonzero;stroke:none"
             id="path50" />
        </g>
        <g
           id="g52"
           transform="translate(432.332,150.0752)">
          <path
             d="m 0,0 c -2.633,-0.244 -3.219,-0.666 -3.219,-3.662 v -7.442 c 0,-2.284 0,-7.66 -8.867,-7.66 -8.494,0 -8.494,5.571 -8.494,7.272 v 8.91 c 0,2.115 -0.483,2.43 -3.08,2.582 v 0.534 h 9.691 V 0 c -2.701,-0.185 -3.123,-0.563 -3.123,-2.582 v -9.129 c 0,-1.819 0,-5.798 5.966,-5.798 2.669,0 4.63,0.919 5.616,2.255 0.455,0.623 0.791,1.584 0.791,3.892 v 7.7 c 0,3.057 -0.829,3.542 -3.224,3.662 v 0.534 l 7.943,0 z"
             style="fill:#930f15;fill-opacity:1;fill-rule:nonzero;stroke:none"
             id="path54" />
        </g>
        <g
           id="g56"
           transform="translate(457.125,150.0752)">
          <path
             d="M 0,0 C -2.154,-0.211 -3.252,-0.331 -3.252,-3.662 V -18.666 H -3.828 L -18.899,-3.05 h -0.07 v -11.109 c 0,-2.952 0.719,-3.583 3.218,-3.665 v -0.535 h -8.045 v 0.535 c 2.599,0.142 3.317,0.589 3.317,3.665 v 12.58 C -21.881,-0.152 -22.434,0 -23.796,0 v 0.534 h 5.862 l 13.108,-13.727 h 0.065 v 9.531 c 0,3.29 -0.956,3.51 -3.286,3.662 v 0.534 l 8.047,0 z"
             style="fill:#930f15;fill-opacity:1;fill-rule:nonzero;stroke:none"
             id="path58" />
        </g>
        <g
           id="g60"
           transform="translate(458.252,132.251)">
          <path
             d="m 0,0 c 2.918,0.077 3.326,0.553 3.326,2.57 v 12.672 c 0,2.115 -0.476,2.462 -3.326,2.582 v 0.534 H 10.178 V 17.824 C 7.674,17.73 6.822,17.533 6.822,15.242 V 2.57 C 6.822,0.35 7.645,0.077 10.178,0 V -0.535 H 0 Z"
             style="fill:#930f15;fill-opacity:1;fill-rule:nonzero;stroke:none"
             id="path62" />
        </g>
        <g
           id="g64"
           transform="translate(492.9141,150.0752)">
          <path
             d="m 0,0 c -1.646,-0.094 -2.134,-0.506 -3.15,-2.659 l -7.605,-16.007 h -0.517 l -8.413,15.651 c -1.409,2.607 -2.026,2.953 -3.638,3.015 v 0.534 h 9.109 V 0 c -1.925,-0.094 -2.56,-0.152 -2.56,-1.07 0,-0.433 0.615,-1.589 1.397,-3.043 l 5.17,-9.669 5.034,10.479 c 0.064,0.185 0.652,1.386 0.652,1.977 0,1.174 -1.202,1.264 -2.499,1.326 V 0.534 H 0 Z"
             style="fill:#930f15;fill-opacity:1;fill-rule:nonzero;stroke:none"
             id="path66" />
        </g>
        <g
           id="g68"
           transform="translate(512.6699,131.7158)">
          <path
             d="m 0,0 h -18.491 v 0.535 c 2.196,0.118 2.975,0.376 2.975,2.57 v 12.672 c 0,2.251 -0.817,2.43 -2.975,2.582 v 0.535 h 18.184 l 0.111,-4.081 H -1.06 c -0.511,2.534 -1.4,2.984 -5.207,2.984 h -4.622 c -0.718,0 -1.134,0 -1.134,-0.975 v -6.315 h 5.276 c 3.049,0 3.386,0.686 3.771,2.704 h 0.788 V 6.595 h -0.788 c -0.406,2.272 -0.927,2.679 -3.771,2.709 l -5.276,0.05 V 2.283 c 0,-1.159 0,-1.195 5.107,-1.195 4.283,0 5.995,0.858 7.499,3.741 h 0.962 z"
             style="fill:#930f15;fill-opacity:1;fill-rule:nonzero;stroke:none"
             id="path70" />
        </g>
        <g
           id="g72"
           transform="translate(537.2617,132.251)">
          <path
             d="m 0,0 c -1.405,0.077 -2.223,0.589 -2.984,1.353 l -7.052,7.208 c 1.745,0.294 6.193,0.978 6.193,4.801 0,4.401 -5.653,4.996 -8.696,4.996 h -9.442 v -0.534 c 2.4,-0.211 2.909,-0.467 2.909,-2.582 V 2.885 c 0,-2.135 -0.14,-2.742 -2.909,-2.885 v -0.535 h 9.476 V 0 c -2.736,0.118 -3.075,0.666 -3.075,2.57 v 5.64 l 1.914,0.043 8.152,-8.788 H 0 Z m -15.58,16.281 c 0,0.815 0.307,1.017 2.117,1.017 1.411,0 5.895,-0.079 5.895,-3.873 0,-4.08 -5.136,-4.152 -8.012,-4.161 z"
             style="fill:#930f15;fill-opacity:1;fill-rule:nonzero;stroke:none"
             id="path74" />
        </g>
        <g
           id="g76"
           transform="translate(553.5996,144.9268)">
          <path
             d="m 0,0 h -0.861 c -0.573,2.351 -2.782,4.904 -6.374,4.904 -1.711,0 -3.453,-0.884 -3.453,-2.653 0,-4.269 11.435,-4.841 11.435,-10.697 0,-2.424 -2.32,-5.169 -7.229,-5.169 -2.603,0 -4.275,0.974 -5.307,0.974 -0.712,0 -1.062,-0.481 -1.062,-0.948 H -13.6 l -1.025,6.056 h 0.786 c 0.651,-1.355 2.394,-5.061 7.02,-5.061 2.734,0 4.115,1.642 4.115,3.183 0,1.622 -0.555,2.591 -5.591,5.039 -3.15,1.518 -5.347,2.768 -5.347,5.606 0,3.248 3.121,4.848 6.205,4.848 2.059,0 3.9,-0.967 4.753,-0.967 0.964,0 1.133,0.646 1.212,0.967 h 0.716 z"
             style="fill:#930f15;fill-opacity:1;fill-rule:nonzero;stroke:none"
             id="path78" />
        </g>
        <g
           id="g80"
           transform="translate(557.1846,132.251)">
          <path
             d="m 0,0 c 2.923,0.077 3.331,0.553 3.331,2.57 v 12.672 c 0,2.115 -0.491,2.462 -3.331,2.582 v 0.534 H 10.179 V 17.824 C 7.673,17.73 6.822,17.533 6.822,15.242 V 2.57 C 6.822,0.35 7.637,0.077 10.179,0 V -0.535 H 0 Z"
             style="fill:#930f15;fill-opacity:1;fill-rule:nonzero;stroke:none"
             id="path82" />
        </g>
        <g
           id="g84"
           transform="translate(583.4551,131.7158)">
          <path
             d="m 0,0 h -9.996 v 0.535 c 3.118,0.118 3.222,0.78 3.222,2.885 v 14.273 h -1.854 c -3.76,0 -4.691,-0.542 -5.45,-3.652 h -0.815 l 0.2,4.853 H 4.63 L 4.827,14.041 H 4.013 C 3.29,17.18 2.334,17.693 -1.436,17.693 H -3.285 V 3.105 c 0,-1.938 0.408,-2.488 3.285,-2.57 z"
             style="fill:#930f15;fill-opacity:1;fill-rule:nonzero;stroke:none"
             id="path86" />
        </g>
        <g
           id="g88"
           transform="translate(612.9766,150.0752)">
          <path
             d="m 0,0 c -1.234,-0.12 -2.367,-0.244 -4.723,-3.269 l -5.076,-6.445 v -5.54 c 0,-2.046 0.445,-2.535 3.531,-2.57 v -0.535 h -10.483 v 0.535 c 3.361,0.077 3.468,0.713 3.468,2.885 v 4.967 l -4.491,5.477 C -21.27,-0.211 -21.781,-0.12 -23.326,0 v 0.534 h 9.597 V 0 c -1.583,-0.062 -2.433,-0.094 -2.433,-0.881 0,-0.327 0.266,-0.873 0.576,-1.236 l 5.066,-6.344 4.909,6.449 c 0.225,0.323 0.474,0.663 0.474,1.062 0,0.888 -1.301,0.95 -2.369,0.95 v 0.534 l 7.506,0 z"
             style="fill:#930f15;fill-opacity:1;fill-rule:nonzero;stroke:none"
             id="path90" />
        </g>
        <g
           id="g92"
           transform="translate(245.7153,234.9297)">
          <path
             d="m 0,0 c 0,0 0.258,-2.767 2.831,-2.313 0,0 6.293,5.149 6.5,10.676 0,0 2.459,17.379 6.119,24.267 0,0 0.441,4.235 -9.199,13.36 0,0 -3.473,-1.031 -3.248,-2.657 0.251,-1.657 4.735,-3.735 2.06,-13.77 L 2.688,8.553 C 2.688,8.553 2.505,2.286 0,0"
             style="fill:#930f15;fill-opacity:1;fill-rule:nonzero;stroke:none"
             id="path94" />
        </g>
        <g
           id="g96"
           transform="translate(292.0449,223.3623)">
          <path
             d="m 0,0 -9.699,10.952 c 0,0 -5.019,2.247 -3.96,-2.683 0,0 -4.887,-16.515 -13.024,-20.993 0,0 -1.142,-4.992 4.268,-1.52 0,0 14.462,9.232 18.896,8.602 0,0 5.659,1.84 3.519,5.642"
             style="fill:#930f15;fill-opacity:1;fill-rule:nonzero;stroke:none"
             id="path98" />
        </g>
        <g
           id="g100"
           transform="translate(258.1133,226.4443)">
          <path
             d="m 0,0 c 0,0 2.085,4.112 -2.291,2.883 0,0 -9.237,-11.661 -15.286,-12.766 0,0 -10.022,-10.208 -13.827,-11.972 0,0 -7.944,-5.004 -9.011,-6.87 l -1.129,1.074 c 0,0 8.781,20.664 -1.43,24.614 0,0 -2.004,-1.001 -1.547,-3.918 0,0 -6.178,-22.438 -11.251,-25.529 0,0 4.059,-6.32 8.953,-10.595 0,0 18.172,8.244 23.57,12.432 0,0 9.131,8.556 11.247,12.288 0,0 9.413,12.22 12.002,18.359"
             style="fill:#930f15;fill-opacity:1;fill-rule:nonzero;stroke:none"
             id="path102" />
        </g>
        <g
           id="g104"
           transform="translate(596.6348,290.8975)">
          <path
             d="M 0,0 C 0,0 0.012,1.875 2.18,2.767 L 7.578,5.672 C 7.578,5.672 2.842,-5.679 0,0 m -11.735,-103.755 c -4.887,-15.683 -26.541,-2.172 -26.541,-2.172 -11.894,3.941 7.828,10.264 7.828,10.264 l 14.81,4.84 c 12.77,3.345 3.903,-12.932 3.903,-12.932 M 10.77,15.308 8.305,12.684 -1.878,6.587 c 0,0 -0.755,-6.975 -10.008,-2.639 0,0 -3.329,0.437 -4.535,-5.085 l -17.561,-12.137 c 0,0 -5.664,-3.79 -5.755,6.315 0,0 -0.593,7.772 -4.562,-2.258 0,0 -2.337,-11.818 0.047,-14.163 0,0 8.952,-4.253 11.045,3.865 0,0 15.475,11.559 18.015,13.524 0,0 7.289,-5.544 10.795,-4.513 0,0 3.095,-1.991 -4.816,-7.821 0,0 -28.016,-31.321 -34.431,-30.772 0,0 -3.972,-7.17 -2.066,-11.889 0,0 7.208,-2.993 9.267,-1.521 l 11.046,8.63 c 0,0 0.747,-5.269 -5.582,-13.91 0,0 -1.667,-9.813 8.344,-6.199 0,0 11.258,1.618 12.947,-6.531 0,0 -18.344,6.395 -50.809,-13.671 0,0 -2.629,-8.875 35.643,-26.312 0,0 15.321,-6.951 20.129,11.257 l 2.313,14.679 c 0,0 -1.79,2.16 2.473,2.634 l 9.441,-3.775 c 0,0 1.906,-5.642 5.394,-0.835 0,0 10.489,2.209 -0.571,9.661 l -17.502,5.166 c 0,0 5.28,10.189 -14.829,15.025 l 9.311,23.338 c 0,0 -3.138,8.566 -15.498,-0.233 0,0 10.843,10.873 16.572,13.049 0,0 2.487,-0.162 4.36,6.428 0,0 3.878,0.275 9.994,11.156 0,0 6.246,-1.096 16.228,24.222 0,0 -7.078,6.155 -12.191,4.036"
             style="fill:#930f15;fill-opacity:1;fill-rule:nonzero;stroke:none"
             id="path106" />
        </g>
        <g
           id="g108"
           transform="translate(354.1587,220.4189)">
          <path
             d="m 0,0 -7.228,-4.407 6.242,20.982 C 1.05,23.264 8.301,26.321 8.301,26.321 8.133,20.028 3.933,9.04 3.933,9.04 2.057,3.335 0,0 0,0 m 11.856,-11.705 c 0,0 -2.206,6.823 11.626,22.273 l -1.176,6.297 1.485,3.618 -3.33,2.684 c 0,0 -0.099,6.453 -6.787,6.453 0,0 -3.873,0.964 3.889,5.102 l 16.397,9.816 8.098,18.689 c 0,0 2.297,3.221 -4.233,5.502 0,0 -0.444,-4.129 -4.874,-6.259 -4.407,-2.121 -10.85,-7.58 -13.986,-11.043 0,0 6.659,17.748 7.347,21.765 l -1.103,7.631 c 0,0 -4.055,5.946 -4.665,-5.745 L 2.016,38.471 -9.579,32.304 c 0,0 -11.15,2.482 -6.228,-6.019 l 9.569,-7.659 -11.137,-24.066 -3.449,-6.616 7.979,-5.682 12.935,7.456 c 0,0 1.672,-0.01 1.122,-2.729 l -3.79,-10.777 c 0,0 -8.534,-8.83 -11.746,-8.538 0,0 -1.335,0 -5.751,-1.444 0,0 -13.424,-6.637 -1.156,-12.87 0,0 3.86,-4.283 8.053,2.642 l 5.542,8.968 16.65,-12.795 c 0,0 3.632,4.525 2.75,12.683 z"
             style="fill:#930f15;fill-opacity:1;fill-rule:nonzero;stroke:none"
             id="path110" />
        </g>
        <g
           id="g112"
           transform="translate(384.2588,200.2285)">
          <path
             d="m 0,0 -11.426,3.313 c 0,0 -8.777,-0.264 -1.788,-4.525 0,0 5.882,-5.948 7.841,-10.907 0,0 1.645,-8.999 7.884,-1.993 l 2.794,5.51 c 0,0 2.206,5.307 -5.305,8.602"
             style="fill:#930f15;fill-opacity:1;fill-rule:nonzero;stroke:none"
             id="path114" />
        </g>
        <g
           id="g116"
           transform="translate(490.5605,263.7236)">
          <path
             d="m 0,0 8.322,4.981 5.655,13.051 c 0,0 1.603,2.249 -2.955,3.843 0,0 -0.31,-2.885 -3.404,-4.372 C 4.539,16.022 0.04,12.21 -2.148,9.792 L -2.162,9.63 -9.016,5.968 c 1.028,3.027 -9.343,9.706 -9.343,9.706 -4.65,2.417 -5.709,-0.581 -5.709,-0.581 -1.291,-3.557 2.576,-11.084 2.576,-11.084 l 0.15,-5.067 -9.202,-6.872 -11.31,-5.58 c 0,0 -11.15,2.483 -6.229,-6.015 l 6.435,-5.152 c 0.889,-1.121 1.859,-1.851 2.856,-2.286 l 0.278,-0.222 0.047,0.109 c 3.778,-1.407 7.834,1.15 9.21,2.139 -2.571,-2.513 -9.343,-15.846 -9.343,-15.846 -8.281,-21.886 -29.425,-37.276 -29.425,-37.276 -5.525,-6.609 3.607,-3.18 3.607,-3.18 7.998,3.205 29.572,27.345 29.572,27.345 C -4.763,-18.047 -6.65,-3.925 -6.65,-3.925 -4.458,-2.911 -2.152,-1.49 0,0"
             style="fill:#930f15;fill-opacity:1;fill-rule:nonzero;stroke:none"
             id="path118" />
        </g>
        <g
           id="g120"
           transform="translate(495.3164,221.5684)">
          <path
             d="m 0,0 c 0,0 -7.738,4.372 -4.823,-4.501 0,0 5.881,-19.618 0.225,-24.709 0,0 -3.593,-6.174 1.969,-4.057 0,0 8.09,13.322 14.637,18.1 0,0 2.698,10.039 -12.008,15.167"
             style="fill:#930f15;fill-opacity:1;fill-rule:nonzero;stroke:none"
             id="path122" />
        </g>
        <g
           id="g124"
           transform="translate(410.9668,325.3955)">
          <path
             d="m 0,0 c -53.277,0 -96.465,43.708 -96.465,97.621 0,53.923 43.188,97.629 96.465,97.629 53.291,0 96.466,-43.706 96.466,-97.629 C 96.466,43.708 53.291,0 0,0 m 0,198.797 c -55.22,0 -99.978,-45.29 -99.978,-101.176 0,-55.889 44.758,-101.162 99.978,-101.162 55.221,0 99.98,45.273 99.98,101.162 0,55.886 -44.759,101.176 -99.98,101.176"
             style="fill:#930f15;fill-opacity:1;fill-rule:evenodd;stroke:none"
             id="path126" />
        </g>
        <g
           id="g128"
           transform="translate(398.8906,339.6885)">
          <path
             d="M 0,0 0.325,2.166 5.956,1.329 5.179,-3.784 C 4.56,-4.225 3.687,-4.573 2.586,-4.813 1.494,-5.049 0.421,-5.092 -0.646,-4.929 c -1.36,0.191 -2.491,0.652 -3.401,1.365 -0.932,0.71 -1.565,1.627 -1.909,2.751 -0.34,1.122 -0.415,2.285 -0.234,3.527 0.213,1.334 0.671,2.469 1.398,3.421 0.716,0.958 1.664,1.62 2.835,2.025 C -1.062,8.447 0,8.506 1.236,8.323 2.84,8.081 4.046,7.567 4.833,6.762 5.64,5.962 6.08,4.966 6.16,3.741 L 3.485,3.664 C 3.397,4.315 3.123,4.859 2.686,5.288 2.242,5.73 1.651,6.017 0.896,6.131 -0.234,6.285 -1.202,6.065 -1.988,5.455 -2.759,4.835 -3.263,3.809 -3.487,2.409 c -0.217,-1.519 -0.062,-2.716 0.51,-3.578 0.556,-0.861 1.401,-1.385 2.509,-1.543 0.533,-0.081 1.091,-0.047 1.676,0.071 0.589,0.152 1.084,0.325 1.54,0.566 l 0.241,1.633 z"
             style="fill:#930f15;fill-opacity:1;fill-rule:nonzero;stroke:none"
             id="path130" />
        </g>
        <g
           id="g132"
           transform="translate(377.4956,340.4375)">
          <path
             d="M 0,0 4.336,12.188 6.758,11.358 8.911,1.464 11.81,9.604 14.123,8.807 9.796,-3.39 7.285,-2.521 5.153,7.202 2.304,-0.804 Z"
             style="fill:#930f15;fill-opacity:1;fill-rule:nonzero;stroke:none"
             id="path134" />
        </g>
        <g
           id="g136"
           transform="translate(340.5605,368.6836)">
          <path
             d="M 0,0 9.952,8.403 11.615,6.481 8.459,-3.153 15.096,2.468 16.692,0.617 6.747,-7.783 5.037,-5.794 8.118,3.659 1.6,-1.831 Z"
             style="fill:#930f15;fill-opacity:1;fill-rule:nonzero;stroke:none"
             id="path138" />
        </g>
        <g
           id="g140"
           transform="translate(364.6538,348.9287)">
          <path
             d="m 0,0 c 0.366,-1.591 1.382,-2.891 3.052,-3.881 1.653,-0.974 3.276,-1.255 4.874,-0.826 1.595,0.418 2.943,1.526 4.035,3.319 1.103,1.809 1.472,3.51 1.1,5.114 C 12.681,5.321 11.665,6.62 10.024,7.608 9.113,8.157 8.217,8.478 7.338,8.611 6.685,8.693 6.006,8.65 5.282,8.466 4.563,8.281 3.907,7.982 3.309,7.559 2.503,7 1.751,6.17 1.06,5.037 -0.011,3.272 -0.358,1.592 0,0 M 6.05,6.072 C 7.006,6.364 7.954,6.23 8.889,5.677 9.813,5.126 10.37,4.365 10.547,3.404 10.729,2.435 10.432,1.32 9.664,0.058 8.871,-1.233 7.997,-2.025 7.019,-2.322 6.05,-2.626 5.111,-2.496 4.21,-1.977 3.315,-1.429 2.76,-0.655 2.581,0.337 2.396,1.32 2.683,2.459 3.441,3.724 4.219,4.996 5.092,5.773 6.05,6.072"
             style="fill:#930f15;fill-opacity:1;fill-rule:nonzero;stroke:none"
             id="path142" />
        </g>
        <g
           id="g144"
           transform="translate(350.7886,357.543)">
          <path
             d="m 0,0 3.781,-3.172 c 0.741,-0.612 1.398,-1.039 1.959,-1.286 0.763,-0.315 1.458,-0.431 2.099,-0.391 0.84,0.072 1.688,0.35 2.553,0.86 0.708,0.412 1.408,1.022 2.107,1.833 0.791,0.927 1.346,1.799 1.67,2.602 0.325,0.81 0.474,1.614 0.416,2.392 -0.041,0.8 -0.289,1.519 -0.72,2.187 -0.323,0.48 -0.897,1.067 -1.734,1.761 l -3.67,3.075 z m 9.944,5.759 c 0.819,-0.702 1.34,-1.19 1.571,-1.49 C 11.822,3.887 11.989,3.463 12.044,3.034 12.091,2.6 12.011,2.133 11.794,1.604 11.589,1.083 11.155,0.446 10.497,-0.325 9.833,-1.093 9.257,-1.625 8.75,-1.962 8.239,-2.29 7.78,-2.444 7.412,-2.469 7.027,-2.5 6.643,-2.384 6.247,-2.19 5.949,-2.055 5.51,-1.74 4.949,-1.287 l -1.487,1.266 5.584,6.518 z"
             style="fill:#930f15;fill-opacity:1;fill-rule:nonzero;stroke:none"
             id="path146" />
        </g>
        <g
           id="g148"
           transform="translate(347.2798,382.4766)">
          <path
             d="m 0,0 -1.385,2.402 -13.894,-2.022 1.384,-2.407 3.136,0.538 2.588,-4.515 -2.032,-2.433 1.406,-2.435 z m -8.432,-1.105 5.087,0.848 -3.318,-3.925 z"
             style="fill:#930f15;fill-opacity:1;fill-rule:nonzero;stroke:none"
             id="path150" />
        </g>
        <g
           id="g152"
           transform="translate(326.9307,395.7529)">
          <path
             d="M 0,0 12.305,4.403 13.203,1.938 8.35,0.203 l 1.756,-4.78 4.853,1.731 0.902,-2.467 -12.29,-4.388 -0.914,2.444 5.371,1.925 -1.753,4.784 -5.367,-1.916 z"
             style="fill:#930f15;fill-opacity:1;fill-rule:nonzero;stroke:none"
             id="path154" />
        </g>
        <g
           id="g156"
           transform="translate(327.9214,411.1045)">
          <path
             d="m 0,0 0.707,-2.444 c -0.815,-0.303 -1.398,-0.723 -1.701,-1.259 -0.325,-0.522 -0.396,-1.186 -0.26,-1.961 0.155,-0.815 0.444,-1.421 0.879,-1.78 0.428,-0.345 0.883,-0.486 1.351,-0.382 0.31,0.055 0.558,0.177 0.737,0.382 0.18,0.221 0.313,0.574 0.393,1.033 0.044,0.316 0.103,1.04 0.179,2.143 0.096,1.438 0.348,2.469 0.747,3.115 0.571,0.899 1.348,1.445 2.37,1.636 C 6.068,0.601 6.715,0.527 7.353,0.27 7.987,-0.004 8.521,-0.446 8.945,-1.092 9.37,-1.714 9.676,-2.527 9.844,-3.5 10.14,-5.096 9.998,-6.36 9.447,-7.288 8.89,-8.231 8.02,-8.805 6.845,-9.066 l -0.564,2.553 c 0.636,0.23 1.06,0.547 1.286,0.965 0.22,0.403 0.266,0.964 0.14,1.681 -0.14,0.749 -0.401,1.291 -0.788,1.66 C 6.667,-1.974 6.387,-1.888 6.052,-1.949 5.739,-1.996 5.507,-2.174 5.337,-2.456 5.12,-2.844 4.987,-3.677 4.906,-4.972 4.833,-6.272 4.699,-7.243 4.473,-7.909 4.274,-8.557 3.921,-9.103 3.427,-9.533 2.94,-9.979 2.277,-10.268 1.462,-10.404 0.725,-10.544 0,-10.463 -0.73,-10.179 c -0.715,0.295 -1.305,0.776 -1.742,1.483 -0.457,0.663 -0.787,1.556 -0.988,2.673 -0.3,1.599 -0.148,2.886 0.45,3.891 0.6,0.995 1.601,1.701 3.01,2.132"
             style="fill:#930f15;fill-opacity:1;fill-rule:nonzero;stroke:none"
             id="path158" />
        </g>
        <g
           id="g160"
           transform="translate(413.5723,346.7451)">
          <path
             d="M 0,0 2.629,0.227 3.248,-6.748 C 3.35,-7.869 3.441,-8.577 3.536,-8.9 c 0.155,-0.507 0.472,-0.915 0.917,-1.205 0.443,-0.265 1.033,-0.388 1.762,-0.33 0.728,0.065 1.277,0.27 1.623,0.612 0.353,0.322 0.546,0.716 0.579,1.154 0.047,0.455 0.009,1.19 -0.073,2.207 l -0.629,7.134 2.635,0.229 0.595,-6.774 c 0.143,-1.555 0.168,-2.644 0.08,-3.289 -0.08,-0.653 -0.291,-1.208 -0.631,-1.685 -0.35,-0.481 -0.828,-0.877 -1.444,-1.189 -0.613,-0.317 -1.429,-0.527 -2.466,-0.617 -1.236,-0.108 -2.185,-0.031 -2.864,0.188 -0.653,0.232 -1.206,0.559 -1.61,0.989 -0.409,0.414 -0.703,0.867 -0.867,1.36 -0.23,0.717 -0.422,1.797 -0.542,3.242 z"
             style="fill:#930f15;fill-opacity:1;fill-rule:nonzero;stroke:none"
             id="path162" />
        </g>
        <g
           id="g164"
           transform="translate(430.0977,335.6836)">
          <path
             d="m 0,0 -3.58,12.452 2.46,0.674 7.559,-6.85 -2.4,8.289 2.36,0.664 L 9.973,2.801 7.428,2.093 0.007,8.834 2.351,0.674 Z"
             style="fill:#930f15;fill-opacity:1;fill-rule:nonzero;stroke:none"
             id="path166" />
        </g>
        <g
           id="g168"
           transform="translate(444.0508,340.1436)">
          <path
             d="m 0,0 -4.968,11.961 2.45,0.998 4.971,-11.956 z"
             style="fill:#930f15;fill-opacity:1;fill-rule:nonzero;stroke:none"
             id="path170" />
        </g>
        <g
           id="g172"
           transform="translate(453.1699,344.2598)">
          <path
             d="m 0,0 -10.45,9.034 2.496,1.368 7.612,-6.757 -1.942,9.895 2.462,1.347 2.32,-13.504 z"
             style="fill:#930f15;fill-opacity:1;fill-rule:nonzero;stroke:none"
             id="path174" />
        </g>
        <g
           id="g176"
           transform="translate(462.4727,349.8867)">
          <path
             d="M 0,0 -8.145,10.126 -0.563,16.082 0.828,14.363 -4.707,10.041 -2.898,7.794 2.25,11.813 3.618,10.114 -1.504,6.068 0.688,3.352 6.396,7.818 7.781,6.131 Z"
             style="fill:#930f15;fill-opacity:1;fill-rule:nonzero;stroke:none"
             id="path178" />
        </g>
        <g
           id="g180"
           transform="translate(475.1533,360.8496)">
          <path
             d="m 0,0 -4.014,3.647 0.356,0.386 c 0.412,0.449 0.756,0.725 1.012,0.879 0.264,0.128 0.567,0.207 0.933,0.207 0.369,0.009 1.15,-0.079 2.36,-0.26 L 4.02,4.344 6.153,6.63 3.208,7.17 C 2.022,7.393 1.171,7.499 0.619,7.499 0.081,7.499 -0.502,7.393 -1.144,7.2 c 0.661,0.94 0.949,1.846 0.856,2.694 -0.078,0.836 -0.483,1.593 -1.204,2.25 -0.577,0.529 -1.211,0.835 -1.909,0.967 -0.709,0.126 -1.344,0.037 -1.96,-0.278 -0.598,-0.304 -1.36,-0.96 -2.311,-1.973 l -3.76,-4.046 9.641,-8.722 z m -8.001,7.259 1.376,1.492 c 0.729,0.77 1.171,1.234 1.344,1.374 0.335,0.256 0.691,0.38 1.047,0.38 0.359,-0.006 0.697,-0.17 1.016,-0.461 0.29,-0.266 0.481,-0.552 0.547,-0.86 C -2.595,8.883 -2.623,8.578 -2.753,8.292 -2.893,7.976 -3.379,7.373 -4.234,6.453 L -5.551,5.04 Z"
             style="fill:#930f15;fill-opacity:1;fill-rule:nonzero;stroke:none"
             id="path182" />
        </g>
        <g
           id="g184"
           transform="translate(479.291,372.1445)">
          <path
             d="M 0,0 1.224,2.247 C 2.028,1.896 2.731,1.816 3.329,1.985 3.924,2.151 4.438,2.562 4.889,3.231 5.359,3.905 5.574,4.535 5.498,5.085 5.448,5.637 5.216,6.054 4.825,6.31 4.56,6.483 4.296,6.545 3.995,6.53 3.724,6.492 3.392,6.334 2.998,6.067 2.745,5.866 2.189,5.405 1.36,4.65 0.288,3.687 -0.632,3.109 -1.372,2.909 -2.413,2.665 -3.363,2.817 -4.228,3.372 -4.776,3.745 -5.19,4.23 -5.472,4.857 c -0.255,0.627 -0.335,1.316 -0.193,2.069 0.152,0.741 0.496,1.529 1.05,2.367 0.908,1.34 1.886,2.148 2.956,2.433 1.061,0.29 2.09,0.125 3.121,-0.492 L 0.074,8.993 C -0.547,9.269 -1.077,9.332 -1.526,9.21 -1.988,9.052 -2.413,8.668 -2.813,8.081 -3.236,7.446 -3.454,6.863 -3.429,6.334 -3.404,6.007 -3.262,5.751 -2.982,5.558 -2.729,5.39 -2.434,5.347 -2.109,5.454 c 0.421,0.104 1.108,0.613 2.082,1.498 0.965,0.88 1.756,1.494 2.366,1.823 0.61,0.324 1.244,0.463 1.908,0.439 C 4.905,9.188 5.578,8.948 6.275,8.514 6.895,8.085 7.365,7.517 7.688,6.827 8,6.124 8.071,5.379 7.92,4.577 7.764,3.781 7.365,2.909 6.736,1.971 5.82,0.619 4.797,-0.216 3.667,-0.516 2.543,-0.847 1.323,-0.67 0,0"
             style="fill:#930f15;fill-opacity:1;fill-rule:nonzero;stroke:none"
             id="path186" />
        </g>
        <g
           id="g188"
           transform="translate(490.4004,382.043)">
          <path
             d="M 0,0 -11.81,5.58 -10.666,7.935 1.141,2.364 Z"
             style="fill:#930f15;fill-opacity:1;fill-rule:nonzero;stroke:none"
             id="path190" />
        </g>
        <g
           id="g192"
           transform="translate(494.127,390.7695)">
          <path
             d="m 0,0 -10.249,3.543 -1.285,-3.628 -2.091,0.734 3.423,9.664 2.087,-0.717 -1.266,-3.578 10.26,-3.553 z"
             style="fill:#930f15;fill-opacity:1;fill-rule:nonzero;stroke:none"
             id="path194" />
        </g>
        <g
           id="g196"
           transform="translate(497.8867,403.7881)">
          <path
             d="m 0,0 -5.417,1.001 -8.315,-3.299 0.562,3.002 5.659,2.061 -4.54,3.874 0.554,2.961 6.588,-6.029 5.389,-0.999 z"
             style="fill:#930f15;fill-opacity:1;fill-rule:nonzero;stroke:none"
             id="path198" />
        </g>
        <g
           id="g200"
           transform="translate(410.6016,357.4248)">
          <path
             d="M 0,0 C -24.571,0 -46.024,13.327 -57.475,33.166 H 57.502 C 46.036,13.327 24.592,0 0,0 m 0,132.385 c 36.621,0 66.319,-29.65 66.319,-66.202 0,-10.695 -2.538,-20.789 -7.045,-29.743 H -59.213 v -0.056 c -4.537,8.974 -7.101,19.076 -7.101,29.799 0,36.552 29.693,66.202 66.314,66.202 m 0,2.759 c -38.142,0 -69.086,-30.871 -69.086,-68.961 0,-38.092 30.944,-68.962 69.086,-68.962 38.16,0 69.092,30.87 69.092,68.962 0,38.09 -30.932,68.961 -69.092,68.961"
             style="fill:#930f15;fill-opacity:1;fill-rule:nonzero;stroke:none"
             id="path202" />
        </g>
        <g
           id="g204"
           transform="translate(413.9746,437.6592)">
          <path
             d="M 0,0 -1.438,10.207 -5.176,10.331 -6.604,0 -17.23,0.568 -3.156,29.857 13.209,-6.169 0.719,-6.456 5.6,-0.146 Z m -25.552,0.714 -9.899,0.438 5.591,11.188 6.463,-6.602 z M 23.393,12.643 32.012,-5.459 21.959,-6.025 16.653,5.738 Z m 31.012,-41.068 c -9.329,-7.309 -16.79,1.159 -16.79,1.159 C 25.264,-38.905 15.369,-27.85 15.369,-27.85 7.605,-33.449 4.172,-32.296 4.172,-32.296 l -2.596,18.954 15.226,0.139 2.725,-6.182 h 8.76 l -2.738,6.043 h 10.332 l 2.598,-6.177 8.898,0.422 -2.438,5.604 h 7.608 L 52.689,-4.885 40.49,-5.167 25.264,25.416 13.354,12.778 -3.156,46.514 -19.953,12.778 -31.718,25.416 -43.78,1.001 l -15.365,0.44 -0.135,-8.904 11.193,0.435 -4.885,-10.627 h 8.468 l 5.024,10.627 10.334,0.276 -4.731,-10.903 h 8.613 l 4.884,10.903 13.058,-0.143 -4.451,-6.168 3.599,-0.14 -2.311,-18.943 c -4.298,-1.021 -10.904,4.448 -10.904,4.448 -12.346,-11.207 -22.964,0.432 -22.964,0.432 -7.748,-8.625 -16.795,-1.289 -16.795,-1.289 l -2.159,-5.182 c 10.054,-6.459 19.088,-0.424 19.088,-0.424 12.779,-8.182 22.83,-0.565 22.83,-0.565 12.626,-8.052 17.946,-0.304 17.946,-0.304 8.328,-7.458 18.523,0.442 18.523,0.442 10.184,-8.051 22.241,0.278 22.241,0.278 10.197,-6.167 19.392,0.431 19.392,0.431 z"
             style="fill:#930f15;fill-opacity:1;fill-rule:nonzero;stroke:none"
             id="path206" />
        </g>
        <g
           id="g208"
           transform="translate(333.5244,455.9814)">
          <path
             d="m 0,0 c 0,0 0.449,-0.399 0.784,0.06 0,0 0.231,1.753 -0.557,2.634 0,0 -2.196,3.09 -2.633,4.714 0,0 -0.564,0.738 -3.42,0.738 0,0 -0.399,-0.675 -0.126,-0.909 0.29,-0.211 1.291,0.118 2.36,-1.844 L -0.849,1.738 C -0.849,1.738 0.057,0.731 0,0"
             style="fill:#930f15;fill-opacity:1;fill-rule:nonzero;stroke:none"
             id="path210" />
        </g>
        <g
           id="g212"
           transform="translate(342.5093,461.0371)">
          <path
             d="m 0,0 -3.15,0.277 c 0,0 -1.121,-0.383 -0.217,-1.005 0,0 1.672,-3.32 1.06,-5.22 0,0 0.56,-0.96 0.898,0.399 0,0 0.892,3.587 1.685,4.144 0,0 0.613,1.11 -0.276,1.405"
             style="fill:#930f15;fill-opacity:1;fill-rule:nonzero;stroke:none"
             id="path214" />
        </g>
        <g
           id="g216"
           transform="translate(336.731,456.4971)">
          <path
             d="m 0,0 c 0,0 -0.289,0.946 -0.802,0.112 0,0 0.293,-3.21 -0.493,-4.279 0,0 -0.057,-3.086 -0.4,-3.924 0,0 -0.496,-1.966 -0.391,-2.414 h -0.337 c 0,0 -1.681,4.552 -3.865,3.656 0,0 -0.158,-0.449 0.337,-0.844 0,0 2.366,-4.428 2.024,-5.668 0,0 1.557,-0.4 2.969,-0.335 0,0 1.63,3.978 1.846,5.442 0,0 0.16,2.7 -0.058,3.59 0,0 -0.335,3.301 -0.83,4.664"
             style="fill:#930f15;fill-opacity:1;fill-rule:nonzero;stroke:none"
             id="path218" />
        </g>
        <g
           id="g220"
           transform="translate(497.7441,453.5078)">
          <path
             d="m 0,0 c 0,0 0.311,0.103 0.586,-0.222 l 0.789,-0.741 c 0,0 -2.181,0.147 -1.375,0.963 m -18.202,-3.85 c -2.937,-0.045 -1.878,4.37 -1.878,4.37 0,2.236 2.187,-0.742 2.187,-0.742 l 1.655,-2.239 c 1.272,-1.979 -1.964,-1.389 -1.964,-1.389 M 3.197,-0.963 2.608,-0.697 1.007,0.686 c 0,0 -1.228,-0.268 -1.007,1.539 0,0 -0.108,0.584 -1.118,0.478 l -3.035,2.29 c 0,0 -0.957,0.739 0.73,1.324 0,0 1.292,0.53 -0.631,0.635 0,0 -2.119,-0.26 -2.385,-0.787 0,0 -0.223,-1.752 1.27,-1.652 0,0 2.821,-1.968 3.302,-2.288 0,0 -0.532,-1.539 -0.161,-2.074 0,0 -0.159,-0.632 -1.593,0.369 0,0 -6.862,2.985 -7.129,4.1 0,0 -1.453,0.268 -2.129,-0.31 0,0 -0.113,-1.398 0.255,-1.66 l 2.082,-1.385 c 0,0 -0.85,-0.427 -2.657,0.164 0,0 -1.767,-0.281 -0.59,-1.754 0,0 0.91,-1.818 -0.378,-2.571 0,0 0.053,3.476 -5.168,7.834 0,0 -1.646,-0.05 -2.441,-7.502 0,0 -0.331,-2.991 3.033,-2.772 l 2.613,0.435 c 0,0 0.264,0.417 0.594,-0.27 l -0.123,-1.815 c 0,0 -0.849,-0.639 0.155,-0.944 0,0 0.969,-1.667 1.61,0.633 l -0.121,3.244 c 0,0 2.035,-0.328 1.716,3.356 l 4.473,-0.266 c 0,0 1.279,0.997 -0.908,2.595 0,0 2.444,-1.214 3.141,-2.065 0,0 0.114,-0.428 1.334,-0.383 0,0 0.26,-0.625 2.435,-1.05 0,0 0.164,-1.118 5.021,-1.385 0,0 0.628,1.529 0,2.288"
             style="fill:#930f15;fill-opacity:1;fill-rule:nonzero;stroke:none"
             id="path222" />
        </g>
        <g
           id="g224"
           transform="translate(375.2656,494.1152)">
          <path
             d="m 0,0 -0.799,-1.287 -0.7,3.833 c -0.21,1.228 0.7,2.29 0.7,2.29 C -0.328,3.821 -0.105,1.738 -0.105,1.738 0.042,0.688 0,0 0,0 m 2.825,-0.923 c 0,0 -0.921,0.923 0.046,4.49 L 2.177,4.463 2.122,5.156 1.378,5.322 c 0,0 -0.529,1.011 -1.601,0.477 0,0 -0.691,-0.165 0.223,1.116 L 1.806,9.78 1.592,13.403 c 0,0 0.115,0.699 -1.115,0.538 0,0 0.266,-0.701 -0.263,-1.378 -0.542,-0.689 -1.128,-2.085 -1.339,-2.875 0,0 -0.374,3.346 -0.584,4.028 l -0.787,1.129 c 0,0 -1.119,0.629 -0.277,-1.289 V 6.262 L -4.129,4.357 c 0,0 -1.963,-0.511 -0.495,-1.465 l 2.128,-0.452 0.163,-4.707 -0.019,-1.318 1.717,-0.269 1.468,2.212 c 0,0 0.254,0.148 0.399,-0.333 l 0.261,-2.007 c 0,0 -0.644,-2.089 -1.168,-2.304 0,0 -0.221,-0.112 -0.807,-0.696 0,0 -1.606,-2.13 0.854,-2.13 0,0 0.947,-0.38 1.065,1.061 l 0.155,1.87 3.679,-0.696 c 0,0 0.211,1.013 -0.597,2.241 z"
             style="fill:#930f15;fill-opacity:1;fill-rule:nonzero;stroke:none"
             id="path226" />
        </g>
        <g
           id="g228"
           transform="translate(381.6582,493.3281)">
          <path
             d="m 0,0 -2.091,-0.396 c 0,0 -1.359,-0.743 0.096,-0.873 0,0 1.406,-0.462 2.12,-1.087 0,0 0.974,-1.292 1.409,0.305 v 1.107 C 1.534,-0.944 1.456,0.083 0,0"
             style="fill:#930f15;fill-opacity:1;fill-rule:nonzero;stroke:none"
             id="path230" />
        </g>
        <g
           id="g232"
           transform="translate(390.4053,379.7344)">
          <path
             d="M 0,0 -1.511,-1.22 -2.562,0.267 0.734,2.866 1.883,2.251 V -10.824 H 0 Z"
             style="fill:#930f15;fill-opacity:1;fill-rule:nonzero;stroke:none"
             id="path234" />
        </g>
        <g
           id="g236"
           transform="translate(429.6992,379.7344)">
          <path
             d="M 0,0 -1.524,-1.22 -2.574,0.267 0.74,2.866 1.887,2.251 V -10.824 H 0 Z"
             style="fill:#930f15;fill-opacity:1;fill-rule:nonzero;stroke:none"
             id="path238" />
        </g>
        <g
           id="g240"
           transform="translate(405.6367,373.6611)">
          <path
             d="M 0,0 C 0,-0.327 -0.034,-0.652 -0.096,-0.977 -0.173,-1.324 -0.263,-1.606 -0.387,-1.862 -0.511,-2.117 -0.703,-2.325 -0.951,-2.51 -1.199,-2.687 -1.502,-2.814 -1.855,-2.877 -2.214,-2.934 -2.5,-2.941 -2.734,-2.934 c -0.434,0.016 -0.806,0.108 -1.082,0.303 -0.297,0.2 -0.468,0.398 -0.538,0.635 -0.075,0.201 -0.121,0.429 -0.15,0.656 l -1.894,-0.033 0.188,-0.795 c 0.041,-0.295 0.184,-0.658 0.412,-1.042 0.226,-0.382 0.489,-0.696 0.805,-0.915 0.31,-0.235 0.697,-0.395 1.152,-0.522 0.462,-0.132 0.969,-0.179 1.533,-0.165 0.471,0 0.924,0.072 1.373,0.2 0.455,0.13 0.82,0.29 1.115,0.508 0.275,0.22 0.523,0.476 0.734,0.75 0.217,0.308 0.389,0.658 0.511,1.041 0.144,0.372 0.235,0.776 0.272,1.192 0.037,0.406 0.051,0.952 0.051,1.635 V 4.35 c 0,0.678 -0.06,1.285 -0.202,1.798 C 1.412,6.619 1.195,7.084 0.893,7.488 0.602,7.893 0.164,8.245 -0.405,8.559 -0.966,8.853 -1.645,9.027 -2.404,8.997 -2.855,8.966 -3.316,8.883 -3.797,8.712 -4.308,8.559 -4.715,8.324 -5.064,8.047 -5.401,7.748 -5.671,7.397 -5.851,7.003 -6.026,6.605 -6.157,6.21 -6.21,5.826 -6.284,5.442 -6.325,5.028 -6.325,4.596 c 0,-0.871 0.075,-1.521 0.246,-1.97 0.169,-0.444 0.39,-0.802 0.66,-1.094 0.259,-0.304 0.69,-0.556 1.244,-0.802 0.576,-0.241 1.264,-0.351 2.057,-0.304 0.312,0 0.606,0.037 0.901,0.088 0.282,0.058 0.526,0.135 0.706,0.216 0.18,0.08 0.346,0.159 0.511,0.246 z M -0.068,4.933 C -0.031,4.402 -0.056,3.938 -0.165,3.552 -0.245,3.168 -0.405,2.84 -0.629,2.6 -0.85,2.334 -1.335,2.19 -2.069,2.182 -2.335,2.17 -2.645,2.19 -2.98,2.249 -3.31,2.31 -3.599,2.448 -3.834,2.648 -4.06,2.857 -4.222,3.122 -4.33,3.457 -4.429,3.725 -4.469,4.12 -4.46,4.656 c 0,0.523 0.053,0.943 0.164,1.24 0.115,0.301 0.263,0.537 0.455,0.723 0.189,0.169 0.412,0.311 0.685,0.408 0.264,0.092 0.6,0.136 1.009,0.136 0.483,-0.019 0.871,-0.115 1.196,-0.306 0.301,-0.182 0.546,-0.449 0.7,-0.784 0.078,-0.222 0.136,-0.6 0.183,-1.14"
             style="fill:#930f15;fill-opacity:1;fill-rule:nonzero;stroke:none"
             id="path242" />
        </g>
        <g
           id="g244"
           transform="translate(422.2344,377.0938)">
          <path
             d="M 0,0 C -0.037,0.595 -0.124,1.189 -0.245,1.784 -0.356,2.341 -0.568,2.883 -0.842,3.382 -1.133,3.894 -1.48,4.315 -1.876,4.65 -2.289,5.002 -2.719,5.251 -3.178,5.407 -3.633,5.595 -4.078,5.659 -4.5,5.676 -5.082,5.676 -5.643,5.56 -6.172,5.279 -6.709,5.022 -7.123,4.691 -7.455,4.319 -7.766,3.948 -8.047,3.506 -8.27,3 -8.495,2.484 -8.66,1.946 -8.78,1.34 -8.895,0.743 -8.96,0.209 -8.977,-0.265 -8.994,-0.621 -9,-1.194 -8.994,-1.972 c 0.014,-0.775 0.059,-1.439 0.168,-1.989 0.107,-0.542 0.265,-1.078 0.478,-1.6 0.215,-0.523 0.497,-0.99 0.856,-1.418 0.369,-0.403 0.808,-0.721 1.345,-0.932 0.539,-0.205 1.086,-0.311 1.647,-0.311 0.589,0 1.106,0.059 1.592,0.243 0.476,0.177 0.861,0.382 1.178,0.64 0.308,0.256 0.575,0.615 0.832,1.07 0.253,0.456 0.443,0.919 0.57,1.409 0.127,0.481 0.226,1.023 0.279,1.622 0.049,0.594 0.1,1.042 0.106,1.343 C 0.068,-1.234 0.057,-0.593 0,0 m -1.796,-2.066 c -0.022,-0.427 -0.065,-0.941 -0.155,-1.536 -0.096,-0.588 -0.26,-1.089 -0.496,-1.516 -0.254,-0.432 -0.538,-0.768 -0.91,-0.956 -0.372,-0.195 -0.75,-0.292 -1.168,-0.277 -0.487,0 -0.883,0.117 -1.22,0.36 -0.328,0.22 -0.601,0.528 -0.821,0.94 -0.221,0.408 -0.379,0.904 -0.481,1.48 -0.101,0.592 -0.154,1.287 -0.172,2.135 0,0.498 0,0.904 0.033,1.231 0.026,0.341 0.086,0.769 0.198,1.289 0.103,0.512 0.252,0.972 0.471,1.4 0.199,0.399 0.468,0.727 0.822,0.958 0.343,0.234 0.746,0.348 1.211,0.348 0.459,-0.007 0.838,-0.139 1.164,-0.365 0.309,-0.214 0.582,-0.518 0.799,-0.884 0.239,-0.355 0.406,-0.81 0.527,-1.34 0.121,-0.538 0.194,-1.222 0.22,-2.097 0,-0.355 -0.016,-0.75 -0.022,-1.17"
             style="fill:#930f15;fill-opacity:1;fill-rule:nonzero;stroke:none"
             id="path246" />
        </g>
        <g
           id="g248"
           transform="translate(450.1055,500.4883)">
          <path
             d="m 0,0 1.977,-0.128 2.465,1.541 c 0,0 0.533,0.191 -0.05,0.987 0,0 -0.388,-0.449 -1.079,-0.339 C 2.621,2.17 1.423,2.05 0.773,1.898 L 0.753,1.871 -0.824,2.051 C -0.301,2.441 -1.27,4.769 -1.27,4.769 -1.772,5.714 -2.299,5.332 -2.299,5.332 -2.927,4.885 -3.15,3.168 -3.15,3.168 L -3.713,2.299 -6.059,2.212 -8.608,2.584 c 0,0 -1.587,1.713 -1.746,-0.289 l 0.485,-1.613 c 0.019,-0.29 0.098,-0.526 0.215,-0.715 l 0.021,-0.071 0.02,0.015 c 0.473,-0.677 1.452,-0.717 1.799,-0.711 -0.725,-0.122 -3.411,-1.58 -3.411,-1.58 -3.933,-2.722 -9.275,-2.857 -9.275,-2.857 -1.695,-0.47 0.238,-0.952 0.238,-0.952 1.717,-0.389 8.148,1.168 8.148,1.168 9.218,2.54 10.54,5.132 10.54,5.132 C -1.088,0.028 -0.535,0 0,0"
             style="fill:#930f15;fill-opacity:1;fill-rule:nonzero;stroke:none"
             id="path250" />
        </g>
        <g
           id="g252"
           transform="translate(446.0137,492.8467)">
          <path
             d="m 0,0 c 0,0 -0.794,1.633 -1.333,-0.2 0,0 -1.288,-3.98 -2.829,-4.181 0,0 -1.322,-0.621 -0.14,-0.911 0,0 2.906,1.303 4.562,1.348 0,0 1.619,1.373 -0.26,3.944"
             style="fill:#930f15;fill-opacity:1;fill-rule:nonzero;stroke:none"
             id="path254" />
        </g>
      </g>
    </g>
  </g>
</svg>
