<?xml version="1.0" encoding="UTF-8" standalone="no"?>
<!-- Created with Inkscape (http://www.inkscape.org/) -->

<svg
   version="1.1"
   id="svg2"
   width="1122.52"
   height="793.70667"
   viewBox="0 0 1122.52 793.70667"
   sodipodi:docname="竖式.svg"
   inkscape:version="1.2.2 (b0a8486541, 2022-12-01)"
   xmlns:inkscape="http://www.inkscape.org/namespaces/inkscape"
   xmlns:sodipodi="http://sodipodi.sourceforge.net/DTD/sodipodi-0.dtd"
   xmlns="http://www.w3.org/2000/svg"
   xmlns:svg="http://www.w3.org/2000/svg">
  <defs
     id="defs6">
    <clipPath
       clipPathUnits="userSpaceOnUse"
       id="clipPath18">
      <path
         d="M 0,595.28 H 841.89 V 0 H 0 Z"
         id="path16" />
    </clipPath>
  </defs>
  <sodipodi:namedview
     id="namedview4"
     pagecolor="#ffffff"
     bordercolor="#000000"
     borderopacity="0.25"
     inkscape:showpageshadow="2"
     inkscape:pageopacity="0.0"
     inkscape:pagecheckerboard="0"
     inkscape:deskcolor="#d1d1d1"
     showgrid="false"
     inkscape:zoom="0.29733907"
     inkscape:cx="561.64836"
     inkscape:cy="398.53491"
     inkscape:window-width="2560"
     inkscape:window-height="1284"
     inkscape:window-x="0"
     inkscape:window-y="0"
     inkscape:window-maximized="1"
     inkscape:current-layer="g10">
    <inkscape:page
       x="0"
       y="0"
       id="page8"
       width="1122.52"
       height="793.70667" />
  </sodipodi:namedview>
  <g
     id="g10"
     inkscape:groupmode="layer"
     inkscape:label="Page 1"
     transform="matrix(1.3333333,0,0,-1.3333333,0,793.70667)">
    <g
       id="g12">
      <g
         id="g14"
         clip-path="url(#clipPath18)">
        <g
           id="g20"
           transform="translate(420.9053,423.5073)">
          <path
             d="m 0,0 c -16.442,0 -29.772,13.331 -29.772,29.773 0,16.445 13.33,29.776 29.772,29.776 16.446,0 29.772,-13.331 29.772,-29.776 C 29.772,13.331 16.446,0 0,0 m 0,60.631 c -17.042,0 -30.855,-13.812 -30.855,-30.858 0,-17.046 13.813,-30.853 30.855,-30.853 17.042,0 30.855,13.807 30.855,30.853 0,17.046 -13.813,30.858 -30.855,30.858"
             style="fill:#930f15;fill-opacity:1;fill-rule:evenodd;stroke:none"
             id="path22" />
        </g>
        <g
           id="g24"
           transform="translate(417.1777,427.8672)">
          <path
             d="M 0,0 0.1,0.661 1.839,0.405 1.599,-1.156 C 1.408,-1.29 1.138,-1.396 0.8,-1.469 0.462,-1.54 0.131,-1.554 -0.198,-1.504 c -0.42,0.058 -0.769,0.199 -1.05,0.416 -0.288,0.216 -0.484,0.497 -0.591,0.84 -0.104,0.341 -0.127,0.696 -0.072,1.075 0.066,0.407 0.209,0.753 0.433,1.043 0.221,0.293 0.514,0.494 0.874,0.618 C -0.327,2.575 0,2.593 0.383,2.538 0.878,2.464 1.25,2.306 1.493,2.063 1.742,1.817 1.877,1.514 1.902,1.139 L 1.076,1.117 C 1.05,1.315 0.965,1.48 0.829,1.612 0.693,1.747 0.51,1.834 0.277,1.869 -0.071,1.916 -0.371,1.849 -0.613,1.663 -0.852,1.473 -1.006,1.16 -1.077,0.733 c -0.064,-0.462 -0.018,-0.826 0.159,-1.09 0.173,-0.264 0.433,-0.423 0.775,-0.471 0.163,-0.025 0.335,-0.014 0.517,0.023 0.181,0.044 0.334,0.098 0.475,0.17 l 0.074,0.499 z"
             style="fill:#930f15;fill-opacity:1;fill-rule:nonzero;stroke:none"
             id="path26" />
        </g>
        <g
           id="g28"
           transform="translate(410.5747,428.0947)">
          <path
             d="M 0,0 1.339,3.718 2.087,3.465 2.751,0.446 3.646,2.928 4.36,2.686 3.024,-1.033 2.247,-0.769 1.592,2.197 0.712,-0.245 Z"
             style="fill:#930f15;fill-opacity:1;fill-rule:nonzero;stroke:none"
             id="path30" />
        </g>
        <g
           id="g32"
           transform="translate(399.1772,436.7095)">
          <path
             d="M 0,0 3.071,2.562 3.584,1.977 2.61,-0.96 4.66,0.753 5.151,0.188 2.082,-2.373 1.553,-1.767 2.506,1.115 0.493,-0.558 Z"
             style="fill:#930f15;fill-opacity:1;fill-rule:nonzero;stroke:none"
             id="path34" />
        </g>
        <g
           id="g36"
           transform="translate(406.6118,430.6846)">
          <path
             d="m 0,0 c 0.113,-0.485 0.426,-0.881 0.942,-1.184 0.51,-0.297 1.012,-0.383 1.504,-0.252 0.492,0.127 0.909,0.465 1.245,1.012 0.34,0.553 0.455,1.071 0.34,1.56 C 3.914,1.623 3.6,2.019 3.094,2.32 2.814,2.487 2.537,2.585 2.266,2.625 2.065,2.652 1.853,2.638 1.631,2.582 1.409,2.525 1.207,2.434 1.02,2.305 0.774,2.135 0.542,1.882 0.327,1.536 -0.003,0.998 -0.11,0.484 0,0 M 1.867,1.85 C 2.163,1.941 2.456,1.9 2.744,1.731 3.029,1.563 3.2,1.33 3.256,1.038 3.312,0.742 3.22,0.403 2.982,0.017 2.739,-0.376 2.468,-0.618 2.165,-0.708 1.867,-0.802 1.578,-0.762 1.299,-0.604 1.022,-0.436 0.853,-0.2 0.797,0.103 0.739,0.403 0.829,0.749 1.062,1.136 1.303,1.523 1.573,1.76 1.867,1.85"
             style="fill:#930f15;fill-opacity:1;fill-rule:nonzero;stroke:none"
             id="path38" />
        </g>
        <g
           id="g40"
           transform="translate(402.333,433.3115)">
          <path
             d="m 0,0 1.168,-0.967 c 0.227,-0.187 0.429,-0.317 0.603,-0.392 0.237,-0.097 0.45,-0.132 0.647,-0.119 0.261,0.022 0.523,0.106 0.789,0.261 0.219,0.126 0.434,0.313 0.652,0.561 0.243,0.281 0.413,0.548 0.513,0.794 0.101,0.245 0.147,0.491 0.13,0.728 C 4.489,1.111 4.413,1.329 4.279,1.534 4.179,1.679 4.002,1.859 3.746,2.069 L 2.612,3.007 Z M 3.071,1.756 C 3.322,1.542 3.483,1.395 3.553,1.302 3.649,1.186 3.701,1.057 3.717,0.925 3.731,0.793 3.708,0.651 3.641,0.49 3.576,0.33 3.443,0.138 3.238,-0.098 3.035,-0.333 2.856,-0.496 2.701,-0.598 2.542,-0.698 2.402,-0.745 2.288,-0.752 c -0.12,-0.01 -0.238,0.026 -0.36,0.085 -0.092,0.042 -0.227,0.137 -0.4,0.275 l -0.46,0.385 1.724,1.989 z"
             style="fill:#930f15;fill-opacity:1;fill-rule:nonzero;stroke:none"
             id="path42" />
        </g>
        <g
           id="g44"
           transform="translate(401.249,440.916)">
          <path
             d="m 0,0 -0.426,0.734 -4.289,-0.617 0.428,-0.736 0.969,0.165 0.797,-1.377 -0.628,-0.743 0.434,-0.741 z m -2.602,-0.337 1.571,0.259 -1.023,-1.198 z"
             style="fill:#930f15;fill-opacity:1;fill-rule:nonzero;stroke:none"
             id="path46" />
        </g>
        <g
           id="g48"
           transform="translate(394.9707,444.9648)">
          <path
             d="M 0,0 3.797,1.344 4.073,0.592 2.576,0.062 3.118,-1.395 4.617,-0.866 4.896,-1.62 1.101,-2.958 0.819,-2.212 2.478,-1.626 1.935,-0.166 0.28,-0.752 Z"
             style="fill:#930f15;fill-opacity:1;fill-rule:nonzero;stroke:none"
             id="path50" />
        </g>
        <g
           id="g52"
           transform="translate(395.2754,449.6484)">
          <path
             d="m 0,0 0.218,-0.746 c -0.25,-0.093 -0.431,-0.22 -0.525,-0.384 -0.099,-0.159 -0.122,-0.361 -0.079,-0.599 0.048,-0.248 0.136,-0.432 0.271,-0.542 0.131,-0.105 0.272,-0.149 0.417,-0.116 0.095,0.017 0.171,0.054 0.228,0.116 0.054,0.067 0.095,0.176 0.121,0.315 0.013,0.095 0.031,0.317 0.053,0.653 0.031,0.439 0.109,0.754 0.233,0.951 0.176,0.273 0.416,0.441 0.731,0.498 C 1.873,0.183 2.073,0.161 2.27,0.081 2.465,-0.003 2.63,-0.136 2.761,-0.333 2.893,-0.524 2.987,-0.771 3.037,-1.068 3.13,-1.555 3.086,-1.94 2.916,-2.224 2.743,-2.51 2.475,-2.685 2.113,-2.765 l -0.175,0.778 c 0.197,0.07 0.328,0.167 0.397,0.295 0.069,0.122 0.084,0.294 0.044,0.513 -0.044,0.227 -0.124,0.393 -0.243,0.505 -0.078,0.07 -0.165,0.097 -0.268,0.078 C 1.771,-0.609 1.701,-0.663 1.646,-0.75 1.581,-0.869 1.539,-1.122 1.514,-1.518 1.491,-1.912 1.45,-2.21 1.38,-2.413 1.319,-2.61 1.211,-2.777 1.058,-2.908 0.907,-3.044 0.703,-3.133 0.452,-3.174 0.225,-3.217 0,-3.192 -0.226,-3.106 c -0.22,0.09 -0.401,0.238 -0.537,0.453 -0.141,0.203 -0.243,0.475 -0.304,0.814 -0.093,0.488 -0.046,0.881 0.138,1.189 C -0.743,-0.348 -0.434,-0.132 0,0"
             style="fill:#930f15;fill-opacity:1;fill-rule:nonzero;stroke:none"
             id="path54" />
        </g>
        <g
           id="g56"
           transform="translate(421.7104,430.0186)">
          <path
             d="M 0,0 0.811,0.069 1.002,-2.058 C 1.034,-2.4 1.061,-2.616 1.09,-2.715 1.138,-2.868 1.236,-2.994 1.374,-3.081 1.51,-3.162 1.692,-3.2 1.917,-3.182 c 0.225,0.02 0.393,0.081 0.501,0.186 0.108,0.099 0.168,0.218 0.179,0.352 0.014,0.14 0.002,0.363 -0.022,0.674 L 2.381,0.206 3.193,0.275 3.375,-1.791 C 3.42,-2.265 3.428,-2.597 3.4,-2.794 3.375,-2.994 3.312,-3.162 3.208,-3.308 3.099,-3.454 2.954,-3.576 2.761,-3.671 2.571,-3.768 2.321,-3.831 2,-3.858 1.618,-3.891 1.327,-3.868 1.118,-3.801 0.915,-3.731 0.745,-3.63 0.62,-3.499 0.493,-3.373 0.402,-3.235 0.351,-3.085 0.281,-2.866 0.222,-2.536 0.184,-2.097 Z"
             style="fill:#930f15;fill-opacity:1;fill-rule:nonzero;stroke:none"
             id="path58" />
        </g>
        <g
           id="g60"
           transform="translate(426.8105,426.6455)">
          <path
             d="m 0,0 -1.106,3.797 0.758,0.205 2.336,-2.089 -0.74,2.53 0.726,0.2 L 3.078,0.854 2.291,0.638 0.002,2.695 0.724,0.205 Z"
             style="fill:#930f15;fill-opacity:1;fill-rule:nonzero;stroke:none"
             id="path62" />
        </g>
        <g
           id="g64"
           transform="translate(431.1172,428.0059)">
          <path
             d="M 0,0 -1.534,3.648 -0.778,3.952 0.757,0.306 Z"
             style="fill:#930f15;fill-opacity:1;fill-rule:nonzero;stroke:none"
             id="path66" />
        </g>
        <g
           id="g68"
           transform="translate(433.9316,429.2607)">
          <path
             d="m 0,0 -3.227,2.755 0.772,0.418 2.348,-2.061 -0.598,3.017 0.758,0.412 0.718,-4.12 z"
             style="fill:#930f15;fill-opacity:1;fill-rule:nonzero;stroke:none"
             id="path70" />
        </g>
        <g
           id="g72"
           transform="translate(436.8018,430.9761)">
          <path
             d="M 0,0 -2.515,3.089 -0.175,4.905 0.256,4.382 -1.452,3.063 -0.896,2.377 0.694,3.603 1.118,3.085 -0.466,1.851 0.212,1.022 1.973,2.384 2.401,1.87 Z"
             style="fill:#930f15;fill-opacity:1;fill-rule:nonzero;stroke:none"
             id="path74" />
        </g>
        <g
           id="g76"
           transform="translate(440.7148,434.3208)">
          <path
             d="m 0,0 -1.238,1.113 0.109,0.117 c 0.127,0.138 0.233,0.222 0.311,0.268 0.082,0.038 0.176,0.063 0.291,0.063 0.113,0.003 0.353,-0.025 0.726,-0.078 L 1.241,1.325 1.899,2.022 0.989,2.187 C 0.625,2.254 0.36,2.286 0.19,2.286 0.025,2.286 -0.154,2.254 -0.353,2.197 -0.148,2.483 -0.061,2.759 -0.09,3.018 -0.113,3.273 -0.238,3.504 -0.461,3.704 -0.639,3.866 -0.834,3.959 -1.05,3.999 -1.267,4.037 -1.465,4.01 -1.654,3.913 -1.84,3.822 -2.074,3.62 -2.367,3.312 l -1.162,-1.234 2.975,-2.66 z m -2.469,2.214 0.424,0.454 c 0.223,0.234 0.361,0.377 0.415,0.42 0.103,0.078 0.214,0.116 0.323,0.116 0.11,-0.001 0.215,-0.052 0.313,-0.142 0.09,-0.081 0.148,-0.166 0.17,-0.261 C -0.802,2.709 -0.81,2.616 -0.85,2.528 -0.893,2.433 -1.043,2.248 -1.307,1.969 L -1.711,1.536 Z"
             style="fill:#930f15;fill-opacity:1;fill-rule:nonzero;stroke:none"
             id="path78" />
        </g>
        <g
           id="g80"
           transform="translate(441.9922,437.7646)">
          <path
             d="M 0,0 0.377,0.686 C 0.625,0.578 0.842,0.555 1.028,0.607 1.211,0.656 1.37,0.782 1.51,0.985 1.652,1.191 1.721,1.384 1.697,1.552 1.682,1.719 1.608,1.847 1.488,1.926 1.407,1.978 1.326,1.997 1.233,1.992 1.147,1.982 1.047,1.932 0.926,1.85 0.846,1.79 0.676,1.648 0.418,1.42 0.088,1.124 -0.197,0.949 -0.424,0.888 -0.744,0.813 -1.039,0.86 -1.305,1.029 c -0.17,0.113 -0.297,0.263 -0.384,0.453 -0.078,0.19 -0.104,0.401 -0.059,0.63 0.047,0.227 0.153,0.467 0.322,0.723 0.282,0.408 0.584,0.655 0.913,0.742 0.327,0.088 0.646,0.038 0.963,-0.149 L 0.023,2.743 C -0.169,2.827 -0.332,2.846 -0.471,2.809 -0.615,2.76 -0.744,2.644 -0.867,2.464 -1,2.272 -1.066,2.094 -1.059,1.932 -1.051,1.833 -1.009,1.754 -0.922,1.694 -0.842,1.645 -0.75,1.632 -0.652,1.665 -0.521,1.694 -0.309,1.85 -0.009,2.121 0.289,2.39 0.533,2.578 0.721,2.678 0.91,2.776 1.104,2.819 1.311,2.811 1.514,2.802 1.721,2.729 1.936,2.597 2.127,2.466 2.272,2.293 2.371,2.083 2.469,1.867 2.491,1.64 2.444,1.396 2.396,1.154 2.272,0.888 2.079,0.602 1.795,0.188 1.48,-0.067 1.131,-0.157 0.784,-0.258 0.407,-0.203 0,0"
             style="fill:#930f15;fill-opacity:1;fill-rule:nonzero;stroke:none"
             id="path82" />
        </g>
        <g
           id="g84"
           transform="translate(445.4199,440.7847)">
          <path
             d="M 0,0 -3.645,1.701 -3.293,2.42 0.352,0.722 Z"
             style="fill:#930f15;fill-opacity:1;fill-rule:nonzero;stroke:none"
             id="path86" />
        </g>
        <g
           id="g88"
           transform="translate(446.5703,443.4453)">
          <path
             d="M 0,0 -3.164,1.081 -3.558,-0.025 -4.205,0.198 -3.149,3.146 -2.504,2.926 -2.895,1.835 0.271,0.753 Z"
             style="fill:#930f15;fill-opacity:1;fill-rule:nonzero;stroke:none"
             id="path90" />
        </g>
        <g
           id="g92"
           transform="translate(447.7305,447.416)">
          <path
             d="M 0,0 -1.673,0.306 -4.238,-0.7 -4.064,0.214 -2.318,0.843 -3.719,2.026 -3.55,2.927 -1.514,1.09 0.148,0.785 Z"
             style="fill:#930f15;fill-opacity:1;fill-rule:nonzero;stroke:none"
             id="path94" />
        </g>
        <g
           id="g96"
           transform="translate(420.793,433.2759)">
          <path
             d="M 0,0 C -7.583,0 -14.204,4.066 -17.74,10.114 H 17.747 C 14.207,4.066 7.59,0 0,0 m 0,40.375 c 11.303,0 20.468,-9.042 20.468,-20.19 0,-3.264 -0.784,-6.341 -2.175,-9.071 h -36.566 v -0.018 c -1.401,2.737 -2.194,5.818 -2.194,9.089 0,11.148 9.164,20.19 20.467,20.19 m 0,0.842 c -11.771,0 -21.321,-9.415 -21.321,-21.032 0,-11.618 9.55,-21.034 21.321,-21.034 11.777,0 21.322,9.416 21.322,21.034 0,11.617 -9.545,21.032 -21.322,21.032"
             style="fill:#930f15;fill-opacity:1;fill-rule:nonzero;stroke:none"
             id="path98" />
        </g>
        <g
           id="g100"
           transform="translate(421.834,457.7461)">
          <path
             d="M 0,0 -0.444,3.113 -1.596,3.152 -2.038,0 -5.318,0.173 -0.974,9.105 4.077,-1.881 0.223,-1.97 1.727,-0.045 Z m -7.886,0.218 -3.055,0.133 1.725,3.413 1.994,-2.013 z M 7.219,3.857 9.879,-1.664 6.776,-1.837 5.139,1.751 Z M 16.791,-8.669 C 13.91,-10.897 11.608,-8.315 11.608,-8.315 7.797,-11.865 4.741,-8.493 4.741,-8.493 2.348,-10.202 1.287,-9.85 1.287,-9.85 l -0.801,5.782 4.7,0.042 0.84,-1.885 h 2.703 l -0.844,1.843 h 3.189 l 0.801,-1.884 2.745,0.128 -0.752,1.711 h 2.349 L 16.26,-1.489 12.496,-1.574 7.797,7.752 4.121,3.898 -0.974,14.186 -6.159,3.898 l -3.63,3.854 -3.722,-7.446 -4.744,0.135 -0.04,-2.717 3.454,0.133 -1.507,-3.24 h 2.612 l 1.552,3.24 3.188,0.084 -1.46,-3.324 h 2.658 l 1.509,3.324 4.029,-0.044 -1.373,-1.882 1.11,-0.041 -0.713,-5.778 c -1.326,-0.312 -3.366,1.358 -3.366,1.358 -3.81,-3.419 -7.086,0.131 -7.086,0.131 -2.393,-2.63 -5.184,-0.393 -5.184,-0.393 l -0.666,-1.581 c 3.101,-1.971 5.891,-0.13 5.891,-0.13 3.943,-2.495 7.045,-0.171 7.045,-0.171 3.898,-2.456 5.538,-0.093 5.538,-0.093 2.57,-2.274 5.718,0.135 5.718,0.135 3.143,-2.457 6.864,0.084 6.864,0.084 3.146,-1.88 5.986,0.132 5.986,0.132 z"
             style="fill:#930f15;fill-opacity:1;fill-rule:nonzero;stroke:none"
             id="path102" />
        </g>
        <g
           id="g104"
           transform="translate(397.0063,463.335)">
          <path
             d="m 0,0 c 0,0 0.137,-0.123 0.241,0.018 0,0 0.071,0.534 -0.172,0.803 0,0 -0.679,0.942 -0.812,1.437 0,0 -0.175,0.226 -1.057,0.226 0,0 -0.123,-0.206 -0.038,-0.278 0.091,-0.064 0.399,0.038 0.728,-0.562 L -0.262,0.529 C -0.262,0.529 0.016,0.222 0,0"
             style="fill:#930f15;fill-opacity:1;fill-rule:nonzero;stroke:none"
             id="path106" />
        </g>
        <g
           id="g108"
           transform="translate(399.7783,464.877)">
          <path
             d="m 0,0 -0.974,0.085 c 0,0 -0.344,-0.117 -0.065,-0.308 0,0 0.515,-1.012 0.327,-1.591 0,0 0.173,-0.294 0.278,0.12 0,0 0.274,1.095 0.519,1.265 0,0 0.189,0.339 -0.085,0.429"
             style="fill:#930f15;fill-opacity:1;fill-rule:nonzero;stroke:none"
             id="path110" />
        </g>
        <g
           id="g112"
           transform="translate(397.9946,463.4912)">
          <path
             d="m 0,0 c 0,0 -0.089,0.288 -0.247,0.034 0,0 0.09,-0.978 -0.152,-1.304 0,0 -0.019,-0.942 -0.125,-1.197 0,0 -0.152,-0.6 -0.119,-0.736 h -0.104 c 0,0 -0.52,1.387 -1.193,1.114 0,0 -0.049,-0.137 0.103,-0.257 0,0 0.731,-1.351 0.624,-1.729 0,0 0.481,-0.121 0.918,-0.102 0,0 0.503,1.214 0.568,1.659 0,0 0.051,0.824 -0.017,1.097 0,0 -0.103,1.006 -0.256,1.421"
             style="fill:#930f15;fill-opacity:1;fill-rule:nonzero;stroke:none"
             id="path114" />
        </g>
        <g
           id="g116"
           transform="translate(447.6875,462.5796)">
          <path
             d="m 0,0 c 0,0 0.095,0.031 0.181,-0.067 l 0.243,-0.227 c 0,0 -0.674,0.045 -0.424,0.294 m -5.617,-1.174 c -0.906,-0.014 -0.581,1.333 -0.581,1.333 0,0.682 0.675,-0.226 0.675,-0.226 l 0.509,-0.682 c 0.395,-0.606 -0.603,-0.425 -0.603,-0.425 m 6.601,0.88 -0.18,0.082 -0.495,0.42 c 0,0 -0.378,-0.08 -0.309,0.471 0,0 -0.033,0.178 -0.346,0.144 l -0.936,0.699 c 0,0 -0.296,0.227 0.225,0.406 0,0 0.4,0.16 -0.195,0.193 0,0 -0.654,-0.079 -0.737,-0.239 0,0 -0.068,-0.536 0.393,-0.507 0,0 0.871,-0.598 1.02,-0.696 0,0 -0.164,-0.471 -0.051,-0.632 0,0 -0.049,-0.194 -0.492,0.112 0,0 -2.116,0.911 -2.198,1.25 0,0 -0.451,0.082 -0.659,-0.095 0,0 -0.034,-0.426 0.08,-0.506 l 0.64,-0.422 c 0,0 -0.26,-0.131 -0.818,0.05 0,0 -0.545,-0.086 -0.182,-0.535 0,0 0.28,-0.555 -0.117,-0.784 0,0 0.017,1.06 -1.596,2.389 0,0 -0.508,-0.015 -0.752,-2.289 0,0 -0.101,-0.911 0.937,-0.844 l 0.805,0.132 c 0,0 0.081,0.127 0.184,-0.082 L -4.834,-2.13 c 0,0 -0.262,-0.196 0.05,-0.288 0,0 0.298,-0.507 0.495,0.192 l -0.036,0.989 c 0,0 0.627,-0.099 0.528,1.025 l 1.381,-0.082 c 0,0 0.395,0.305 -0.28,0.792 0,0 0.754,-0.37 0.969,-0.629 0,0 0.035,-0.131 0.412,-0.118 0,0 0.081,-0.191 0.751,-0.319 0,0 0.05,-0.343 1.548,-0.423 0,0 0.196,0.466 0,0.697"
             style="fill:#930f15;fill-opacity:1;fill-rule:nonzero;stroke:none"
             id="path118" />
        </g>
        <g
           id="g120"
           transform="translate(409.8862,474.9644)">
          <path
             d="M 0,0 -0.246,-0.392 -0.46,0.777 C -0.525,1.151 -0.246,1.475 -0.246,1.475 -0.099,1.167 -0.031,0.53 -0.031,0.53 0.013,0.211 0,0 0,0 m 0.874,-0.281 c 0,0 -0.284,0.281 0.015,1.369 L 0.673,1.362 0.657,1.573 0.426,1.624 c 0,0 -0.163,0.308 -0.495,0.146 0,0 -0.212,-0.051 0.069,0.339 L 0.56,2.983 0.494,4.087 c 0,0 0.035,0.215 -0.346,0.165 0,0 0.083,-0.213 -0.081,-0.421 -0.166,-0.209 -0.348,-0.635 -0.413,-0.876 0,0 -0.114,1.021 -0.179,1.227 L -0.77,4.527 c 0,0 -0.344,0.193 -0.084,-0.393 V 1.91 l -0.42,-0.581 c 0,0 -0.605,-0.154 -0.151,-0.447 l 0.655,-0.138 0.051,-1.435 -0.006,-0.403 0.53,-0.08 0.453,0.674 c 0,0 0.079,0.044 0.123,-0.102 l 0.082,-0.612 c 0,0 -0.2,-0.637 -0.361,-0.703 0,0 -0.069,-0.034 -0.25,-0.212 0,0 -0.496,-0.65 0.265,-0.65 0,0 0.291,-0.116 0.328,0.325 l 0.049,0.57 1.134,-0.213 c 0,0 0.064,0.309 -0.184,0.683 z"
             style="fill:#930f15;fill-opacity:1;fill-rule:nonzero;stroke:none"
             id="path122" />
        </g>
        <g
           id="g124"
           transform="translate(411.8604,474.7246)">
          <path
             d="m 0,0 -0.646,-0.121 c 0,0 -0.418,-0.225 0.031,-0.265 0,0 0.433,-0.141 0.654,-0.332 0,0 0.301,-0.395 0.434,0.094 v 0.337 C 0.473,-0.287 0.449,0.026 0,0"
             style="fill:#930f15;fill-opacity:1;fill-rule:nonzero;stroke:none"
             id="path126" />
        </g>
        <g
           id="g128"
           transform="translate(414.5591,440.0806)">
          <path
             d="M 0,0 -0.466,-0.372 -0.789,0.081 0.226,0.874 0.582,0.685 V -3.301 H 0 Z"
             style="fill:#930f15;fill-opacity:1;fill-rule:nonzero;stroke:none"
             id="path130" />
        </g>
        <g
           id="g132"
           transform="translate(426.6865,440.0806)">
          <path
             d="M 0,0 -0.47,-0.372 -0.794,0.081 0.228,0.874 0.582,0.685 V -3.301 H 0 Z"
             style="fill:#930f15;fill-opacity:1;fill-rule:nonzero;stroke:none"
             id="path134" />
        </g>
        <g
           id="g136"
           transform="translate(419.2603,438.2271)">
          <path
             d="m 0,0 c 0,-0.099 -0.01,-0.198 -0.03,-0.297 -0.024,-0.106 -0.052,-0.191 -0.087,-0.27 -0.041,-0.077 -0.099,-0.141 -0.177,-0.197 -0.075,-0.055 -0.17,-0.094 -0.278,-0.114 -0.111,-0.017 -0.199,-0.019 -0.27,-0.017 -0.134,0.006 -0.25,0.033 -0.335,0.093 -0.091,0.061 -0.144,0.121 -0.167,0.194 -0.022,0.062 -0.037,0.132 -0.046,0.2 l -0.584,-0.01 0.058,-0.243 c 0.012,-0.09 0.056,-0.201 0.126,-0.317 0.071,-0.118 0.153,-0.213 0.251,-0.279 0.092,-0.072 0.214,-0.121 0.354,-0.159 0.142,-0.041 0.299,-0.056 0.472,-0.051 0.147,0 0.287,0.021 0.426,0.061 0.14,0.04 0.252,0.088 0.343,0.156 0.084,0.067 0.162,0.144 0.226,0.228 0.067,0.093 0.121,0.2 0.158,0.319 0.044,0.111 0.073,0.234 0.085,0.361 0.011,0.124 0.015,0.292 0.015,0.5 V 1.327 C 0.54,1.534 0.522,1.72 0.476,1.876 0.436,2.02 0.371,2.162 0.275,2.285 0.185,2.408 0.051,2.516 -0.124,2.611 -0.298,2.701 -0.506,2.754 -0.742,2.745 -0.88,2.735 -1.023,2.71 -1.171,2.658 -1.329,2.611 -1.455,2.539 -1.562,2.455 -1.666,2.364 -1.75,2.257 -1.805,2.136 -1.86,2.015 -1.9,1.894 -1.916,1.778 -1.939,1.66 -1.951,1.534 -1.951,1.402 c 0,-0.265 0.023,-0.464 0.076,-0.601 0.05,-0.135 0.119,-0.245 0.202,-0.334 0.082,-0.093 0.214,-0.169 0.384,-0.243 0.177,-0.075 0.391,-0.109 0.634,-0.094 0.099,0 0.19,0.012 0.279,0.028 0.089,0.017 0.163,0.041 0.218,0.066 C -0.102,0.247 -0.05,0.272 0,0.298 Z M -0.02,1.505 C -0.01,1.343 -0.018,1.202 -0.05,1.084 -0.075,0.967 -0.124,0.866 -0.193,0.794 -0.261,0.712 -0.411,0.669 -0.639,0.666 c -0.082,-0.004 -0.177,0.003 -0.28,0.021 -0.102,0.017 -0.193,0.06 -0.263,0.122 -0.071,0.063 -0.12,0.144 -0.154,0.247 -0.03,0.081 -0.043,0.201 -0.04,0.364 0,0.16 0.017,0.289 0.051,0.38 0.035,0.09 0.082,0.163 0.14,0.22 0.057,0.05 0.126,0.095 0.211,0.124 0.081,0.028 0.186,0.041 0.312,0.041 C -0.513,2.179 -0.393,2.149 -0.294,2.092 -0.2,2.037 -0.124,1.954 -0.077,1.853 -0.054,1.785 -0.035,1.67 -0.02,1.505"
             style="fill:#930f15;fill-opacity:1;fill-rule:nonzero;stroke:none"
             id="path138" />
        </g>
        <g
           id="g140"
           transform="translate(424.3828,439.2744)">
          <path
             d="M 0,0 C -0.011,0.183 -0.037,0.364 -0.076,0.544 -0.109,0.714 -0.177,0.88 -0.259,1.032 -0.35,1.188 -0.457,1.316 -0.578,1.419 -0.707,1.526 -0.84,1.602 -0.98,1.649 -1.121,1.707 -1.258,1.726 -1.388,1.731 -1.567,1.731 -1.742,1.696 -1.904,1.611 -2.068,1.533 -2.197,1.431 -2.301,1.317 -2.397,1.204 -2.482,1.07 -2.553,0.916 -2.623,0.759 -2.673,0.594 -2.708,0.408 -2.745,0.227 -2.765,0.065 -2.769,-0.08 c -0.004,-0.109 -0.007,-0.284 -0.004,-0.522 0.001,-0.235 0.015,-0.438 0.049,-0.606 0.035,-0.165 0.081,-0.327 0.146,-0.487 0.066,-0.16 0.155,-0.303 0.265,-0.433 0.116,-0.123 0.25,-0.22 0.417,-0.285 0.167,-0.062 0.333,-0.094 0.508,-0.094 0.181,0 0.34,0.018 0.492,0.073 0.146,0.054 0.265,0.118 0.363,0.196 0.095,0.078 0.178,0.187 0.256,0.327 0.078,0.139 0.137,0.28 0.176,0.428 0.039,0.148 0.07,0.313 0.085,0.495 C 0,-0.805 0.016,-0.67 0.018,-0.578 0.021,-0.376 0.018,-0.181 0,0 m -0.554,-0.63 c -0.008,-0.131 -0.02,-0.287 -0.048,-0.468 -0.029,-0.18 -0.082,-0.333 -0.154,-0.462 -0.076,-0.131 -0.166,-0.235 -0.279,-0.292 -0.115,-0.059 -0.233,-0.09 -0.361,-0.084 -0.152,0 -0.272,0.035 -0.376,0.109 -0.101,0.067 -0.187,0.161 -0.253,0.287 -0.069,0.125 -0.119,0.275 -0.151,0.452 -0.031,0.18 -0.047,0.392 -0.053,0.65 0,0.152 0,0.276 0.011,0.375 0.009,0.105 0.027,0.236 0.062,0.393 0.031,0.157 0.078,0.296 0.146,0.429 0.061,0.121 0.143,0.221 0.252,0.291 0.108,0.071 0.231,0.107 0.375,0.107 0.141,-0.003 0.258,-0.043 0.359,-0.112 0.094,-0.065 0.18,-0.158 0.245,-0.269 0.076,-0.11 0.125,-0.248 0.164,-0.41 0.037,-0.165 0.059,-0.372 0.068,-0.639 0,-0.108 -0.004,-0.229 -0.007,-0.357"
             style="fill:#930f15;fill-opacity:1;fill-rule:nonzero;stroke:none"
             id="path142" />
        </g>
        <g
           id="g144"
           transform="translate(432.9844,476.9092)">
          <path
             d="m 0,0 0.61,-0.04 0.76,0.47 c 0,0 0.164,0.059 -0.015,0.302 0,0 -0.119,-0.137 -0.333,-0.104 C 0.809,0.661 0.44,0.625 0.238,0.578 L 0.232,0.57 -0.255,0.625 C -0.094,0.743 -0.391,1.454 -0.391,1.454 -0.546,1.742 -0.71,1.626 -0.71,1.626 -0.902,1.488 -0.973,0.965 -0.973,0.965 L -1.146,0.701 -1.869,0.674 -2.656,0.788 c 0,0 -0.49,0.521 -0.541,-0.089 l 0.152,-0.492 c 0.006,-0.088 0.03,-0.159 0.066,-0.218 l 0.005,-0.022 0.007,0.005 c 0.145,-0.206 0.448,-0.219 0.555,-0.216 -0.223,-0.038 -1.053,-0.482 -1.053,-0.482 -1.215,-0.83 -2.861,-0.872 -2.861,-0.872 -0.523,-0.143 0.073,-0.289 0.073,-0.289 0.529,-0.121 2.515,0.355 2.515,0.355 2.845,0.776 3.254,1.565 3.254,1.565 C -0.337,0.008 -0.164,0 0,0"
             style="fill:#930f15;fill-opacity:1;fill-rule:nonzero;stroke:none"
             id="path146" />
        </g>
        <g
           id="g148"
           transform="translate(431.7227,474.5776)">
          <path
             d="m 0,0 c 0,0 -0.248,0.498 -0.414,-0.06 0,0 -0.397,-1.215 -0.871,-1.276 0,0 -0.408,-0.189 -0.045,-0.279 0,0 0.898,0.398 1.408,0.412 0,0 0.5,0.419 -0.078,1.203"
             style="fill:#930f15;fill-opacity:1;fill-rule:nonzero;stroke:none"
             id="path150" />
        </g>
        <g
           id="g152"
           transform="translate(420.0215,385.0342)">
          <path
             d="m 0,0 c 0,0 0.136,-1.475 1.507,-1.232 0,0 3.35,2.741 3.461,5.686 0,0 1.311,9.255 3.259,12.927 0,0 0.237,2.253 -4.898,7.113 0,0 -1.849,-0.547 -1.73,-1.412 C 1.731,22.198 4.12,21.09 2.693,15.745 L 1.431,4.556 C 1.431,4.556 1.332,1.216 0,0"
             style="fill:#930f15;fill-opacity:1;fill-rule:nonzero;stroke:none"
             id="path154" />
        </g>
        <g
           id="g156"
           transform="translate(444.6973,378.8711)">
          <path
             d="m 0,0 -5.168,5.834 c 0,0 -2.673,1.196 -2.109,-1.43 0,0 -2.604,-8.796 -6.937,-11.181 0,0 -0.608,-2.659 2.275,-0.813 0,0 7.703,4.92 10.064,4.586 0,0 3.014,0.98 1.875,3.004"
             style="fill:#930f15;fill-opacity:1;fill-rule:nonzero;stroke:none"
             id="path158" />
        </g>
        <g
           id="g160"
           transform="translate(426.623,380.5146)">
          <path
             d="m 0,0 c 0,0 1.111,2.188 -1.221,1.534 0,0 -4.92,-6.212 -8.139,-6.799 0,0 -5.34,-5.438 -7.365,-6.379 0,0 -4.234,-2.663 -4.801,-3.657 l -0.601,0.572 c 0,0 4.676,11.006 -0.764,13.11 0,0 -1.067,-0.531 -0.821,-2.09 0,0 -3.291,-11.948 -5.996,-13.594 0,0 2.165,-3.367 4.771,-5.644 0,0 9.676,4.39 12.553,6.624 0,0 4.863,4.556 5.991,6.545 0,0 5.016,6.507 6.393,9.778"
             style="fill:#930f15;fill-opacity:1;fill-rule:nonzero;stroke:none"
             id="path162" />
        </g>
        <g
           id="g164"
           transform="translate(430.9414,178.1826)">
          <path
             d="M 0,0 C 0,0 0.009,0.997 1.165,1.472 L 4.039,3.021 C 4.039,3.021 1.514,-3.025 0,0 m -6.25,-55.269 c -2.605,-8.349 -14.138,-1.153 -14.138,-1.153 -6.334,2.098 4.172,5.466 4.172,5.466 l 7.887,2.576 c 6.804,1.783 2.079,-6.889 2.079,-6.889 M 5.736,8.152 4.424,6.758 -0.999,3.509 c 0,0 -0.399,-3.717 -5.332,-1.406 0,0 -1.774,0.234 -2.414,-2.707 l -9.357,-6.469 c 0,0 -3.016,-2.017 -3.063,3.366 0,0 -0.316,4.138 -2.43,-1.203 0,0 -1.244,-6.296 0.025,-7.544 0,0 4.767,-2.266 5.883,2.058 0,0 8.241,6.155 9.598,7.203 0,0 3.88,-2.954 5.747,-2.402 0,0 1.651,-1.062 -2.562,-4.167 0,0 -14.926,-16.683 -18.341,-16.392 0,0 -2.116,-3.817 -1.102,-6.334 0,0 3.84,-1.59 4.936,-0.809 l 5.882,4.599 c 0,0 0.401,-2.808 -2.969,-7.412 0,0 -0.891,-5.227 4.44,-3.3 0,0 5.997,0.862 6.901,-3.479 0,0 -9.775,3.406 -27.068,-7.282 0,0 -1.4,-4.726 18.988,-14.013 0,0 8.16,-3.704 10.719,5.993 l 1.234,7.818 c 0,0 -0.954,1.152 1.318,1.406 l 5.027,-2.012 c 0,0 1.017,-3.005 2.875,-0.445 0,0 5.584,1.179 -0.303,5.148 l -9.326,2.75 c 0,0 2.815,5.426 -7.896,8.003 l 4.959,12.432 c 0,0 -1.671,4.563 -8.254,-0.127 0,0 5.777,5.793 8.825,6.952 0,0 1.327,-0.084 2.321,3.427 0,0 2.066,0.143 5.325,5.941 0,0 3.327,-0.584 8.643,12.903 0,0 -3.769,3.278 -6.494,2.147"
             style="fill:#930f15;fill-opacity:1;fill-rule:nonzero;stroke:none"
             id="path166" />
        </g>
        <g
           id="g168"
           transform="translate(416.6582,301.4922)">
          <path
             d="m 0,0 -3.847,-2.349 3.323,11.177 c 1.086,3.565 4.947,5.194 4.947,5.194 C 4.335,10.668 2.096,4.815 2.096,4.815 1.097,1.776 0,0 0,0 m 6.316,-6.234 c 0,0 -1.172,3.635 6.193,11.863 l -0.627,3.351 0.79,1.929 -1.772,1.433 c 0,0 -0.052,3.436 -3.615,3.436 0,0 -2.063,0.513 2.07,2.716 l 8.736,5.229 4.311,9.956 c 0,0 1.226,1.717 -2.256,2.928 0,0 -0.233,-2.198 -2.593,-3.333 -2.346,-1.128 -5.778,-4.036 -7.448,-5.88 0,0 3.543,9.453 3.915,11.591 l -0.59,4.067 c 0,0 -2.16,3.166 -2.487,-3.062 L 1.077,20.492 -5.098,17.207 c 0,0 -5.939,1.322 -3.32,-3.205 l 5.095,-4.081 -5.931,-12.818 -1.837,-3.524 4.25,-3.024 6.894,3.968 c 0,0 0.887,-0.006 0.593,-1.449 l -2.018,-5.746 c 0,0 -4.545,-4.703 -6.256,-4.548 0,0 -0.709,0 -3.061,-0.767 0,0 -7.152,-3.536 -0.619,-6.857 0,0 2.056,-2.279 4.291,1.409 l 2.95,4.776 8.87,-6.815 c 0,0 1.933,2.41 1.465,6.755 z"
             style="fill:#930f15;fill-opacity:1;fill-rule:nonzero;stroke:none"
             id="path170" />
        </g>
        <g
           id="g172"
           transform="translate(432.6934,290.7383)">
          <path
             d="m 0,0 -6.086,1.765 c 0,0 -4.676,-0.141 -0.955,-2.411 0,0 3.135,-3.169 4.178,-5.808 0,0 0.877,-4.797 4.199,-1.063 l 1.488,2.935 c 0,0 1.178,2.827 -2.824,4.582"
             style="fill:#930f15;fill-opacity:1;fill-rule:nonzero;stroke:none"
             id="path174" />
        </g>
        <g
           id="g176"
           transform="translate(435.0098,246.7549)">
          <path
             d="m 0,0 4.431,2.651 3.01,6.953 c 0,0 0.856,1.2 -1.572,2.045 0,0 -0.166,-1.534 -1.814,-2.325 C 2.414,8.534 0.02,6.502 -1.146,5.215 L -1.152,5.127 -4.803,3.179 c 0.547,1.609 -4.975,5.171 -4.975,5.171 -2.482,1.285 -3.044,-0.311 -3.044,-0.311 -0.687,-1.894 1.375,-5.904 1.375,-5.904 l 0.076,-2.698 -4.9,-3.663 -6.024,-2.969 c 0,0 -5.938,1.319 -3.318,-3.205 l 3.427,-2.745 c 0.472,-0.596 0.99,-0.988 1.521,-1.215 l 0.152,-0.121 0.021,0.057 c 2.011,-0.748 4.173,0.611 4.908,1.141 -1.368,-1.34 -4.979,-8.44 -4.979,-8.44 -4.408,-11.659 -15.672,-19.858 -15.672,-19.858 -2.943,-3.521 1.92,-1.693 1.92,-1.693 4.262,1.708 15.75,14.567 15.75,14.567 16.024,19.093 15.02,26.615 15.02,26.615 C -2.377,-1.553 -1.148,-0.794 0,0"
             style="fill:#930f15;fill-opacity:1;fill-rule:nonzero;stroke:none"
             id="path178" />
        </g>
        <g
           id="g180"
           transform="translate(437.541,224.2998)">
          <path
             d="m 0,0 c 0,0 -4.125,2.33 -2.571,-2.4 0,0 3.134,-10.447 0.123,-13.16 0,0 -1.916,-3.287 1.047,-2.161 0,0 4.311,7.099 7.797,9.641 0,0 1.436,5.349 -6.396,8.08"
             style="fill:#930f15;fill-opacity:1;fill-rule:nonzero;stroke:none"
             id="path182" />
        </g>
      </g>
    </g>
  </g>
</svg>
