<?xml version="1.0" encoding="UTF-8" standalone="no"?>
<!-- Created with Inkscape (http://www.inkscape.org/) -->

<svg
   version="1.1"
   id="svg2"
   width="1122.52"
   height="793.70667"
   viewBox="0 0 1122.52 793.70667"
   sodipodi:docname="红白.svg"
   inkscape:version="1.2.2 (b0a8486541, 2022-12-01)"
   xmlns:inkscape="http://www.inkscape.org/namespaces/inkscape"
   xmlns:sodipodi="http://sodipodi.sourceforge.net/DTD/sodipodi-0.dtd"
   xmlns="http://www.w3.org/2000/svg"
   xmlns:svg="http://www.w3.org/2000/svg">
  <defs
     id="defs6">
    <clipPath
       clipPathUnits="userSpaceOnUse"
       id="clipPath18">
      <path
         d="M 0,595.28 H 841.89 V 0 H 0 Z"
         id="path16" />
    </clipPath>
  </defs>
  <sodipodi:namedview
     id="namedview4"
     pagecolor="#ffffff"
     bordercolor="#000000"
     borderopacity="0.25"
     inkscape:showpageshadow="2"
     inkscape:pageopacity="0.0"
     inkscape:pagecheckerboard="0"
     inkscape:deskcolor="#d1d1d1"
     showgrid="false"
     inkscape:zoom="1.2838496"
     inkscape:cx="561.59225"
     inkscape:cy="397.63224"
     inkscape:window-width="2560"
     inkscape:window-height="1284"
     inkscape:window-x="0"
     inkscape:window-y="0"
     inkscape:window-maximized="1"
     inkscape:current-layer="g10">
    <inkscape:page
       x="0"
       y="0"
       id="page8"
       width="1122.52"
       height="793.70667" />
  </sodipodi:namedview>
  <g
     id="g10"
     inkscape:groupmode="layer"
     inkscape:label="Page 1"
     transform="matrix(1.3333333,0,0,-1.3333333,0,793.70667)">
    <g
       id="g12">
      <g
         id="g14"
         clip-path="url(#clipPath18)">
        <g
           id="g20"
           transform="translate(420.3398,415.0674)">
          <path
             d="m 0,0 c -65.159,0 -118.168,-53.036 -118.168,-118.227 0,-65.182 53.009,-118.211 118.168,-118.211 65.162,0 118.175,53.029 118.175,118.211 C 118.175,-53.036 65.162,0 0,0 m 0,-240.48 c -67.413,0 -122.258,54.843 -122.258,122.253 0,67.419 54.845,122.269 122.258,122.269 67.417,0 122.265,-54.85 122.265,-122.269 0,-67.41 -54.848,-122.253 -122.265,-122.253"
             style="fill:#930f15;fill-opacity:1;fill-rule:nonzero;stroke:none"
             id="path22" />
        </g>
        <g
           id="g24"
           transform="translate(420.3418,182.1006)">
          <path
             d="m 0,0 c -63.355,0 -114.713,51.373 -114.713,114.742 0,63.38 51.358,114.753 114.713,114.753 63.374,0 114.716,-51.373 114.716,-114.753 C 114.716,51.373 63.374,0 0,0"
             style="fill:#930f15;fill-opacity:1;fill-rule:evenodd;stroke:none"
             id="path26" />
        </g>
        <g
           id="g28"
           transform="translate(405.9819,198.9004)">
          <path
             d="M 0,0 0.386,2.546 7.083,1.561 6.158,-4.448 c -0.735,-0.52 -1.774,-0.927 -3.082,-1.211 -1.3,-0.276 -2.575,-0.327 -3.845,-0.135 -1.615,0.225 -2.961,0.766 -4.041,1.603 -1.11,0.836 -1.863,1.914 -2.272,3.236 -0.405,1.317 -0.493,2.684 -0.281,4.143 0.258,1.569 0.803,2.903 1.667,4.022 0.849,1.127 1.978,1.903 3.368,2.379 C -1.261,9.928 0,9.997 1.471,9.783 3.38,9.498 4.812,8.894 5.747,7.946 6.707,7.007 7.229,5.835 7.328,4.396 L 4.146,4.307 C 4.043,5.07 3.715,5.709 3.196,6.214 2.668,6.734 1.964,7.07 1.068,7.204 -0.277,7.386 -1.428,7.127 -2.363,6.411 -3.28,5.681 -3.88,4.476 -4.147,2.831 -4.403,1.045 -4.22,-0.361 -3.539,-1.374 c 0.663,-1.015 1.665,-1.629 2.985,-1.815 0.632,-0.094 1.295,-0.055 1.991,0.085 0.699,0.175 1.289,0.378 1.829,0.663 l 0.288,1.92 z"
             style="fill:#ffffff;fill-opacity:1;fill-rule:nonzero;stroke:none"
             id="path30" />
        </g>
        <g
           id="g32"
           transform="translate(380.54,199.7803)">
          <path
             d="M 0,0 5.155,14.325 8.035,13.35 10.597,1.721 14.043,11.287 16.796,10.35 11.65,-3.983 8.663,-2.966 6.13,8.465 2.742,-0.945 Z"
             style="fill:#ffffff;fill-opacity:1;fill-rule:nonzero;stroke:none"
             id="path34" />
        </g>
        <g
           id="g36"
           transform="translate(336.6177,232.9814)">
          <path
             d="M 0,0 11.836,9.875 13.812,7.616 10.059,-3.706 17.953,2.898 19.851,0.725 8.023,-9.148 5.989,-6.811 9.655,4.299 1.902,-2.154 Z"
             style="fill:#ffffff;fill-opacity:1;fill-rule:nonzero;stroke:none"
             id="path38" />
        </g>
        <g
           id="g40"
           transform="translate(365.2695,209.7598)">
          <path
             d="m 0,0 c 0.436,-1.871 1.645,-3.397 3.627,-4.561 1.966,-1.147 3.897,-1.476 5.798,-0.971 1.895,0.49 3.498,1.795 4.797,3.902 1.313,2.125 1.751,4.125 1.311,6.009 C 15.08,6.254 13.871,7.78 11.919,8.942 10.839,9.587 9.771,9.964 8.726,10.123 7.947,10.22 7.141,10.169 6.28,9.951 5.426,9.736 4.645,9.382 3.934,8.888 2.976,8.229 2.084,7.253 1.258,5.919 -0.015,3.849 -0.429,1.87 0,0 M 7.193,7.139 C 8.331,7.479 9.457,7.323 10.569,6.672 11.671,6.024 12.331,5.131 12.541,4.001 12.757,2.862 12.405,1.554 11.491,0.067 10.55,-1.449 9.508,-2.381 8.344,-2.729 7.193,-3.088 6.078,-2.934 5.005,-2.321 3.94,-1.679 3.282,-0.77 3.066,0.396 2.849,1.554 3.189,2.891 4.092,4.377 5.017,5.873 6.055,6.787 7.193,7.139"
             style="fill:#ffffff;fill-opacity:1;fill-rule:nonzero;stroke:none"
             id="path42" />
        </g>
        <g
           id="g44"
           transform="translate(348.7798,219.8848)">
          <path
             d="M 0,0 4.496,-3.729 C 5.379,-4.446 6.158,-4.95 6.826,-5.241 7.734,-5.61 8.559,-5.746 9.32,-5.7 c 1.001,0.085 2.01,0.413 3.038,1.011 0.844,0.484 1.676,1.203 2.506,2.155 0.941,1.089 1.601,2.115 1.985,3.06 0.387,0.95 0.564,1.896 0.497,2.81 -0.049,0.94 -0.345,1.785 -0.856,2.572 -0.387,0.563 -1.068,1.253 -2.062,2.069 l -4.364,3.615 z M 11.826,6.77 C 12.798,5.945 13.418,5.371 13.695,5.018 14.059,4.569 14.258,4.071 14.326,3.565 14.38,3.055 14.284,2.506 14.024,1.884 13.783,1.272 13.266,0.526 12.483,-0.382 11.692,-1.285 11.01,-1.909 10.405,-2.306 9.797,-2.69 9.253,-2.872 8.817,-2.9 c -0.46,-0.039 -0.916,0.099 -1.388,0.326 -0.355,0.16 -0.877,0.53 -1.543,1.062 l -1.769,1.488 6.641,7.662 z"
             style="fill:#ffffff;fill-opacity:1;fill-rule:nonzero;stroke:none"
             id="path46" />
        </g>
        <g
           id="g48"
           transform="translate(344.6079,249.1914)">
          <path
             d="m 0,0 -1.647,2.825 -16.521,-2.377 1.646,-2.83 3.727,0.634 3.08,-5.308 -2.417,-2.861 1.672,-2.861 z m -10.026,-1.298 6.049,0.996 -3.946,-4.612 z"
             style="fill:#ffffff;fill-opacity:1;fill-rule:nonzero;stroke:none"
             id="path50" />
        </g>
        <g
           id="g52"
           transform="translate(320.4092,264.7959)">
          <path
             d="m 0,0 14.633,5.178 1.068,-2.899 -5.772,-2.04 2.089,-5.616 5.771,2.034 1.073,-2.902 -14.615,-5.156 -1.088,2.873 6.388,2.262 -2.086,5.623 -6.381,-2.252 z"
             style="fill:#ffffff;fill-opacity:1;fill-rule:nonzero;stroke:none"
             id="path54" />
        </g>
        <g
           id="g56"
           transform="translate(321.5879,282.8418)">
          <path
             d="m 0,0 0.84,-2.874 c -0.969,-0.356 -1.661,-0.85 -2.022,-1.479 -0.387,-0.615 -0.471,-1.393 -0.31,-2.305 0.186,-0.958 0.528,-1.668 1.047,-2.092 0.508,-0.404 1.049,-0.571 1.606,-0.451 0.368,0.065 0.663,0.208 0.877,0.451 0.213,0.261 0.37,0.675 0.467,1.213 0.052,0.371 0.122,1.222 0.212,2.518 0.115,1.692 0.415,2.904 0.888,3.661 0.679,1.058 1.604,1.702 2.819,1.926 0.791,0.139 1.562,0.051 2.32,-0.252 0.754,-0.322 1.388,-0.841 1.894,-1.598 0.504,-0.734 0.868,-1.689 1.068,-2.833 0.352,-1.875 0.183,-3.362 -0.472,-4.452 -0.662,-1.108 -1.697,-1.783 -3.095,-2.091 l -0.67,3.004 c 0.756,0.267 1.261,0.641 1.529,1.133 0.262,0.472 0.316,1.132 0.168,1.975 -0.168,0.881 -0.478,1.517 -0.938,1.95 C 7.927,-2.319 7.595,-2.219 7.196,-2.292 6.825,-2.347 6.549,-2.556 6.346,-2.887 6.087,-3.344 5.929,-4.323 5.834,-5.847 5.746,-7.372 5.588,-8.514 5.319,-9.298 5.082,-10.058 4.663,-10.7 4.074,-11.206 3.496,-11.73 2.707,-12.067 1.738,-12.229 0.863,-12.395 0,-12.301 -0.868,-11.966 c -0.852,0.349 -1.551,0.911 -2.072,1.743 -0.544,0.78 -0.935,1.83 -1.175,3.141 -0.357,1.88 -0.176,3.395 0.535,4.575 C -2.866,-1.337 -1.675,-0.51 0,0"
             style="fill:#ffffff;fill-opacity:1;fill-rule:nonzero;stroke:none"
             id="path58" />
        </g>
        <g
           id="g60"
           transform="translate(423.4434,207.1934)">
          <path
             d="m 0,0 3.126,0.267 0.735,-8.198 c 0.119,-1.317 0.229,-2.151 0.343,-2.531 0.185,-0.595 0.562,-1.075 1.089,-1.414 0.529,-0.313 1.231,-0.457 2.096,-0.388 0.867,0.075 1.517,0.315 1.931,0.72 0.418,0.377 0.648,0.839 0.686,1.354 0.057,0.534 0.015,1.402 -0.084,2.594 l -0.748,8.387 3.133,0.268 0.707,-7.961 c 0.171,-1.827 0.197,-3.11 0.094,-3.867 -0.094,-0.768 -0.343,-1.42 -0.751,-1.98 -0.415,-0.567 -0.98,-1.032 -1.715,-1.399 -0.73,-0.371 -1.699,-0.619 -2.932,-0.724 -1.469,-0.127 -2.6,-0.035 -3.404,0.222 -0.783,0.269 -1.436,0.657 -1.917,1.163 -0.488,0.486 -0.837,1.019 -1.031,1.595 -0.274,0.843 -0.502,2.114 -0.647,3.812 z"
             style="fill:#ffffff;fill-opacity:1;fill-rule:nonzero;stroke:none"
             id="path62" />
        </g>
        <g
           id="g64"
           transform="translate(443.0947,194.1914)">
          <path
             d="M 0,0 -4.259,14.638 -1.333,15.43 7.658,7.376 4.802,17.122 7.607,17.898 11.859,3.294 8.831,2.462 0.007,10.384 2.793,0.792 Z"
             style="fill:#ffffff;fill-opacity:1;fill-rule:nonzero;stroke:none"
             id="path66" />
        </g>
        <g
           id="g68"
           transform="translate(459.6855,199.4355)">
          <path
             d="M 0,0 -5.906,14.058 -2.994,15.229 2.92,1.178 Z"
             style="fill:#ffffff;fill-opacity:1;fill-rule:nonzero;stroke:none"
             id="path70" />
        </g>
        <g
           id="g72"
           transform="translate(470.5303,204.2705)">
          <path
             d="M 0,0 -12.429,10.62 -9.46,12.23 -0.406,4.284 -2.718,15.917 0.21,17.499 2.97,1.626 Z"
             style="fill:#ffffff;fill-opacity:1;fill-rule:nonzero;stroke:none"
             id="path74" />
        </g>
        <g
           id="g76"
           transform="translate(481.5938,210.8857)">
          <path
             d="m 0,0 -9.688,11.901 9.017,7.002 1.655,-2.019 -6.582,-5.081 2.149,-2.642 6.122,4.725 L 4.304,11.891 -1.79,7.134 0.818,3.939 7.604,9.19 9.251,7.206 Z"
             style="fill:#ffffff;fill-opacity:1;fill-rule:nonzero;stroke:none"
             id="path78" />
        </g>
        <g
           id="g80"
           transform="translate(496.6738,223.7725)">
          <path
             d="m 0,0 -4.776,4.287 0.423,0.452 c 0.491,0.531 0.901,0.852 1.205,1.033 0.313,0.15 0.673,0.246 1.111,0.246 0.439,0.008 1.364,-0.096 2.805,-0.307 L 4.78,5.104 7.315,7.793 3.812,8.427 C 2.403,8.688 1.39,8.814 0.734,8.814 c -0.641,0 -1.332,-0.126 -2.096,-0.351 0.785,1.103 1.129,2.17 1.016,3.164 -0.093,0.985 -0.572,1.875 -1.431,2.647 -0.686,0.622 -1.44,0.983 -2.269,1.136 -0.842,0.149 -1.598,0.045 -2.333,-0.328 -0.71,-0.355 -1.615,-1.127 -2.746,-2.316 l -4.472,-4.758 11.465,-10.25 z m -9.516,8.531 1.636,1.754 c 0.865,0.903 1.394,1.45 1.597,1.615 0.399,0.299 0.823,0.445 1.248,0.445 0.423,-0.004 0.827,-0.197 1.206,-0.541 0.346,-0.312 0.571,-0.646 0.648,-1.009 0.091,-0.356 0.06,-0.714 -0.097,-1.05 -0.163,-0.37 -0.743,-1.08 -1.757,-2.161 L -6.603,5.922 Z"
             style="fill:#ffffff;fill-opacity:1;fill-rule:nonzero;stroke:none"
             id="path82" />
        </g>
        <g
           id="g84"
           transform="translate(501.5908,237.0469)">
          <path
             d="M 0,0 1.456,2.642 C 2.414,2.228 3.251,2.136 3.963,2.336 4.671,2.527 5.279,3.013 5.815,3.798 6.374,4.592 6.629,5.332 6.541,5.979 6.48,6.628 6.205,7.118 5.739,7.418 5.424,7.621 5.111,7.693 4.754,7.677 4.43,7.634 4.033,7.447 3.568,7.133 3.264,6.896 2.606,6.353 1.619,5.468 0.346,4.333 -0.751,3.656 -1.63,3.422 -2.868,3.134 -3.999,3.312 -5.025,3.965 -5.679,4.402 -6.171,4.974 -6.506,5.71 c -0.301,0.738 -0.398,1.546 -0.229,2.432 0.18,0.87 0.591,1.797 1.247,2.782 1.08,1.574 2.245,2.526 3.515,2.86 1.263,0.34 2.488,0.146 3.713,-0.577 L 0.091,10.573 C -0.649,10.894 -1.28,10.97 -1.814,10.827 -2.362,10.64 -2.868,10.19 -3.344,9.499 -3.849,8.754 -4.105,8.068 -4.077,7.447 c 0.031,-0.384 0.2,-0.687 0.533,-0.914 0.301,-0.196 0.651,-0.247 1.038,-0.121 0.498,0.121 1.316,0.721 2.478,1.761 1.145,1.035 2.086,1.757 2.81,2.142 0.728,0.381 1.479,0.545 2.27,0.517 C 5.835,10.8 6.634,10.519 7.463,10.009 8.198,9.503 8.76,8.836 9.144,8.024 9.516,7.198 9.602,6.322 9.421,5.381 9.234,4.443 8.76,3.422 8.012,2.317 6.922,0.729 5.708,-0.254 4.36,-0.605 3.025,-0.994 1.577,-0.786 0,0"
             style="fill:#ffffff;fill-opacity:1;fill-rule:nonzero;stroke:none"
             id="path86" />
        </g>
        <g
           id="g88"
           transform="translate(514.8037,248.6836)">
          <path
             d="m 0,0 -14.046,6.556 1.361,2.768 14.04,-6.547 z"
             style="fill:#ffffff;fill-opacity:1;fill-rule:nonzero;stroke:none"
             id="path90" />
        </g>
        <g
           id="g92"
           transform="translate(519.2354,258.9395)">
          <path
             d="m 0,0 -12.189,4.165 -1.527,-4.265 -2.486,0.865 4.067,11.356 2.484,-0.843 -1.504,-4.204 12.2,-4.177 z"
             style="fill:#ffffff;fill-opacity:1;fill-rule:nonzero;stroke:none"
             id="path94" />
        </g>
        <g
           id="g96"
           transform="translate(523.7041,274.2412)">
          <path
             d="m 0,0 -6.438,1.178 -9.89,-3.878 0.67,3.528 6.727,2.42 -5.399,4.556 0.659,3.479 7.835,-7.085 6.406,-1.176 z"
             style="fill:#ffffff;fill-opacity:1;fill-rule:nonzero;stroke:none"
             id="path98" />
        </g>
        <g
           id="g100"
           transform="translate(419.9082,219.7471)">
          <path
             d="M 0,0 C -29.219,0 -54.731,15.664 -68.348,38.981 H 68.383 C 54.744,15.664 29.245,0 0,0 m 0,155.604 c 43.551,0 78.866,-34.852 78.866,-77.815 0,-12.57 -3.019,-24.435 -8.378,-34.959 H -70.414 v -0.064 c -5.395,10.547 -8.444,22.422 -8.444,35.023 0,42.963 35.309,77.815 78.858,77.815 m 0,3.241 c -45.358,0 -82.155,-36.284 -82.155,-81.056 0,-44.772 36.797,-81.059 82.155,-81.059 45.382,0 82.162,36.287 82.162,81.059 0,44.772 -36.78,81.056 -82.162,81.056"
             style="fill:#ffffff;fill-opacity:1;fill-rule:nonzero;stroke:none"
             id="path102" />
        </g>
        <g
           id="g104"
           transform="translate(423.9199,314.0518)">
          <path
             d="M 0,0 -1.708,11.998 -6.153,12.146 -7.854,0 -20.49,0.668 -3.755,35.094 15.71,-7.251 0.855,-7.589 6.66,-0.172 Z m -30.385,0.84 -11.771,0.516 6.645,13.148 7.687,-7.759 z M 27.817,14.862 38.064,-6.415 26.112,-7.081 19.804,6.745 Z M 64.696,-33.41 C 53.601,-42 44.73,-32.048 44.73,-32.048 30.042,-45.728 18.273,-32.731 18.273,-32.731 9.046,-39.314 4.959,-37.96 4.959,-37.96 l -3.085,22.279 18.106,0.164 3.241,-7.267 h 10.416 l -3.254,7.103 h 12.284 l 3.092,-7.259 10.581,0.494 -2.902,6.589 h 9.049 L 62.655,-5.739 48.149,-6.072 30.042,29.876 15.88,15.019 -3.755,54.675 -23.728,15.019 -37.718,29.876 -52.061,1.179 l -18.275,0.517 -0.159,-10.468 13.311,0.51 -5.808,-12.487 h 10.067 l 5.977,12.487 12.291,0.328 -5.629,-12.815 h 10.242 l 5.81,12.815 15.528,-0.17 -5.294,-7.251 4.281,-0.162 -2.748,-22.264 c -5.112,-1.201 -12.968,5.225 -12.968,5.225 -14.682,-13.172 -27.309,0.508 -27.309,0.508 -9.213,-10.136 -19.973,-1.515 -19.973,-1.515 l -2.565,-6.091 c 11.957,-7.591 22.697,-0.498 22.697,-0.498 15.195,-9.618 27.15,-0.662 27.15,-0.662 15.013,-9.465 21.341,-0.359 21.341,-0.359 9.902,-8.765 22.026,0.521 22.026,0.521 12.11,-9.465 26.448,0.326 26.448,0.326 12.127,-7.249 23.058,0.506 23.058,0.506 z"
             style="fill:#ffffff;fill-opacity:1;fill-rule:nonzero;stroke:none"
             id="path106" />
        </g>
        <g
           id="g108"
           transform="translate(328.2505,335.5889)">
          <path
             d="m 0,0 c 0,0 0.534,-0.469 0.932,0.071 0,0 0.276,2.06 -0.661,3.095 0,0 -2.612,3.633 -3.132,5.542 0,0 -0.669,0.868 -4.067,0.868 0,0 -0.474,-0.794 -0.151,-1.07 0.347,-0.246 1.537,0.141 2.807,-2.167 L -1.01,2.044 C -1.01,2.044 0.067,0.859 0,0"
             style="fill:#ffffff;fill-opacity:1;fill-rule:nonzero;stroke:none"
             id="path110" />
        </g>
        <g
           id="g112"
           transform="translate(338.9355,341.5332)">
          <path
             d="m 0,0 -3.746,0.325 c 0,0 -1.332,-0.452 -0.257,-1.181 0,0 1.987,-3.903 1.259,-6.138 0,0 0.666,-1.127 1.069,0.469 0,0 1.061,4.217 2.004,4.873 0,0 0.728,1.303 -0.329,1.652"
             style="fill:#ffffff;fill-opacity:1;fill-rule:nonzero;stroke:none"
             id="path114" />
        </g>
        <g
           id="g116"
           transform="translate(332.064,336.1943)">
          <path
             d="m 0,0 c 0,0 -0.344,1.112 -0.954,0.132 0,0 0.348,-3.774 -0.587,-5.029 0,0 -0.067,-3.627 -0.475,-4.611 0,0 -0.589,-2.313 -0.465,-2.838 h -0.4 c 0,0 -2,5.349 -4.596,4.297 0,0 -0.189,-0.528 0.4,-0.992 0,0 2.815,-5.207 2.406,-6.663 0,0 1.852,-0.47 3.532,-0.394 0,0 1.939,4.676 2.194,6.396 0,0 0.192,3.174 -0.067,4.222 0,0 -0.399,3.879 -0.988,5.48"
             style="fill:#ffffff;fill-opacity:1;fill-rule:nonzero;stroke:none"
             id="path118" />
        </g>
        <g
           id="g120"
           transform="translate(523.5361,332.6812)">
          <path
             d="m 0,0 c 0,0 0.37,0.121 0.697,-0.259 l 0.938,-0.873 c 0,0 -2.593,0.174 -1.635,1.132 m -21.645,-4.524 c -3.493,-0.053 -2.233,5.136 -2.233,5.136 0,2.627 2.601,-0.871 2.601,-0.871 l 1.966,-2.631 c 1.514,-2.329 -2.334,-1.634 -2.334,-1.634 m 25.446,3.392 -0.7,0.312 -1.904,1.626 c 0,0 -1.46,-0.315 -1.197,1.809 0,0 -0.129,0.688 -1.328,0.562 L -4.94,5.87 c 0,0 -1.137,0.868 0.873,1.558 0,0 1.533,0.62 -0.755,0.744 0,0 -2.52,-0.305 -2.836,-0.924 0,0 -0.266,-2.062 1.512,-1.942 0,0 3.354,-2.314 3.926,-2.691 0,0 -0.634,-1.809 -0.193,-2.436 0,0 -0.189,-0.745 -1.894,0.433 0,0 -8.159,3.508 -8.477,4.819 0,0 -1.727,0.315 -2.532,-0.365 0,0 -0.133,-1.643 0.304,-1.95 l 2.476,-1.628 c 0,0 -1.008,-0.503 -3.16,0.191 0,0 -2.101,-0.329 -0.7,-2.061 0,0 1.08,-2.136 -0.452,-3.022 0,0 0.065,4.086 -6.145,9.21 0,0 -1.958,-0.06 -2.903,-8.82 0,0 -0.394,-3.515 3.608,-3.257 l 3.105,0.51 c 0,0 0.315,0.492 0.705,-0.316 l -0.143,-2.134 c 0,0 -1.008,-0.75 0.185,-1.108 0,0 1.151,-1.96 1.915,0.743 l -0.144,3.812 c 0,0 2.417,-0.384 2.038,3.944 l 5.321,-0.312 c 0,0 1.52,1.173 -1.08,3.051 0,0 2.907,-1.428 3.737,-2.427 0,0 0.133,-0.503 1.585,-0.45 0,0 0.308,-0.735 2.895,-1.236 0,0 0.194,-1.314 5.97,-1.625 0,0 0.749,1.797 0,2.687"
             style="fill:#ffffff;fill-opacity:1;fill-rule:nonzero;stroke:none"
             id="path122" />
        </g>
        <g
           id="g124"
           transform="translate(377.8872,380.4111)">
          <path
             d="M 0,0 -0.947,-1.512 -1.779,2.992 C -2.032,4.437 -0.947,5.685 -0.947,5.685 -0.389,4.493 -0.125,2.044 -0.125,2.044 0.048,0.81 0,0 0,0 m 3.36,-1.084 c 0,0 -1.093,1.084 0.057,5.277 L 2.59,5.247 2.525,6.061 1.64,6.256 c 0,0 -0.629,1.188 -1.905,0.562 0,0 -0.822,-0.197 0.265,1.31 l 2.149,3.369 -0.254,4.257 c 0,0 0.137,0.822 -1.325,0.632 0,0 0.316,-0.823 -0.313,-1.619 -0.646,-0.81 -1.344,-2.45 -1.594,-3.379 0,0 -0.442,3.93 -0.695,4.732 l -0.935,1.327 c 0,0 -1.331,0.741 -0.33,-1.514 V 7.362 l -1.612,-2.24 c 0,0 -2.336,-0.6 -0.589,-1.723 l 2.531,-0.53 0.194,-5.533 -0.022,-1.551 2.039,-0.314 1.745,2.6 c 0,0 0.305,0.172 0.477,-0.391 l 0.311,-2.361 c 0,0 -0.766,-2.457 -1.39,-2.707 0,0 -0.26,-0.134 -0.959,-0.818 0,0 -1.91,-2.504 1.015,-2.504 0,0 1.126,-0.448 1.268,1.248 l 0.184,2.196 4.373,-0.817 c 0,0 0.252,1.19 -0.71,2.635 z"
             style="fill:#ffffff;fill-opacity:1;fill-rule:nonzero;stroke:none"
             id="path126" />
        </g>
        <g
           id="g128"
           transform="translate(385.4893,379.4868)">
          <path
             d="m 0,0 -2.487,-0.464 c 0,0 -1.616,-0.874 0.115,-1.026 0,0 1.672,-0.544 2.521,-1.28 0,0 1.158,-1.52 1.675,0.359 V -1.11 C 1.824,-1.11 1.731,0.097 0,0"
             style="fill:#ffffff;fill-opacity:1;fill-rule:nonzero;stroke:none"
             id="path130" />
        </g>
        <g
           id="g132"
           transform="translate(395.8926,245.9697)">
          <path
             d="M 0,0 -1.797,-1.435 -3.048,0.314 0.87,3.368 2.239,2.645 V -12.723 H 0 Z"
             style="fill:#ffffff;fill-opacity:1;fill-rule:nonzero;stroke:none"
             id="path134" />
        </g>
        <g
           id="g136"
           transform="translate(442.6201,245.9697)">
          <path
             d="M 0,0 -1.814,-1.435 -3.062,0.314 0.879,3.368 2.242,2.645 V -12.723 H 0 Z"
             style="fill:#ffffff;fill-opacity:1;fill-rule:nonzero;stroke:none"
             id="path138" />
        </g>
        <g
           id="g140"
           transform="translate(414.0044,238.8301)">
          <path
             d="m 0,0 c 0,-0.385 -0.038,-0.768 -0.114,-1.146 -0.091,-0.41 -0.199,-0.742 -0.343,-1.043 -0.151,-0.297 -0.377,-0.544 -0.673,-0.76 -0.294,-0.207 -0.656,-0.359 -1.075,-0.435 -0.428,-0.062 -0.768,-0.073 -1.045,-0.062 -0.517,0.015 -0.96,0.125 -1.287,0.353 -0.353,0.236 -0.558,0.467 -0.642,0.747 -0.085,0.236 -0.142,0.505 -0.176,0.771 l -2.254,-0.039 0.225,-0.935 c 0.046,-0.344 0.217,-0.772 0.49,-1.222 0.268,-0.452 0.582,-0.821 0.956,-1.078 0.368,-0.275 0.83,-0.464 1.37,-0.613 0.551,-0.155 1.154,-0.211 1.822,-0.194 0.56,0 1.101,0.084 1.635,0.235 0.542,0.152 0.973,0.342 1.324,0.598 0.326,0.257 0.622,0.56 0.872,0.883 0.262,0.36 0.467,0.771 0.609,1.223 0.174,0.435 0.279,0.909 0.326,1.399 0.041,0.478 0.059,1.121 0.059,1.923 V 5.113 C 2.079,5.91 2.007,6.625 1.838,7.227 1.681,7.779 1.422,8.326 1.061,8.802 0.715,9.278 0.196,9.691 -0.482,10.059 -1.147,10.405 -1.956,10.61 -2.858,10.577 -3.394,10.538 -3.945,10.44 -4.516,10.24 -5.123,10.059 -5.605,9.783 -6.02,9.46 -6.423,9.106 -6.743,8.694 -6.956,8.23 -7.167,7.764 -7.323,7.3 -7.384,6.849 -7.473,6.396 -7.521,5.91 -7.521,5.402 c 0,-1.022 0.09,-1.789 0.291,-2.313 0.201,-0.525 0.466,-0.945 0.786,-1.286 0.308,-0.361 0.82,-0.657 1.478,-0.945 0.686,-0.284 1.505,-0.414 2.448,-0.358 0.372,0 0.722,0.045 1.069,0.105 0.338,0.068 0.627,0.16 0.841,0.253 C -0.394,0.949 -0.195,1.045 0,1.146 Z M -0.08,5.799 C -0.038,5.175 -0.066,4.628 -0.195,4.176 -0.291,3.724 -0.482,3.34 -0.748,3.055 -1.008,2.745 -1.585,2.576 -2.46,2.564 -2.778,2.55 -3.144,2.576 -3.541,2.645 -3.936,2.715 -4.28,2.879 -4.558,3.113 -4.826,3.356 -5.02,3.671 -5.15,4.064 -5.264,4.38 -5.314,4.845 -5.304,5.472 c 0,0.615 0.063,1.109 0.196,1.459 0.135,0.353 0.314,0.63 0.54,0.848 0.224,0.2 0.491,0.367 0.816,0.481 0.314,0.108 0.712,0.159 1.2,0.159 0.574,-0.022 1.035,-0.136 1.422,-0.356 0.359,-0.217 0.648,-0.532 0.832,-0.922 0.093,-0.262 0.16,-0.708 0.218,-1.342"
             style="fill:#ffffff;fill-opacity:1;fill-rule:nonzero;stroke:none"
             id="path142" />
        </g>
        <g
           id="g144"
           transform="translate(433.7422,242.8662)">
          <path
             d="M 0,0 C -0.043,0.698 -0.147,1.397 -0.293,2.097 -0.424,2.751 -0.678,3.39 -1.001,3.975 -1.349,4.576 -1.762,5.07 -2.231,5.465 -2.724,5.879 -3.232,6.171 -3.779,6.354 -4.32,6.574 -4.849,6.649 -5.35,6.669 -6.044,6.669 -6.712,6.534 -7.341,6.205 -7.977,5.902 -8.471,5.514 -8.865,5.075 -9.234,4.639 -9.568,4.12 -9.835,3.524 -10.104,2.921 -10.3,2.285 -10.441,1.574 c -0.138,-0.703 -0.213,-1.33 -0.233,-1.887 -0.019,-0.418 -0.029,-1.093 -0.019,-2.005 0.012,-0.911 0.068,-1.695 0.195,-2.339 0.131,-0.637 0.318,-1.266 0.571,-1.88 0.255,-0.615 0.593,-1.164 1.017,-1.666 0.439,-0.476 0.963,-0.848 1.6,-1.097 0.641,-0.24 1.294,-0.366 1.96,-0.366 0.696,0 1.317,0.07 1.891,0.286 0.569,0.207 1.024,0.449 1.401,0.753 0.37,0.303 0.685,0.723 0.99,1.258 0.3,0.536 0.527,1.081 0.676,1.654 0.152,0.566 0.273,1.204 0.333,1.906 0.059,0.7 0.122,1.227 0.125,1.58 C 0.081,-1.452 0.066,-0.696 0,0 m -2.136,-2.43 c -0.028,-0.501 -0.076,-1.105 -0.184,-1.804 -0.115,-0.693 -0.309,-1.28 -0.591,-1.783 -0.301,-0.505 -0.641,-0.902 -1.08,-1.124 -0.442,-0.228 -0.894,-0.341 -1.39,-0.326 -0.58,0 -1.051,0.138 -1.45,0.424 -0.389,0.259 -0.718,0.621 -0.977,1.106 -0.264,0.479 -0.453,1.062 -0.572,1.739 -0.12,0.697 -0.183,1.512 -0.206,2.509 0,0.585 0,1.062 0.039,1.447 0.032,0.401 0.102,0.904 0.237,1.516 0.122,0.6 0.301,1.141 0.561,1.647 0.237,0.469 0.556,0.852 0.975,1.124 0.41,0.274 0.888,0.408 1.441,0.408 0.546,-0.008 0.999,-0.161 1.383,-0.428 0.369,-0.252 0.695,-0.607 0.951,-1.041 0.284,-0.418 0.481,-0.951 0.627,-1.574 0.145,-0.632 0.231,-1.433 0.262,-2.463 0,-0.419 -0.017,-0.884 -0.026,-1.377"
             style="fill:#ffffff;fill-opacity:1;fill-rule:nonzero;stroke:none"
             id="path146" />
        </g>
        <g
           id="g148"
           transform="translate(466.8857,387.9038)">
          <path
             d="M 0,0 2.353,-0.153 5.281,1.66 c 0,0 0.633,0.227 -0.057,1.159 0,0 -0.463,-0.525 -1.284,-0.397 C 3.115,2.55 1.693,2.407 0.918,2.231 L 0.896,2.197 -0.979,2.407 C -0.358,2.867 -1.51,5.603 -1.51,5.603 -2.107,6.714 -2.734,6.266 -2.734,6.266 -3.48,5.738 -3.745,3.72 -3.745,3.72 L -4.415,2.7 -7.203,2.598 -10.235,3.036 c 0,0 -1.888,2.013 -2.079,-0.341 l 0.579,-1.894 c 0.02,-0.341 0.117,-0.617 0.254,-0.842 l 0.024,-0.082 0.023,0.019 c 0.564,-0.796 1.727,-0.846 2.141,-0.837 -0.859,-0.143 -4.057,-1.858 -4.057,-1.858 -4.677,-3.199 -11.028,-3.358 -11.028,-3.358 -2.015,-0.552 0.283,-1.118 0.283,-1.118 2.041,-0.46 9.689,1.372 9.689,1.372 C -3.443,-2.918 -1.872,0.13 -1.872,0.13 -1.294,0.031 -0.637,0 0,0"
             style="fill:#ffffff;fill-opacity:1;fill-rule:nonzero;stroke:none"
             id="path150" />
        </g>
        <g
           id="g152"
           transform="translate(462.0205,378.9209)">
          <path
             d="m 0,0 c 0,0 -0.945,1.918 -1.586,-0.235 0,0 -1.533,-4.678 -3.362,-4.916 0,0 -1.573,-0.728 -0.169,-1.07 0,0 3.457,1.53 5.425,1.584 0,0 1.925,1.615 -0.308,4.637"
             style="fill:#ffffff;fill-opacity:1;fill-rule:nonzero;stroke:none"
             id="path154" />
        </g>
      </g>
    </g>
  </g>
</svg>
